<?xml version="1.0" encoding="iso-8859-1"?>
<!-- Generator: Adobe Illustrator 19.0.0, SVG Export Plug-In . SVG Version: 6.00 Build 0)  -->
<svg version="1.1" id="Capa_1" xmlns="http://www.w3.org/2000/svg" xmlns:xlink="http://www.w3.org/1999/xlink" x="0px" y="0px"
	 viewBox="0 0 511.997 511.997" style="enable-background:new 0 0 511.997 511.997;" xml:space="preserve">
<g>
	<g>
		<path d="M491.492,100.882H297.815c-9.939,0-18.243,7.108-20.11,16.506H120.832c-15.694,0-28.867,11.742-30.675,27.324
			l-9.313,70.441l-6.944-11.187c-1.369-2.205-3.779-3.546-6.375-3.546h-8.873c-1.809-9.665-10.295-17.007-20.476-17.007H20.846
			C9.352,183.414,0,192.766,0,204.26v7.327c0,11.494,9.352,20.846,20.846,20.846h17.331c10.182,0,18.667-7.342,20.476-17.007h4.7
			l10.603,17.084c-11.066,4.798-19.451,14.816-21.753,27.256c-3.46,18.703-5.515,37.199-6.164,55.135
			c-0.026,0.256-0.041,0.516-0.041,0.778c0,0.029,0.004,0.057,0.004,0.086c-0.103,3.05-0.176,6.088-0.196,9.105
			c-0.066,10.059,3.791,19.52,10.862,26.637c2.512,2.529,5.326,4.644,8.356,6.327v31.595c0,11.62,9.453,21.072,21.072,21.072h39.887
			c11.62,0,21.072-9.453,21.072-21.072v-0.936h13.079c9.889,0,17.933-8.044,17.933-17.933v-8.077h83.032v8.077
			c0,9.889,8.044,17.933,17.933,17.933h13.082v0.936c0,11.62,9.453,21.072,21.072,21.072h65.678c0.135,0,0.266-0.013,0.399-0.02
			c1.401,0.418,2.847,0.632,4.3,0.632c2.177,0,4.363-0.474,6.414-1.432l22.163-10.343l-0.001,0.001
			c5.31-2.478,8.74-7.864,8.74-13.724v-68.765h6.953c11.308,0,20.508-9.2,20.508-20.508v-6.443c0-5.236-1.99-10.005-5.231-13.633
			l45.586-88.299c0.55-1.063,0.836-2.244,0.836-3.441v-36.185h1.96c11.308,0,20.508-9.2,20.508-20.508v-6.443
			C512,110.083,502.799,100.882,491.492,100.882z M44.017,211.587c0,3.22-2.62,5.84-5.84,5.84H20.846c-3.22,0-5.84-2.62-5.84-5.84
			v-7.327c0-3.22,2.62-5.84,5.84-5.84h17.331c3.22,0,5.84,2.62,5.84,5.84V211.587z M120.832,132.394h157.004
			c1.131,4.956,4.059,9.225,8.062,12.098h-180.47C107.143,137.475,113.436,132.394,120.832,132.394z M103.339,159.498h196.435v25.03
			c0,1.197,0.286,2.378,0.836,3.441l21.406,41.463H94.094L103.339,159.498z M132.051,380.991v8.439c0,3.345-2.722,6.066-6.066,6.066
			H86.097c-3.345,0-6.066-2.722-6.066-6.066v-26.946h3.014h49.006V380.991z M163.063,370.561c0,1.614-1.313,2.927-2.927,2.927
			h-13.079v-11.004h16.006V370.561z M292.114,373.488h-13.079c-1.614,0-2.927-1.314-2.927-2.927v-8.077h16.006V373.488z
			 M368.427,395.497h-55.241c-3.344,0-6.066-2.721-6.066-6.066v-8.439v-18.507h9.504h51.804V395.497z M368.428,347.477h-51.805
			h-17.007h-31.012h-98.038h-31.012H83.045c-5.949,0-11.535-2.325-15.73-6.547c-4.233-4.262-6.543-9.931-6.503-15.962
			c0.004-0.591,0.026-1.191,0.033-1.786h71.82c0.823,1.436,1.777,2.806,2.873,4.084c5.023,5.852,12.328,9.208,20.04,9.208h128.013
			c7.712,0,15.017-3.355,20.04-9.208c1.096-1.277,2.051-2.648,2.873-4.084h18.122c4.145,0,7.503-3.358,7.503-7.503
			s-3.358-7.503-7.503-7.503h-14.699c-0.051-0.705-0.12-1.411-0.228-2.115l-3.019-19.703c-1.988-12.986-12.969-22.413-26.108-22.413
			H158.598c-13.139,0-24.119,9.427-26.108,22.413l-3.019,19.703c-0.108,0.705-0.177,1.411-0.228,2.115H61.374
			c0.864-14.922,2.723-30.219,5.585-45.681c1.937-10.463,11.12-18.058,21.837-18.058h240.969l3.394,6.575
			c-11.998,2.531-21.032,13.197-21.032,25.938c0,14.618,11.893,26.51,26.51,26.51c1.188,0,2.37-0.083,3.54-0.242
			c2.835,7.932,10.403,13.633,19.297,13.633h6.953V347.477z M144.303,308.334l3.019-19.703c0.859-5.608,5.602-9.68,11.275-9.68
			h121.975c5.674,0,10.416,4.071,11.275,9.68l3.019,19.703c0.245,1.603,0.139,3.215-0.279,4.741
			c-0.076,0.205-0.144,0.414-0.202,0.627c-0.463,1.373-1.173,2.664-2.14,3.79c-2.17,2.526-5.324,3.977-8.654,3.977H155.579
			c-3.33,0-6.484-1.45-8.654-3.977c-0.966-1.125-1.677-2.418-2.14-3.79c-0.058-0.213-0.126-0.422-0.202-0.627
			C144.164,311.549,144.058,309.936,144.303,308.334z M338.637,265.446c0.702,0,1.394,0.07,2.075,0.195l5.486,10.627
			c-2.878,3.222-4.759,7.345-5.143,11.899c-0.795,0.173-1.603,0.288-2.418,0.288c-6.344,0-11.505-5.161-11.505-11.504
			C327.132,270.607,332.293,265.446,338.637,265.446z M405.795,385.743c-0.001,0-0.001,0-0.001,0l-22.222,10.365
			c-0.037-0.002-0.116-0.052-0.139-0.148v-79.107h22.441v68.765h0C405.874,385.672,405.843,385.721,405.795,385.743z
			 M433.334,296.345c0,3.033-2.468,5.502-5.502,5.502h-14.456H375.93h-14.456c-3.034,0-5.502-2.469-5.502-5.502v-6.444
			c0-3.033,2.468-5.502,5.502-5.502h66.358c3.034,0,5.502,2.469,5.502,5.502V296.345z M496.994,127.835
			c0,3.033-2.468,5.502-5.502,5.502h-37.316c-4.145,0-7.503,3.358-7.503,7.503s3.358,7.503,7.503,7.503h20.35v34.363l-44.754,86.688
			h-1.939h-66.358h-1.939l-44.754-86.688v-34.363h109.382c4.145,0,7.503-3.358,7.503-7.503s-3.358-7.503-7.503-7.503h-126.35
			c-3.034,0-5.502-2.469-5.502-5.502v-6.443c0-3.033,2.468-5.502,5.502-5.502h193.677c3.034,0,5.502,2.469,5.502,5.502V127.835z"/>
	</g>
</g>
<g>
	<g>
		<path d="M100.539,250.44c-14.618,0-26.51,11.893-26.51,26.51s11.893,26.51,26.51,26.51s26.51-11.893,26.51-26.51
			S115.157,250.44,100.539,250.44z M100.539,288.455c-6.343,0-11.504-5.161-11.504-11.504c0-6.344,5.161-11.504,11.504-11.504
			c6.344,0,11.505,5.161,11.505,11.504C112.044,283.294,106.883,288.455,100.539,288.455z"/>
	</g>
</g>
<g>
	<g>
		<path d="M137.553,168.408c-2.485-3.314-7.19-3.987-10.504-1.501l-16.006,12.005c-3.314,2.486-3.987,7.19-1.501,10.504
			c1.475,1.966,3.727,3.001,6.008,3.001c1.566,0,3.147-0.488,4.496-1.501l16.006-12.005
			C139.367,176.427,140.039,171.723,137.553,168.408z"/>
	</g>
</g>
<g>
	<g>
		<path d="M170.125,174.993c-2.442-3.35-7.136-4.085-10.482-1.642l-48.019,35.014c-3.348,2.441-4.083,7.135-1.642,10.483
			c1.469,2.015,3.753,3.083,6.067,3.083c1.534,0,3.081-0.469,4.415-1.442l48.019-35.014
			C171.832,183.035,172.566,178.341,170.125,174.993z"/>
	</g>
</g>
<g>
	<g>
		<path d="M180.57,292.457h-14.005c-4.145,0-7.503,3.358-7.503,7.503c0,4.145,3.358,7.503,7.503,7.503h14.005
			c4.145,0,7.503-3.358,7.503-7.503C188.073,295.815,184.715,292.457,180.57,292.457z"/>
	</g>
</g>
<g>
	<g>
		<path d="M275.607,292.457H204.58c-4.145,0-7.503,3.358-7.503,7.503c0,4.145,3.358,7.503,7.503,7.503h71.028
			c4.145,0,7.503-3.358,7.503-7.503C283.11,295.815,279.752,292.457,275.607,292.457z"/>
	</g>
</g>
<g>
</g>
<g>
</g>
<g>
</g>
<g>
</g>
<g>
</g>
<g>
</g>
<g>
</g>
<g>
</g>
<g>
</g>
<g>
</g>
<g>
</g>
<g>
</g>
<g>
</g>
<g>
</g>
<g>
</g>
</svg>
