<?xml version="1.0" encoding="iso-8859-1"?>
<!-- Generator: Adobe Illustrator 19.0.0, SVG Export Plug-In . SVG Version: 6.00 Build 0)  -->
<svg version="1.1" id="Capa_1" xmlns="http://www.w3.org/2000/svg" xmlns:xlink="http://www.w3.org/1999/xlink" x="0px" y="0px"
	 viewBox="0 0 511.997 511.997" style="enable-background:new 0 0 511.997 511.997;" xml:space="preserve">
<g>
	<g>
		<path d="M179.851,293.071h-14.027c-4.151,0-7.515,3.364-7.515,7.515s3.364,7.515,7.515,7.515h14.027
			c4.151,0,7.515-3.364,7.515-7.515S184.002,293.071,179.851,293.071z"/>
	</g>
</g>
<g>
	<g>
		<path d="M224.939,293.071h-21.041c-4.151,0-7.515,3.364-7.515,7.515s3.364,7.515,7.515,7.515h21.041
			c4.151,0,7.515-3.364,7.515-7.515S229.09,293.071,224.939,293.071z"/>
	</g>
</g>
<g>
	<g>
		<path d="M100.697,250.989c-14.641,0-26.552,11.911-26.552,26.552c0,14.641,11.911,26.552,26.552,26.552
			c14.641,0,26.552-11.911,26.552-26.552C127.249,262.9,115.337,250.989,100.697,250.989z M100.697,289.063
			c-6.353,0-11.522-5.169-11.522-11.523c0-6.353,5.169-11.522,11.522-11.522c6.353,0,11.523,5.169,11.523,11.522
			C112.219,283.894,107.05,289.063,100.697,289.063z"/>
	</g>
</g>
<g>
	<g>
		<path d="M137.769,168.828c-2.49-3.32-7.201-3.993-10.521-1.503l-16.031,12.023c-3.32,2.49-3.993,7.201-1.503,10.521
			c1.477,1.969,3.733,3.006,6.018,3.006c1.568,0,3.152-0.489,4.503-1.503l16.031-12.023
			C139.586,176.859,140.259,172.148,137.769,168.828z"/>
	</g>
</g>
<g>
	<g>
		<path d="M170.393,175.422c-2.445-3.356-7.149-4.09-10.5-1.644l-48.094,35.068c-3.354,2.445-4.089,7.146-1.644,10.5
			c1.471,2.018,3.758,3.088,6.077,3.088c1.536,0,3.086-0.47,4.422-1.444l48.094-35.068
			C172.102,183.476,172.838,178.776,170.393,175.422z"/>
	</g>
</g>
<g>
	<g>
		<path d="M473.862,190.254c-0.166-0.419-0.369-0.822-0.606-1.204c-19.071-36.967-57.647-62.304-102.03-62.304
			s-82.959,25.336-102.029,62.304c-0.237,0.383-0.441,0.786-0.606,1.204c-7.729,15.426-12.089,32.82-12.089,51.216
			c0,3.127,0.13,6.223,0.378,9.288c0.002,0.02,0.003,0.04,0.005,0.06c1.928,23.796,11.15,45.563,25.422,63.057
			c0.322,0.502,0.709,0.968,1.156,1.392c8.44,10.022,18.56,18.582,29.924,25.244c0.033,0.024,0.062,0.052,0.096,0.076
			c0.433,0.307,0.888,0.559,1.356,0.761c16.663,9.444,35.905,14.846,56.388,14.846c20.532,0,39.819-5.427,56.509-14.914
			c0.424-0.193,0.84-0.415,1.233-0.693c0.034-0.024,0.063-0.051,0.096-0.076c11.362-6.661,21.481-15.221,29.921-25.24
			c0.449-0.426,0.84-0.894,1.162-1.399c14.27-17.493,23.491-39.258,25.419-63.053c0.001-0.021,0.002-0.041,0.004-0.061
			c0.247-3.064,0.378-6.161,0.378-9.288C485.949,223.074,481.59,205.68,473.862,190.254z M292.817,290.906l-4.332,6.122
			c-7.853-11.657-13.304-25.057-15.653-39.486h2.723c8.058,0,15.079,4.273,18.782,11.429
			C298.041,276.128,297.473,284.327,292.817,290.906z M371.225,341.165c-15.109,0-29.438-3.385-42.283-9.424l17.896-25.304
			c5.673-8.022,14.561-12.623,24.387-12.623s18.714,4.601,24.387,12.623l17.896,25.304
			C400.664,337.78,386.333,341.165,371.225,341.165z M453.966,297.027l-4.332-6.121c-4.655-6.577-5.224-14.777-1.522-21.935
			c3.702-7.157,10.724-11.429,18.783-11.429h2.723C467.27,271.97,461.818,285.37,453.966,297.027z M470.907,242.512h-4.012
			c-13.58,0-25.892,7.493-32.131,19.553c-6.239,12.061-5.242,26.439,2.602,37.523l6.863,9.698
			c-5.255,5.65-11.152,10.695-17.578,15.01l-18.77-26.54c-8.528-12.058-21.889-18.973-36.657-18.973s-28.129,6.914-36.657,18.973
			l-18.77,26.54c-6.428-4.314-12.324-9.359-17.577-15.01l6.863-9.698c7.844-11.085,8.841-25.462,2.602-37.522
			c-6.239-12.061-18.552-19.553-32.131-19.553h-4.012c-0.004-0.349-0.014-0.694-0.014-1.043c0-15.03,3.351-29.291,9.332-42.084
			c34.802-9.228,70.063-13.171,104.858-11.689c4.136,0.174,7.651-3.041,7.828-7.188c0.177-4.147-3.041-7.652-7.188-7.828
			c-31.377-1.334-63.088,1.552-94.524,8.559c18.225-23.964,47.029-39.465,79.388-39.465c32.355,0,61.155,15.497,79.381,39.455
			c-11.205-2.499-22.466-4.489-33.654-5.929c-4.105-0.536-7.882,2.377-8.412,6.494c-0.53,4.116,2.378,7.882,6.494,8.412
			c15.489,1.994,31.131,5.086,46.552,9.175c5.984,12.795,9.334,27.057,9.334,42.088C470.92,241.819,470.91,242.164,470.907,242.512z
			"/>
	</g>
</g>
<g>
	<g>
		<path d="M371.225,100.695c-24.27,0-47.125,6.174-67.078,17.033H121.021c-15.719,0-28.912,11.76-30.723,27.366l-9.327,70.552
			l-6.955-11.205c-1.371-2.208-3.785-3.552-6.384-3.552h-8.887c-1.812-9.68-10.311-17.033-20.508-17.033H20.879
			C9.366,183.858,0,193.224,0,204.736v7.338c0,11.512,9.366,20.879,20.879,20.879h17.358c10.198,0,18.696-7.353,20.508-17.033h4.707
			l10.62,17.11c-11.084,4.805-19.481,14.839-21.788,27.298c-3.466,18.733-5.524,37.258-6.174,55.222
			c-0.026,0.256-0.041,0.517-0.041,0.78c0,0.029,0.004,0.057,0.004,0.086c-0.103,3.055-0.176,6.098-0.196,9.119
			c-0.066,10.075,3.797,19.55,10.879,26.679c2.516,2.533,5.334,4.651,8.369,6.337v31.645c0,11.638,9.467,21.105,21.105,21.105
			h39.949c11.638,0,21.105-9.467,21.105-21.105v-0.938h13.1c9.904,0,17.961-8.057,17.961-17.961v-8.09h122.254
			c20.773,12.098,44.902,19.037,70.623,19.037c77.624,0,140.775-63.151,140.775-140.775S448.849,100.695,371.225,100.695z
			 M44.086,212.075c0,3.225-2.624,5.849-5.849,5.849H20.879c-3.225,0-5.849-2.624-5.849-5.849v-7.338
			c0-3.225,2.624-5.849,5.849-5.849h17.358c3.225,0,5.849,2.624,5.849,5.849V212.075z M121.021,132.758h160.863
			c-4.573,3.764-8.901,7.814-12.966,12.117H105.594C107.311,137.847,113.614,132.758,121.021,132.758z M103.501,159.904H256.55
			c-14.328,20.086-23.512,44.08-25.626,70.044H94.241L103.501,159.904z M132.258,381.744v8.453c0,3.351-2.726,6.076-6.076,6.076
			h-39.95c-3.351,0-6.076-2.726-6.076-6.076v-26.989h3.019h49.083V381.744z M163.319,371.298c0,1.616-1.316,2.932-2.932,2.932h-13.1
			v-11.021h16.031V371.298z M170.834,348.179h-31.061H83.175c-5.959,0-11.554-2.329-15.755-6.557
			c-4.239-4.268-6.553-9.946-6.513-15.987c0.004-0.593,0.026-1.194,0.033-1.789h71.932c0.825,1.438,1.779,2.81,2.878,4.09
			c5.031,5.861,12.347,9.222,20.071,9.222h82.142c4.151,0,7.515-3.364,7.515-7.515c0-4.151-3.364-7.515-7.515-7.515h-82.141
			c-3.336,0-6.495-1.452-8.668-3.983c-0.969-1.128-1.68-2.423-2.144-3.797c-0.058-0.212-0.125-0.421-0.201-0.626
			c-0.419-1.528-0.526-3.144-0.28-4.749l3.024-19.733c0.861-5.617,5.611-9.695,11.293-9.695h62.084c4.151,0,7.515-3.364,7.515-7.515
			s-3.364-7.515-7.515-7.515h-62.085c-13.16,0-24.157,9.441-26.149,22.448l-3.024,19.735c-0.108,0.706-0.177,1.413-0.228,2.118
			H61.47c0.866-14.945,2.727-30.266,5.594-45.752c1.94-10.48,11.138-18.086,21.872-18.086h141.559
			c1.013,41.207,19.822,78.075,49.014,103.202H170.834z M371.225,367.216c-69.336,0-125.746-56.409-125.746-125.746
			s56.409-125.746,125.746-125.746s125.746,56.409,125.746,125.746S440.561,367.216,371.225,367.216z"/>
	</g>
</g>
<g>
	<g>
		<path d="M371.225,203.897c-16.85,0-30.56,11.911-30.56,26.552c0,14.641,13.71,26.552,30.56,26.552s30.56-11.911,30.56-26.552
			C401.785,215.808,388.075,203.897,371.225,203.897z M371.225,241.971c-8.418,0-15.53-5.277-15.53-11.523
			c0-6.245,7.112-11.522,15.53-11.522s15.53,5.277,15.53,11.522C386.755,236.694,379.643,241.971,371.225,241.971z"/>
	</g>
</g>
<g>
	<g>
		<path d="M303.092,210.91h-12.023c-4.151,0-7.515,3.364-7.515,7.515c0,4.151,3.364,7.515,7.515,7.515h12.023
			c4.151,0,7.515-3.364,7.515-7.515C310.607,214.274,307.243,210.91,303.092,210.91z"/>
	</g>
</g>
<g>
	<g>
		<path d="M330.145,210.91h-5.01c-4.151,0-7.515,3.364-7.515,7.515c0,4.151,3.364,7.515,7.515,7.515h5.01
			c4.151,0,7.515-3.364,7.515-7.515C337.659,214.274,334.296,210.91,330.145,210.91z"/>
	</g>
</g>
<g>
	<g>
		<path d="M451.382,210.91h-12.023c-4.151,0-7.515,3.364-7.515,7.515c0,4.151,3.364,7.515,7.515,7.515h12.023
			c4.151,0,7.515-3.364,7.515-7.515C458.896,214.274,455.533,210.91,451.382,210.91z"/>
	</g>
</g>
<g>
	<g>
		<path d="M417.315,210.91h-5.01c-4.151,0-7.515,3.364-7.515,7.515c0,4.151,3.364,7.515,7.515,7.515h5.01
			c4.151,0,7.515-3.364,7.515-7.515C424.83,214.274,421.466,210.91,417.315,210.91z"/>
	</g>
</g>
<g>
</g>
<g>
</g>
<g>
</g>
<g>
</g>
<g>
</g>
<g>
</g>
<g>
</g>
<g>
</g>
<g>
</g>
<g>
</g>
<g>
</g>
<g>
</g>
<g>
</g>
<g>
</g>
<g>
</g>
</svg>
