<?xml version="1.0" encoding="iso-8859-1"?>
<!-- Generator: Adobe Illustrator 19.0.0, SVG Export Plug-In . SVG Version: 6.00 Build 0)  -->
<svg version="1.1" id="Capa_1" xmlns="http://www.w3.org/2000/svg" xmlns:xlink="http://www.w3.org/1999/xlink" x="0px" y="0px"
	 viewBox="0 0 512 512" style="enable-background:new 0 0 512 512;" xml:space="preserve">
<g>
	<g>
		<path d="M100.466,264.748c-14.607,0-26.491,11.884-26.491,26.491s11.884,26.491,26.491,26.491s26.491-11.884,26.491-26.491
			S115.073,264.748,100.466,264.748z M100.466,302.735c-6.339,0-11.496-5.157-11.496-11.496s5.157-11.496,11.496-11.496
			s11.496,5.157,11.496,11.496S106.805,302.735,100.466,302.735z"/>
	</g>
</g>
<g>
	<g>
		<path d="M137.454,182.775c-2.484-3.313-7.185-3.983-10.496-1.499l-15.995,11.996c-3.312,2.484-3.984,7.185-1.5,10.496
			c1.474,1.964,3.725,2.999,6.004,2.999c1.565,0,3.144-0.488,4.492-1.5l15.995-11.996
			C139.266,190.788,139.938,186.087,137.454,182.775z"/>
	</g>
</g>
<g>
	<g>
		<path d="M170.003,189.354c-2.439-3.346-7.128-4.082-10.475-1.64l-47.984,34.988c-3.346,2.439-4.081,7.13-1.64,10.475
			c1.467,2.013,3.75,3.081,6.064,3.081c1.531,0,3.078-0.469,4.412-1.44l47.984-34.988C171.708,197.39,172.442,192.7,170.003,189.354
			z"/>
	</g>
</g>
<g>
	<g>
		<path d="M180.439,306.733h-13.995c-4.141,0-7.497,3.356-7.497,7.497s3.357,7.497,7.497,7.497h13.995
			c4.141,0,7.497-3.356,7.497-7.497S184.58,306.733,180.439,306.733z"/>
	</g>
</g>
<g>
	<g>
		<path d="M275.407,306.733h-70.976c-4.141,0-7.497,3.356-7.497,7.497s3.357,7.497,7.497,7.497h70.976
			c4.142,0,7.497-3.356,7.497-7.497S279.549,306.733,275.407,306.733z"/>
	</g>
</g>
<g>
	<g>
		<path d="M501.154,61.816h-14.818c-55.996,0-105.655,27.635-136.071,69.976h-229.52c-15.683,0-28.847,11.732-30.652,27.304
			l-9.307,70.391l-6.939-11.179c-1.368-2.203-3.777-3.544-6.37-3.544H58.61c-1.807-9.658-10.288-16.994-20.461-16.994H20.831
			C9.345,197.77,0,207.115,0,218.601v7.322c0,11.486,9.345,20.831,20.831,20.831h17.318c10.175,0,18.654-7.336,20.461-16.994h4.696
			l10.595,17.071c-11.058,4.793-19.437,14.805-21.737,27.236c-3.459,18.69-5.511,37.17-6.16,55.09
			c-0.027,0.258-0.041,0.519-0.041,0.783c0,0.031,0.004,0.061,0.005,0.091c-0.103,3.046-0.176,6.081-0.196,9.092
			c-0.066,10.053,3.79,19.505,10.855,26.619c2.51,2.526,5.322,4.639,8.349,6.322v31.572c0,11.611,9.447,21.057,21.057,21.057h39.858
			c11.611,0,21.057-9.446,21.057-21.057V402.7h13.07c9.882,0,17.92-8.038,17.92-17.92v-8.071h82.972v8.071
			c0,9.882,8.038,17.92,17.92,17.92h13.071v0.936c0,11.611,9.446,21.057,21.057,21.057h39.793c1.714,4.684,4.323,9.049,7.753,12.802
			c7.374,8.064,17.894,12.69,28.863,12.69c10.969,0,21.49-4.625,28.863-12.69c7.297-7.98,10.931-18.718,9.968-29.456l-4.603-51.323
			h13.117c22.127,0,40.127-18.001,40.127-40.127v-61.403c0-8.36-6.69-15.174-14.995-15.407V229.26
			c0-13.505,10.986-24.492,24.492-24.492c0.005,0,0.01,0,0.015,0l14.825-0.028c5.969-0.013,10.824-4.878,10.824-10.846V72.662
			C512,66.682,507.135,61.816,501.154,61.816z M43.985,225.924c0,3.218-2.618,5.836-5.836,5.836H20.831
			c-3.218,0-5.836-2.618-5.836-5.836v-7.322c0-3.218,2.618-5.836,5.836-5.836h17.318c3.218,0,5.836,2.618,5.836,5.836V225.924z
			 M120.744,146.787h219.912c-2.235,3.934-4.313,7.966-6.231,12.089H105.352C107.064,151.865,113.353,146.787,120.744,146.787z
			 M103.264,173.871h225.055c-6.098,17.346-9.427,35.985-9.427,55.388v10.518c-3.802,0.106-7.256,1.591-9.893,3.977H94.025
			L103.264,173.871z M131.955,395.203v8.433c0,3.343-2.72,6.062-6.062,6.062H86.035c-3.343,0-6.062-2.72-6.062-6.062V376.71h3.012
			h48.97V395.203z M162.945,384.782c0,1.612-1.313,2.925-2.925,2.925h-13.07v-10.996h15.995V384.782z M291.901,387.706h-13.07
			c-1.612,0-2.925-1.313-2.925-2.925v-8.071h15.995V387.706z M350.539,408.039c-0.05,0.554-0.079,1.107-0.105,1.659h-37.474
			c-3.343,0-6.063-2.719-6.063-6.062v-8.433V376.71h9.497h36.956L350.539,408.039z M354.694,361.714h-38.301h-16.994h-30.99h-97.967
			h-30.99H82.985c-5.945,0-11.527-2.323-15.718-6.542c-4.231-4.259-6.539-9.924-6.499-15.951c0.004-0.591,0.026-1.191,0.033-1.784
			h71.768c0.822,1.435,1.775,2.804,2.87,4.08c5.02,5.848,12.32,9.202,20.027,9.202h132.936c4.142,0,7.497-3.356,7.497-7.497
			s-3.356-7.497-7.497-7.497H155.466c-3.329,0-6.481-1.448-8.649-3.975c-0.967-1.126-1.676-2.418-2.139-3.791
			c-0.058-0.211-0.125-0.417-0.199-0.619c-0.419-1.525-0.525-3.138-0.279-4.74l3.016-19.688c0.859-5.604,5.597-9.673,11.267-9.673
			h125.92c4.142,0,7.497-3.356,7.497-7.497s-3.356-7.497-7.497-7.497H158.482c-13.129,0-24.101,9.419-26.089,22.396l-3.016,19.688
			c-0.108,0.705-0.177,1.41-0.228,2.113h-67.82c0.864-14.91,2.722-30.196,5.581-45.649c1.934-10.455,11.112-18.044,21.822-18.044
			h215.165v57.839c0,22.127,18.001,40.127,40.127,40.127h11.117L354.694,361.714z M461.844,255.185v12.562h-37.487
			c-4.142,0-7.497,3.356-7.497,7.497c0,4.142,3.356,7.497,7.497,7.497h37.487v33.848c0,13.858-11.274,25.133-25.133,25.133h-21.317
			c-2.104,0-4.113,0.885-5.533,2.438c-1.42,1.553-2.122,3.633-1.934,5.728l5.337,59.49c0.597,6.652-1.57,13.045-6.1,17.998
			c-4.606,5.039-10.927,7.813-17.797,7.813s-13.19-2.774-17.797-7.813c-4.529-4.953-6.696-11.346-6.1-17.998l4.724-52.662h18.213
			c4.142,0,7.497-3.356,7.497-7.497s-3.356-7.497-7.497-7.497H363.34h-0.92h-18.398c-13.857,0-25.133-11.274-25.133-25.133v-33.557
			h82.472c4.142,0,7.497-3.356,7.497-7.497s-3.356-7.497-7.497-7.497h-82.47v-12.852c0-0.239,0.194-0.434,0.434-0.434h7.064h127.957
			h7.064C461.649,254.751,461.844,254.945,461.844,255.185z M497.005,189.751l-10.684,0.022
			c-21.765,0.009-39.472,17.719-39.472,39.487v10.496h-16.994V229.26c0-14.048,5.191-27.512,14.618-37.913
			c2.781-3.068,2.548-7.81-0.52-10.59c-3.068-2.781-7.81-2.548-10.59,0.52c-11.933,13.165-18.504,30.206-18.504,47.984v10.496
			h-17.994V229.26c0-49.334,40.135-89.47,89.47-89.47h10.669v17.994h-10.668c-8.565,0-16.958,1.508-24.946,4.483
			c-3.881,1.446-5.854,5.763-4.409,9.643c1.125,3.018,3.985,4.882,7.027,4.882c0.87,0,1.753-0.152,2.616-0.474
			c6.308-2.35,12.939-3.541,19.711-3.541h10.669V189.751z M497.005,91.806h-10.669c-59.093,0-111.455,37.605-130.297,93.575
			c-1.321,3.925,0.79,8.176,4.714,9.498c0.793,0.267,1.599,0.394,2.393,0.394c3.131,0,6.051-1.977,7.105-5.107
			c16.784-49.863,63.436-83.365,116.085-83.365h10.669v17.994h-10.669c-57.602,0-104.465,46.863-104.465,104.465v10.496h-17.994
			V229.26c0-3.536,0.162-7.185,0.483-10.842c0.361-4.125-2.689-7.762-6.815-8.123c-4.118-0.358-7.761,2.689-8.123,6.815
			c-0.358,4.092-0.54,8.179-0.54,12.15v10.496h-14.995v-10.496c0-84.059,68.388-152.448,152.448-152.448h10.669V91.806z"/>
	</g>
</g>
<g>
	<g>
		<circle cx="388.369" cy="409.203" r="9.997"/>
	</g>
</g>
<g>
</g>
<g>
</g>
<g>
</g>
<g>
</g>
<g>
</g>
<g>
</g>
<g>
</g>
<g>
</g>
<g>
</g>
<g>
</g>
<g>
</g>
<g>
</g>
<g>
</g>
<g>
</g>
<g>
</g>
</svg>
