<?xml version="1.0" encoding="iso-8859-1"?>
<!-- Generator: Adobe Illustrator 19.0.0, SVG Export Plug-In . SVG Version: 6.00 Build 0)  -->
<svg version="1.1" id="Capa_1" xmlns="http://www.w3.org/2000/svg" xmlns:xlink="http://www.w3.org/1999/xlink" x="0px" y="0px"
	 viewBox="0 0 512 512" style="enable-background:new 0 0 512 512;" xml:space="preserve">
<g>
	<g>
		<path d="M180.5,305.501h-14c-4.142,0-7.5,3.357-7.5,7.5s3.358,7.5,7.5,7.5h14c4.142,0,7.5-3.357,7.5-7.5
			S184.642,305.501,180.5,305.501z"/>
	</g>
</g>
<g>
	<g>
		<path d="M275.5,305.501h-71c-4.142,0-7.5,3.357-7.5,7.5s3.358,7.5,7.5,7.5h71c4.142,0,7.5-3.357,7.5-7.5
			S279.642,305.501,275.5,305.501z"/>
	</g>
</g>
<g>
	<g>
		<path d="M100.5,263.501c-14.612,0-26.5,11.888-26.5,26.5s11.888,26.5,26.5,26.5s26.5-11.888,26.5-26.5
			S115.112,263.501,100.5,263.501z M100.5,301.501c-6.341,0-11.5-5.159-11.5-11.5s5.159-11.5,11.5-11.5s11.5,5.159,11.5,11.5
			S106.841,301.501,100.5,301.501z"/>
	</g>
</g>
<g>
	<g>
		<path d="M137.5,181.501c-2.485-3.314-7.186-3.984-10.5-1.5l-16,12c-3.313,2.485-3.985,7.187-1.5,10.5c1.474,1.965,3.726,3,6.006,3
			c1.566,0,3.145-0.488,4.494-1.5l16-12C139.313,189.516,139.985,184.814,137.5,181.501z"/>
	</g>
</g>
<g>
	<g>
		<path d="M170.06,188.082c-2.441-3.347-7.131-4.083-10.479-1.641l-48,35c-3.347,2.44-4.082,7.132-1.641,10.479
			c1.468,2.014,3.751,3.082,6.066,3.082c1.532,0,3.079-0.469,4.413-1.441l48-35C171.766,196.121,172.501,191.428,170.06,188.082z"/>
	</g>
</g>
<g>
	<g>
		<path d="M510.973,150.761c-0.35-4.127-3.974-7.192-8.108-6.838c-27.982,2.376-53.922,15.087-73.041,35.791
			C410.592,200.54,400,227.634,400,256.001c0,20.486,5.564,40.544,16.092,58.004c1.409,2.336,3.888,3.628,6.43,3.628
			c1.318,0,2.654-0.348,3.865-1.078c3.547-2.139,4.689-6.748,2.55-10.296C419.82,291.137,415,273.757,415,256.001
			c0-24.584,9.178-48.063,25.844-66.111c16.572-17.945,39.048-28.963,63.291-31.021
			C508.262,158.519,511.324,154.889,510.973,150.761z"/>
	</g>
</g>
<g>
	<g>
		<path d="M504.135,353.134c-21.577-1.833-41.452-10.561-57.476-25.239c-3.054-2.798-7.797-2.589-10.596,0.464
			c-2.798,3.055-2.59,7.799,0.464,10.597c18.49,16.938,41.429,27.009,66.338,29.124c0.216,0.019,0.431,0.027,0.643,0.027
			c3.855,0,7.133-2.954,7.465-6.865C511.324,357.113,508.262,353.483,504.135,353.134z"/>
	</g>
</g>
<g>
	<g>
		<path d="M504.5,66.501h-17.013c-11.297,0-20.487,9.19-20.487,20.486v6.188c-14.311,3.813-28.01,9.493-40.861,16.945l-4.39-4.391
			c-7.987-7.986-20.984-7.986-28.973,0.001l-6.662,6.662c-2.929,2.929-2.928,7.678,0,10.606c2.93,2.928,7.677,2.929,10.607-0.001
			l6.661-6.661c2.14-2.141,5.62-2.14,7.76-0.001l8.542,8.542c1.447,1.448,3.368,2.197,5.306,2.197c1.375,0,2.758-0.377,3.987-1.149
			c14.59-9.165,30.469-15.749,47.194-19.569c3.411-0.779,5.83-3.813,5.83-7.312V86.987c0-3.025,2.461-5.486,5.487-5.486H504.5
			c4.142,0,7.5-3.357,7.5-7.5S508.642,66.501,504.5,66.501z"/>
	</g>
</g>
<g>
	<g>
		<path d="M504.5,430.501h-17.013c-3.025,0-5.487-2.461-5.487-5.486v-12.059c0-3.499-2.419-6.532-5.83-7.312
			c-16.725-3.82-32.604-10.404-47.194-19.569c-2.963-1.862-6.819-1.429-9.292,1.048l-8.542,8.541c-2.139,2.141-5.619,2.142-7.76,0
			l-31.279-31.279c-0.524-0.95-1.252-1.769-2.119-2.411c-0.479-0.826-0.754-1.755-0.754-2.735c0-1.466,0.57-2.844,1.607-3.88
			l8.542-8.541c2.474-2.475,2.909-6.33,1.048-9.293c-9.166-14.592-15.75-30.471-19.57-47.194c-0.779-3.411-3.813-5.83-7.312-5.83
			h-12.058c-3.025,0-5.487-2.461-5.487-5.486v-46.027c0-3.025,2.461-5.486,5.487-5.486h12.058c3.499,0,6.533-2.419,7.312-5.83
			c3.82-16.724,10.405-32.603,19.57-47.194c1.861-2.963,1.426-6.818-1.048-9.293l-8.542-8.541c-1.037-1.036-1.607-2.414-1.607-3.88
			c0-1.465,0.57-2.843,1.607-3.879l4.642-4.642c2.929-2.929,2.929-7.678,0-10.606c-2.93-2.93-7.678-2.929-10.607-0.001l-4.642,4.642
			c-3.87,3.869-6,9.015-6,14.486c0,5.473,2.131,10.618,6,14.487l4.39,4.389c-7.452,12.854-13.133,26.553-16.946,40.862h-6.188
			c-11.296,0-20.487,9.19-20.487,20.486v9.514H94.057l9.243-69.907h210.2c4.142,0,7.5-3.357,7.5-7.5s-3.358-7.5-7.5-7.5H105.388
			c1.712-7.015,8.003-12.093,15.397-12.093h205.821c4.396,0,8.132,3.144,8.886,7.474c0.709,4.081,4.589,6.814,8.675,6.104
			c4.081-0.71,6.813-4.594,6.104-8.674c-2.006-11.533-11.958-19.903-23.664-19.903H120.785c-15.688,0-28.856,11.735-30.662,27.311
			l-9.31,70.417l-6.941-11.183c-1.368-2.204-3.778-3.545-6.372-3.545h-8.87c-1.808-9.661-10.291-17-20.468-17H20.838
			C9.348,196.501,0,205.849,0,217.339v7.324c0,11.49,9.348,20.838,20.838,20.838h17.324c10.178,0,18.66-7.339,20.468-17h4.698
			l10.599,17.077c-11.062,4.795-19.444,14.81-21.744,27.245c-3.459,18.696-5.513,37.183-6.162,55.109
			c-0.027,0.258-0.041,0.519-0.041,0.783c0,0.031,0.004,0.061,0.005,0.091c-0.103,3.047-0.176,6.083-0.196,9.095
			c-0.066,10.056,3.791,19.512,10.859,26.628c2.511,2.527,5.324,4.641,8.352,6.324v31.583c0,11.615,9.45,21.064,21.064,21.064
			h39.871c11.615,0,21.064-9.449,21.064-21.064v-0.935h13.074c9.885,0,17.926-8.041,17.926-17.926v-8.074h83v8.074
			c0,9.885,8.042,17.926,17.926,17.926H292v0.936c0,11.615,9.45,21.064,21.064,21.064h44.048c9.312,0,16.887-7.576,16.887-16.888
			v-7.188c0-4.143-3.358-7.5-7.5-7.5c-4.142,0-7.5,3.357-7.5,7.5v7.188c0,1.041-0.847,1.888-1.887,1.888h-44.048
			c-3.344,0-6.064-2.721-6.064-6.064v-8.436v-18.5h9.5h45.506l30.77,30.771c7.989,7.987,20.986,7.987,28.973-0.001l4.39-4.39
			c12.852,7.452,26.551,13.133,40.861,16.945v6.188c0,11.296,9.19,20.486,20.487,20.486H504.5c4.142,0,7.5-3.357,7.5-7.5
			S508.642,430.501,504.5,430.501z M44,224.663c0,3.219-2.619,5.838-5.838,5.838H20.838c-3.219,0-5.838-2.619-5.838-5.838v-7.324
			c0-3.219,2.619-5.838,5.838-5.838h17.324c3.219,0,5.838,2.619,5.838,5.838V224.663z M132,394.001v8.436
			c0,3.344-2.721,6.064-6.064,6.064H86.064c-3.344,0-6.064-2.721-6.064-6.064v-26.936h3.013H132V394.001z M163,383.574
			c0,1.613-1.313,2.926-2.926,2.926H147v-11h16V383.574z M292,386.501h-13.074c-1.614,0-2.926-1.313-2.926-2.926v-8.074h16V386.501z
			 M360.23,344.751c-3.87,3.869-6,9.015-6,14.487c0,0.424,0.036,0.842,0.061,1.262H316.5h-17v0.001h-31h-98h-31H83.013
			c-5.947,0-11.531-2.324-15.723-6.544c-4.232-4.26-6.541-9.927-6.501-15.956c0.004-0.592,0.026-1.192,0.033-1.786h71.792
			c0.822,1.435,1.775,2.805,2.871,4.081c5.022,5.85,12.324,9.205,20.034,9.205h127.962c7.71,0,15.012-3.355,20.034-9.205
			c1.096-1.276,2.049-2.646,2.871-4.081H331.5c4.142,0,7.5-3.357,7.5-7.5s-3.358-7.5-7.5-7.5h-21.693
			c-0.051-0.705-0.12-1.41-0.228-2.114l-3.017-19.695c-1.989-12.983-12.965-22.405-26.098-22.405H158.536
			c-13.133,0-24.109,9.422-26.098,22.404l-3.017,19.695c-0.108,0.705-0.177,1.41-0.228,2.114H61.35
			c0.864-14.915,2.723-30.206,5.583-45.664c1.935-10.459,11.116-18.05,21.829-18.05H321v21.514c0,11.296,9.19,20.486,20.487,20.486
			h6.188c3.812,14.31,9.493,28.009,16.945,40.862L360.23,344.751z M144.248,321.371l3.017-19.695
			c0.859-5.606,5.599-9.676,11.271-9.676h121.928c5.672,0,10.412,4.069,11.271,9.676l3.017,19.695
			c0.246,1.604,0.139,3.216-0.279,4.742c-0.075,0.203-0.142,0.408-0.199,0.619c-0.462,1.373-1.173,2.666-2.14,3.792
			c-2.169,2.526-5.323,3.976-8.652,3.976H155.519c-3.33,0-6.483-1.449-8.652-3.976c-0.967-1.126-1.677-2.419-2.14-3.792
			c-0.058-0.211-0.124-0.417-0.199-0.619C144.109,324.587,144.002,322.975,144.248,321.371z"/>
	</g>
</g>
<g>
</g>
<g>
</g>
<g>
</g>
<g>
</g>
<g>
</g>
<g>
</g>
<g>
</g>
<g>
</g>
<g>
</g>
<g>
</g>
<g>
</g>
<g>
</g>
<g>
</g>
<g>
</g>
<g>
</g>
</svg>
