<?xml version="1.0" encoding="iso-8859-1"?>
<!-- Generator: Adobe Illustrator 19.0.0, SVG Export Plug-In . SVG Version: 6.00 Build 0)  -->
<svg version="1.1" id="Capa_1" xmlns="http://www.w3.org/2000/svg" xmlns:xlink="http://www.w3.org/1999/xlink" x="0px" y="0px"
	 viewBox="0 0 511.999 511.999" style="enable-background:new 0 0 511.999 511.999;" xml:space="preserve">
<g>
	<g>
		<path d="M180.5,305.999h-14c-4.143,0-7.5,3.357-7.5,7.5s3.357,7.5,7.5,7.5h14c4.143,0,7.5-3.357,7.5-7.5
			S184.643,305.999,180.5,305.999z"/>
	</g>
</g>
<g>
	<g>
		<path d="M275.5,305.999h-71c-4.143,0-7.5,3.357-7.5,7.5s3.357,7.5,7.5,7.5h71c4.143,0,7.5-3.357,7.5-7.5
			S279.643,305.999,275.5,305.999z"/>
	</g>
</g>
<g>
	<g>
		<path d="M100.5,263.999c-14.612,0-26.5,11.888-26.5,26.5s11.888,26.5,26.5,26.5s26.5-11.888,26.5-26.5
			S115.112,263.999,100.5,263.999z M100.5,301.999c-6.341,0-11.5-5.159-11.5-11.5s5.159-11.5,11.5-11.5s11.5,5.159,11.5,11.5
			S106.841,301.999,100.5,301.999z"/>
	</g>
</g>
<g>
	<g>
		<path d="M483.478,319.012c-1.389-1.294-3.215-2.013-5.112-2.013H475v-21.822c0-7.474-5.101-13.762-12-15.611v-58.067
			c0-1.369-0.375-2.712-1.084-3.883L451,199.577v-20.144l3.817-2.318c4.049-2.457,6.485-6.926,6.358-11.661
			c-0.128-4.735-2.801-9.066-6.976-11.303l-3.2-1.714v-5.004l3.817-2.318c4.049-2.457,6.485-6.926,6.358-11.661
			c-0.128-4.735-2.801-9.066-6.976-11.303l-3.2-1.714v-5.004l3.817-2.318c4.049-2.457,6.485-6.926,6.358-11.661
			c-0.128-4.735-2.801-9.066-6.976-11.303l-3.2-1.714V72.499c0-1.905-0.726-3.739-2.028-5.13l-25.313-27
			c-0.001-0.001-0.002-0.002-0.003-0.003c-0.002-0.002-0.004-0.005-0.006-0.007c-0.09-0.095-0.186-0.179-0.28-0.268
			c-0.09-0.086-0.177-0.178-0.271-0.26c-0.061-0.052-0.125-0.097-0.187-0.147c-0.135-0.109-0.268-0.221-0.408-0.319
			c-0.032-0.022-0.066-0.041-0.099-0.063c-0.174-0.118-0.349-0.233-0.53-0.335c-0.008-0.004-0.016-0.008-0.024-0.012
			c-1.922-1.076-4.226-1.247-6.273-0.488c-0.015,0.005-0.029,0.013-0.044,0.019c-0.212,0.08-0.423,0.168-0.629,0.269
			c-0.054,0.026-0.106,0.06-0.159,0.087c-0.165,0.085-0.329,0.171-0.489,0.269c-0.093,0.057-0.18,0.125-0.271,0.186
			c-0.116,0.079-0.235,0.153-0.348,0.239c-0.124,0.095-0.241,0.202-0.361,0.306c-0.073,0.063-0.149,0.12-0.22,0.186
			c-0.001,0.001-0.002,0.002-0.003,0.003c-0.002,0.002-0.005,0.004-0.007,0.006l-28.688,27c-1.506,1.418-2.359,3.394-2.359,5.462
			v120.5c0,4.143,3.357,7.5,7.5,7.5s7.5-3.357,7.5-7.5V75.74l20.856-19.628L436,75.465v17.463c0,2.765,1.521,5.306,3.958,6.611
			l4.419,2.367l-4.771,2.897c-2.239,1.359-3.606,3.79-3.606,6.41v13.714c0,2.765,1.521,5.306,3.958,6.611l4.419,2.367l-4.771,2.897
			c-2.239,1.359-3.606,3.79-3.606,6.41v13.714c0,2.765,1.521,5.306,3.958,6.611l4.419,2.367l-4.771,2.897
			c-2.239,1.359-3.606,3.79-3.606,6.41v26.456c0,1.369,0.375,2.712,1.084,3.883L448,223.592v55.407h-51v-56
			c0-4.143-3.357-7.5-7.5-7.5s-7.5,3.357-7.5,7.5v56.567c-6.899,1.849-12,8.137-12,15.611v21.822h-3.367
			c-1.897,0-3.724,0.719-5.112,2.013C343.396,335.897,333,359.766,333,384.499c0,8.492,1.189,16.711,3.409,24.5h-23.344
			c-3.344,0-6.064-2.721-6.064-6.064v-8.436v-18.5h9.5h3c4.143,0,7.5-3.357,7.5-7.5s-3.358-7.5-7.501-7.5H83.013
			c-5.947,0-11.531-2.324-15.724-6.544c-4.231-4.26-6.54-9.927-6.5-15.956c0.004-0.592,0.026-1.192,0.033-1.786h71.792
			c0.823,1.435,1.776,2.805,2.872,4.082c5.021,5.85,12.323,9.204,20.032,9.204h127.963c7.709,0,15.011-3.354,20.032-9.204
			c1.096-1.277,2.05-2.647,2.872-4.082H331.5c4.143,0,7.5-3.357,7.5-7.5s-3.357-7.5-7.5-7.5h-21.693
			c-0.051-0.705-0.12-1.41-0.228-2.114l-3.018-19.695c-1.987-12.981-12.964-22.404-26.098-22.404H158.536
			c-13.134,0-24.11,9.423-26.098,22.404l-3.018,19.695c-0.108,0.705-0.177,1.41-0.228,2.114H61.35
			c0.864-14.916,2.722-30.207,5.583-45.663c1.936-10.46,11.116-18.051,21.829-18.051h268.253c4.143,0,7.5-3.357,7.5-7.5
			s-3.357-7.5-7.5-7.5H94.057l9.242-69.907H313.5c4.143,0,7.5-3.357,7.5-7.5s-3.357-7.5-7.5-7.5H105.388
			c1.713-7.014,8.004-12.093,15.397-12.093h205.82c4.396,0,8.133,3.143,8.873,7.394l11.365,69.804
			c0.665,4.089,4.52,6.861,8.607,6.197c4.089-0.665,6.863-4.52,6.197-8.607l-11.379-69.884C348.263,139.371,338.31,131,326.604,131
			h-205.82c-15.687,0-28.855,11.735-30.662,27.311l-9.31,70.417l-6.941-11.183c-1.368-2.204-3.778-3.545-6.372-3.545h-8.87
			c-1.808-9.661-10.291-17-20.468-17H20.838C9.348,196.999,0,206.347,0,217.837v7.324c0,11.49,9.348,20.838,20.838,20.838h17.324
			c10.178,0,18.66-7.339,20.468-17h4.698l10.599,17.077c-11.062,4.796-19.443,14.81-21.745,27.245
			c-3.459,18.696-5.513,37.185-6.162,55.114c-0.026,0.256-0.041,0.516-0.041,0.778c0,0.029,0.004,0.057,0.004,0.086
			c-0.103,3.049-0.176,6.086-0.196,9.101c-0.066,10.055,3.79,19.512,10.858,26.627c2.511,2.528,5.324,4.642,8.353,6.325v31.583
			c0,11.615,9.449,21.064,21.064,21.064h39.871c11.615,0,21.064-9.449,21.064-21.064v-0.936h13.074
			c9.885,0,17.926-8.041,17.926-17.926v-8.074h83v8.074c0,9.885,8.041,17.926,17.926,17.926H292v0.936
			c0,11.615,9.449,21.064,21.064,21.064h29.139c14.617,29.594,45.116,50,80.296,50c49.351,0,89.5-40.149,89.5-89.5
			C511.999,359.766,501.603,335.896,483.478,319.012z M144.247,321.87l3.018-19.695c0.859-5.606,5.6-9.676,11.271-9.676h121.928
			c5.672,0,10.412,4.069,11.271,9.676l3.018,19.695c0.245,1.602,0.139,3.214-0.279,4.739c-0.076,0.205-0.144,0.414-0.202,0.627
			c-0.463,1.372-1.173,2.663-2.139,3.789c-2.169,2.525-5.322,3.975-8.651,3.975H155.519c-3.329,0-6.482-1.449-8.651-3.975
			c-0.966-1.125-1.676-2.417-2.139-3.789c-0.058-0.213-0.126-0.422-0.202-0.627C144.108,325.084,144.002,323.472,144.247,321.87z
			 M44,225.161c0,3.219-2.619,5.838-5.838,5.838H20.838c-3.219,0-5.838-2.619-5.838-5.838v-7.324c0-3.219,2.619-5.838,5.838-5.838
			h17.324c3.219,0,5.838,2.619,5.838,5.838V225.161z M132,394.499v8.436c0,3.344-2.721,6.064-6.064,6.064H86.064
			c-3.344,0-6.064-2.721-6.064-6.064v-26.936h3.013H132V394.499z M163,384.073c0,1.613-1.313,2.926-2.926,2.926H147v-11h16V384.073z
			 M292,386.999h-13.074c-1.613,0-2.926-1.313-2.926-2.926v-8.074h16V386.999z M386.178,293.999h72.645
			c0.649,0,1.178,0.528,1.178,1.178v21.822h-75v-21.822H385C385,294.528,385.528,293.999,386.178,293.999z M422.5,458.999
			c-41.079,0-74.5-33.421-74.5-74.5c0-19.922,7.671-38.453,21.664-52.5h105.672c13.993,14.047,21.664,32.578,21.664,52.5
			C497,425.578,463.579,458.999,422.5,458.999z"/>
	</g>
</g>
<g>
	<g>
		<path d="M137.5,181.999c-2.484-3.313-7.187-3.984-10.5-1.5l-16,12c-3.313,2.485-3.985,7.187-1.5,10.5c1.474,1.965,3.726,3,6.006,3
			c1.565,0,3.146-0.488,4.494-1.5l16-12C139.313,190.014,139.985,185.312,137.5,181.999z"/>
	</g>
</g>
<g>
	<g>
		<path d="M170.06,188.58c-2.441-3.349-7.134-4.082-10.479-1.641l-48,35c-3.347,2.44-4.081,7.132-1.641,10.479
			c1.468,2.014,3.751,3.082,6.066,3.082c1.533,0,3.08-0.469,4.413-1.441l48-35C171.766,196.619,172.5,191.927,170.06,188.58z"/>
	</g>
</g>
<g>
	<g>
		<path d="M338.015,263.999c-14.612,0-26.5,11.888-26.5,26.5s11.888,26.5,26.5,26.5s26.5-11.888,26.5-26.5
			S352.627,263.999,338.015,263.999z M338.015,301.999c-6.341,0-11.5-5.159-11.5-11.5s5.159-11.5,11.5-11.5s11.5,5.159,11.5,11.5
			S344.355,301.999,338.015,301.999z"/>
	</g>
</g>
<g>
	<g>
		<path d="M413.5,135.999c-4.143,0-7.5,3.357-7.5,7.5v116c0,4.143,3.357,7.5,7.5,7.5s7.5-3.357,7.5-7.5v-116
			C421,139.356,417.643,135.999,413.5,135.999z"/>
	</g>
</g>
<g>
	<g>
		<path d="M436.701,394.999h-28.402c-12.296,0-22.299,10.003-22.299,22.299v0.402c0,12.296,10.003,22.299,22.299,22.299h28.402
			c12.296,0,22.299-10.003,22.299-22.299v-0.402C459,405.002,448.997,394.999,436.701,394.999z M444,417.7
			c0,4.024-3.274,7.299-7.299,7.299h-28.402c-4.024,0-7.299-3.274-7.299-7.299v-0.402c0-4.024,3.274-7.299,7.299-7.299h28.402
			c4.024,0,7.299,3.274,7.299,7.299V417.7z"/>
	</g>
</g>
<g>
	<g>
		<path d="M455.5,353.999h-66c-4.143,0-7.5,3.357-7.5,7.5s3.357,7.5,7.5,7.5h66c4.143,0,7.5-3.357,7.5-7.5
			S459.643,353.999,455.5,353.999z"/>
	</g>
</g>
<g>
</g>
<g>
</g>
<g>
</g>
<g>
</g>
<g>
</g>
<g>
</g>
<g>
</g>
<g>
</g>
<g>
</g>
<g>
</g>
<g>
</g>
<g>
</g>
<g>
</g>
<g>
</g>
<g>
</g>
</svg>
