<?xml version="1.0" encoding="iso-8859-1"?>
<!-- Generator: Adobe Illustrator 19.0.0, SVG Export Plug-In . SVG Version: 6.00 Build 0)  -->
<svg version="1.1" id="Capa_1" xmlns="http://www.w3.org/2000/svg" xmlns:xlink="http://www.w3.org/1999/xlink" x="0px" y="0px"
	 viewBox="0 0 512 512" style="enable-background:new 0 0 512 512;" xml:space="preserve">
<g>
	<g>
		<path d="M100.697,266.521c-14.641,0-26.552,11.911-26.552,26.552c0,14.641,11.911,26.552,26.552,26.552
			c14.641,0,26.552-11.911,26.552-26.552C127.249,278.432,115.337,266.521,100.697,266.521z M100.697,304.595
			c-6.353,0-11.522-5.169-11.522-11.523c0-6.353,5.169-11.522,11.522-11.522c6.353,0,11.523,5.169,11.523,11.522
			C112.219,299.426,107.05,304.595,100.697,304.595z"/>
	</g>
</g>
<g>
	<g>
		<path d="M486.268,117.229h-29.375V98.612c0-7.413-6.032-13.445-13.445-13.445h-34.229c-7.414,0-13.445,6.032-13.445,13.445v18.617
			H367.4c-14.189,0-25.732,11.544-25.732,25.732v123.694c-0.832-0.079-1.665-0.134-2.505-0.134
			c-14.641,0-26.552,11.911-26.552,26.552c0,14.641,11.911,26.552,26.552,26.552c0.84,0,1.673-0.055,2.505-0.134v44.22H83.175
			c-5.959,0-11.554-2.329-15.755-6.557c-4.239-4.268-6.553-9.946-6.513-15.987c0.004-0.593,0.026-1.194,0.033-1.789h71.932
			c0.824,1.438,1.779,2.81,2.878,4.09c5.031,5.861,12.347,9.222,20.071,9.222h128.213c7.724,0,15.04-3.361,20.071-9.222
			c1.098-1.279,2.054-2.652,2.878-4.09h15.145c4.151,0,7.515-3.364,7.515-7.515c0-4.151-3.364-7.515-7.515-7.515h-11.716
			c-0.051-0.706-0.12-1.413-0.228-2.118l-3.024-19.734c-1.991-13.006-12.989-22.448-26.149-22.448H158.846
			c-13.16,0-24.157,9.441-26.149,22.448l-3.024,19.734c-0.108,0.706-0.177,1.413-0.228,2.118H61.47
			c0.866-14.945,2.727-30.266,5.594-45.752c1.939-10.48,11.138-18.086,21.872-18.086h228.184c4.151,0,7.515-3.364,7.515-7.515
			c0-4.151-3.364-7.515-7.515-7.515H94.241l9.26-70.044h223.107c4.151,0,7.515-3.364,7.515-7.515s-3.364-7.515-7.515-7.515H105.594
			c1.717-7.028,8.02-12.117,15.427-12.117h205.588c4.151,0,7.515-3.364,7.515-7.515s-3.364-7.515-7.515-7.515H121.021
			c-15.718,0-28.911,11.759-30.722,27.365l-9.328,70.554l-6.955-11.205c-1.371-2.208-3.785-3.552-6.384-3.552h-8.887
			c-1.812-9.68-10.311-17.033-20.508-17.033H20.879C9.366,199.389,0,208.756,0,220.268v7.338c0,11.512,9.366,20.879,20.879,20.879
			h17.358c10.198,0,18.696-7.353,20.508-17.033h4.707l10.62,17.11c-11.084,4.805-19.481,14.839-21.788,27.298
			c-3.466,18.733-5.524,37.258-6.174,55.222c-0.026,0.256-0.041,0.517-0.041,0.78c0,0.029,0.004,0.057,0.004,0.086
			c-0.103,3.055-0.176,6.098-0.196,9.119c-0.066,10.075,3.797,19.55,10.879,26.679c2.516,2.533,5.334,4.651,8.369,6.337v31.645
			c0.002,11.638,9.469,21.105,21.107,21.105h39.949c11.638,0,21.105-9.468,21.105-21.105v-0.938h13.1
			c9.904,0,17.961-8.057,17.961-17.961v-8.09h83.162v8.09c0,9.904,8.057,17.961,17.961,17.961h13.101v0.938
			c0,11.638,9.468,21.105,21.105,21.105h29.41c6.544,0,12.771-2.038,17.969-5.803c2.03,0.517,4.154,0.794,6.343,0.794h118.869
			c14.188,0,25.731-11.544,25.731-25.732v-253.13C512,128.773,500.456,117.229,486.268,117.229z M144.529,324.505l3.024-19.734
			c0.861-5.617,5.611-9.695,11.293-9.695h122.167c5.683,0,10.432,4.077,11.293,9.695l3.024,19.734
			c0.245,1.605,0.139,3.22-0.28,4.748c-0.076,0.205-0.144,0.415-0.202,0.628c-0.464,1.375-1.175,2.668-2.143,3.796
			c-2.173,2.53-5.332,3.983-8.668,3.983H155.823c-3.336,0-6.495-1.452-8.668-3.983c-0.968-1.127-1.679-2.422-2.143-3.796
			c-0.058-0.213-0.126-0.423-0.202-0.628C144.39,327.724,144.284,326.11,144.529,324.505z M44.086,227.607
			c0,3.225-2.624,5.849-5.849,5.849H20.879c-3.225,0-5.849-2.624-5.849-5.849v-7.338c0-3.225,2.624-5.849,5.849-5.849h17.358
			c3.225,0,5.849,2.624,5.849,5.849V227.607z M132.258,405.728c0,3.351-2.726,6.076-6.076,6.076h-39.95
			c-3.351,0-6.076-2.726-6.076-6.076V378.74h52.102V405.728z M163.319,386.829c0,1.616-1.316,2.932-2.932,2.932h-13.1V378.74h16.031
			V386.829z M292.571,389.761h-13.1c-1.616,0-2.932-1.316-2.932-2.932v-8.09h16.031V389.761z M339.162,304.595
			c-6.353,0-11.523-5.169-11.523-11.523c0-6.353,5.169-11.522,11.523-11.522c0.847,0,1.683,0.121,2.505,0.309v22.429
			C340.846,304.474,340.009,304.595,339.162,304.595z M343.087,411.804h-29.41c-3.351,0-6.076-2.726-6.076-6.076V378.74h34.067
			v17.352c0,5.716,1.876,11.001,5.041,15.277C345.534,411.645,344.323,411.804,343.087,411.804z M410.802,100.196h31.061v17.033
			h-31.061V100.196z M496.972,396.093c0,5.902-4.801,10.703-10.703,10.703H367.4c-5.902,0-10.703-4.801-10.703-10.703V142.961
			c0-5.902,4.801-10.703,10.703-10.703h118.869c5.902,0,10.703,4.801,10.703,10.703V396.093z"/>
	</g>
</g>
<g>
	<g>
		<path d="M180.853,308.603h-14.027c-4.151,0-7.515,3.364-7.515,7.515s3.364,7.515,7.515,7.515h14.027
			c4.151,0,7.515-3.364,7.515-7.515S185.004,308.603,180.853,308.603z"/>
	</g>
</g>
<g>
	<g>
		<path d="M276.039,308.603H204.9c-4.151,0-7.515,3.364-7.515,7.515s3.364,7.515,7.515,7.515h71.139
			c4.151,0,7.515-3.364,7.515-7.515S280.19,308.603,276.039,308.603z"/>
	</g>
</g>
<g>
	<g>
		<path d="M137.769,184.36c-2.49-3.319-7.201-3.992-10.521-1.503l-16.031,12.023c-3.32,2.49-3.993,7.201-1.503,10.521
			c1.477,1.969,3.733,3.006,6.018,3.006c1.568,0,3.152-0.489,4.503-1.503l16.031-12.023
			C139.586,192.391,140.259,187.68,137.769,184.36z"/>
	</g>
</g>
<g>
	<g>
		<path d="M170.393,190.954c-2.445-3.356-7.149-4.09-10.5-1.644l-48.094,35.068c-3.354,2.445-4.089,7.146-1.644,10.5
			c1.471,2.018,3.758,3.088,6.078,3.088c1.536,0,3.086-0.47,4.422-1.444l48.094-35.068
			C172.102,199.009,172.838,194.307,170.393,190.954z"/>
	</g>
</g>
<g>
	<g>
		<path d="M476.755,142.278h-99.843c-5.622,0-10.196,4.573-10.196,10.196v109.037c0,4.151,3.364,7.515,7.515,7.515
			c4.151,0,7.515-3.364,7.515-7.515v-30.059h90.176v76.149h-90.176v-16.031c0-4.151-3.364-7.515-7.515-7.515
			c-4.151,0-7.515,3.364-7.515,7.515v95.01c0,5.623,4.573,10.196,10.196,10.196h99.843c5.622,0,10.196-4.573,10.196-10.196V152.474
			C486.951,146.852,482.378,142.278,476.755,142.278z M471.922,381.746h-90.176V322.63h90.176V381.746z M471.922,216.423h-90.176
			v-59.115h90.176V216.423z"/>
	</g>
</g>
<g>
</g>
<g>
</g>
<g>
</g>
<g>
</g>
<g>
</g>
<g>
</g>
<g>
</g>
<g>
</g>
<g>
</g>
<g>
</g>
<g>
</g>
<g>
</g>
<g>
</g>
<g>
</g>
<g>
</g>
</svg>
