<?xml version="1.0" encoding="iso-8859-1"?>
<!-- Generator: Adobe Illustrator 19.0.0, SVG Export Plug-In . SVG Version: 6.00 Build 0)  -->
<svg version="1.1" id="Capa_1" xmlns="http://www.w3.org/2000/svg" xmlns:xlink="http://www.w3.org/1999/xlink" x="0px" y="0px"
	 viewBox="0 0 511.999 511.999" style="enable-background:new 0 0 511.999 511.999;" xml:space="preserve">
<g>
	<g>
		<path d="M100.593,245.152c-14.626,0-26.525,11.899-26.525,26.524c0,14.626,11.899,26.525,26.525,26.525
			c14.625,0,26.524-11.899,26.524-26.525C127.117,257.051,115.218,245.152,100.593,245.152z M100.593,283.187
			c-6.347,0-11.511-5.164-11.511-11.511s5.164-11.511,11.511-11.511s11.511,5.164,11.511,11.511S106.94,283.187,100.593,283.187z"/>
	</g>
</g>
<g>
	<g>
		<path d="M504.855,293.727l-99.69-163.799c-8.852-14.545-24.303-23.229-41.331-23.229c-7.889,0-15.429,1.885-22.142,5.333H120.897
			c-15.702,0-28.884,11.748-30.69,27.338l-9.319,70.48l-6.947-11.193c-1.369-2.206-3.781-3.548-6.378-3.548h-8.878
			c-1.81-9.67-10.3-17.016-20.487-17.016h-17.34C9.357,178.09,0,187.446,0,198.947v7.331c0,11.501,9.357,20.857,20.857,20.857h17.34
			c10.187,0,18.677-7.346,20.487-17.016h4.702l10.609,17.093c-11.072,4.8-19.461,14.824-21.765,27.27
			c-3.462,18.714-5.518,37.218-6.168,55.161c-0.027,0.257-0.041,0.519-0.041,0.784c0,0.031,0.004,0.06,0.005,0.091
			c-0.103,3.05-0.176,6.089-0.196,9.104c-0.066,10.065,3.794,19.53,10.869,26.653c2.513,2.529,5.329,4.645,8.36,6.33v31.612
			c0,11.626,9.459,21.083,21.083,21.083h39.908c11.626,0,21.083-9.458,21.083-21.083v-0.937h13.086
			c9.894,0,17.943-8.048,17.943-17.943v-8.081h56.389c8.282,6.429,18.558,10.009,29.595,10.009h199.375
			c17.726,0,33.495-9.226,42.18-24.678C514.388,327.136,514.071,308.869,504.855,293.727z M44.041,206.278
			c0,3.222-2.621,5.843-5.843,5.843h-17.34c-3.222,0-5.843-2.621-5.843-5.843v-7.331c0-3.222,2.621-5.843,5.843-5.843h17.34
			c3.222,0,5.843,2.621,5.843,5.843V206.278z M120.897,127.043h203.511c-0.663,0.935-1.301,1.893-1.904,2.883l-5.612,9.221H105.485
			C107.199,132.126,113.496,127.043,120.897,127.043z M103.396,154.161h204.359l-42.584,69.972H94.144L103.396,154.161z
			 M132.122,375.772v8.444c0,3.347-2.724,6.07-6.07,6.07H86.144c-3.347,0-6.07-2.724-6.07-6.07v-26.961h3.016h49.032V375.772z
			 M163.151,365.337c0,1.615-1.314,2.929-2.929,2.929h-13.086v-11.01h16.015V365.337z M221.79,342.241H83.09
			c-5.953,0-11.542-2.326-15.738-6.55c-4.236-4.264-6.547-9.936-6.507-15.971c0.004-0.592,0.026-1.193,0.033-1.787h71.858
			c0.823,1.436,1.778,2.808,2.874,4.085c5.026,5.855,12.334,9.214,20.052,9.214h45.814c4.146,0,7.507-3.36,7.507-7.507
			s-3.361-7.507-7.507-7.507h-45.814c-3.333,0-6.489-1.45-8.66-3.98c-0.969-1.128-1.68-2.422-2.143-3.797
			c-0.057-0.21-0.124-0.415-0.199-0.618c-0.419-1.527-0.525-3.143-0.28-4.748l3.02-19.712c0.86-5.611,5.604-9.685,11.281-9.685
			h64.526c4.146,0,7.507-3.36,7.507-7.507s-3.361-7.507-7.507-7.507h-64.524c-13.145,0-24.131,9.431-26.122,22.425l-3.02,19.712
			c-0.108,0.706-0.177,1.411-0.228,2.117H61.407c0.865-14.928,2.726-30.234,5.588-45.705c1.938-10.47,11.126-18.068,21.85-18.068
			h167.188l-33.217,54.578C213.669,308.756,213.301,326.86,221.79,342.241z M492.615,335.229
			c-5.99,10.657-16.866,17.021-29.091,17.021H264.148c-7.452,0-14.395-2.375-20.042-6.635c-0.765-1.157-1.844-2.085-3.113-2.673
			c-2.291-2.227-4.301-4.802-5.935-7.712c-5.99-10.658-5.771-23.255,0.585-33.699l99.688-163.799
			c6.107-10.032,16.763-16.022,28.506-16.022s22.401,5.99,28.505,16.022l99.689,163.799
			C498.387,311.974,498.605,324.571,492.615,335.229z"/>
	</g>
</g>
<g>
	<g>
		<path d="M195.681,288.192h-29.027c-4.146,0-7.507,3.36-7.507,7.507c0,4.147,3.361,7.507,7.507,7.507h29.027
			c4.146,0,7.507-3.36,7.507-7.507C203.188,291.552,199.827,288.192,195.681,288.192z"/>
	</g>
</g>
<g>
	<g>
		<path d="M137.627,163.076c-2.487-3.316-7.194-3.989-10.51-1.501l-16.015,12.011c-3.316,2.487-3.989,7.193-1.501,10.51
			c1.475,1.967,3.729,3.003,6.012,3.003c1.567,0,3.148-0.488,4.498-1.501l16.015-12.011
			C139.442,171.099,140.114,166.392,137.627,163.076z"/>
	</g>
</g>
<g>
	<g>
		<path d="M170.217,169.663c-2.442-3.349-7.137-4.087-10.489-1.643l-48.044,35.032c-3.35,2.443-4.085,7.139-1.643,10.489
			c1.469,2.016,3.754,3.085,6.072,3.085c1.533,0,3.082-0.469,4.417-1.442l48.044-35.032
			C171.925,177.71,172.661,173.013,170.217,169.663z"/>
	</g>
</g>
<g>
	<g>
		<path d="M483.482,306.733l-99.69-163.799c-6.161-10.122-16.008-11.215-19.956-11.215c-3.949,0-13.795,1.093-19.956,11.215
			l-59.405,97.61c-2.154,3.542-1.03,8.161,2.511,10.317c3.544,2.156,8.161,1.032,10.317-2.51l59.404-97.61
			c2.123-3.486,5.379-4.008,7.132-4.008s5.009,0.521,7.131,4.008l99.689,163.799c2.099,3.447,1.237,6.487,0.146,8.43
			c-1.092,1.942-3.241,4.258-7.278,4.258H264.148c-4.037,0-6.186-2.315-7.277-4.257c-1.092-1.943-1.953-4.984,0.146-8.431
			l24.672-40.537c2.155-3.542,1.031-8.16-2.51-10.317c-3.542-2.154-8.16-1.031-10.315,2.51l-24.672,40.537
			c-4.449,7.311-4.602,16.13-0.409,23.592c4.194,7.461,11.807,11.915,20.366,11.915h199.375c8.559,0,16.172-4.454,20.367-11.916
			C488.083,322.863,487.93,314.043,483.482,306.733z"/>
	</g>
</g>
<g>
	<g>
		<path d="M385.118,194.479c-3.773-4.056-9.112-6.381-14.653-6.381h-13.26c-5.539,0-10.879,2.325-14.653,6.381
			c-3.774,4.056-5.708,9.55-5.31,15.075l3.536,48.982c0.594,8.21,7.506,14.641,15.738,14.641h14.636
			c8.232,0,15.144-6.432,15.738-14.643l3.537-48.981C390.826,204.029,388.891,198.535,385.118,194.479z M371.917,257.453
			c-0.028,0.398-0.363,0.711-0.763,0.711h-14.636c-0.398,0-0.734-0.312-0.763-0.71l-3.536-48.981c-0.101-1.4,0.37-2.738,1.326-3.766
			c0.957-1.028,2.257-1.594,3.66-1.594h13.26c1.403,0,2.703,0.565,3.66,1.594c0.956,1.028,1.427,2.365,1.326,3.766L371.917,257.453z
			"/>
	</g>
</g>
<g>
	<g>
		<path d="M369.18,279.183h-10.688c-8.919,0-16.176,7.257-16.176,16.176v4.682c0,8.919,7.257,16.176,16.176,16.176h10.688
			c8.919,0,16.176-7.257,16.176-16.176v-4.682C385.356,286.44,378.099,279.183,369.18,279.183z M370.342,300.042
			c0,0.642-0.521,1.162-1.162,1.162h-10.688c-0.642,0-1.162-0.521-1.162-1.162v-4.682c0-0.642,0.521-1.162,1.162-1.162h10.688
			c0.642,0,1.162,0.521,1.162,1.162V300.042z"/>
	</g>
</g>
<g>
</g>
<g>
</g>
<g>
</g>
<g>
</g>
<g>
</g>
<g>
</g>
<g>
</g>
<g>
</g>
<g>
</g>
<g>
</g>
<g>
</g>
<g>
</g>
<g>
</g>
<g>
</g>
<g>
</g>
</svg>
