<?xml version="1.0" encoding="iso-8859-1"?>
<!-- Generator: Adobe Illustrator 19.0.0, SVG Export Plug-In . SVG Version: 6.00 Build 0)  -->
<svg version="1.1" id="Capa_1" xmlns="http://www.w3.org/2000/svg" xmlns:xlink="http://www.w3.org/1999/xlink" x="0px" y="0px"
	 viewBox="0 0 512 512" style="enable-background:new 0 0 512 512;" xml:space="preserve">
<g>
	<g>
		<path d="M100.5,271.5C85.888,271.5,74,283.388,74,298s11.888,26.5,26.5,26.5S127,312.612,127,298S115.112,271.5,100.5,271.5z
			 M100.5,309.5c-6.341,0-11.5-5.159-11.5-11.5s5.159-11.5,11.5-11.5S112,291.659,112,298S106.841,309.5,100.5,309.5z"/>
	</g>
</g>
<g>
	<g>
		<path d="M180.5,313.5h-14c-4.142,0-7.5,3.357-7.5,7.5s3.358,7.5,7.5,7.5h14c4.142,0,7.5-3.357,7.5-7.5S184.642,313.5,180.5,313.5z
			"/>
	</g>
</g>
<g>
	<g>
		<path d="M261.5,313.5h-57c-4.142,0-7.5,3.357-7.5,7.5s3.358,7.5,7.5,7.5h57c4.142,0,7.5-3.357,7.5-7.5S265.642,313.5,261.5,313.5z
			"/>
	</g>
</g>
<g>
	<g>
		<path d="M137.5,189.5c-2.485-3.313-7.186-3.985-10.5-1.5l-16,12c-3.313,2.485-3.985,7.187-1.5,10.5c1.474,1.965,3.726,3,6.006,3
			c1.566,0,3.145-0.488,4.494-1.5l16-12C139.313,197.516,139.985,192.813,137.5,189.5z"/>
	</g>
</g>
<g>
	<g>
		<path d="M170.06,196.081c-2.44-3.346-7.131-4.083-10.479-1.641l-48,35c-3.347,2.44-4.082,7.132-1.641,10.479
			c1.468,2.014,3.751,3.082,6.066,3.082c1.532,0,3.079-0.469,4.413-1.441l48-35C171.766,204.12,172.501,199.428,170.06,196.081z"/>
	</g>
</g>
<g>
	<g>
		<path d="M489.156,93.5H456.83c-1.045-7.336-7.351-13-14.971-13H349.14c-7.62,0-13.926,5.664-14.971,13h-32.326
			C289.248,93.5,279,103.748,279,116.344V138.5H120.785c-15.688,0-28.856,11.736-30.662,27.312l-9.31,70.416l-6.941-11.183
			c-1.368-2.204-3.778-3.545-6.372-3.545h-8.87c-1.808-9.661-10.291-17-20.468-17H20.838C9.348,204.5,0,213.849,0,225.339v7.324
			c0,11.49,9.348,20.838,20.838,20.838h17.324c10.178,0,18.66-7.339,20.468-17h4.698l10.599,17.077
			c-11.062,4.796-19.443,14.81-21.745,27.245c-3.459,18.695-5.513,37.182-6.162,55.11c-0.027,0.257-0.041,0.518-0.041,0.782
			c0,0.03,0.004,0.06,0.005,0.09c-0.103,3.048-0.176,6.083-0.195,9.096c-0.066,10.055,3.79,19.512,10.859,26.627
			c2.511,2.528,5.324,4.642,8.352,6.325v31.583c0,11.615,9.45,21.064,21.064,21.064h39.871c11.615,0,21.064-9.449,21.064-21.064
			V409.5h13.074c9.885,0,17.926-8.041,17.926-17.926V383.5h101v13.156c0,12.596,10.248,22.844,22.844,22.844h187.313
			c12.596,0,22.844-10.248,22.844-22.844V116.344C512,103.748,501.752,93.5,489.156,93.5z M44,232.662
			c0,3.219-2.619,5.838-5.838,5.838H20.838c-3.219,0-5.838-2.619-5.838-5.838v-7.324c0-3.219,2.619-5.838,5.838-5.838h17.324
			c3.219,0,5.838,2.619,5.838,5.838V232.662z M132,410.436c0,3.344-2.721,6.064-6.064,6.064H86.064
			c-3.344,0-6.064-2.721-6.064-6.064V383.5h3.013H132V410.436z M163,391.574c0,1.613-1.313,2.926-2.926,2.926H147v-11h16V391.574z
			 M279,368.5H83.013c-5.947,0-11.531-2.324-15.723-6.544c-4.232-4.26-6.541-9.927-6.5-15.956c0.004-0.592,0.026-1.192,0.033-1.786
			h71.792c0.822,1.435,1.776,2.805,2.871,4.081c5.021,5.85,12.323,9.205,20.033,9.205H262.5c4.142,0,7.5-3.357,7.5-7.5
			s-3.358-7.5-7.5-7.5H155.519c-3.33,0-6.483-1.449-8.652-3.976c-0.968-1.127-1.678-2.42-2.141-3.793
			c-0.057-0.21-0.124-0.415-0.199-0.617c-0.419-1.526-0.525-3.14-0.279-4.744l3.017-19.694c0.859-5.606,5.599-9.676,11.271-9.676
			H262.5c4.142,0,7.5-3.357,7.5-7.5s-3.358-7.5-7.5-7.5H158.536c-13.133,0-24.109,9.422-26.098,22.404l-3.017,19.694
			c-0.108,0.705-0.177,1.41-0.228,2.115H61.35c0.864-14.916,2.723-30.207,5.583-45.663c1.936-10.46,11.116-18.051,21.83-18.051H279
			V368.5z M279,250.5H94.057l9.242-69.907H279V250.5z M279,165.594H105.388c1.712-7.015,8.003-12.093,15.397-12.093H279V165.594z
			 M349,95.641c0-0.077,0.063-0.141,0.141-0.141h92.719c0.078,0,0.141,0.063,0.141,0.141v36.719c0,0.077-0.063,0.141-0.141,0.141
			h-92.719c-0.078,0-0.141-0.063-0.141-0.141V95.641z M497,396.656c0,4.325-3.519,7.844-7.844,7.844H301.844
			c-4.325,0-7.844-3.519-7.844-7.844V116.344c0-4.325,3.519-7.844,7.844-7.844H334v10h-22.5c-4.142,0-7.5,3.357-7.5,7.5v94.5
			c0,4.143,3.358,7.5,7.5,7.5c4.142,0,7.5-3.357,7.5-7.5v-87h15.058c0.587,7.816,7.119,14,15.083,14h92.719
			c7.964,0,14.496-6.184,15.083-14H472v246H319v-129c0-4.143-3.358-7.5-7.5-7.5c-4.142,0-7.5,3.357-7.5,7.5V387
			c0,4.143,3.358,7.5,7.5,7.5h168c4.142,0,7.5-3.357,7.5-7.5V126c0-4.143-3.358-7.5-7.5-7.5H457v-10h32.156
			c4.325,0,7.844,3.519,7.844,7.844V396.656z"/>
	</g>
</g>
<g>
	<g>
		<path d="M373.176,168.098c-2.707-3.134-7.443-3.481-10.579-0.773l-17.116,14.782l-2.101-1.801
			c-3.145-2.697-7.881-2.332-10.575,0.813c-2.695,3.145-2.331,7.88,0.814,10.575l7,6c1.404,1.204,3.143,1.806,4.881,1.806
			c1.748,0,3.495-0.608,4.902-1.824l22-19C375.537,175.969,375.883,171.233,373.176,168.098z"/>
	</g>
</g>
<g>
	<g>
		<path d="M373.176,274.098c-2.707-3.133-7.443-3.482-10.579-0.773l-17.116,14.782l-2.101-1.801
			c-3.145-2.697-7.881-2.333-10.575,0.813c-2.695,3.145-2.331,7.88,0.814,10.575l7,6c1.404,1.204,3.143,1.806,4.881,1.806
			c1.748,0,3.495-0.608,4.902-1.824l22-19C375.537,281.969,375.883,277.233,373.176,274.098z"/>
	</g>
</g>
<g>
	<g>
		<path d="M353.5,214.5c-11.855,0-21.5,9.645-21.5,21.5s9.645,21.5,21.5,21.5c11.855,0,21.5-9.645,21.5-21.5
			S365.355,214.5,353.5,214.5z M353.5,242.5c-3.584,0-6.5-2.916-6.5-6.5s2.916-6.5,6.5-6.5c3.584,0,6.5,2.916,6.5,6.5
			S357.084,242.5,353.5,242.5z"/>
	</g>
</g>
<g>
	<g>
		<path d="M353.5,319.5c-11.855,0-21.5,9.645-21.5,21.5c0,11.855,9.645,21.5,21.5,21.5c11.855,0,21.5-9.645,21.5-21.5
			C375,329.145,365.355,319.5,353.5,319.5z M353.5,347.5c-3.584,0-6.5-2.916-6.5-6.5c0-3.584,2.916-6.5,6.5-6.5
			c3.584,0,6.5,2.916,6.5,6.5C360,344.584,357.084,347.5,353.5,347.5z"/>
	</g>
</g>
<g>
	<g>
		<path d="M450,179.5h-51c-4.142,0-7.5,3.357-7.5,7.5s3.358,7.5,7.5,7.5h51c4.142,0,7.5-3.357,7.5-7.5S454.142,179.5,450,179.5z"/>
	</g>
</g>
<g>
	<g>
		<path d="M450,228.5h-51c-4.142,0-7.5,3.357-7.5,7.5s3.358,7.5,7.5,7.5h51c4.142,0,7.5-3.357,7.5-7.5S454.142,228.5,450,228.5z"/>
	</g>
</g>
<g>
	<g>
		<path d="M450,277.5h-51c-4.142,0-7.5,3.357-7.5,7.5s3.358,7.5,7.5,7.5h51c4.142,0,7.5-3.357,7.5-7.5S454.142,277.5,450,277.5z"/>
	</g>
</g>
<g>
	<g>
		<path d="M450,326.5h-51c-4.142,0-7.5,3.357-7.5,7.5s3.358,7.5,7.5,7.5h51c4.142,0,7.5-3.357,7.5-7.5S454.142,326.5,450,326.5z"/>
	</g>
</g>
<g>
</g>
<g>
</g>
<g>
</g>
<g>
</g>
<g>
</g>
<g>
</g>
<g>
</g>
<g>
</g>
<g>
</g>
<g>
</g>
<g>
</g>
<g>
</g>
<g>
</g>
<g>
</g>
<g>
</g>
</svg>
