<?xml version="1.0" encoding="iso-8859-1"?>
<!-- Generator: Adobe Illustrator 19.0.0, SVG Export Plug-In . SVG Version: 6.00 Build 0)  -->
<svg version="1.1" id="Capa_1" xmlns="http://www.w3.org/2000/svg" xmlns:xlink="http://www.w3.org/1999/xlink" x="0px" y="0px"
	 viewBox="0 0 512 512" style="enable-background:new 0 0 512 512;" xml:space="preserve">
<g>
	<g>
		<path d="M100.697,265.018c-14.641,0-26.552,11.911-26.552,26.552c0,14.641,11.911,26.552,26.552,26.552
			c14.641,0,26.552-11.911,26.552-26.552C127.249,276.929,115.337,265.018,100.697,265.018z M100.697,303.092
			c-6.353,0-11.522-5.169-11.522-11.523s5.169-11.523,11.522-11.523c6.353,0,11.523,5.169,11.523,11.523
			S107.05,303.092,100.697,303.092z"/>
	</g>
</g>
<g>
	<g>
		<path d="M179.851,307.1h-14.027c-4.15,0-7.515,3.364-7.515,7.515c0,4.151,3.365,7.515,7.515,7.515h14.027
			c4.15,0,7.515-3.364,7.515-7.515C187.366,310.464,184.001,307.1,179.851,307.1z"/>
	</g>
</g>
<g>
	<g>
		<path d="M275.037,307.1h-71.139c-4.15,0-7.515,3.364-7.515,7.515c0,4.151,3.365,7.515,7.515,7.515h71.139
			c4.15,0,7.515-3.364,7.515-7.515C282.552,310.464,279.187,307.1,275.037,307.1z"/>
	</g>
</g>
<g>
	<g>
		<path d="M137.769,182.858c-2.49-3.319-7.201-3.993-10.521-1.503l-16.031,12.023c-3.32,2.49-3.993,7.201-1.503,10.521
			c1.477,1.969,3.733,3.006,6.018,3.006c1.569,0,3.151-0.489,4.503-1.503l16.031-12.023
			C139.586,190.888,140.259,186.177,137.769,182.858z"/>
	</g>
</g>
<g>
	<g>
		<path d="M170.393,189.452c-2.444-3.353-7.144-4.091-10.5-1.644l-48.094,35.068c-3.354,2.445-4.09,7.146-1.644,10.5
			c1.471,2.018,3.758,3.088,6.078,3.088c1.535,0,3.085-0.47,4.422-1.444l48.094-35.068
			C172.102,197.506,172.839,192.805,170.393,189.452z"/>
	</g>
</g>
<g>
	<g>
		<path d="M390.262,86.67c-38.1,0-72.163,17.598-94.502,45.088H121.021c-15.719,0-28.912,11.759-30.722,27.365l-9.328,70.554
			l-6.955-11.205c-1.371-2.208-3.785-3.552-6.384-3.552h-8.887c-1.812-9.68-10.311-17.033-20.508-17.033H20.879
			C9.366,197.887,0,207.253,0,218.766v7.338c0,11.512,9.366,20.879,20.879,20.879h17.358c10.198,0,18.696-7.353,20.508-17.033h4.707
			l10.62,17.11c-11.084,4.805-19.481,14.839-21.788,27.298c-3.466,18.732-5.524,37.255-6.174,55.218
			c-0.027,0.258-0.041,0.519-0.041,0.784c0,0.03,0.004,0.06,0.005,0.09c-0.103,3.054-0.176,6.095-0.195,9.114
			c-0.066,10.075,3.797,19.55,10.88,26.679c2.516,2.533,5.334,4.651,8.368,6.337v31.645c0,11.638,9.469,21.105,21.105,21.105h39.949
			c11.638,0,21.105-9.467,21.105-21.105v-0.937h13.1c9.904,0,17.961-8.057,17.961-17.961v-8.09h193.33
			c7.382,7.91,12.347,12.906,13.27,13.83c1.41,1.41,3.321,2.201,5.315,2.201c1.993,0,3.905-0.793,5.314-2.202
			c0.208-0.208,21.155-21.222,44.832-49.739c2.651-3.194,2.211-7.931-0.981-10.583c-3.193-2.651-7.93-2.211-10.583,0.981
			c-16.154,19.456-30.987,35.329-38.582,43.25c-1.957-2.042-4.403-4.62-7.222-7.645c-0.686-2.044-2.221-3.698-4.193-4.533
			c-10.747-11.705-25.363-28.282-39.873-46.812c-19.925-25.446-34.676-48.135-43.933-67.415c-0.097-0.229-0.204-0.453-0.323-0.669
			c-7.376-15.516-11.165-28.802-11.165-39.494c0-24.07,8.015-46.301,21.51-64.173c0.236-0.269,0.456-0.551,0.652-0.851
			c19.528-25.331,50.161-41.684,84.546-41.684c58.839,0,106.708,47.869,106.708,106.708c0,22.668-17.152,57.257-49.602,100.025
			c-2.508,3.306-1.862,8.021,1.445,10.529c3.305,2.51,8.02,1.863,10.529-1.444C494.283,271.465,512,234.754,512,208.408
			C512,141.281,457.388,86.67,390.262,86.67z M44.086,226.104c0,3.225-2.624,5.849-5.849,5.849H20.879
			c-3.225,0-5.849-2.624-5.849-5.849v-7.338c0-3.225,2.624-5.849,5.849-5.849h17.358c3.225,0,5.849,2.624,5.849,5.849V226.104z
			 M103.502,173.933h170.002c-3.234,10.935-4.98,22.504-4.98,34.474c0,10.805,3.058,22.897,8.163,35.569H94.241L103.502,173.933z
			 M132.258,404.226c0,3.351-2.726,6.076-6.076,6.076h-39.95c-3.351,0-6.076-2.726-6.076-6.076v-26.989h3.019h49.083V404.226z
			 M163.319,385.327c0,1.616-1.316,2.932-2.932,2.932h-13.1v-11.021h16.031V385.327z M357.992,362.208H83.175
			c-5.959,0-11.554-2.329-15.754-6.557c-4.24-4.268-6.554-9.946-6.513-15.987c0.004-0.593,0.026-1.194,0.033-1.789h71.932
			c0.824,1.438,1.779,2.81,2.877,4.089c5.031,5.861,12.347,9.223,20.072,9.223h162.298c4.15,0,7.515-3.364,7.515-7.515
			s-3.365-7.515-7.515-7.515H155.823c-3.337,0-6.496-1.452-8.669-3.984c-0.97-1.129-1.681-2.425-2.145-3.8
			c-0.057-0.21-0.124-0.416-0.199-0.618c-0.42-1.529-0.526-3.146-0.28-4.753l3.023-19.732c0.861-5.617,5.61-9.695,11.293-9.695
			h122.203c4.15,0,7.515-3.364,7.515-7.515c0-4.151-3.365-7.515-7.515-7.515H158.846c-13.159,0-24.156,9.44-26.149,22.448
			l-3.023,19.733c-0.108,0.706-0.177,1.413-0.228,2.119H61.47c0.866-14.945,2.728-30.266,5.594-45.752
			c1.94-10.48,11.139-18.086,21.873-18.086h194.591C302.303,296.278,334.805,336.117,357.992,362.208z M279.054,158.904h-173.46
			c1.715-7.029,8.019-12.117,15.427-12.117h164.29C283.009,150.693,280.917,154.736,279.054,158.904z"/>
	</g>
</g>
<g>
	<g>
		<path d="M390.262,134.764c-14.103,0-27.794,4.064-39.594,11.751c-3.478,2.265-4.46,6.921-2.194,10.398
			c2.265,3.478,6.922,4.461,10.398,2.194c9.353-6.093,20.207-9.314,31.391-9.314c31.768,0,57.613,25.844,57.613,57.613
			s-25.844,57.613-57.613,57.613c-31.768,0-57.613-25.844-57.613-57.613c0-10.201,2.714-20.236,7.85-29.021
			c2.095-3.582,0.889-8.185-2.694-10.28c-3.582-2.092-8.185-0.89-10.28,2.694c-6.481,11.084-9.905,23.742-9.905,36.607
			c0,40.055,32.587,72.642,72.642,72.642c40.055,0,72.642-32.587,72.642-72.642S430.317,134.764,390.262,134.764z"/>
	</g>
</g>
<g>
</g>
<g>
</g>
<g>
</g>
<g>
</g>
<g>
</g>
<g>
</g>
<g>
</g>
<g>
</g>
<g>
</g>
<g>
</g>
<g>
</g>
<g>
</g>
<g>
</g>
<g>
</g>
<g>
</g>
</svg>
