<?xml version="1.0" encoding="iso-8859-1"?>
<!-- Generator: Adobe Illustrator 19.0.0, SVG Export Plug-In . SVG Version: 6.00 Build 0)  -->
<svg version="1.1" id="Capa_1" xmlns="http://www.w3.org/2000/svg" xmlns:xlink="http://www.w3.org/1999/xlink" x="0px" y="0px"
	 viewBox="0 0 512 512" style="enable-background:new 0 0 512 512;" xml:space="preserve">
<g>
	<g>
		<path d="M509.617,238.951l-16-14.934c-1.389-1.297-3.218-2.018-5.117-2.018h-34.601c-0.83-7.304-7.04-13-14.563-13h-20.672
			c-5.884,0-10.956,3.491-13.29,8.505h-36.821l-41.039-61.66c-1.39-2.09-3.733-3.345-6.243-3.345H307v-25.76
			c0-10.333-8.407-18.74-18.74-18.74H271V86h43.639C323.66,86,331,78.66,331,69.639V50.361C331,41.34,323.66,34,314.639,34H152.361
			C143.34,34,136,41.34,136,50.361v19.277C136,78.66,143.34,86,152.361,86H196v22h-17.26c-10.333,0-18.74,8.407-18.74,18.74v25.76
			h-14.936c-1.988,0-3.896,0.79-5.302,2.195l-39.601,39.581c-1.407,1.406-2.198,3.314-2.198,5.305V204H50v-12.572
			C50,183.473,43.527,177,35.572,177H14.428C6.473,177,0,183.473,0,191.428v129.145C0,328.527,6.473,335,14.428,335h21.145
			C43.527,335,50,328.527,50,320.572V308h47.987c0.117,2.125,1.121,4.11,2.793,5.447l34.283,27.41
			c1.33,1.063,2.981,1.643,4.684,1.643H274v56.831c-10.085,8.419-16,20.915-16,34.169c0,24.537,19.963,44.5,44.5,44.5
			s44.5-19.963,44.5-44.5c0-13.254-5.915-25.75-16-34.169V342.5h73.957c2.095,5.542,7.441,9.5,13.707,9.5h20.672
			c7.522,0,13.733-5.696,14.563-13H488.5c1.993,0,3.904-0.793,5.312-2.204l16-16.047c1.401-1.406,2.188-3.311,2.188-5.296v-71.02
			C512,242.354,511.137,240.369,509.617,238.951z M35,320H15V192h20V320z M152.361,70.999C151.61,71,151,70.39,151,69.639V50.361
			c0-0.751,0.61-1.361,1.361-1.361h162.277c0.751,0,1.361,0.61,1.361,1.361v19.277c0,0.751-0.61,1.361-1.361,1.361H152.361z M256,86
			v22h-45V86H256z M175,126.74c0-2.063,1.678-3.74,3.74-3.74h109.52c2.063,0,3.74,1.678,3.74,3.74v25.76H175V126.74z M404,327.5h-73
			v-80c0-15.715-12.785-28.5-28.5-28.5c-15.715,0-28.5,12.785-28.5,28.5V280c0,4.143,3.357,7.5,7.5,7.5s7.5-3.357,7.5-7.5v-32.5
			c0-7.444,6.056-13.5,13.5-13.5c7.444,0,13.5,6.056,13.5,13.5v155.541c0,2.464,1.21,4.771,3.237,6.171
			c7.991,5.521,12.763,14.6,12.763,24.288c0,16.267-13.233,29.5-29.5,29.5c-16.267,0-29.5-13.233-29.5-29.5
			c0-9.688,4.771-18.768,12.763-24.288c2.027-1.4,3.237-3.707,3.237-6.171V310c0-4.143-3.357-7.5-7.5-7.5s-7.5,3.357-7.5,7.5v17.5
			H142.377l-29.413-23.517v-2.767c0.022-0.236,0.036-0.474,0.036-0.716s-0.014-0.48-0.036-0.716V259c0-4.143-3.357-7.5-7.5-7.5
			s-7.5,3.357-7.5,7.5v34H50v-74h47.964v10c0,4.143,3.357,7.5,7.5,7.5s7.5-3.357,7.5-7.5v-26.312L148.17,167.5h169.084l41.039,61.66
			c1.39,2.09,3.733,3.345,6.243,3.345h12.84V272.5c0,4.143,3.357,7.5,7.5,7.5s7.5-3.357,7.5-7.5v-39.995H404V327.5z M439,337h-20
			V224h20V337z M497,312.353L485.387,324H454v-87h31.544L497,247.692V312.353z"/>
	</g>
</g>
<g>
	<g>
		<path d="M237.436,230.966c-1.409-3.612-4.681-6.055-8.542-6.375l-11.396-0.95l1.994-28.591c0.298-4.271-2.038-8.154-5.95-9.894
			c-3.911-1.739-8.36-0.872-11.331,2.21l-44.923,46.587c-2.807,2.911-3.599,7.198-2.017,10.92c1.581,3.722,5.217,6.127,9.261,6.127
			h14.102l-9.522,34.28c-1.248,4.493,0.726,9.216,4.8,11.485c1.545,0.86,3.231,1.278,4.902,1.278c2.733,0,5.425-1.118,7.387-3.245
			l49.253-53.356C238.083,238.593,238.843,234.58,237.436,230.966z M189.028,269.62l5.796-20.866
			c0.849-3.057,0.234-6.257-1.686-8.781c-1.919-2.524-4.839-3.973-8.01-3.973h-8.979l27.433-28.448l-1.389,19.903
			c-0.382,5.462,3.747,10.275,9.202,10.729l6.175,0.515L189.028,269.62z"/>
	</g>
</g>
<g>
	<g>
		<path d="M384.5,286c-4.143,0-7.5,3.357-7.5,7.5v17c0,4.143,3.357,7.5,7.5,7.5s7.5-3.357,7.5-7.5v-17
			C392,289.357,388.643,286,384.5,286z"/>
	</g>
</g>
<g>
	<g>
		<path d="M302.5,260c-4.143,0-7.5,3.357-7.5,7.5v114c0,4.143,3.357,7.5,7.5,7.5s7.5-3.357,7.5-7.5v-114
			C310,263.357,306.643,260,302.5,260z"/>
	</g>
</g>
<g>
	<g>
		<path d="M302.5,415c-10.201,0-18.5,8.299-18.5,18.5s8.299,18.5,18.5,18.5s18.5-8.299,18.5-18.5S312.701,415,302.5,415z M302.5,437
			c-1.93,0-3.5-1.57-3.5-3.5s1.57-3.5,3.5-3.5s3.5,1.57,3.5,3.5S304.43,437,302.5,437z"/>
	</g>
</g>
<g>
</g>
<g>
</g>
<g>
</g>
<g>
</g>
<g>
</g>
<g>
</g>
<g>
</g>
<g>
</g>
<g>
</g>
<g>
</g>
<g>
</g>
<g>
</g>
<g>
</g>
<g>
</g>
<g>
</g>
</svg>
