<?xml version="1.0" encoding="iso-8859-1"?>
<!-- Generator: Adobe Illustrator 19.0.0, SVG Export Plug-In . SVG Version: 6.00 Build 0)  -->
<svg version="1.1" id="Capa_1" xmlns="http://www.w3.org/2000/svg" xmlns:xlink="http://www.w3.org/1999/xlink" x="0px" y="0px"
	 viewBox="0 0 512.001 512.001" style="enable-background:new 0 0 512.001 512.001;" xml:space="preserve">
<g>
	<g>
		<path d="M490.44,148.7c-26.072-22.705-65.757-19.966-88.463,6.107c-2.977,3.419-5.567,7.136-7.733,11.094l-115.007,0.967
			l-0.103-83.672l11.229-23.476c0.485-1.015,0.736-2.125,0.734-3.25l-0.072-39.045C291.013,7.813,283.186,0,273.574,0
			c-0.007,0-0.015,0-0.021,0l-38.098,0.051c-9.621,0.014-17.437,7.853-17.426,17.478l0.072,39.047
			c0.002,1.282,0.333,2.542,0.961,3.659l13.073,23.274l0.104,83.754l-207.505,1.744c-6.646,0.055-12.871,2.694-17.531,7.433
			s-7.196,11.007-7.14,17.651c0.055,6.646,2.695,12.871,7.434,17.531c4.688,4.61,10.872,7.142,17.438,7.142
			c0.071,0,0.143-0.001,0.214-0.001l207.152-1.741l0.017,14.002c0.005,4.14,3.362,7.491,7.5,7.491c0.003,0,0.006,0,0.009,0
			c4.143-0.005,7.496-3.367,7.491-7.509l-0.185-149.472c-0.002-1.284-0.332-2.546-0.961-3.664l-13.075-23.276l-0.068-37.088
			c-0.002-1.352,1.097-2.453,2.447-2.455l38.097-0.052c0.001,0,0.002,0,0.003,0c1.35,0,2.449,1.098,2.451,2.451l0.069,37.339
			l-11.229,23.474c-0.484,1.013-0.735,2.122-0.734,3.246L264.387,287l-16.999,0.012l-0.032-26.009c-0.005-4.139-3.362-7.49-7.5-7.49
			c-0.003,0-0.007,0-0.01,0c-4.142,0.005-7.495,3.367-7.49,7.51l0.033,26.02l-11.823,0.016c-5.609,0.008-10.88,2.199-14.84,6.171
			s-6.139,9.248-6.131,14.855c0.008,5.609,2.198,10.88,6.17,14.841c2.761,2.754,6.161,4.622,9.857,5.517l0.191,143.115
			c0.015,10.818,4.241,20.981,11.899,28.621c7.646,7.626,17.799,11.823,28.595,11.823c0.019,0,0.038,0,0.058,0
			c10.816-0.014,20.981-4.24,28.621-11.898c7.64-7.66,11.837-17.835,11.822-28.652l-0.044-33.454c-0.006-4.139-3.362-7.49-7.5-7.49
			c-0.003,0-0.007,0-0.01,0c-4.143,0.006-7.496,3.368-7.49,7.51l0.044,33.455c0.01,6.811-2.634,13.216-7.444,18.039
			c-4.81,4.822-11.209,7.483-18.02,7.492c-0.012,0-0.023,0-0.036,0c-6.797,0-13.189-2.643-18.003-7.444
			c-4.823-4.81-7.484-11.21-7.493-18.02l-0.19-142.494l50.998-0.068l0.105,79.041c0.006,4.139,3.362,7.49,7.5,7.49
			c0.003,0,0.007,0,0.01,0c4.143-0.006,7.496-3.368,7.49-7.51l-0.107-80.258c2.915-1.033,5.594-2.691,7.843-4.945
			c3.961-3.972,6.139-9.247,6.131-14.856c-0.017-11.568-9.435-20.971-21-20.971c-0.009,0-0.019,0-0.027,0l-10.176,0.014
			l-0.087-70.353l110.437-0.929c3.508,10.662,9.774,20.105,18.347,27.571c11.58,10.085,26.381,15.368,41.314,15.368
			c8.362,0,16.767-1.657,24.671-5.055c2.369-1.019,4.049-3.184,4.448-5.731c0.398-2.548-0.54-5.121-2.484-6.815l-33.874-29.5
			l5.225-17.189l16.309-7.536l33.872,29.501c1.943,1.692,4.621,2.269,7.092,1.524c2.469-0.745,4.382-2.706,5.065-5.192
			C516.073,189.534,508.506,164.435,490.44,148.7z M25.023,203.763c-2.67,0.022-5.128-0.985-7.01-2.835
			c-1.882-1.851-2.93-4.322-2.951-6.962c-0.022-2.639,0.984-5.129,2.835-7.01c1.851-1.882,4.322-2.93,6.963-2.951l207.398-1.743
			l0.024,19.758L25.023,203.763z M289.582,301.965c0.003,0,0.005,0,0.008,0c3.305,0,5.996,2.688,6.001,5.992
			c0.002,1.603-0.62,3.11-1.752,4.245c-1.132,1.135-2.638,1.761-4.24,1.763l-68.997,0.092c-0.003,0-0.005,0-0.008,0
			c-3.305,0-5.996-2.687-6-5.992c-0.002-1.603,0.62-3.11,1.752-4.245c1.131-1.135,2.637-1.761,4.239-1.763L289.582,301.965z
			 M469.879,172.31c-2.231-1.941-5.392-2.39-8.072-1.152l-23.77,10.983c-1.941,0.897-3.407,2.581-4.029,4.628l-7.614,25.053
			c-0.859,2.827,0.021,5.896,2.25,7.837l27.066,23.571c-13.43,1.787-27.327-2.172-37.776-11.273
			c-7.701-6.706-12.954-15.508-15.194-25.454c-0.771-3.424-3.812-5.853-7.315-5.853c-0.021,0-0.043,0-0.064,0l-116.08,0.976
			l-0.025-19.758l119.71-1.007c2.929-0.024,5.575-1.752,6.776-4.424c1.923-4.273,4.462-8.237,7.547-11.781
			c17.275-19.836,47.465-21.92,67.301-4.646c10.451,9.103,16.284,22.326,16.355,35.871L469.879,172.31z"/>
	</g>
</g>
<g>
</g>
<g>
</g>
<g>
</g>
<g>
</g>
<g>
</g>
<g>
</g>
<g>
</g>
<g>
</g>
<g>
</g>
<g>
</g>
<g>
</g>
<g>
</g>
<g>
</g>
<g>
</g>
<g>
</g>
</svg>
