<?xml version="1.0" encoding="iso-8859-1"?>
<!-- Generator: Adobe Illustrator 19.0.0, SVG Export Plug-In . SVG Version: 6.00 Build 0)  -->
<svg version="1.1" id="Capa_1" xmlns="http://www.w3.org/2000/svg" xmlns:xlink="http://www.w3.org/1999/xlink" x="0px" y="0px"
	 viewBox="0 0 512 512" style="enable-background:new 0 0 512 512;" xml:space="preserve">
<g>
	<g>
		<path d="M245.853,99.5H91.147C54.674,99.5,25,129.174,25,165.646v20.704c0,36.475,29.674,66.148,66.148,66.148H207.95
			c2.451,0,4.808-0.742,6.82-2.149l26.657-18.66c3.394-2.376,4.219-7.052,1.843-10.445c-2.375-3.395-7.052-4.219-10.445-1.844
			L206.971,237.5H91.148C62.945,237.5,40,214.555,40,186.352v-20.704c0-28.203,22.945-51.147,51.147-51.147h154.705
			c28.203,0,51.147,22.944,51.147,51.147v8.831l-39.594,27.716c-3.394,2.376-4.219,7.052-1.843,10.445
			c2.374,3.394,7.05,4.22,10.445,1.844l40.919-28.644c3.177-2.224,5.073-5.866,5.073-9.743v-10.449
			C312,129.174,282.326,99.5,245.853,99.5z"/>
	</g>
</g>
<g>
	<g>
		<path d="M504.5,190.5h-26.738c-14.757,0-26.762,12.005-26.762,26.762V263.5h-6.991c-12.136,0-22.009,9.873-22.009,22.009v2.991
			h-52.423l-29.689-45.807c3.325-3.998,5.578-8.803,6.513-14.067c1.429-8.04-0.379-16.143-5.088-22.813l-7.116-10.082
			c1.797-2.756,2.801-5.999,2.804-9.379v-20.704c0-50.259-40.889-91.147-91.147-91.147H91.148C40.889,74.5,0,115.389,0,165.646
			v20.704c0,50.26,40.889,91.148,91.148,91.148h122.934c3.596,0,7.053-1.09,10-3.151l0.255-0.178l8.003,9.959
			c5.946,7.399,14.789,11.304,23.725,11.304c5.966,0,11.973-1.74,17.188-5.342l0.46-0.318c10.712,6.305,44.495,28.379,74.628,48.467
			c1.231,0.821,2.68,1.26,4.16,1.26H422v2.991c0,12.136,9.873,22.009,22.009,22.009H451v46.238
			c0,14.757,12.005,26.762,26.762,26.762H504.5c4.143,0,7.5-3.357,7.5-7.5V198C512,193.857,508.643,190.5,504.5,190.5z
			 M215.48,262.06c-0.411,0.288-0.895,0.44-1.398,0.44H91.148C49.16,262.5,15,228.339,15,186.352v-20.704
			C15,123.659,49.16,89.5,91.148,89.5h154.705c41.988,0,76.147,34.159,76.147,76.147v20.75c-0.001,0.688-0.373,1.359-0.997,1.796
			l0.001-0.001L215.48,262.06z M264.726,277.747c-6.588,4.553-15.678,3.227-20.694-3.016l-7.38-9.183l85.982-60.188l6.425,9.101
			c2.382,3.374,3.296,7.473,2.573,11.54c-0.723,4.067-2.992,7.601-6.392,9.948L264.726,277.747z M422,324.499h-67.231v0
			c-5.378-3.577-21.386-14.21-37.343-24.641c-11.462-7.493-20.663-13.422-27.348-17.622c-1.009-0.634-1.964-1.231-2.865-1.79
			l40.94-28.278l31.053,47.91c1.437,2.216,3.844,3.422,6.301,3.422c0.141,0,0.282-0.022,0.423-0.03
			c0.189,0.014,0.378,0.029,0.57,0.029H422V324.499z M451,349.5h-6.991c-3.864,0-7.009-3.145-7.009-7.009v-56.982
			c0-3.864,3.145-7.009,7.009-7.009H451V349.5z M497,422.5h-19.238c-6.485,0-11.762-5.276-11.762-11.762V217.261
			c0-6.485,5.276-11.762,11.762-11.762H497V422.5z"/>
	</g>
</g>
<g>
</g>
<g>
</g>
<g>
</g>
<g>
</g>
<g>
</g>
<g>
</g>
<g>
</g>
<g>
</g>
<g>
</g>
<g>
</g>
<g>
</g>
<g>
</g>
<g>
</g>
<g>
</g>
<g>
</g>
</svg>
