<?xml version="1.0" encoding="iso-8859-1"?>
<!-- Generator: Adobe Illustrator 19.0.0, SVG Export Plug-In . SVG Version: 6.00 Build 0)  -->
<svg version="1.1" id="Capa_1" xmlns="http://www.w3.org/2000/svg" xmlns:xlink="http://www.w3.org/1999/xlink" x="0px" y="0px"
	 viewBox="0 0 512.002 512.002" style="enable-background:new 0 0 512.002 512.002;" xml:space="preserve">
<g>
	<g>
		<path d="M457.256,290.568c-1.982-5.52-5.995-9.937-11.3-12.438l-15.887-7.492c0.259-3.839-0.268-7.725-1.608-11.456
			c-2.553-7.11-7.723-12.801-14.557-16.022l-6.552-3.089l17.84-38.382c2.622-5.643,1.709-12.35-2.324-17.088l-13.672-16.059
			l12.237-10.214c4.212-3.516,6.803-8.46,7.295-13.925c0.399-4.422-0.638-8.745-2.903-12.469l8.165-6.814
			c10.673-8.908,12.109-24.84,3.2-35.514l-5.529-6.625c-8.909-10.675-24.842-12.109-35.514-3.2l-8.279,6.91
			c-7.466-6.005-18.395-6.131-26.027,0.238l-12.936,10.797l-12.421-14.59c-1.425-1.674-3.512-2.638-5.71-2.638h-4.273V62.332
			c0-9.557-7.775-17.332-17.332-17.332h-21.668V17.332C287.501,7.775,279.726,0,270.169,0h-28.336
			c-9.557,0-17.332,7.775-17.332,17.332V45h-21.668c-9.557,0-17.332,7.775-17.332,17.332V80.5h-4.273
			c-2.21,0-4.308,0.975-5.733,2.664l-12.332,14.62L150.16,86.931c-7.632-6.369-18.561-6.244-26.027-0.238l-8.279-6.91
			c-10.674-8.91-26.605-7.474-35.514,3.2l-5.529,6.625c-8.909,10.674-7.473,26.605,3.201,35.514l8.164,6.814
			c-2.265,3.725-3.302,8.047-2.903,12.469c0.492,5.465,3.083,10.409,7.294,13.924l12.633,10.544l-14.003,16.601
			c-3.996,4.739-4.886,11.431-2.268,17.048l17.542,37.634l-6.374,3.005c-6.833,3.223-12.003,8.913-14.557,16.023
			c-1.34,3.73-1.867,7.617-1.608,11.456l-15.887,7.492c-5.305,2.501-9.317,6.918-11.3,12.438c-1.982,5.52-1.696,11.48,0.805,16.785
			l32.342,68.588c2.501,5.305,6.918,9.318,12.438,11.301c2.424,0.87,4.934,1.304,7.436,1.304c3.193,0,6.375-0.706,9.35-2.109
			l16.125-7.604c2.687,2.411,5.84,4.304,9.34,5.561c3.123,1.121,6.355,1.68,9.578,1.68c4.115-0.001,8.213-0.91,12.045-2.718
			l5.753-2.713l22.619,48.526c0.642,1.377,1.675,2.486,2.924,3.241v20.048c0,10.775,8.767,19.542,19.542,19.542h2.458v20.458
			c0,10.775,8.767,19.542,19.542,19.542h37.915c10.776,0,19.542-8.767,19.542-19.542V472h2.458c10.776,0,19.542-8.767,19.542-19.542
			v-20.027c1.269-0.757,2.318-1.875,2.966-3.27l22.555-48.528l5.775,2.723c3.833,1.808,7.931,2.718,12.045,2.718
			c3.222,0,6.455-0.559,9.578-1.68c3.5-1.257,6.653-3.15,9.34-5.561l16.125,7.604c2.975,1.403,6.156,2.109,9.35,2.109
			c2.502,0,5.011-0.434,7.436-1.304c5.52-1.982,9.937-5.996,12.438-11.3l32.342-68.589
			C458.953,302.049,459.238,296.088,457.256,290.568z M405.76,91.298c4.324-3.61,10.777-3.027,14.386,1.296l5.529,6.625
			c3.608,4.324,3.027,10.777-1.296,14.387l-7.969,6.651l-18.619-22.308L405.76,91.298z M371.453,98.446
			c2.345-1.957,5.844-1.642,7.801,0.703l2.213,2.651c0.001,0.001,0.001,0.002,0.002,0.002c0,0,0.001,0.001,0.002,0.002
			l31.056,37.209c0.947,1.135,1.396,2.571,1.264,4.045c-0.133,1.473-0.832,2.806-1.968,3.754l-12.35,10.308l-40.842-47.972
			L371.453,98.446z M239.501,17.332c0-1.286,1.046-2.332,2.332-2.332h28.336c1.286,0,2.332,1.046,2.332,2.332V45h-33V17.332z
			 M200.501,62.332c0-1.286,1.046-2.332,2.332-2.332h106.336c1.286,0,2.332,1.046,2.332,2.332V80h-111V62.332z M87.624,113.606
			c-4.324-3.61-4.905-10.063-1.297-14.387l5.529-6.625c3.609-4.324,10.063-4.903,14.387-1.296l7.969,6.651l-18.619,22.308
			L87.624,113.606z M100.179,146.812c-1.135-0.947-1.834-2.28-1.967-3.753c-0.132-1.474,0.316-2.91,1.264-4.046l31.055-37.208
			c0.001-0.001,0.002-0.001,0.002-0.002s0.001-0.002,0.002-0.002l2.212-2.651c0.948-1.136,2.282-1.834,3.755-1.967
			c1.472-0.137,2.91,0.315,4.046,1.264l12.943,10.803l-40.62,48.157L100.179,146.812z M110.719,372.87
			c-1.681,0.792-3.569,0.882-5.318,0.255c-1.749-0.628-3.148-1.899-3.94-3.581l-32.342-68.589c-0.792-1.68-0.883-3.568-0.255-5.316
			c0.628-1.749,1.899-3.148,3.58-3.941l14.129-6.663l38.275,81.173L110.719,372.87z M279.502,492.458h-0.001
			c0,2.505-2.038,4.542-4.542,4.542h-37.915c-2.505,0-4.542-2.037-4.542-4.542V472h47V492.458z M301.502,452.458h-0.001
			c0,2.505-2.038,4.542-4.542,4.542h-81.915c-2.505,0-4.542-2.037-4.542-4.542V433.5h91V452.458z M307.881,418.5H204.153
			l-39.467-84.67c-1.75-3.755-6.213-5.378-9.966-3.629c-3.754,1.75-5.379,6.212-3.629,9.967l12.529,26.88l-5.814,2.741
			c-3.208,1.514-6.816,1.687-10.155,0.487s-6.012-3.627-7.525-6.836l-41.981-89.032c-1.514-3.209-1.687-6.815-0.487-10.155
			c1.199-3.339,3.627-6.012,6.837-7.525l6.314-2.977l27.607,59.225c1.75,3.755,6.213,5.377,9.966,3.629
			c3.754-1.75,5.379-6.212,3.629-9.967l-51.486-110.454c-0.159-0.343-0.105-0.751,0.139-1.039l84.05-99.645H327.31l84.138,98.825
			c0.246,0.289,0.302,0.699,0.142,1.043L307.881,418.5z M371.876,363.439c-1.513,3.21-4.186,5.638-7.525,6.837
			c-3.339,1.199-6.946,1.027-10.156-0.488l-5.85-2.758l52.686-113.355l6.476,3.054c3.209,1.513,5.638,4.186,6.837,7.524
			c1.199,3.34,1.026,6.946-0.487,10.156L371.876,363.439z M442.884,300.955l-32.342,68.59c-0.792,1.681-2.192,2.952-3.94,3.58
			c-1.748,0.628-3.637,0.538-5.318-0.255l-14.129-6.662l38.276-81.173l14.128,6.662c1.681,0.793,2.952,2.192,3.58,3.941
			S443.676,299.275,442.884,300.955z"/>
	</g>
</g>
<g>
	<g>
		<path d="M256.001,330c-11.855,0-21.5,9.645-21.5,21.5c0,11.855,9.645,21.5,21.5,21.5s21.5-9.645,21.5-21.5
			C277.501,339.645,267.856,330,256.001,330z M256.001,358c-3.584,0-6.5-2.916-6.5-6.5c0-3.584,2.916-6.5,6.5-6.5s6.5,2.916,6.5,6.5
			C262.501,355.084,259.585,358,256.001,358z"/>
	</g>
</g>
<g>
	<g>
		<path d="M325.001,131c-4.737,0-9.197,1.204-13.092,3.322l-138.768,57.244c-0.436,0.18-0.842,0.4-1.224,0.648
			c-11.23,3.461-19.416,13.935-19.416,26.286c0,3.844,0.796,7.505,2.227,10.832c0.063,0.248,0.138,0.495,0.228,0.74l49.38,135.302
			C210.463,388.167,231.299,405,256.001,405c27.798,0,50.704-21.313,53.255-48.456c0.031-0.115,0.081-0.221,0.107-0.339
			l41.893-189.518c0.809-2.587,1.245-5.337,1.245-8.187C352.501,143.337,340.165,131,325.001,131z M167.501,218.5
			c0-6.893,5.607-12.5,12.5-12.5s12.5,5.607,12.5,12.5s-5.607,12.5-12.5,12.5S167.501,225.393,167.501,218.5z M256.001,390
			c-21.229,0-38.5-17.271-38.5-38.5s17.271-38.5,38.5-38.5s38.5,17.271,38.5,38.5S277.23,390,256.001,390z M301.316,323.112
			C291.842,308.043,275.077,298,256.001,298c-21.68,0-40.375,12.97-48.771,31.552l-30.57-83.762c1.096,0.134,2.209,0.21,3.341,0.21
			c15.164,0,27.5-12.337,27.5-27.5c0-8.357-3.752-15.85-9.655-20.898l99.739-41.145c-0.05,0.675-0.084,1.355-0.084,2.043
			c0,15.163,12.336,27.5,27.5,27.5c2.351,0,4.633-0.298,6.813-0.855L301.316,323.112z M336.964,162.111
			c-0.03,0.086-0.058,0.174-0.085,0.262c-1.634,5.001-6.338,8.627-11.878,8.627c-6.893,0-12.5-5.607-12.5-12.5s5.607-12.5,12.5-12.5
			s12.5,5.607,12.5,12.5C337.501,159.756,337.31,160.967,336.964,162.111z"/>
	</g>
</g>
<g>
</g>
<g>
</g>
<g>
</g>
<g>
</g>
<g>
</g>
<g>
</g>
<g>
</g>
<g>
</g>
<g>
</g>
<g>
</g>
<g>
</g>
<g>
</g>
<g>
</g>
<g>
</g>
<g>
</g>
</svg>
