<?xml version="1.0" encoding="iso-8859-1"?>
<!-- Generator: Adobe Illustrator 19.0.0, SVG Export Plug-In . SVG Version: 6.00 Build 0)  -->
<svg version="1.1" id="Capa_1" xmlns="http://www.w3.org/2000/svg" xmlns:xlink="http://www.w3.org/1999/xlink" x="0px" y="0px"
	 viewBox="0 0 512.001 512.001" style="enable-background:new 0 0 512.001 512.001;" xml:space="preserve">
<g>
	<g>
		<path d="M146.152,313.368c-28.385,0-51.479,23.093-51.479,51.479s23.093,51.479,51.479,51.479s51.479-23.093,51.479-51.479
			S174.537,313.368,146.152,313.368z M146.152,401.332c-20.118,0-36.485-16.367-36.485-36.485s16.367-36.485,36.485-36.485
			s36.485,16.367,36.485,36.485S166.27,401.332,146.152,401.332z"/>
	</g>
</g>
<g>
	<g>
		<path d="M146.152,263.389c-11.299,0-20.492,9.192-20.492,20.492c0,11.299,9.192,20.492,20.492,20.492s20.492-9.192,20.492-20.492
			C166.644,272.581,157.452,263.389,146.152,263.389z M146.152,289.378c-3.032,0-5.498-2.466-5.498-5.498s2.466-5.498,5.498-5.498
			s5.498,2.466,5.498,5.498S149.184,289.378,146.152,289.378z"/>
	</g>
</g>
<g>
	<g>
		<path d="M217.895,293.106c-3.87-3.87-9.016-6.002-14.49-6.002c-5.474,0-10.62,2.131-14.489,6.002
			c-3.871,3.87-6.003,9.016-6.003,14.49s2.132,10.62,6.003,14.49c3.994,3.994,9.24,5.992,14.489,5.992
			c5.247,0,10.495-1.998,14.489-5.992c0,0,0,0,0.001-0.001c3.87-3.87,6.002-9.016,6.002-14.489
			C223.896,302.121,221.765,296.976,217.895,293.106z M207.292,311.483c-2.144,2.143-5.632,2.145-7.775,0
			c-1.039-1.038-1.61-2.419-1.61-3.887c-0.001-1.469,0.571-2.85,1.61-3.888c1.039-1.038,2.418-1.609,3.887-1.609
			c1.468,0,2.849,0.572,3.887,1.61c1.039,1.038,1.61,2.418,1.61,3.887C208.902,309.064,208.331,310.444,207.292,311.483z"/>
	</g>
</g>
<g>
	<g>
		<path d="M227.119,344.355c-11.299,0-20.492,9.192-20.492,20.492s9.192,20.492,20.492,20.492s20.492-9.192,20.492-20.492
			S238.417,344.355,227.119,344.355z M227.119,370.345c-3.032,0-5.498-2.466-5.498-5.498s2.466-5.498,5.498-5.498
			s5.498,2.466,5.498,5.498S230.149,370.345,227.119,370.345z"/>
	</g>
</g>
<g>
	<g>
		<path d="M217.893,407.608c-7.99-7.989-20.989-7.987-28.978,0c-3.87,3.87-6.003,9.017-6.003,14.49
			c0,5.475,2.132,10.62,6.002,14.489c0,0,0.001,0.002,0.001,0.001c3.87,3.87,9.016,6.001,14.489,6.001s10.62-2.131,14.49-6.001
			c3.87-3.87,6.001-9.016,6.001-14.49S221.764,411.48,217.893,407.608z M207.292,425.986c-1.039,1.039-2.419,1.61-3.887,1.61
			s-2.849-0.572-3.887-1.609c0-0.001,0-0.001-0.001-0.001c-1.039-1.038-1.61-2.418-1.61-3.887c0-1.468,0.572-2.85,1.61-3.887
			c1.072-1.072,2.479-1.607,3.887-1.607c1.407,0,2.816,0.536,3.887,1.606c1.039,1.039,1.61,2.42,1.61,3.888
			C208.902,423.568,208.329,424.948,207.292,425.986z"/>
	</g>
</g>
<g>
	<g>
		<path d="M146.152,425.322c-11.299,0-20.492,9.192-20.492,20.492s9.192,20.492,20.492,20.492s20.492-9.192,20.492-20.492
			S157.451,425.322,146.152,425.322z M146.152,451.311c-3.032,0-5.498-2.466-5.498-5.498s2.466-5.498,5.498-5.498
			s5.498,2.466,5.498,5.498S149.183,451.311,146.152,451.311z"/>
	</g>
</g>
<g>
	<g>
		<path d="M103.389,407.608c-7.99-7.988-20.988-7.989-28.978,0c-3.871,3.871-6.003,9.017-6.003,14.49
			c0,5.475,2.131,10.62,6.002,14.49c3.87,3.87,9.016,6.001,14.49,6.001c5.474,0,10.62-2.131,14.489-6.001
			c3.871-3.87,6.003-9.016,6.003-14.49S107.259,411.479,103.389,407.608z M92.786,425.987c-1.039,1.038-2.418,1.609-3.887,1.609
			c-1.468,0-2.849-0.572-3.887-1.61c-1.039-1.038-1.61-2.418-1.61-3.887c0-1.468,0.572-2.849,1.61-3.887
			c2.143-2.144,5.631-2.144,7.775,0c1.039,1.038,1.61,2.419,1.61,3.887C94.398,423.568,93.826,424.948,92.786,425.987z"/>
	</g>
</g>
<g>
	<g>
		<path d="M65.186,344.355c-11.299,0-20.492,9.192-20.492,20.492s9.192,20.492,20.492,20.492s20.492-9.192,20.492-20.492
			S76.485,344.355,65.186,344.355z M65.186,370.345c-3.032,0-5.498-2.466-5.498-5.498s2.466-5.498,5.498-5.498
			s5.498,2.466,5.498,5.498S68.216,370.345,65.186,370.345z"/>
	</g>
</g>
<g>
	<g>
		<path d="M103.391,293.107c0,0.001,0,0-0.001-0.001c-3.87-3.87-9.016-6.001-14.489-6.001c-5.473,0-10.62,2.131-14.49,6.001
			c-3.87,3.87-6.002,9.016-6.002,14.49c0,5.474,2.131,10.619,6.003,14.49c3.993,3.994,9.24,5.992,14.488,5.991
			c5.248,0,10.496-1.997,14.49-5.991c3.87-3.87,6.003-9.017,6.003-14.49C109.392,302.121,107.26,296.976,103.391,293.107z
			 M92.788,311.483c-2.143,2.143-5.632,2.144-7.775,0.001c-1.039-1.039-1.61-2.42-1.61-3.888c-0.001-1.469,0.571-2.85,1.609-3.887
			c1.039-1.039,2.419-1.61,3.887-1.61c1.468,0,2.849,0.572,3.887,1.609c0,0.001,0,0.001,0.001,0.001
			c1.039,1.038,1.61,2.418,1.61,3.887C94.399,309.064,93.827,310.445,92.788,311.483z"/>
	</g>
</g>
<g>
	<g>
		<path d="M469.581,77.137h-2.984l2.11-2.109c2.393-2.394,3.71-5.575,3.71-8.958c0-3.384-1.317-6.564-3.71-8.958l-10.823-10.823
			c-4.939-4.939-12.976-4.938-17.917,0.001l-2.109,2.109v-2.984c0-6.985-5.684-12.669-12.669-12.669h-15.305
			c-6.985,0-12.669,5.684-12.669,12.669v2.984l-2.109-2.11c-4.939-4.939-12.977-4.939-17.916,0L366.371,57.11
			c-2.393,2.394-3.71,5.575-3.71,8.958c0,3.384,1.317,6.564,3.71,8.958l2.111,2.11h-2.984c-6.985,0-12.669,5.684-12.669,12.669
			v15.305c0,6.985,5.684,12.669,12.669,12.669h2.984l-2.11,2.109c-2.393,2.394-3.71,5.575-3.71,8.958s1.317,6.564,3.71,8.958
			l10.821,10.822c4.939,4.939,12.976,4.938,17.917-0.001l2.109-2.109v2.984c0,6.985,5.684,12.669,12.669,12.669h15.305
			c6.985,0,12.669-5.684,12.669-12.669v-2.984l2.109,2.11c4.94,4.939,12.977,4.939,17.916,0l10.822-10.822
			c2.393-2.394,3.71-5.575,3.71-8.958s-1.317-6.564-3.71-8.958l-2.11-2.109h2.984c6.985,0,12.669-5.684,12.669-12.669V89.806
			C482.25,82.821,476.566,77.137,469.581,77.137z M467.256,102.783H463.7c-5.238,0-9.871,3.19-11.804,8.13
			c-0.178,0.456-0.365,0.907-0.561,1.353c-2.12,4.838-1.106,10.348,2.584,14.037l2.541,2.541l-7.533,7.533l-2.541-2.542
			c-3.69-3.688-9.2-4.705-14.035-2.585c-0.45,0.197-0.905,0.386-1.355,0.563c-4.938,1.931-8.13,6.563-8.13,11.803v3.558h-10.654
			v-3.558c0-5.239-3.191-9.872-8.122-11.8c-0.459-0.18-0.914-0.368-1.361-0.564c-4.837-2.121-10.347-1.106-14.036,2.585
			l-2.541,2.541l-7.533-7.533l2.541-2.541c3.689-3.69,4.704-9.199,2.584-14.038c-0.195-0.446-0.382-0.897-0.562-1.355
			c-1.932-4.936-6.565-8.127-11.803-8.127h-3.557V92.131h3.557c5.238,0,9.871-3.191,11.804-8.13
			c0.178-0.456,0.365-0.907,0.561-1.353c2.12-4.838,1.106-10.348-2.584-14.037l-2.541-2.541l7.533-7.533l2.541,2.542
			c3.69,3.688,9.199,4.703,14.035,2.585c0.45-0.197,0.905-0.386,1.355-0.563c4.938-1.931,8.13-6.563,8.13-11.803V47.74h10.654v3.557
			c0,5.239,3.191,9.872,8.122,11.8c0.459,0.18,0.914,0.368,1.361,0.564c4.837,2.121,10.347,1.106,14.036-2.585l2.541-2.541
			l7.533,7.533l-2.541,2.541c-3.689,3.69-4.704,9.199-2.584,14.038c0.195,0.446,0.382,0.897,0.562,1.355
			c1.932,4.936,6.565,8.127,11.803,8.127h3.557V102.783z"/>
	</g>
</g>
<g>
	<g>
		<path d="M417.54,70.738c-14.733,0-26.721,11.986-26.721,26.72s11.987,26.72,26.721,26.72s26.72-11.986,26.72-26.72
			S432.273,70.738,417.54,70.738z M417.54,109.183c-6.465,0-11.727-5.259-11.727-11.725s5.261-11.727,11.727-11.727
			s11.726,5.261,11.726,11.726C429.266,103.922,424.005,109.183,417.54,109.183z"/>
	</g>
</g>
<g>
	<g>
		<path d="M417.54,2.997c-23.5,0-45.021,8.628-61.568,22.88c-0.119,0.085-0.24,0.165-0.355,0.258l-239.483,193.35
			c-0.834-0.55-1.715-1.038-2.654-1.437c-4.096-1.751-8.63-1.802-12.765-0.142l-21.919,8.796c-4.135,1.658-7.377,4.828-9.127,8.926
			c-1.75,4.097-1.8,8.629-0.142,12.765l2.39,5.956c-12.699,8.659-23.631,19.354-32.586,31.879l-5.907-2.523
			c-4.097-1.75-8.629-1.801-12.765-0.142c-4.134,1.658-7.376,4.829-9.126,8.925l-9.28,21.72c-1.75,4.096-1.8,8.629-0.142,12.764
			c1.659,4.135,4.829,7.376,8.925,9.126l5.907,2.523c-2.86,15.129-3.032,30.42-0.512,45.585l-5.956,2.39
			c-4.134,1.658-7.376,4.829-9.126,8.926c-1.75,4.097-1.8,8.63-0.142,12.765l8.795,21.921c1.659,4.135,4.829,7.376,8.925,9.126
			c4.096,1.75,8.63,1.8,12.764,0.142l5.956-2.39c8.659,12.698,19.353,23.63,31.879,32.588l-2.524,5.907
			c-3.614,8.456,0.327,18.276,8.784,21.889l21.72,9.28c8.46,3.615,18.276-0.327,21.89-8.782l2.524-5.908
			c15.128,2.862,30.421,3.032,45.584,0.512l2.39,5.957c1.659,4.135,4.829,7.376,8.925,9.126c2.105,0.9,4.327,1.35,6.55,1.35
			c2.102,0,4.205-0.402,6.214-1.208l21.919-8.796c4.135-1.658,7.377-4.828,9.127-8.926c1.75-4.097,1.8-8.629,0.142-12.765
			l-2.39-5.956c12.698-8.658,23.63-19.353,32.586-31.879l5.907,2.523c4.096,1.75,8.629,1.801,12.765,0.142
			c4.134-1.658,7.376-4.829,9.126-8.925l9.28-21.72c1.508-3.529,1.746-7.381,0.725-11.024L488.82,159.435
			c0.114-0.141,0.214-0.285,0.315-0.427c14.243-16.544,22.866-38.058,22.866-61.551C512.001,45.372,469.625,2.997,417.54,2.997z
			 M276.261,405.598l-9.28,21.72c-0.365,0.854-1.355,1.253-2.211,0.888l-10.161-4.341c-4.146-1.772-8.968-0.326-11.458,3.436
			c-9.116,13.747-20.795,25.173-34.713,33.957c-3.819,2.412-5.372,7.199-3.691,11.381l4.113,10.25
			c0.215,0.535,0.111,0.997-0.015,1.289c-0.125,0.293-0.386,0.687-0.922,0.901l-21.921,8.797c-0.535,0.214-0.998,0.11-1.289-0.015
			c-0.293-0.125-0.687-0.387-0.902-0.922l-4.114-10.254c-1.443-3.591-4.914-5.857-8.667-5.857c-0.617,0-1.242,0.062-1.867,0.188
			c-16.13,3.272-32.466,3.09-48.553-0.544c-4.404-0.993-8.885,1.291-10.658,5.437l-4.341,10.161
			c-0.365,0.855-1.357,1.253-2.211,0.888l-21.72-9.28c-0.854-0.365-1.251-1.356-0.888-2.211l4.342-10.162
			c1.77-4.145,0.325-8.965-3.437-11.458c-13.747-9.116-25.173-20.795-33.956-34.71c-2.41-3.819-7.198-5.373-11.381-3.694
			l-10.252,4.113c-0.536,0.214-0.998,0.11-1.289-0.015c-0.293-0.125-0.687-0.387-0.902-0.922l-8.795-21.921
			c-0.215-0.535-0.111-0.997,0.015-1.289c0.125-0.293,0.386-0.687,0.922-0.902l10.249-4.112c4.186-1.68,6.571-6.112,5.673-10.536
			c-3.272-16.129-3.089-32.466,0.544-48.553c0.996-4.404-1.291-8.887-5.437-10.658l-10.161-4.341
			c-0.53-0.227-0.783-0.627-0.902-0.922c-0.119-0.296-0.212-0.76,0.015-1.289l9.28-21.72c0.364-0.854,1.354-1.252,2.211-0.888
			l10.161,4.341c4.143,1.771,8.965,0.326,11.459-3.437c9.116-13.746,20.794-25.171,34.712-33.956
			c3.819-2.412,5.372-7.199,3.691-11.381l-4.113-10.25c-0.215-0.535-0.111-0.997,0.015-1.289c0.125-0.293,0.386-0.687,0.922-0.901
			l21.921-8.797c0.535-0.215,0.997-0.111,1.289,0.015c0.125,0.053,0.267,0.138,0.406,0.251c0.239,0.784,0.614,1.537,1.122,2.231
			l3.488,8.692c1.68,4.182,6.108,6.561,10.535,5.67c16.129-3.273,32.465-3.091,48.553,0.544c4.405,0.996,8.885-1.291,10.658-5.437
			l4.341-10.161c0.365-0.855,1.357-1.25,2.211-0.888l21.72,9.28c0.854,0.365,1.252,1.356,0.888,2.211l-4.342,10.162
			c-1.77,4.145-0.325,8.965,3.437,11.458c13.747,9.116,25.173,20.795,33.956,34.71c2.409,3.818,7.196,5.372,11.381,3.694
			l10.251-4.112l0.001-0.001c0.535-0.215,0.997-0.112,1.289,0.015c0.293,0.125,0.687,0.387,0.902,0.922l8.795,21.921
			c0.215,0.535,0.111,0.997-0.015,1.289c-0.125,0.293-0.386,0.687-0.922,0.902l-10.249,4.112c-4.186,1.68-6.571,6.111-5.673,10.536
			c3.272,16.129,3.089,32.466-0.544,48.553c-0.996,4.404,1.292,8.887,5.437,10.658l10.161,4.341c0.53,0.227,0.783,0.627,0.902,0.922
			C276.395,404.604,276.488,405.068,276.261,405.598z M417.54,176.925c-15.463,0-30.453-4.447-43.352-12.861
			c-3.468-2.26-8.113-1.284-10.375,2.184c-2.262,3.469-1.284,8.113,2.183,10.375c15.341,10.007,33.164,15.296,51.544,15.296
			c10.078,0,19.789-1.592,28.903-4.529L280.548,389.293l-5.188-2.216c2.86-15.129,3.032-30.42,0.512-45.585l5.956-2.39
			c4.134-1.658,7.376-4.829,9.126-8.926c1.75-4.097,1.8-8.63,0.142-12.765L282.3,295.49c-1.659-4.135-4.829-7.376-8.925-9.126
			c-4.097-1.751-8.629-1.801-12.764-0.142l-5.956,2.39c-8.659-12.698-19.353-23.63-31.879-32.588l2.524-5.907
			c3.614-8.456-0.327-18.276-8.784-21.889l-21.72-9.28c-8.457-3.615-18.276,0.327-21.89,8.782l-2.524,5.908
			c-15.129-2.862-30.422-3.032-45.584-0.512l-0.414-1.033L327.843,67.83c-3.088,9.323-4.764,19.283-4.764,29.628
			c0,20.74,6.599,40.428,19.085,56.934c2.497,3.303,7.2,3.954,10.502,1.456c3.303-2.498,3.954-7.199,1.456-10.502
			c-10.5-13.881-16.049-30.44-16.049-47.889c0-43.819,35.649-79.467,79.467-79.467c43.818,0,79.467,35.648,79.467,79.467
			S461.358,176.925,417.54,176.925z"/>
	</g>
</g>
<g>
</g>
<g>
</g>
<g>
</g>
<g>
</g>
<g>
</g>
<g>
</g>
<g>
</g>
<g>
</g>
<g>
</g>
<g>
</g>
<g>
</g>
<g>
</g>
<g>
</g>
<g>
</g>
<g>
</g>
</svg>
