<?xml version="1.0" encoding="iso-8859-1"?>
<!-- Generator: Adobe Illustrator 19.0.0, SVG Export Plug-In . SVG Version: 6.00 Build 0)  -->
<svg version="1.1" id="Capa_1" xmlns="http://www.w3.org/2000/svg" xmlns:xlink="http://www.w3.org/1999/xlink" x="0px" y="0px"
	 viewBox="0 0 512 512" style="enable-background:new 0 0 512 512;" xml:space="preserve">
<g>
	<g>
		<path d="M421.5,185.5h-331c-4.143,0-7.5,3.357-7.5,7.5v212c0,4.143,3.357,7.5,7.5,7.5h331c4.143,0,7.5-3.357,7.5-7.5V193
			C429,188.857,425.643,185.5,421.5,185.5z M414,369H240c-4.143,0-7.5,3.357-7.5,7.5s3.357,7.5,7.5,7.5h174v13.5H98V384h112
			c4.143,0,7.5-3.357,7.5-7.5s-3.357-7.5-7.5-7.5H98v-15.5h316V369z M414,306.5h-40c-4.143,0-7.5,3.357-7.5,7.5s3.357,7.5,7.5,7.5
			h40v17H98v-17h246c4.143,0,7.5-3.357,7.5-7.5s-3.357-7.5-7.5-7.5H98v-15h316V306.5z M414,276.5H98v-17h316V276.5z M414,214H171
			c-4.143,0-7.5,3.357-7.5,7.5s3.357,7.5,7.5,7.5h243v15.5H98V229h43c4.143,0,7.5-3.357,7.5-7.5s-3.357-7.5-7.5-7.5H98v-13.5h316
			V214z"/>
	</g>
</g>
<g>
	<g>
		<path d="M495.46,208.5H483v-10.265c0-11.985-9.75-21.735-21.735-21.735h-8.011c-2.45-9.196-10.826-16-20.784-16H208v-14.961
			c0-6.892-4.666-12.701-11-14.472v-10.705c0-0.291-0.028-0.575-0.044-0.862h3.396c4.029,0,7.794-1.797,10.326-4.931
			c2.533-3.134,3.501-7.191,2.657-11.13L198.19,32.765c-1.522-7.106-7.902-12.265-15.17-12.265h-18.238h-16.564H129.98
			c-7.268,0-13.648,5.158-15.172,12.265l-15.144,70.674c-0.845,3.939,0.123,7.997,2.656,11.131
			c2.532,3.134,6.297,4.931,10.326,4.931h3.396c-0.016,0.287-0.044,0.571-0.044,0.862v10.705c-6.334,1.771-11,7.58-11,14.472v14.96
			H79.53c-9.958,0-18.333,6.804-20.784,16h-8.011C38.75,176.5,29,186.25,29,198.235V208.5H16.54C7.42,208.5,0,215.92,0,225.04
			v147.92c0,9.12,7.42,16.54,16.54,16.54H29v10.265c0,11.985,9.75,21.735,21.735,21.735h8.011c2.45,9.196,10.826,16,20.784,16H249
			v15.961c0,8.293,6.746,15.039,15.039,15.039H292v9.285c0,7.563,6.152,13.715,13.715,13.715h35.57
			c7.563,0,13.715-6.152,13.715-13.715V468.5h26.961c8.293,0,15.039-6.746,15.039-15.039V437.5h35.47
			c9.958,0,18.333-6.804,20.784-16h8.011c11.985,0,21.735-9.75,21.735-21.735V389.5h12.46c9.12,0,16.54-7.42,16.54-16.54V225.04
			C512,215.92,504.58,208.5,495.46,208.5z M29,374.5H16.54c-0.85,0-1.54-0.69-1.54-1.54V225.04c0-0.85,0.69-1.54,1.54-1.54H29V374.5
			z M58,406.5h-7.265c-3.714,0-6.735-3.021-6.735-6.735V382V216v-17.765c0-3.714,3.021-6.735,6.735-6.735H58V406.5z M183.02,35.5
			c0.242,0,0.454,0.172,0.503,0.407l14.699,68.593h-17.085h-1.696l-4.617-69H183.02z M193,160.5h-72.987l0.026-15h3.461h66h3.461
			L193,160.5z M153.209,35.5h6.581l4.617,69h-15.815L153.209,35.5z M170.196,119.5h10.942c0.476,0,0.862,0.387,0.862,0.862V130.5
			h-51v-10.138c0-0.476,0.387-0.862,0.862-0.862h10.943H170.196z M114.777,104.5l14.699-68.593c0.051-0.235,0.264-0.407,0.505-0.407
			h8.195l-4.618,69h-1.696H114.777z M340,476.5h-33v-8h33V476.5z M381.978,453.499c-0.001,0-0.005,0.001-0.017,0.001L264,453.461
			V437.5h117.993L381.978,453.499z M468,216v166v17.765c0,3.714-3.021,6.735-6.735,6.735H454v-133c0-4.143-3.357-7.5-7.5-7.5
			s-7.5,3.357-7.5,7.5v142.47c0,3.601-2.93,6.53-6.53,6.53H389.5h-133H79.53c-3.601,0-6.53-2.93-6.53-6.53V414V184v-1.97
			c0-3.601,2.93-6.53,6.53-6.53h32.97h88h231.97c3.601,0,6.53,2.93,6.53,6.53v61.47c0,4.143,3.357,7.5,7.5,7.5s7.5-3.357,7.5-7.5
			v-52h7.265c3.714,0,6.735,3.021,6.735,6.735V216z M497,372.96c0,0.85-0.69,1.54-1.54,1.54H483v-151h12.46
			c0.85,0,1.54,0.69,1.54,1.54V372.96z"/>
	</g>
</g>
<g>
</g>
<g>
</g>
<g>
</g>
<g>
</g>
<g>
</g>
<g>
</g>
<g>
</g>
<g>
</g>
<g>
</g>
<g>
</g>
<g>
</g>
<g>
</g>
<g>
</g>
<g>
</g>
<g>
</g>
</svg>
