<?xml version="1.0" encoding="iso-8859-1"?>
<!-- Generator: Adobe Illustrator 19.0.0, SVG Export Plug-In . SVG Version: 6.00 Build 0)  -->
<svg version="1.1" id="Capa_1" xmlns="http://www.w3.org/2000/svg" xmlns:xlink="http://www.w3.org/1999/xlink" x="0px" y="0px"
	 viewBox="0 0 512.005 512.005" style="enable-background:new 0 0 512.005 512.005;" xml:space="preserve">
<g>
	<g>
		<path d="M254.605,100.039c-25.165-0.346-49.058-10.104-67.279-27.473c-18.16-17.31-29.048-40.588-30.66-65.543
			c-0.267-4.136-3.856-7.288-7.972-7.005c-4.136,0.267-7.272,3.836-7.005,7.972c0.662,10.256,2.692,20.261,5.97,29.799
			c-8.041,7.943-12.724,18.895-12.724,30.281v23.201c0,16.217,9.128,30.338,22.512,37.507v27.854
			c-13.384,7.17-22.512,21.291-22.512,37.507v23.201c0,16.217,9.128,30.338,22.512,37.507v27.854
			c-13.384,7.17-22.512,21.291-22.512,37.507v23.201c0,16.217,9.128,30.338,22.512,37.507v27.854
			c-13.384,7.17-22.512,21.291-22.512,37.507v23.201c0,23.448,19.075,42.523,42.523,42.523c23.448,0,42.523-19.075,42.523-42.523
			v-23.201c0-16.616-9.586-31.028-23.513-38.021v-26.832c13.927-6.992,23.513-21.404,23.513-38.021v-23.201
			c0-16.616-9.586-31.028-23.513-38.021V255.36c13.927-6.992,23.513-21.404,23.513-38.021v-23.201
			c0-16.616-9.586-31.028-23.513-38.021v-26.84c8.869-4.453,16.048-11.932,20.048-21.22c12.018,4.408,24.799,6.806,37.881,6.985
			c0.035,0.001,0.07,0.001,0.105,0.001c4.096,0,7.444-3.292,7.501-7.4C262.062,103.501,258.749,100.096,254.605,100.039z
			 M173.707,80.184c1.066,1.1,2.149,2.184,3.263,3.245c1.386,1.322,2.801,2.601,4.241,3.844v2.34c0,2.068-1.684,3.752-3.752,3.752
			c-2.068,0-3.752-1.684-3.752-3.752V80.184z M204.974,446.277v23.201c0,15.171-12.344,27.515-27.515,27.515
			s-27.515-12.344-27.515-27.515v-23.201c0-15.171,12.344-27.515,27.515-27.515S204.974,431.106,204.974,446.277z M172.456,404.058
			v-18.431c1.642,0.193,3.31,0.304,5.003,0.304c1.35,0,2.683-0.07,4.002-0.194v18.211c-1.319-0.124-2.652-0.194-4.002-0.194
			C175.766,403.754,174.098,403.865,172.456,404.058z M204.974,320.208v23.201c0,15.171-12.344,27.515-27.515,27.515
			s-27.515-12.344-27.515-27.515v-23.201c0-15.171,12.344-27.515,27.515-27.515S204.974,305.037,204.974,320.208z M172.456,277.989
			v-18.431c1.642,0.193,3.31,0.304,5.003,0.304c1.35,0,2.683-0.07,4.002-0.194v18.211c-1.319-0.124-2.652-0.194-4.002-0.194
			C175.766,277.685,174.098,277.796,172.456,277.989z M204.974,194.139v23.201c0,15.171-12.344,27.515-27.515,27.515
			s-27.515-12.344-27.515-27.515v-23.201c0-15.171,12.344-27.515,27.515-27.515S204.974,178.968,204.974,194.139z M172.456,151.92
			v-18.431c1.642,0.193,3.31,0.304,5.003,0.304c1.348,0,2.681-0.068,4.002-0.193v18.21c-1.319-0.124-2.652-0.194-4.002-0.194
			C175.766,151.616,174.098,151.727,172.456,151.92z M177.459,118.786c-15.171,0-27.515-12.344-27.515-27.515V68.071
			c0-5.371,1.529-10.473,4.335-14.831c1.733,3.338,3.629,6.594,5.689,9.753c-0.824,2.138-1.271,4.419-1.271,6.735v19.886
			c0,10.345,8.416,18.76,18.76,18.76c7.635,0,14.209-4.591,17.133-11.153c2.668,1.698,5.399,3.284,8.189,4.75
			C198.549,111.968,188.656,118.786,177.459,118.786z"/>
	</g>
</g>
<g>
	<g>
		<path d="M313.502,0.059c-4.104-0.505-7.857,2.422-8.361,6.536c-3.035,24.762-24.159,43.436-49.139,43.436
			s-46.105-18.673-49.14-43.436c-0.504-4.113-4.254-7.042-8.361-6.536c-4.113,0.504-7.04,4.247-6.536,8.361
			c3.956,32.279,31.484,56.619,64.035,56.619c32.551,0,60.08-24.34,64.036-56.619C320.542,4.306,317.615,0.562,313.502,0.059z"/>
	</g>
</g>
<g>
	<g>
		<path d="M177.459,177.037c-10.345,0-18.76,8.416-18.76,18.76v19.886c0,10.345,8.416,18.76,18.76,18.76
			c10.345,0,18.76-8.416,18.76-18.76v-19.886C196.219,185.453,187.804,177.037,177.459,177.037z M181.211,215.683
			c0,2.068-1.684,3.752-3.752,3.752c-2.068,0-3.752-1.684-3.752-3.752v-19.886c0-2.068,1.684-3.752,3.752-3.752
			c2.068,0,3.752,1.683,3.752,3.752V215.683z"/>
	</g>
</g>
<g>
	<g>
		<path d="M177.459,303.106c-10.345,0-18.76,8.416-18.76,18.76v19.886c0,10.345,8.416,18.76,18.76,18.76
			c10.345,0,18.76-8.416,18.76-18.76v-19.886C196.219,311.521,187.804,303.106,177.459,303.106z M181.211,341.752
			c0,2.068-1.684,3.752-3.752,3.752c-2.068,0-3.752-1.684-3.752-3.752v-19.886c0-2.068,1.684-3.752,3.752-3.752
			c2.068,0,3.752,1.683,3.752,3.752V341.752z"/>
	</g>
</g>
<g>
	<g>
		<path d="M177.459,429.174c-10.345,0-18.76,8.416-18.76,18.76v19.886c0,10.345,8.416,18.76,18.76,18.76
			c10.345,0,18.76-8.416,18.76-18.76v-19.886C196.219,437.59,187.804,429.174,177.459,429.174z M181.211,467.821
			c0,2.068-1.684,3.752-3.752,3.752c-2.068,0-3.752-1.684-3.752-3.752v-19.886c0-2.068,1.684-3.752,3.752-3.752
			c2.068,0,3.752,1.683,3.752,3.752V467.821z"/>
	</g>
</g>
<g>
	<g>
		<path d="M377.069,217.342v-23.201c0-16.217-9.128-30.338-22.512-37.507V128.78c13.384-7.172,22.511-21.292,22.511-37.508V68.071
			c0-11.39-4.686-22.346-12.733-30.291c3.256-9.469,5.312-19.464,5.979-29.79c0.267-4.136-2.869-7.705-7.005-7.972
			c-4.134-0.283-7.705,2.869-7.972,7.005c-2.729,42.254-31.991,78.206-72.814,89.46c-3.995,1.102-6.341,5.233-5.24,9.229
			c0.918,3.328,3.938,5.512,7.231,5.512c0.659,0,1.331-0.088,1.998-0.271c3.052-0.841,6.043-1.808,8.978-2.883
			c4,9.283,11.178,16.759,20.045,21.212v26.84c-13.927,6.992-23.513,21.404-23.513,38.021v23.201
			c0,16.616,9.586,31.028,23.513,38.021v26.828c-13.927,6.992-23.513,21.404-23.513,38.021v23.201
			c0,16.616,9.586,31.028,23.513,38.021v26.828c-13.927,6.992-23.513,21.404-23.513,38.021v23.201
			c0,23.448,19.075,42.523,42.523,42.523s42.523-19.075,42.523-42.523v-23.201c0-16.217-9.128-30.338-22.512-37.507v-27.854
			c13.384-7.17,22.512-21.291,22.512-37.507v-23.201c0-16.217-9.128-30.338-22.512-37.507V254.85
			C367.941,247.68,377.069,233.559,377.069,217.342z M330.793,87.293c2.609-2.25,5.114-4.612,7.504-7.082v9.402
			c0,2.068-1.684,3.752-3.752,3.752s-3.752-1.684-3.752-3.752V87.293z M309.221,101.969c2.805-1.472,5.539-3.053,8.194-4.74
			c2.927,6.557,9.497,11.145,17.129,11.145c10.345,0,18.76-8.416,18.76-18.76V69.729c0-2.318-0.447-4.603-1.274-6.743
			c2.052-3.153,3.945-6.413,5.682-9.763c2.815,4.363,4.346,9.471,4.346,14.849v23.201c0,15.171-12.344,27.515-27.515,27.515
			C323.348,118.786,313.453,111.967,309.221,101.969z M339.547,133.491v18.43c-1.642-0.193-3.31-0.304-5.003-0.304
			c-1.35,0-2.683,0.07-4.002,0.194v-18.209c1.321,0.125,2.654,0.193,4.002,0.193C336.237,133.796,337.905,133.684,339.547,133.491z
			 M362.06,446.277v23.201c0,15.171-12.344,27.515-27.515,27.515s-27.515-12.344-27.515-27.515v-23.201
			c0-15.171,12.344-27.515,27.515-27.515S362.06,431.106,362.06,446.277z M330.542,403.949v-18.21
			c1.319,0.124,2.652,0.194,4.002,0.194c1.693,0,3.361-0.111,5.003-0.304v18.43c-1.642-0.193-3.31-0.304-5.003-0.304
			C333.195,403.755,331.861,403.825,330.542,403.949z M362.06,320.208v23.201c0,15.171-12.344,27.515-27.515,27.515
			s-27.515-12.344-27.515-27.515v-23.201c0-15.171,12.344-27.515,27.515-27.515S362.06,305.037,362.06,320.208z M330.542,277.88
			v-18.21c1.319,0.124,2.652,0.194,4.002,0.194c1.693,0,3.361-0.111,5.003-0.304v18.43c-1.642-0.193-3.31-0.304-5.003-0.304
			C333.195,277.686,331.861,277.756,330.542,277.88z M334.545,244.855c-15.171,0-27.515-12.344-27.515-27.515v-23.201
			c0-15.171,12.344-27.515,27.515-27.515s27.515,12.344,27.515,27.515v23.201C362.06,232.511,349.716,244.855,334.545,244.855z"/>
	</g>
</g>
<g>
	<g>
		<path d="M334.545,177.037c-10.345,0-18.76,8.416-18.76,18.76v19.886c0,10.345,8.416,18.76,18.76,18.76
			c10.345,0,18.76-8.416,18.76-18.76v-19.886C353.305,185.453,344.889,177.037,334.545,177.037z M338.297,215.683
			c0,2.068-1.684,3.752-3.752,3.752s-3.752-1.684-3.752-3.752v-19.886c0-2.068,1.684-3.752,3.752-3.752s3.752,1.684,3.752,3.752
			V215.683z"/>
	</g>
</g>
<g>
	<g>
		<path d="M334.545,303.106c-10.345,0-18.76,8.416-18.76,18.76v19.886c0,10.345,8.416,18.76,18.76,18.76
			c10.345,0,18.76-8.416,18.76-18.76v-19.886C353.305,311.521,344.889,303.106,334.545,303.106z M338.297,341.752
			c0,2.068-1.684,3.752-3.752,3.752s-3.752-1.684-3.752-3.752v-19.886c0-2.068,1.684-3.752,3.752-3.752s3.752,1.684,3.752,3.752
			V341.752z"/>
	</g>
</g>
<g>
	<g>
		<path d="M334.545,429.174c-10.345,0-18.76,8.416-18.76,18.76v19.886c0,10.345,8.416,18.76,18.76,18.76
			c10.345,0,18.76-8.416,18.76-18.76v-19.886C353.305,437.59,344.889,429.174,334.545,429.174z M338.297,467.821
			c0,2.068-1.684,3.752-3.752,3.752s-3.752-1.684-3.752-3.752v-19.886c0-2.068,1.684-3.752,3.752-3.752s3.752,1.684,3.752,3.752
			V467.821z"/>
	</g>
</g>
<g>
</g>
<g>
</g>
<g>
</g>
<g>
</g>
<g>
</g>
<g>
</g>
<g>
</g>
<g>
</g>
<g>
</g>
<g>
</g>
<g>
</g>
<g>
</g>
<g>
</g>
<g>
</g>
<g>
</g>
</svg>
