<?xml version="1.0" encoding="iso-8859-1"?>
<!-- Generator: Adobe Illustrator 19.0.0, SVG Export Plug-In . SVG Version: 6.00 Build 0)  -->
<svg version="1.1" id="Capa_1" xmlns="http://www.w3.org/2000/svg" xmlns:xlink="http://www.w3.org/1999/xlink" x="0px" y="0px"
	 viewBox="0 0 512 512" style="enable-background:new 0 0 512 512;" xml:space="preserve">
<g>
	<g>
		<path d="M82.028,213.562c-1.86-3.729-6.39-5.241-10.119-3.382c-3.728,1.861-5.242,6.391-3.382,10.119
			c5.257,10.532,7.921,21.866,7.921,33.688c0,19.131-7.162,37.383-20.165,51.396c-12.933,13.937-30.455,22.444-49.34,23.955
			c-4.153,0.333-7.25,3.968-6.919,8.123c0.316,3.948,3.618,6.943,7.512,6.943c0.202,0,0.405-0.008,0.61-0.023
			c22.662-1.814,43.685-12.017,59.197-28.733c15.602-16.813,24.194-38.71,24.194-61.66
			C91.537,239.806,88.338,226.206,82.028,213.562z"/>
	</g>
</g>
<g>
	<g>
		<path d="M62.036,187.079c-14.812-13.548-33.95-21.887-53.89-23.484c-4.153-0.311-7.79,2.766-8.122,6.919
			c-0.332,4.153,2.765,7.79,6.919,8.123c16.852,1.348,32.382,8.117,44.909,19.576c1.448,1.324,3.271,1.978,5.09,1.978
			c2.044,0,4.081-0.825,5.569-2.452C65.322,194.664,65.11,189.892,62.036,187.079z"/>
	</g>
</g>
<g>
	<g>
		<path d="M475.831,55.324H370.126c-19.944,0-36.169,16.225-36.169,36.169v110.692H319.11c-9.008,0-16.336,7.328-16.336,16.336
			v3.782h-59.348v-22.401c0-7.615-6.195-13.81-13.81-13.81h-25.692c-4.726,0-8.901,2.389-11.392,6.018H167.42
			c-20.688,0-39.952-9.543-52.852-26.181c-25.819-33.301-64.694-53.57-106.657-55.607c-4.18-0.205-7.699,3.008-7.901,7.17
			c-0.202,4.161,3.008,7.698,7.169,7.9c37.554,1.824,72.35,19.968,95.464,49.782c15.778,20.351,39.389,32.025,64.777,32.025h22.694
			v93.581h-22.695c-25.388,0-48.998,11.672-64.777,32.025c-23.114,29.815-57.91,47.959-95.464,49.782
			c-4.161,0.202-7.371,3.74-7.169,7.9c0.196,4.038,3.531,7.179,7.529,7.179c0.124,0,0.247-0.003,0.372-0.009
			c41.963-2.037,80.838-22.306,106.657-55.607c12.9-16.638,32.163-26.181,52.852-26.181h23.231
			c1.646,5.787,6.967,10.042,13.275,10.042h25.692c7.615,0,13.81-6.195,13.81-13.81v-22.402h59.348v3.782
			c0,9.008,7.328,16.336,16.336,16.336h14.847v110.692c0,19.944,16.225,36.169,36.169,36.169h105.705
			c19.945,0,36.169-16.225,36.169-36.169V91.493C512,71.549,495.776,55.324,475.831,55.324z M228.338,229.847v52.307v28.668h-23.136
			v-2.498V201.179h23.136V229.847z M302.774,274.609h-59.348v-37.218h59.348V274.609z M333.957,294.727h-14.846
			c-0.688,0-1.247-0.56-1.247-1.247v-11.326v-52.307V218.52c0-0.688,0.56-1.247,1.247-1.247h14.846V294.727z M363.128,440.368
			c-8.189-2.895-14.082-10.694-14.082-19.861V302.271v-92.542V91.493c0-9.168,5.893-16.966,14.082-19.861V440.368z M467.741,441.588
			h-89.525V70.413h89.525V441.588z M496.912,420.507c0,9.168-5.894,16.966-14.083,19.861V71.632
			c8.189,2.895,14.083,10.694,14.083,19.861V420.507z"/>
	</g>
</g>
<g>
	<g>
		<path d="M422.979,306.798c-4.167,0-7.544,3.377-7.544,7.544v32.189c0,4.167,3.377,7.544,7.544,7.544s7.544-3.377,7.544-7.544
			v-32.189C430.523,310.176,427.146,306.798,422.979,306.798z"/>
	</g>
</g>
<g>
	<g>
		<path d="M422.979,369.163c-4.167,0-7.544,3.377-7.544,7.544v36.212c0,4.167,3.377,7.544,7.544,7.544s7.544-3.377,7.544-7.544
			v-36.212C430.523,372.541,427.146,369.163,422.979,369.163z"/>
	</g>
</g>
<g>
	<g>
		<path d="M422.979,87.513c-4.167,0-7.544,3.377-7.544,7.544v190.114c0,4.167,3.377,7.544,7.544,7.544s7.544-3.377,7.544-7.544
			V95.057C430.523,90.891,427.146,87.513,422.979,87.513z"/>
	</g>
</g>
<g>
	<g>
		<path d="M448.126,153.902c-4.167,0-7.544,3.377-7.544,7.544v32.189c0,4.167,3.377,7.544,7.544,7.544s7.544-3.377,7.544-7.544
			v-32.189C455.67,157.28,452.293,153.902,448.126,153.902z"/>
	</g>
</g>
<g>
	<g>
		<path d="M448.126,87.513c-4.167,0-7.544,3.377-7.544,7.544v36.212c0,4.167,3.377,7.544,7.544,7.544s7.544-3.377,7.544-7.544
			V95.057C455.67,90.891,452.293,87.513,448.126,87.513z"/>
	</g>
</g>
<g>
	<g>
		<path d="M448.126,215.261c-4.167,0-7.544,3.377-7.544,7.544V412.92c0,4.167,3.377,7.544,7.544,7.544s7.544-3.377,7.544-7.544
			V222.806C455.67,218.639,452.293,215.261,448.126,215.261z"/>
	</g>
</g>
<g>
	<g>
		<path d="M397.831,153.902c-4.167,0-7.544,3.377-7.544,7.544v32.189c0,4.167,3.377,7.544,7.544,7.544s7.544-3.377,7.544-7.544
			v-32.189C405.375,157.28,401.999,153.902,397.831,153.902z"/>
	</g>
</g>
<g>
	<g>
		<path d="M397.831,87.513c-4.167,0-7.544,3.377-7.544,7.544v36.212c0,4.167,3.377,7.544,7.544,7.544s7.544-3.377,7.544-7.544
			V95.057C405.375,90.891,401.999,87.513,397.831,87.513z"/>
	</g>
</g>
<g>
	<g>
		<path d="M397.831,215.261c-4.167,0-7.544,3.377-7.544,7.544V412.92c0,4.167,3.377,7.544,7.544,7.544s7.544-3.377,7.544-7.544
			V222.806C405.375,218.639,401.999,215.261,397.831,215.261z"/>
	</g>
</g>
<g>
</g>
<g>
</g>
<g>
</g>
<g>
</g>
<g>
</g>
<g>
</g>
<g>
</g>
<g>
</g>
<g>
</g>
<g>
</g>
<g>
</g>
<g>
</g>
<g>
</g>
<g>
</g>
<g>
</g>
</svg>
