<?xml version="1.0" encoding="iso-8859-1"?>
<!-- Generator: Adobe Illustrator 19.0.0, SVG Export Plug-In . SVG Version: 6.00 Build 0)  -->
<svg version="1.1" id="Capa_1" xmlns="http://www.w3.org/2000/svg" xmlns:xlink="http://www.w3.org/1999/xlink" x="0px" y="0px"
	 viewBox="0 0 512.001 512.001" style="enable-background:new 0 0 512.001 512.001;" xml:space="preserve">
<g>
	<g>
		<path d="M345.05,25h-199.6c-8.657,0-15.7,7.043-15.7,15.7v130.6c0,8.657,7.043,15.7,15.7,15.7h199.6c8.657,0,15.7-7.043,15.7-15.7
			V40.7C360.75,32.043,353.708,25,345.05,25z M345.75,171.3c0,0.386-0.314,0.7-0.7,0.7h-199.6c-0.386,0-0.7-0.314-0.7-0.7V40.7
			c0-0.386,0.314-0.7,0.7-0.7h199.6c0.386,0,0.7,0.314,0.7,0.7V171.3z"/>
	</g>
</g>
<g>
	<g>
		<path d="M379.25,236c-42.734,0-77.5,34.767-77.5,77.5c0,42.733,34.766,77.5,77.5,77.5s77.5-34.767,77.5-77.5
			C456.75,270.767,421.984,236,379.25,236z M379.25,376c-34.462,0-62.5-28.037-62.5-62.5s28.038-62.5,62.5-62.5
			c34.462,0,62.5,28.037,62.5,62.5S413.713,376,379.25,376z"/>
	</g>
</g>
<g>
	<g>
		<path d="M382.205,254h-5.907c-9.68,0-17.556,7.875-17.556,17.556c0,9.68,7.875,17.555,17.556,17.555h5.907
			c9.68,0,17.555-7.875,17.555-17.555C399.76,261.875,391.885,254,382.205,254z M382.205,274.111h-5.907
			c-1.409,0-2.556-1.146-2.556-2.555s1.146-2.556,2.556-2.556h5.907c1.408,0,2.555,1.146,2.555,2.556
			C384.76,272.964,383.614,274.111,382.205,274.111z"/>
	</g>
</g>
<g>
	<g>
		<path d="M421.195,292.991c-9.68,0-17.555,7.875-17.555,17.556v5.906c0,9.681,7.875,17.556,17.555,17.556
			s17.555-7.875,17.555-17.556v-5.906C438.75,300.866,430.875,292.991,421.195,292.991z M423.75,316.453
			c0,1.409-1.146,2.556-2.555,2.556s-2.555-1.146-2.555-2.556v-5.906c0-1.409,1.146-2.556,2.555-2.556s2.555,1.146,2.555,2.556
			V316.453z"/>
	</g>
</g>
<g>
	<g>
		<path d="M382.203,337.89h-5.907c-9.68,0-17.555,7.875-17.555,17.555c0,9.681,7.875,17.556,17.555,17.556h5.907
			c9.68,0,17.556-7.875,17.556-17.556C399.76,345.765,391.883,337.89,382.203,337.89z M382.203,358h-5.907
			c-1.409,0-2.555-1.146-2.555-2.556c0-1.408,1.146-2.555,2.555-2.555h5.907c1.409,0,2.556,1.146,2.556,2.555
			C384.76,356.854,383.612,358,382.203,358z"/>
	</g>
</g>
<g>
	<g>
		<path d="M337.305,292.991c-9.68,0-17.555,7.875-17.555,17.556v5.906c0,9.681,7.875,17.556,17.555,17.556
			s17.555-7.875,17.555-17.556v-5.906C354.86,300.866,346.985,292.991,337.305,292.991z M339.86,316.453
			c0,1.409-1.146,2.556-2.555,2.556s-2.555-1.146-2.555-2.556v-5.906c0-1.409,1.146-2.556,2.555-2.556s2.555,1.146,2.555,2.556
			V316.453z"/>
	</g>
</g>
<g>
	<g>
		<path d="M379.25,292c-11.855,0-21.5,9.645-21.5,21.5c0,11.855,9.645,21.5,21.5,21.5c11.855,0,21.5-9.645,21.5-21.5
			C400.75,301.645,391.106,292,379.25,292z M379.25,320c-3.584,0-6.5-2.916-6.5-6.5c0-3.584,2.916-6.5,6.5-6.5
			c3.584,0,6.5,2.916,6.5,6.5C385.75,317.084,382.835,320,379.25,320z"/>
	</g>
</g>
<g>
	<g>
		<path d="M495.25,313.5c0-61.443-48.02-111.872-108.5-115.751V166.5H413c32.395,0,58.75-26.355,58.75-58.75S445.396,49,413,49
			h-26.25V16.994C386.75,7.623,379.127,0,369.755,0h-249.01c-9.371,0-16.995,7.623-16.995,16.994V315H71.381
			c-30.124,0-54.631,24.508-54.631,54.632c0,30.124,24.507,54.631,54.631,54.631h32.369V466h-6.154
			c-8.186,0-14.846,6.66-14.846,14.846v16.309c0,8.186,6.66,14.846,14.846,14.846h295.308c8.186,0,14.846-6.66,14.846-14.846
			v-16.309c0-8.186-6.66-14.846-14.846-14.846h-6.154v-36.749C447.231,425.372,495.25,374.943,495.25,313.5z M386.75,90H413
			c9.788,0,17.75,7.963,17.75,17.75S422.789,125.5,413,125.5h-26.25V90z M386.75,140.5H413c18.059,0,32.75-14.691,32.75-32.75
			S431.06,75,413,75h-26.25V64H413c24.124,0,43.75,19.626,43.75,43.75c0,24.124-19.626,43.75-43.75,43.75h-26.25V140.5z
			 M118.75,348.5v-26V16.994c0-1.1,0.895-1.994,1.995-1.994h249.011c1.1,0,1.995,0.895,1.995,1.994V49v41v35.5v41v31.249
			c-25.052,1.607-47.969,11.194-66.217,26.251h-160.28c-8.548,0-15.502,6.954-15.502,15.502v58.996
			c0,8.548,6.955,15.502,15.502,15.502h118.004c0.11,25.974,8.8,49.958,23.377,69.263H118.75V348.5z M290.411,239
			c-14.006,16.674-23.417,37.328-26.256,60H145.253c-0.277,0-0.502-0.226-0.502-0.502v-58.996c0-0.276,0.226-0.502,0.502-0.502
			H290.411z M71.381,409.263c-21.853,0-39.631-17.778-39.631-39.631C31.75,347.778,49.529,330,71.381,330h32.369v11H71.381
			c-15.788,0-28.631,12.844-28.631,28.632c0,15.787,12.844,28.631,28.631,28.631h228.768c4.282,3.999,8.865,7.679,13.714,11H166.75
			c-4.142,0-7.5,3.357-7.5,7.5s3.358,7.5,7.5,7.5h178.002c8.614,2.689,17.659,4.389,26.998,4.988V466h-253v-41.737h18
			c4.142,0,7.5-3.357,7.5-7.5s-3.358-7.5-7.5-7.5H71.381z M103.75,356v27.263H71.381c-7.516,0-13.631-6.115-13.631-13.631
			c0-7.517,6.115-13.632,13.631-13.632H103.75z M392.75,481v16h-295v-16h13.5h268H392.75z M379.25,414.5
			c-55.691,0-101-45.309-101-101c0-55.691,45.309-101,101-101c55.691,0,101,45.309,101,101
			C480.25,369.191,434.942,414.5,379.25,414.5z"/>
	</g>
</g>
<g>
	<g>
		<path d="M244.25,50c-47.145,0-85.5,38.355-85.5,85.5v10.803c0,7.001,5.696,12.697,12.697,12.697h33.303c4.142,0,7.5-3.357,7.5-7.5
			s-3.358-7.5-7.5-7.5h-31v-8.5c0-38.874,31.626-70.5,70.5-70.5c38.874,0,70.5,31.626,70.5,70.5v8.5h-80c-4.142,0-7.5,3.357-7.5,7.5
			s3.358,7.5,7.5,7.5h82.303c7.001,0,12.697-5.696,12.697-12.697V135.5C329.75,88.355,291.396,50,244.25,50z"/>
	</g>
</g>
<g>
	<g>
		<path d="M276.914,87.627c-3.243-2.576-7.961-2.034-10.538,1.209l-27,34c-2.576,3.244-2.034,7.962,1.209,10.537
			c1.38,1.096,3.026,1.627,4.66,1.627c2.209,0,4.397-0.972,5.878-2.836l27-34C280.699,94.92,280.157,90.202,276.914,87.627z"/>
	</g>
</g>
<g>
</g>
<g>
</g>
<g>
</g>
<g>
</g>
<g>
</g>
<g>
</g>
<g>
</g>
<g>
</g>
<g>
</g>
<g>
</g>
<g>
</g>
<g>
</g>
<g>
</g>
<g>
</g>
<g>
</g>
</svg>
