<?xml version="1.0" encoding="iso-8859-1"?>
<!-- Generator: Adobe Illustrator 19.0.0, SVG Export Plug-In . SVG Version: 6.00 Build 0)  -->
<svg version="1.1" id="Capa_1" xmlns="http://www.w3.org/2000/svg" xmlns:xlink="http://www.w3.org/1999/xlink" x="0px" y="0px"
	 viewBox="0 0 511.998 511.998" style="enable-background:new 0 0 511.998 511.998;" xml:space="preserve">
<g>
	<g>
		<path d="M298.22,213.588H164.809c-4.142,0-7.5,3.357-7.5,7.5s3.358,7.5,7.5,7.5H298.22c4.142,0,7.5-3.357,7.5-7.5
			S302.363,213.588,298.22,213.588z"/>
	</g>
</g>
<g>
	<g>
		<path d="M142.574,213.588h-17.471c-4.142,0-7.5,3.357-7.5,7.5s3.358,7.5,7.5,7.5h17.471c4.142,0,7.5-3.357,7.5-7.5
			S146.715,213.588,142.574,213.588z"/>
	</g>
</g>
<g>
	<g>
		<path d="M104.455,213.588H47.278c-4.142,0-7.5,3.357-7.5,7.5s3.358,7.5,7.5,7.5h57.177c4.142,0,7.5-3.357,7.5-7.5
			S108.598,213.588,104.455,213.588z"/>
	</g>
</g>
<g>
	<g>
		<path d="M298.22,284.412H164.809c-4.142,0-7.5,3.357-7.5,7.5s3.358,7.5,7.5,7.5H298.22c4.142,0,7.5-3.357,7.5-7.5
			S302.363,284.412,298.22,284.412z"/>
	</g>
</g>
<g>
	<g>
		<path d="M142.574,284.412h-17.471c-4.142,0-7.5,3.357-7.5,7.5s3.358,7.5,7.5,7.5h17.471c4.142,0,7.5-3.357,7.5-7.5
			S146.715,284.412,142.574,284.412z"/>
	</g>
</g>
<g>
	<g>
		<path d="M104.455,284.412H47.278c-4.142,0-7.5,3.357-7.5,7.5s3.358,7.5,7.5,7.5h57.177c4.142,0,7.5-3.357,7.5-7.5
			S108.598,284.412,104.455,284.412z"/>
	</g>
</g>
<g>
	<g>
		<path d="M175.926,249H47.278c-4.142,0-7.5,3.357-7.5,7.5s3.358,7.5,7.5,7.5h128.647c4.142,0,7.5-3.357,7.5-7.5
			S180.067,249,175.926,249z"/>
	</g>
</g>
<g>
	<g>
		<path d="M215.632,249H198.16c-4.142,0-7.5,3.357-7.5,7.5s3.358,7.5,7.5,7.5h17.471c4.142,0,7.5-3.357,7.5-7.5
			S219.773,249,215.632,249z"/>
	</g>
</g>
<g>
	<g>
		<path d="M298.22,249H236.28c-4.142,0-7.5,3.357-7.5,7.5s3.358,7.5,7.5,7.5h61.941c4.142,0,7.5-3.357,7.5-7.5
			S302.363,249,298.22,249z"/>
	</g>
</g>
<g>
	<g>
		<path d="M474.921,25h-64.672v-9.255C410.249,7.063,403.186,0,394.504,0h-17.51c-8.682,0-15.745,7.063-15.745,15.745V62h-99.88
			c-2.417-4.177-6.925-7-12.088-7h-11.063c-7.702,0-13.968,6.266-13.968,13.968V69h-39.105c-19.127,0-34.689,15.562-34.689,34.689
			v46.046h-13.488c-10.678,0-19.365,8.687-19.365,19.364v5.253h-63.53c-20.581,0-37.324,16.743-37.324,37.324v89.646
			c0,20.581,16.743,37.324,37.324,37.324h63.529v5.253c0,10.678,8.687,19.364,19.365,19.364h13.488v46.046
			c0,19.128,15.562,34.689,34.689,34.689h39.105v0.032c0,7.702,6.266,13.968,13.968,13.968h11.063c5.163,0,9.671-2.823,12.088-7
			h99.88v45.255c0,8.682,7.063,15.745,15.745,15.745h17.51c8.682,0,15.745-7.063,15.745-15.745V490h64.672
			c11.209,0,20.328-9.119,20.328-20.328V45.328C495.249,34.119,486.131,25,474.921,25z M263.249,77h98v27h-98V77z M239.249,104.5
			v-28V70h9v41h-9V104.5z M165.455,103.689c0-10.856,8.833-19.689,19.689-19.689h39.105v13h-38.294c-4.142,0-7.5,3.357-7.5,7.5
			v45.235h-13V103.689z M132.603,169.1c0-2.406,1.958-4.364,4.365-4.364h69.976c2.407,0,4.365,1.958,4.365,4.364v5.253h-78.706
			V169.1z M54.073,323.647c-12.31,0-22.324-10.014-22.324-22.324v-89.646c0-12.31,10.014-22.324,22.324-22.324h237.353
			c12.31,0,22.324,10.015,22.324,22.324v89.646c0,12.31-10.014,22.324-22.324,22.324H54.073z M136.967,348.264
			c-2.407,0.001-4.365-1.957-4.365-4.364v-5.253h78.706v5.253c0,2.406-1.958,4.364-4.365,4.364H136.967z M224.249,429h-39.105
			c-10.856,0-19.689-8.833-19.689-19.689v-46.046h13V408.5c0,4.143,3.358,7.5,7.5,7.5h38.294V429z M248.249,443h-9v-41h9V443z
			 M395.249,496.255c0,0.411-0.334,0.745-0.745,0.745h-17.51c-0.411,0-0.745-0.334-0.745-0.745V159c0-4.143-3.358-7.5-7.5-7.5
			c-4.142,0-7.5,3.357-7.5,7.5v235h-34c-4.142,0-7.5,3.357-7.5,7.5s3.358,7.5,7.5,7.5h34v27h-98v-27h34c4.142,0,7.5-3.357,7.5-7.5
			s-3.358-7.5-7.5-7.5h-35.88c-2.417-4.177-6.925-7-12.088-7h-11.063c-7.702,0-13.968,6.266-13.968,13.968V401h-30.794v-37.735
			h13.488c10.678,0,19.365-8.687,19.365-19.364v-5.253h65.118c20.581,0,37.324-16.743,37.324-37.324v-89.646
			c0-20.581-16.743-37.324-37.324-37.324h-65.118V169.1c0-10.678-8.687-19.364-19.365-19.364h-13.488V112h30.794v0.032
			c0,7.702,6.266,13.968,13.968,13.968h11.063c5.163,0,9.671-2.823,12.088-7h99.88v10c0,4.143,3.358,7.5,7.5,7.5
			c4.142,0,7.5-3.357,7.5-7.5V15.745c0-0.411,0.334-0.745,0.745-0.745h17.51c0.411,0,0.745,0.334,0.745,0.745V496.255z
			 M480.249,469.672c0,2.938-2.39,5.328-5.328,5.328h-64.672V40h64.672c2.938,0,5.328,2.391,5.328,5.328V469.672z"/>
	</g>
</g>
<g>
	<g>
		<path d="M466.207,342.469c-3.332-2.462-8.027-1.759-10.489,1.573l-3.469,4.693v-191.47l3.469,4.693
			c1.471,1.99,3.739,3.043,6.037,3.042c1.548,0,3.111-0.478,4.452-1.469c3.331-2.462,4.035-7.158,1.573-10.489l-17-23
			c-1.414-1.913-3.652-3.042-6.031-3.042c-2.379,0-4.617,1.129-6.031,3.042l-17,23c-2.462,3.331-1.758,8.027,1.573,10.489
			c3.331,2.462,8.027,1.758,10.489-1.573l3.469-4.693v191.47l-3.469-4.693c-2.461-3.331-7.158-4.036-10.489-1.573
			c-3.331,2.462-4.035,7.158-1.573,10.489l17,23c1.414,1.913,3.652,3.042,6.031,3.042c2.379,0,4.617-1.129,6.031-3.042l17-23
			C470.242,349.627,469.538,344.931,466.207,342.469z"/>
	</g>
</g>
<g>
</g>
<g>
</g>
<g>
</g>
<g>
</g>
<g>
</g>
<g>
</g>
<g>
</g>
<g>
</g>
<g>
</g>
<g>
</g>
<g>
</g>
<g>
</g>
<g>
</g>
<g>
</g>
<g>
</g>
</svg>
