<?xml version="1.0" encoding="iso-8859-1"?>
<!-- Generator: Adobe Illustrator 19.0.0, SVG Export Plug-In . SVG Version: 6.00 Build 0)  -->
<svg version="1.1" id="Capa_1" xmlns="http://www.w3.org/2000/svg" xmlns:xlink="http://www.w3.org/1999/xlink" x="0px" y="0px"
	 viewBox="0 0 512 512" style="enable-background:new 0 0 512 512;" xml:space="preserve">
<g>
	<g>
		<path d="M468.5,220.006c-3.756,0-7.401,0.479-10.88,1.378L332,104.377V90.006h114.771c13.911,0,25.229-11.318,25.229-25.229
			V37.873c0-6.461-3.861-12.223-9.838-14.678c-5.977-2.457-12.773-1.074-17.315,3.52l-16.108,16.291H156c-4.143,0-7.5,3.357-7.5,7.5
			s3.357,7.5,7.5,7.5h275.87c2.004,0,3.924-0.802,5.333-2.227l18.31-18.518c0.144-0.146,0.41-0.416,0.948-0.192
			C457,37.291,457,37.67,457,37.873v26.903c0,5.641-4.589,10.229-10.229,10.229H66.229C60.589,75.006,56,70.417,56,64.776V39.531
			c0-0.225,0-0.6,0.561-0.813c0.56-0.21,0.811,0.068,0.959,0.235l14.686,16.533c1.424,1.603,3.464,2.52,5.607,2.52H126
			c4.143,0,7.5-3.357,7.5-7.5s-3.357-7.5-7.5-7.5H81.182L68.734,28.991c-4.417-4.971-11.286-6.655-17.502-4.295
			C45.017,27.058,41,32.882,41,39.531v25.245c0,13.911,11.318,25.229,25.229,25.229H181v13.441L54.38,221.383
			c-3.479-0.899-7.125-1.378-10.88-1.378c-23.986,0-43.5,19.514-43.5,43.5s19.514,43.5,43.5,43.5c1.432,0,2.846-0.074,4.243-0.21
			l102.576,127.061l-84.124,8.628C59.243,443.197,54,449.005,54,455.994v20.433c0,7.487,6.092,13.579,13.579,13.579h377.842
			c7.487,0,13.579-6.092,13.579-13.579v-20.433c0-6.989-5.243-12.797-12.193-13.509l-85.049-8.723l102.499-126.966
			c1.397,0.136,2.811,0.21,4.243,0.21c23.986,0,43.5-19.514,43.5-43.5C512,239.52,492.486,220.006,468.5,220.006z M196,90.006h121
			v24.033c0,2.188-1.779,3.967-3.967,3.967H199.967c-2.188,0-3.967-1.779-3.967-3.967V90.006z M268,361.006h-23v-22.682l23-5.447
			V361.006z M293.594,376.006c2.98,0,5.405,2.425,5.405,5.405v23.595h-85v-23.595H214c0-2.98,2.425-5.405,5.405-5.405H293.594z
			 M219.999,328.831c-0.5,0.118-1.008,0.178-1.511,0.178c-3.02,0-5.615-2.059-6.313-5.005c-0.826-3.487,1.34-6.997,4.827-7.823
			l75.998-18c0.502-0.119,1.004-0.176,1.498-0.176c2.944,0,5.62,2.017,6.327,5.002c0.826,3.487-1.34,6.997-4.827,7.823
			L219.999,328.831z M268,288.688l-23,5.447v-10.811l23-5.447V288.688z M219.999,273.831c-0.5,0.118-1.008,0.178-1.511,0.178
			c-3.02,0-5.615-2.059-6.313-5.005c-0.826-3.487,1.34-6.997,4.827-7.823l75.998-18c0.502-0.119,1.004-0.176,1.498-0.176
			c2.944,0,5.62,2.017,6.327,5.002c0.826,3.487-1.34,6.997-4.827,7.823L219.999,273.831z M268,233.688l-23,5.447v-10.811l23-5.447
			V233.688z M219.999,218.831c-0.5,0.118-1.008,0.178-1.511,0.178c-3.02,0-5.615-2.059-6.313-5.005
			c-0.826-3.487,1.34-6.997,4.827-7.823l75.998-18c0.502-0.119,1.004-0.176,1.498-0.176c2.944,0,5.62,2.017,6.327,5.002
			c0.826,3.487-1.34,6.997-4.827,7.823L219.999,218.831z M268,178.688l-23,5.447v-18.129h23V178.688z M225.814,151.006
			c-2.654,0-4.814-2.16-4.814-4.814v-13.186h71v13.186c0,2.654-2.16,4.814-4.814,4.814H225.814z M182.872,122.201
			c1.472,3.07,3.728,5.695,6.531,7.582L76.372,235.063c-2.195-2.533-4.673-4.81-7.39-6.781L182.872,122.201z M43.5,292.006
			c-15.715,0-28.5-12.786-28.5-28.5c0-15.715,12.785-28.5,28.5-28.5s28.5,12.785,28.5,28.5C72,279.221,59.215,292.006,43.5,292.006z
			 M171,475.005H69v-17.729l102-10.462V475.005z M171.143,431.721l-3.02,0.31L63.318,302.209c2.999-1.542,5.796-3.419,8.342-5.587
			l101.825,126.131C172.259,425.546,171.45,428.56,171.143,431.721z M81.404,284.811C84.96,278.509,87,271.243,87,263.506
			c0-5.369-0.984-10.511-2.771-15.263L206,134.822v11.369c0,10.926,8.889,19.814,19.814,19.814H230v21.682l-16.455,3.897
			c-11.536,2.732-18.698,14.341-15.966,25.876c2.308,9.743,10.906,16.548,20.909,16.548c1.665,0,3.336-0.195,4.967-0.582l6.545-1.55
			v10.811l-16.455,3.897c-11.536,2.732-18.698,14.341-15.966,25.876c2.308,9.743,10.906,16.548,20.909,16.548
			c1.665,0,3.336-0.195,4.967-0.582l6.545-1.55v10.811l-16.455,3.897c-11.536,2.732-18.698,14.341-15.966,25.876
			c2.308,9.743,10.906,16.548,20.909,16.548c1.665,0,3.336-0.195,4.967-0.582l6.545-1.55v19.129h-10.595
			c-11.252,0-20.405,9.153-20.405,20.405v23.639c-5.936,0.319-11.41,2.395-15.916,5.714L81.404,284.811z M327,475.005H186v-40.4
			c0-8.05,6.55-14.6,14.6-14.6h111.8c8.05,0,14.6,6.55,14.6,14.6V475.005z M313.999,405.051v-23.639
			c0-11.252-9.153-20.405-20.405-20.405H283v-31.682l16.455-3.897c11.536-2.732,18.698-14.341,15.966-25.876
			c-2.731-11.532-14.342-18.699-25.876-15.966l-6.545,1.55v-10.811l16.455-3.897c11.536-2.732,18.698-14.341,15.966-25.876
			c-2.731-11.533-14.342-18.698-25.876-15.966l-6.545,1.55v-10.811l16.455-3.897c11.536-2.732,18.698-14.341,15.966-25.876
			c-2.731-11.533-14.342-18.701-25.876-15.966l-6.545,1.55v-9.129h4.186c10.926,0,19.814-8.889,19.814-19.814v-10.437l63.131,58.802
			c1.444,1.346,3.279,2.012,5.109,2.012c2.009,0,4.013-0.803,5.49-2.388c2.823-3.031,2.654-7.777-0.376-10.601l-57.363-53.43
			c2.875-1.784,5.243-4.302,6.826-7.307l113.201,105.439c-2.717,1.97-5.195,4.248-7.39,6.78l-33.32-31.034
			c-3.029-2.823-7.775-2.656-10.6,0.377c-2.823,3.03-2.654,7.776,0.377,10.6l35.685,33.237c-1.787,4.752-2.771,9.894-2.771,15.263
			c0,7.738,2.04,15.004,5.596,21.306l-101.315,125.5C324.898,407.258,319.659,405.354,313.999,405.051z M444,457.277v17.729H342
			v-28.191L444,457.277z M343.954,431.936l-2.096-0.215c-0.336-3.462-1.272-6.75-2.701-9.762L440.34,296.622
			c2.546,2.168,5.343,4.045,8.342,5.587L343.954,431.936z M468.5,292.006c-15.715,0-28.5-12.785-28.5-28.5
			c0-15.715,12.785-28.5,28.5-28.5c15.715,0,28.5,12.785,28.5,28.5C497,279.221,484.215,292.006,468.5,292.006z"/>
	</g>
</g>
<g>
	<g>
		<path d="M43.5,245.006c-10.201,0-18.5,8.299-18.5,18.5c0,10.201,8.299,18.5,18.5,18.5s18.5-8.299,18.5-18.5
			C62,253.305,53.701,245.006,43.5,245.006z M43.5,267.006c-1.93,0-3.5-1.571-3.5-3.5c0-1.93,1.57-3.5,3.5-3.5s3.5,1.57,3.5,3.5
			S45.43,267.006,43.5,267.006z"/>
	</g>
</g>
<g>
	<g>
		<path d="M468.5,245.006c-10.201,0-18.5,8.299-18.5,18.5c0,10.201,8.299,18.5,18.5,18.5s18.5-8.299,18.5-18.5
			C487,253.304,478.701,245.006,468.5,245.006z M468.5,267.006c-1.93,0-3.5-1.57-3.5-3.5s1.57-3.5,3.5-3.5s3.5,1.57,3.5,3.5
			S470.43,267.006,468.5,267.006z"/>
	</g>
</g>
<g>
</g>
<g>
</g>
<g>
</g>
<g>
</g>
<g>
</g>
<g>
</g>
<g>
</g>
<g>
</g>
<g>
</g>
<g>
</g>
<g>
</g>
<g>
</g>
<g>
</g>
<g>
</g>
<g>
</g>
</svg>
