<?xml version="1.0" encoding="iso-8859-1"?>
<!-- Generator: Adobe Illustrator 19.0.0, SVG Export Plug-In . SVG Version: 6.00 Build 0)  -->
<svg version="1.1" id="Capa_1" xmlns="http://www.w3.org/2000/svg" xmlns:xlink="http://www.w3.org/1999/xlink" x="0px" y="0px"
	 viewBox="0 0 511.998 511.998" style="enable-background:new 0 0 511.998 511.998;" xml:space="preserve">
<g>
	<g>
		<g>
			<path d="M460.515,449.112c0-0.037,0.006-0.073,0.006-0.109v-14.019c0-8.268-6.726-14.993-14.993-14.993h-7.01V207.769
				c5.86-2.399,10.001-8.157,10.001-14.87v-9.868c0-8.86-7.208-16.068-16.068-16.068h-12.935v-10.818
				c0-6.524-4.77-11.942-11.001-12.987v-18.603c0-9.152-7.445-16.598-16.598-16.598h-24.812c-9.152,0-16.598,7.445-16.598,16.598
				v18.603c-6.232,1.045-11.001,6.464-11.001,12.987v10.818h-53.849l40.703-66.373c2.418-3.94,1.987-8.918-1.07-12.385
				c-3.059-3.468-7.942-4.516-12.156-2.608l-32.317,14.635l9.254-88.68c0.513-4.92-2.407-9.445-7.102-11.006
				c-4.695-1.562-9.742,0.315-12.277,4.562l-34.828,58.336c-2.123,3.557-0.962,8.162,2.595,10.285
				c3.557,2.125,8.161,0.963,10.285-2.595l24.268-40.647l-8.473,81.194c-0.278,2.673,0.894,5.291,3.073,6.862
				c2.178,1.572,5.034,1.857,7.481,0.749l30.737-13.919l-76.313,124.44l20.835-104.891c0.489-2.464-0.288-5.011-2.069-6.782
				c-1.782-1.771-4.331-2.534-6.795-2.026l-22.332,4.58l14.133-23.672c2.123-3.557,0.962-8.162-2.595-10.285
				c-3.556-2.123-8.16-0.962-10.285,2.595l-19.419,32.525c-2.123,3.557-1.946,8.037,0.452,11.414
				c2.397,3.378,6.574,5.021,10.628,4.189l21.368-4.383l-6.731,33.888H172.49v-10.818c0-6.524-4.77-11.942-11.001-12.987v-18.603
				c0-9.152-7.445-16.598-16.598-16.598h-24.812c-9.152,0-16.598,7.445-16.598,16.598v18.603
				c-6.232,1.045-11.001,6.464-11.001,12.987v10.818H79.547c-8.86,0-16.068,7.208-16.068,16.068v9.868
				c0,6.714,4.141,12.47,10.001,14.87v212.22h-7.01c-8.268,0-14.993,6.726-14.993,14.993v14.02c0,0.037,0.005,0.073,0.006,0.109
				c-10.107,1.076-18.008,9.65-18.008,20.037v31.409c0,6.31,5.133,11.441,11.441,11.441h422.164c6.31,0,11.441-5.133,11.441-11.441
				v-31.408C478.522,458.761,470.621,450.188,460.515,449.112z M367.106,122.958h24.812c0.88,0,1.596,0.716,1.596,1.596v18.406
				h-28.003v-18.406h-0.001C365.51,123.674,366.226,122.958,367.106,122.958z M354.509,157.962h50.005v9.001h-50.005V157.962z
				 M276.459,181.965H432.45c0.588,0,1.066,0.479,1.066,1.066v9.868c0,0.588-0.479,1.066-1.066,1.066h-1.434H269.099
				L276.459,181.965z M259.899,208.967h163.617V419.99H88.481c0,0,0-211.022,0-211.022h129.884l-2.582,13.001H114.235
				c-7.032,0-12.752,5.721-12.752,12.752v159.515c0,7.032,5.721,12.752,12.752,12.752h283.528c7.032,0,12.752-5.721,12.752-12.752
				V234.721c0-7.032-5.721-12.752-12.752-12.752H251.926L259.899,208.967z M229.027,259.307l13.699-22.336h152.787v155.016H116.484
				V236.97h96.318l-2.946,14.834c-1.004,5.055,1.646,9.897,6.446,11.775c1.287,0.503,2.605,0.745,3.897,0.745
				C223.724,264.324,227.056,262.521,229.027,259.307z M120.08,122.958h24.812c0.88,0,1.596,0.716,1.596,1.596v18.406h-28.003
				v-18.406h-0.001C118.484,123.674,119.2,122.958,120.08,122.958z M107.483,157.962h50.005v9.001h-50.005V157.962z M79.546,181.966
				h144.182l-2.384,12.001H80.98h-1.433c-0.588,0-1.066-0.479-1.066-1.066v-9.869H78.48
				C78.48,182.444,78.959,181.966,79.546,181.966z M445.519,434.982C445.547,434.982,445.533,434.982,445.519,434.982l0.018,14.01
				H66.479l-0.009-14.002L445.519,434.982z M463.521,496.998H48.477v-27.849c0-2.842,2.312-5.154,5.154-5.154h404.737
				c2.842,0,5.154,2.312,5.154,5.154V496.998z"/>
			<path d="M445.519,434.983L445.519,434.983C445.491,434.983,445.505,434.983,445.519,434.983z"/>
		</g>
	</g>
</g>
<g>
	<g>
		<path d="M150.988,332.98c-14.063,0-25.503,11.44-25.503,25.503s11.44,25.503,25.503,25.503s25.503-11.44,25.503-25.503
			S165.05,332.98,150.988,332.98z M150.988,368.984c-5.791,0-10.501-4.71-10.501-10.501c0-5.791,4.71-10.501,10.501-10.501
			c5.791,0,10.501,4.711,10.501,10.501C161.489,364.274,156.778,368.984,150.988,368.984z"/>
	</g>
</g>
<g>
	<g>
		<path d="M363.01,332.98c-14.063,0-25.503,11.44-25.503,25.503s11.44,25.503,25.503,25.503s25.503-11.44,25.503-25.503
			S377.072,332.98,363.01,332.98z M363.01,368.984c-5.791,0-10.501-4.71-10.501-10.501c0-5.791,4.71-10.501,10.501-10.501
			c5.791,0,10.501,4.711,10.501,10.501C373.511,364.274,368.801,368.984,363.01,368.984z"/>
	</g>
</g>
<g>
	<g>
		<path d="M216.995,350.982h-4.5v-4.5c0-4.143-3.357-7.501-7.501-7.501s-7.501,3.357-7.501,7.501v4.5h-4.5
			c-4.143,0-7.501,3.357-7.501,7.501s3.357,7.501,7.501,7.501h4.5v4.5c0,4.143,3.357,7.501,7.501,7.501s7.501-3.357,7.501-7.501
			v-4.5h4.5c4.143,0,7.501-3.357,7.501-7.501S221.138,350.982,216.995,350.982z"/>
	</g>
</g>
<g>
	<g>
		<path d="M320.005,350.982h-24.003c-4.143,0-7.501,3.357-7.501,7.501s3.357,7.501,7.501,7.501h24.003
			c4.143,0,7.501-3.357,7.501-7.501S324.149,350.982,320.005,350.982z"/>
	</g>
</g>
<g>
	<g>
		<path d="M369.481,270.975h-39.975c-4.143,0-7.501,3.357-7.501,7.501s3.357,7.501,7.501,7.501h37.004v21.002H145.486v-21.002
			h154.016c4.143,0,7.501-3.357,7.501-7.501s-3.357-7.501-7.501-7.501H142.517c-6.634-0.001-12.031,5.397-12.031,12.03v26.944
			c0,6.634,5.397,12.03,12.03,12.03h226.965c6.634,0,12.03-5.397,12.03-12.03v-26.944
			C381.511,276.372,376.114,270.975,369.481,270.975z"/>
	</g>
</g>
<g>
</g>
<g>
</g>
<g>
</g>
<g>
</g>
<g>
</g>
<g>
</g>
<g>
</g>
<g>
</g>
<g>
</g>
<g>
</g>
<g>
</g>
<g>
</g>
<g>
</g>
<g>
</g>
<g>
</g>
</svg>
