<?xml version="1.0" encoding="iso-8859-1"?>
<!-- Generator: Adobe Illustrator 19.0.0, SVG Export Plug-In . SVG Version: 6.00 Build 0)  -->
<svg version="1.1" id="Capa_1" xmlns="http://www.w3.org/2000/svg" xmlns:xlink="http://www.w3.org/1999/xlink" x="0px" y="0px"
	 viewBox="0 0 512.001 512.001" style="enable-background:new 0 0 512.001 512.001;" xml:space="preserve">
<g>
	<g>
		<path d="M217.91,62.898c-4.142,0-7.5,3.357-7.5,7.5v197.35c0,4.143,3.358,7.5,7.5,7.5c4.142,0,7.5-3.357,7.5-7.5V70.398
			C225.41,66.256,222.052,62.898,217.91,62.898z"/>
	</g>
</g>
<g>
	<g>
		<path d="M217.91,293.14c-4.142,0-7.5,3.357-7.5,7.5v25.843c0,4.143,3.358,7.5,7.5,7.5c4.142,0,7.5-3.357,7.5-7.5V300.64
			C225.41,296.497,222.052,293.14,217.91,293.14z"/>
	</g>
</g>
<g>
	<g>
		<path d="M217.91,349.525c-4.142,0-7.5,3.357-7.5,7.5v84.578c0,4.143,3.358,7.5,7.5,7.5c4.142,0,7.5-3.357,7.5-7.5v-84.578
			C225.41,352.883,222.052,349.525,217.91,349.525z"/>
	</g>
</g>
<g>
	<g>
		<path d="M293.09,62.898c-4.142,0-7.5,3.357-7.5,7.5v197.35c0,4.143,3.358,7.5,7.5,7.5c4.142,0,7.5-3.357,7.5-7.5V70.398
			C300.59,66.256,297.232,62.898,293.09,62.898z"/>
	</g>
</g>
<g>
	<g>
		<path d="M293.09,293.14c-4.142,0-7.5,3.357-7.5,7.5v25.843c0,4.143,3.358,7.5,7.5,7.5c4.142,0,7.5-3.357,7.5-7.5V300.64
			C300.59,296.497,297.232,293.14,293.09,293.14z"/>
	</g>
</g>
<g>
	<g>
		<path d="M293.09,349.525c-4.142,0-7.5,3.357-7.5,7.5v84.578c0,4.143,3.358,7.5,7.5,7.5c4.142,0,7.5-3.357,7.5-7.5v-84.578
			C300.59,352.883,297.232,349.525,293.09,349.525z"/>
	</g>
</g>
<g>
	<g>
		<path d="M255.5,243.802c-4.142,0-7.5,3.357-7.5,7.5v190.302c0,4.143,3.358,7.5,7.5,7.5c4.142,0,7.5-3.357,7.5-7.5V251.302
			C263,247.159,259.642,243.802,255.5,243.802z"/>
	</g>
</g>
<g>
	<g>
		<path d="M255.5,185.067c-4.142,0-7.5,3.357-7.5,7.5v25.843c0,4.143,3.358,7.5,7.5,7.5c4.142,0,7.5-3.357,7.5-7.5v-25.843
			C263,188.425,259.642,185.067,255.5,185.067z"/>
	</g>
</g>
<g>
	<g>
		<path d="M255.5,62.898c-4.142,0-7.5,3.357-7.5,7.5v91.627c0,4.143,3.358,7.5,7.5,7.5c4.142,0,7.5-3.357,7.5-7.5V70.398
			C263,66.256,259.642,62.898,255.5,62.898z"/>
	</g>
</g>
<g>
	<g>
		<path d="M496.513,220.308H459c-4.142,0-7.5,3.357-7.5,7.5s3.358,7.5,7.5,7.5h37.513c0.269,0,0.487,0.219,0.487,0.488v38.061
			c0,0.27-0.219,0.488-0.487,0.488h-86.675v-39.037H429c4.142,0,7.5-3.357,7.5-7.5s-3.358-7.5-7.5-7.5h-19.163v-20.574
			c0-10.678-8.687-19.365-19.365-19.365h-17.051V66.156c0-20.581-16.743-37.324-37.324-37.324H174.902
			c-20.581,0-37.324,16.743-37.324,37.324v114.212h-17.051c-10.678,0-19.365,8.688-19.365,19.365v20.575H14.209
			C6.374,220.309,0,226.683,0,234.518v40.618c0,7.835,6.374,14.209,14.209,14.209h86.954v25.273
			c0,10.678,8.687,19.364,19.365,19.364h17.051v111.863c0,20.581,16.743,37.324,37.324,37.324h161.196
			c20.581,0,37.324-16.743,37.324-37.324V333.982h17.051c10.678,0,19.365-8.687,19.365-19.364v-25.273h86.675
			c8.54,0,15.487-6.948,15.487-15.488v-38.061C512,227.256,505.052,220.308,496.513,220.308z M101.163,274.345H15v-39.036h86.163
			V274.345z M137.578,318.982h-17.051c-2.407,0-4.365-1.958-4.365-4.364V199.733c0-2.407,1.958-4.365,4.365-4.365h17.051V318.982z
			 M170.47,467.726c-10.194-2.061-17.892-11.088-17.892-21.88V66.156c0-10.792,7.698-19.819,17.892-21.881V467.726z M325.53,468.17
			H185.47V43.832h140.06V468.17z M358.422,445.846c0,10.792-7.698,19.819-17.892,21.881V44.275
			c10.193,2.062,17.892,11.088,17.892,21.881V445.846z M394.837,314.618c0,2.406-1.958,4.364-4.365,4.364h-17.051V195.368h17.051
			c2.407,0,4.365,1.958,4.365,4.365V314.618z"/>
	</g>
</g>
<g>
	<g>
		<path d="M457.143,103.894l8.367-2.51c3.968-1.19,6.219-5.371,5.029-9.339c-1.19-3.968-5.372-6.221-9.338-5.028l-23.494,7.048
			c-3.838,1.151-6.093,5.115-5.121,9.003l7.048,28.192c0.852,3.408,3.91,5.683,7.27,5.683c0.602,0,1.214-0.073,1.825-0.226
			c4.019-1.005,6.462-5.077,5.457-9.096l-2.326-9.305c15.554,10.443,25.14,27.988,25.14,47.27v21.415c0,4.143,3.358,7.5,7.5,7.5
			c4.142,0,7.5-3.357,7.5-7.5v-21.415C492,139.971,478.616,116.772,457.143,103.894z"/>
	</g>
</g>
<g>
	<g>
		<path d="M82.415,398.935l-7.049-28.193c-1.005-4.02-5.08-6.463-9.095-5.457c-4.019,1.005-6.462,5.077-5.457,9.096l2.326,9.305
			C47.586,373.243,38,355.698,38,336.416v-21.415c0-4.143-3.358-7.5-7.5-7.5c-4.142,0-7.5,3.357-7.5,7.5v21.415
			c0,25.615,13.384,48.814,34.857,61.692l-8.367,2.51c-3.968,1.19-6.219,5.371-5.029,9.339c0.975,3.249,3.955,5.347,7.181,5.347
			c0.713,0,1.439-0.103,2.158-0.318l23.494-7.048C81.132,406.787,83.387,402.823,82.415,398.935z"/>
	</g>
</g>
<g>
</g>
<g>
</g>
<g>
</g>
<g>
</g>
<g>
</g>
<g>
</g>
<g>
</g>
<g>
</g>
<g>
</g>
<g>
</g>
<g>
</g>
<g>
</g>
<g>
</g>
<g>
</g>
<g>
</g>
</svg>
