<?xml version="1.0" encoding="iso-8859-1"?>
<!-- Generator: Adobe Illustrator 19.0.0, SVG Export Plug-In . SVG Version: 6.00 Build 0)  -->
<svg version="1.1" id="Capa_1" xmlns="http://www.w3.org/2000/svg" xmlns:xlink="http://www.w3.org/1999/xlink" x="0px" y="0px"
	 viewBox="0 0 512.003 512.003" style="enable-background:new 0 0 512.003 512.003;" xml:space="preserve">
<g>
	<g>
		<path d="M499.647,212h-44.481c-10.831,0-20.021,7.163-23.081,17H414.5v-1.061c0-9.448-7.687-17.134-17.134-17.134h-16.895
			c-1.464-4.086-3.138-8.118-5.008-12.062l11.955-11.955c6.68-6.68,6.68-17.55,0-24.23l-38.978-38.978
			c-6.68-6.68-17.55-6.679-24.231,0l-11.954,11.955c-3.942-1.869-7.974-3.543-12.062-5.008v-16.894
			c0-9.448-7.687-17.134-17.134-17.134H282V79.915c9.837-3.061,17-12.25,17-23.082v-44.48C299,5.542,293.459,0,286.647,0h-62.295
			C217.541,0,212,5.542,212,12.354v44.48c0,10.832,7.163,20.021,17,23.082V96.5h-1.061c-9.447,0-17.134,7.687-17.134,17.134v16.894
			c-4.088,1.465-8.119,3.139-12.062,5.008l-11.955-11.955c-6.68-6.68-17.55-6.679-24.231,0l-38.977,38.978
			c-6.68,6.68-6.68,17.55,0,24.23l11.955,11.955c-1.87,3.944-3.544,7.975-5.008,12.062h-16.895c-9.447,0-17.134,7.686-17.134,17.134
			V229H79.915c-3.061-9.837-12.25-17-23.081-17H12.353C5.541,212,0,217.542,0,224.353v62.294C0,293.458,5.541,299,12.353,299h44.481
			c10.831,0,20.021-7.163,23.081-17H96.5v1.061c0,9.448,7.687,17.134,17.134,17.134h16.895c1.464,4.086,3.138,8.118,5.008,12.061
			l-11.955,11.956c-6.68,6.68-6.68,17.549,0,24.23l38.978,38.978c6.68,6.68,17.55,6.679,24.231,0l11.954-11.955
			c3.942,1.869,7.974,3.543,12.062,5.008v16.895c0,9.448,7.687,17.134,17.134,17.134H229v17.585c-9.837,3.061-17,12.25-17,23.082
			v44.48c0,6.812,5.541,12.353,12.353,12.353h62.295c6.812,0,12.353-5.542,12.353-12.353v-44.48c0-10.832-7.163-20.021-17-23.082
			V414.5h1.061c9.447,0,17.134-7.686,17.134-17.134v-16.895c4.088-1.465,8.119-3.139,12.062-5.008l11.955,11.955
			c6.68,6.68,17.55,6.679,24.231,0l38.977-38.978c6.68-6.68,6.68-17.549,0-24.23l-11.955-11.955
			c1.87-3.943,3.544-7.975,5.008-12.061h16.895c9.447,0,17.134-7.687,17.134-17.134V282h17.585c3.061,9.837,12.25,17,23.081,17
			h44.481c6.812,0,12.353-5.542,12.353-12.353v-62.294C512,217.542,506.459,212,499.647,212z M66,236.5v38v0.333
			c0,5.054-4.112,9.167-9.166,9.167H15v-57h41.834c5.054,0,9.166,4.112,9.166,9.167V236.5z M282.001,111.5h1.06
			c1.177,0,2.134,0.958,2.134,2.134v22.292c0,3.285,2.138,6.188,5.274,7.162c6.778,2.106,13.432,4.868,19.775,8.208
			c2.905,1.53,6.474,0.992,8.798-1.333l15.774-15.775c0.832-0.832,2.187-0.833,3.019,0l38.977,38.977
			c0.832,0.833,0.832,2.186,0,3.018l-15.775,15.776c-2.323,2.324-2.863,5.889-1.333,8.797c3.342,6.348,6.104,13.001,8.208,19.775
			c0.975,3.137,3.877,5.275,7.162,5.275h22.293c1.177,0,2.134,0.957,2.134,2.134V229h-54.159
			c-8.956-30.351-32.99-54.386-63.341-63.342V111.5z M329.566,229H282v-47.567C304.079,189.35,321.649,206.922,329.566,229z
			 M227,56.833V15h57v41.833c0,5.054-4.112,9.167-9.166,9.167H274.5h-38h-0.334C231.112,66,227,61.888,227,56.833z M228.999,399.5
			h-1.06c-1.177,0-2.134-0.957-2.134-2.134v-22.293c0-3.285-2.138-6.188-5.274-7.162c-6.778-2.106-13.432-4.868-19.775-8.208
			c-2.904-1.53-6.474-0.991-8.798,1.333l-15.774,15.775c-0.832,0.832-2.187,0.833-3.019,0l-38.977-38.977
			c-0.832-0.833-0.832-2.186,0-3.018l15.775-15.776c2.323-2.324,2.863-5.889,1.333-8.797c-3.342-6.348-6.104-13.001-8.208-19.774
			c-0.975-3.137-3.877-5.275-7.162-5.275h-22.293c-1.177,0-2.134-0.958-2.134-2.134V282h54.159
			c8.956,30.351,32.99,54.386,63.341,63.342V399.5z M181.434,282H229v47.567C206.921,321.65,189.35,304.079,181.434,282z
			 M284,455.167V497h-57v-41.833c0-5.054,4.112-9.167,9.166-9.167h0.334h38h0.334C279.888,446,284,450.112,284,455.167z
			 M399.5,283.061c0,1.177-0.957,2.134-2.134,2.134h-22.293c-3.285,0-6.188,2.138-7.162,5.275
			c-2.104,6.773-4.866,13.427-8.208,19.774c-1.53,2.908-0.99,6.473,1.333,8.797l15.775,15.776c0.832,0.833,0.832,2.186,0,3.018
			l-38.976,38.977c-0.832,0.832-2.187,0.833-3.019,0l-15.775-15.776c-2.325-2.325-5.892-2.864-8.798-1.333
			c-6.344,3.34-12.997,6.102-19.775,8.208c-3.137,0.975-5.274,3.877-5.274,7.162v22.293c0,1.177-0.957,2.134-2.134,2.134H282
			v-54.158c30.35-8.956,54.385-32.991,63.341-63.342H399.5V283.061z M431,267H280.782c-7.6,0-13.782,6.183-13.782,13.782V292
			c0,4.142,3.357,7.5,7.5,7.5s7.5-3.358,7.5-7.5v-10h47.566c-7.917,22.079-25.487,39.649-47.566,47.567V322
			c0-4.142-3.357-7.5-7.5-7.5s-7.5,3.358-7.5,7.5v109h-23V280.782c0-7.6-6.183-13.782-13.782-13.782H81v-23h149.209
			c0.009,0,0,0,0.009,0c7.6,0,13.782-6.183,13.782-13.782V159c0-4.142-3.357-7.5-7.5-7.5s-7.5,3.358-7.5,7.5v6.658
			c-30.35,8.956-54.385,32.991-63.341,63.342H111.5v-1.061c0-1.177,0.957-2.134,2.134-2.134h22.293c3.285,0,6.188-2.138,7.162-5.275
			c2.104-6.774,4.866-13.427,8.208-19.775c1.53-2.908,0.99-6.473-1.333-8.797l-15.775-15.776c-0.832-0.832-0.832-2.186,0-3.018
			l38.976-38.977c0.832-0.832,2.187-0.833,3.019,0l15.775,15.776c2.325,2.324,5.891,2.864,8.798,1.333
			c6.344-3.34,12.997-6.102,19.775-8.208c3.137-0.975,5.274-3.877,5.274-7.162v-22.292c0-1.177,0.957-2.134,2.134-2.134H229V129
			c0,4.142,3.357,7.5,7.5,7.5s7.5-3.358,7.5-7.5V81h23v149.218c0,7.599,6.183,13.782,13.782,13.782H431V267z M181.434,229
			c7.917-22.079,25.487-39.649,47.566-47.567V229H181.434z M497,284h-41.834c-5.054,0-9.166-4.112-9.166-9.167V274.5v-38v-0.333
			c0-5.054,4.112-9.167,9.166-9.167H497V284z"/>
	</g>
</g>
<g>
</g>
<g>
</g>
<g>
</g>
<g>
</g>
<g>
</g>
<g>
</g>
<g>
</g>
<g>
</g>
<g>
</g>
<g>
</g>
<g>
</g>
<g>
</g>
<g>
</g>
<g>
</g>
<g>
</g>
</svg>
