<?xml version="1.0" encoding="iso-8859-1"?>
<!-- Generator: Adobe Illustrator 19.0.0, SVG Export Plug-In . SVG Version: 6.00 Build 0)  -->
<svg version="1.1" id="Capa_1" xmlns="http://www.w3.org/2000/svg" xmlns:xlink="http://www.w3.org/1999/xlink" x="0px" y="0px"
	 viewBox="0 0 511.999 511.999" style="enable-background:new 0 0 511.999 511.999;" xml:space="preserve">
<g>
	<g>
		<path d="M511.737,178.198c-1.03-7.705-5-14.547-11.177-19.267l-85.948-65.666c-12.752-9.742-31.051-7.294-40.794,5.456
			c-0.001,0.001-3.904,5.11-3.905,5.111l-71.596,93.709c-2.092,2.738-2.993,6.128-2.536,9.542c0.456,3.417,2.216,6.451,4.955,8.543
			l22.113,16.894c5.308,4.057,12.965,3.341,17.413-1.609l12.088-13.36l4.357,3.328l-90.867,111.647
			c-3.248-0.572-6.542-0.861-9.84-0.861c-3.354,0-6.636,0.31-9.831,0.872l-21.878-26.881c-2.62-3.218-7.353-3.705-10.575-1.085
			c-3.22,2.621-3.705,7.354-1.085,10.574l18.245,22.418c-6.555,3.259-12.389,7.75-17.205,13.171l-80.775-112.742l10.445-7.981
			l50.298,61.8c1.485,1.825,3.652,2.772,5.835,2.772c1.668,0,3.345-0.552,4.74-1.687c3.22-2.621,3.705-7.354,1.085-10.574
			l-50.006-61.442l4.357-3.328l12.07,13.339c4.466,4.969,12.124,5.686,17.431,1.629l22.114-16.895
			c2.739-2.093,4.499-5.126,4.955-8.543c0.457-3.416-0.444-6.804-2.536-9.542l-58.765-76.915c-0.001-0.002-0.002-0.003-0.003-0.005
			c-0.001-0.002-0.003-0.003-0.004-0.004l-12.824-16.785c-0.001-0.002-0.002-0.004-0.004-0.006
			c-0.002-0.002-0.003-0.003-0.005-0.005l-3.897-5.1c-9.745-12.752-28.043-15.2-40.794-5.456l-85.948,65.667
			c-6.177,4.719-10.146,11.562-11.177,19.267s1,15.35,5.72,21.527l75.503,98.82c2.093,2.738,5.125,4.498,8.541,4.955
			c0.581,0.078,1.162,0.116,1.738,0.116c2.812,0,5.533-0.916,7.806-2.652l22.113-16.895c5.308-4.056,6.63-11.631,3.025-17.223
			l-9.711-15.176l5.948-4.545l83.846,117.029c-3.468,7.327-5.416,15.508-5.416,24.138c0,31.223,25.402,56.625,56.625,56.625
			s56.625-25.402,56.625-56.625c0-8.368-1.858-16.624-5.409-24.148l83.839-117.02l5.948,4.545l-9.697,15.154
			c-3.62,5.613-2.298,13.188,3.01,17.245l22.114,16.895c2.273,1.736,4.993,2.652,7.805,2.652c0.576,0,1.157-0.039,1.738-0.116
			c3.416-0.457,6.449-2.217,8.541-4.955l75.503-98.82C510.737,193.548,512.767,185.903,511.737,178.198z M15.162,180.192
			c0.499-3.725,2.417-7.033,5.405-9.315l85.948-65.666c2.545-1.944,5.545-2.883,8.525-2.883c3.895,0,7.736,1.625,10.481,4.694
			L17.307,189.699C15.479,186.886,14.712,183.553,15.162,180.192z M26.392,201.677l108.307-82.75l3.705,4.85l-108.307,82.75
			L26.392,201.677z M105.088,240.322c-5.747,4.391-7.177,12.592-3.272,18.647l9.181,14.346l-18.862,14.411l-52.913-69.254
			l108.307-82.75l52.912,69.254l-18.863,14.411l-11.41-12.61c-4.835-5.379-13.122-6.154-18.871-1.762L105.088,240.322z
			 M292.294,359.159c-1.728,2.411-1.875,5.614-0.378,8.174c3.712,6.343,5.675,13.592,5.675,20.961
			c0,22.934-18.658,41.592-41.592,41.592c-22.934,0-41.592-18.658-41.592-41.592s18.658-41.592,41.592-41.592
			c3.641,0,7.275,0.479,10.801,1.424c2.857,0.766,5.905-0.218,7.776-2.516l94.082-115.595l10.445,7.981L292.294,359.159z
			 M419.862,287.725L401,273.315l9.166-14.324c3.92-6.077,2.49-14.279-3.257-18.67l-46.211-35.307
			c-5.745-4.39-14.035-3.615-18.854,1.744l-11.426,12.629l-18.863-14.411l52.912-69.254l108.307,82.75L419.862,287.725z
			 M481.902,206.527l-108.307-82.751l3.705-4.85l108.307,82.75L481.902,206.527z M494.692,189.698l-108.221-82.684
			c4.845-5.417,13.143-6.29,19.014-1.804l85.948,65.666c2.987,2.282,4.906,5.589,5.405,9.315
			C497.287,183.552,496.521,186.885,494.692,189.698z"/>
	</g>
</g>
<g>
	<g>
		<path d="M422.458,191.956c-0.661-4.944-3.209-9.335-7.172-12.362c-8.18-6.251-19.924-4.681-26.177,3.502
			c-3.028,3.964-4.331,8.87-3.67,13.814c0.661,4.944,3.209,9.335,7.172,12.362c3.377,2.581,7.361,3.828,11.316,3.828
			c5.623,0,11.19-2.526,14.86-7.329c0.001,0,0.001,0,0.001,0C421.815,201.805,423.118,196.9,422.458,191.956z M406.841,196.642
			c-1.22,1.596-3.509,1.9-5.104,0.682c-1.042-0.796-1.323-1.852-1.398-2.41c-0.075-0.558-0.081-1.651,0.715-2.693
			c0.717-0.937,1.801-1.429,2.898-1.429c0.772,0,1.548,0.244,2.207,0.747c1.042,0.796,1.323,1.852,1.398,2.41
			C407.632,194.506,407.638,195.599,406.841,196.642z"/>
	</g>
</g>
<g>
	<g>
		<path d="M122.889,183.094c-6.252-8.182-17.996-9.752-26.175-3.502c-3.964,3.028-6.511,7.418-7.173,12.362
			c-0.66,4.944,0.642,9.85,3.67,13.814c0,0,0,0,0.001,0c3.671,4.805,9.235,7.329,14.86,7.329c3.954,0,7.939-1.248,11.315-3.827
			c3.964-3.028,6.511-7.418,7.173-12.362C127.22,191.964,125.917,187.058,122.889,183.094z M111.659,194.914
			c-0.074,0.558-0.355,1.614-1.399,2.41c-1.593,1.219-3.885,0.913-5.103-0.682c-0.797-1.043-0.791-2.135-0.716-2.693
			c0.074-0.558,0.355-1.614,1.399-2.41c1.595-1.219,3.885-0.913,5.103,0.682C111.74,193.264,111.734,194.356,111.659,194.914z"/>
	</g>
</g>
<g>
	<g>
		<path d="M254.997,363.739c-14.092,0-25.556,11.464-25.556,25.556c0,14.092,11.464,25.556,25.556,25.556
			c14.092,0,25.556-11.464,25.556-25.556C280.553,375.204,269.089,363.739,254.997,363.739z M254.997,399.819
			c-5.803,0-10.523-4.72-10.523-10.523c0-5.803,4.72-10.523,10.523-10.523c5.803,0,10.523,4.72,10.523,10.523
			C265.52,395.099,260.799,399.819,254.997,399.819z"/>
	</g>
</g>
<g>
	<g>
		<path d="M319.528,96.363l-4.009-23.051c-0.712-4.09-4.604-6.829-8.693-6.118c-4.09,0.712-6.828,4.603-6.117,8.693l1.244,7.153
			c-31.023-16.201-61.886-16.058-91.981,0.424l1.317-7.577c0.712-4.09-2.026-7.982-6.117-8.693c-4.09-0.715-7.983,2.027-8.693,6.118
			l-4.009,23.051c-0.674,3.883,1.762,7.626,5.583,8.581l24.053,6.013c0.612,0.153,1.226,0.227,1.829,0.227
			c3.367,0,6.432-2.28,7.287-5.696c1.006-4.027-1.441-8.108-5.469-9.115l-5.45-1.363c23.694-11.945,47.364-11.981,71.81-0.104
			l-5.865,1.466c-4.028,1.006-6.475,5.088-5.469,9.115c0.855,3.416,3.919,5.696,7.287,5.696c0.604,0,1.218-0.073,1.829-0.227
			l24.053-6.013C317.768,103.987,320.204,100.244,319.528,96.363z"/>
	</g>
</g>
<g>
</g>
<g>
</g>
<g>
</g>
<g>
</g>
<g>
</g>
<g>
</g>
<g>
</g>
<g>
</g>
<g>
</g>
<g>
</g>
<g>
</g>
<g>
</g>
<g>
</g>
<g>
</g>
<g>
</g>
</svg>
