<?xml version="1.0" encoding="iso-8859-1"?>
<!-- Generator: Adobe Illustrator 19.0.0, SVG Export Plug-In . SVG Version: 6.00 Build 0)  -->
<svg version="1.1" id="Capa_1" xmlns="http://www.w3.org/2000/svg" xmlns:xlink="http://www.w3.org/1999/xlink" x="0px" y="0px"
	 viewBox="0 0 512 512" style="enable-background:new 0 0 512 512;" xml:space="preserve">
<g>
	<g>
		<path d="M494.841,368.5H434v-0.51c0-20.121-16.369-36.49-36.49-36.49h-0.326l-3.012-133h7.981l1.588,19.92
			c0.541,6.774,6.287,12.08,13.082,12.08h29.055c7.236,0,13.123-5.887,13.123-13.123V87.537c0-16.562-13.475-30.037-30.037-30.037
			H316.036C299.475,57.5,286,70.975,286,87.537V154.5c0,4.142,3.357,7.5,7.5,7.5s7.5-3.358,7.5-7.5v-52.755h143V215.5h-25.444
			l-1.507-18.896c-0.587-7.348-6.819-13.104-14.19-13.104h-60.717c-7.371,0-13.604,5.756-14.19,13.104l-1.507,18.896H301v-31
			c0-4.142-3.357-7.5-7.5-7.5s-7.5,3.358-7.5,7.5v32.877c0,7.236,5.887,13.123,13.123,13.123h29.055
			c6.795,0,12.541-5.306,13.082-12.08l1.588-19.92h5.981l-3.013,133.038C326.469,332.416,311,348.431,311,367.99v0.51H201v-0.51
			c0-20.121-16.369-36.49-36.49-36.49h-0.326l-0.615-27.17c-0.094-4.141-3.553-7.419-7.668-7.328
			c-4.141,0.094-7.422,3.527-7.328,7.668l0.781,34.5c0.092,4.075,3.422,7.33,7.498,7.33h7.658c11.85,0,21.49,9.64,21.49,21.49v0.51
			h-35.922c-9.968,0-18.078,8.109-18.078,18.078v8.845c0,9.968,8.109,18.078,18.078,18.078H186v4.51c0,11.85-9.64,21.49-21.49,21.49
			h-50.02c-11.85,0-21.49-9.64-21.49-21.49V367.99c0-11.85,9.641-21.49,21.49-21.49h5.658c4.076,0,7.406-3.255,7.498-7.33
			l3.186-140.67h15.336l1.725,76.17c0.092,4.083,3.431,7.33,7.495,7.33c0.058,0,0.116,0,0.173-0.002
			c4.141-0.094,7.422-3.527,7.328-7.668l-1.717-75.83h7.981l1.588,19.921c0.541,6.773,6.287,12.079,13.082,12.079h29.055
			c7.236,0,13.123-5.887,13.123-13.123V87.537c0-16.562-13.475-30.037-30.037-30.037H83.037C66.475,57.5,53,70.975,53,87.537v129.84
			c0,7.236,5.887,13.123,13.123,13.123h29.055c6.794,0,12.541-5.306,13.082-12.08l1.588-19.92h5.981l-3.013,133.038
			C93.469,332.416,78,348.431,78,367.99v0.51H18.805C8.436,368.5,0,376.936,0,387.305v7.39C0,405.064,8.436,413.5,18.805,413.5H78
			v4.51c0,20.121,16.37,36.49,36.49,36.49h50.02c20.121,0,36.49-16.369,36.49-36.49v-4.51h110v4.51
			c0,20.121,16.369,36.49,36.49,36.49h50.02c20.121,0,36.49-16.369,36.49-36.49v-4.51h60.841c9.462,0,17.159-7.697,17.159-17.159
			v-10.683C512,376.197,504.303,368.5,494.841,368.5z M301.04,86.745c0.416-7.922,6.972-14.245,14.996-14.245h112.927
			c8.024,0,14.581,6.323,14.997,14.245H301.04z M83.037,72.5h112.927c8.024,0,14.581,6.323,14.997,14.245H68.04
			C68.456,78.823,75.013,72.5,83.037,72.5z M109.142,183.5c-7.372,0-13.605,5.756-14.191,13.104L93.445,215.5H68V101.745h143V215.5
			h-25.445l-1.506-18.896c-0.586-7.348-6.819-13.104-14.191-13.104H109.142z M78,398.5H18.805c-2.098,0-3.805-1.707-3.805-3.805
			v-7.39c0-2.098,1.707-3.805,3.805-3.805H78V398.5z M311,398.499H150.078v0.001c-1.697,0-3.078-1.381-3.078-3.078v-8.845
			c0-1.697,1.381-3.078,3.078-3.078H311V398.499z M419,418.01c0,11.85-9.641,21.49-21.49,21.49h-50.02
			c-11.85,0-21.49-9.64-21.49-21.49v-50.02c0-11.85,9.641-21.49,21.49-21.49h5.658c4.076,0,7.406-3.255,7.498-7.33l3.186-140.67
			h15.336l3.186,140.67c0.092,4.075,3.422,7.33,7.498,7.33h7.658c11.85,0,21.49,9.64,21.49,21.49v0.51h-37.841
			c-9.462,0-17.159,7.697-17.159,17.159v10.683c0,9.461,7.697,17.159,17.159,17.159H419V418.01z M497,396.341
			c0,1.19-0.969,2.159-2.159,2.159H381.159c-1.19,0-2.159-0.968-2.159-2.159v-10.683c0-1.19,0.969-2.159,2.159-2.159h113.682
			c1.19,0,2.159,0.968,2.159,2.159V396.341z"/>
	</g>
</g>
<g>
	<g>
		<path d="M138.5,114.5c-10.752,0-19.5,8.748-19.5,19.5s8.748,19.5,19.5,19.5S158,144.752,158,134S149.252,114.5,138.5,114.5z
			 M138.5,138.5c-2.481,0-4.5-2.019-4.5-4.5s2.019-4.5,4.5-4.5s4.5,2.019,4.5,4.5S140.981,138.5,138.5,138.5z"/>
	</g>
</g>
<g>
	<g>
		<path d="M371.5,114.5c-10.752,0-19.5,8.748-19.5,19.5s8.748,19.5,19.5,19.5S391,144.752,391,134S382.252,114.5,371.5,114.5z
			 M371.5,138.5c-2.481,0-4.5-2.019-4.5-4.5s2.019-4.5,4.5-4.5c2.481,0,4.5,2.019,4.5,4.5S373.981,138.5,371.5,138.5z"/>
	</g>
</g>
<g>
	<g>
		<path d="M123.806,411.5c-2.65,0-4.806-2.156-4.806-4.806v-31.388c0-2.65,2.156-4.806,4.806-4.806c4.142,0,7.5-3.358,7.5-7.5
			c0-4.142-3.358-7.5-7.5-7.5c-10.921,0-19.806,8.885-19.806,19.806v31.388c0,10.921,8.885,19.806,19.806,19.806
			c4.142,0,7.5-3.358,7.5-7.5C131.306,414.858,127.948,411.5,123.806,411.5z"/>
	</g>
</g>
<g>
	<g>
		<path d="M357.807,411.5c-2.65,0-4.807-2.156-4.807-4.806v-31.388c0-2.65,2.156-4.806,4.807-4.806c4.143,0,7.5-3.358,7.5-7.5
			c0-4.142-3.357-7.5-7.5-7.5c-10.922,0-19.807,8.885-19.807,19.806v31.388c0,10.921,8.885,19.806,19.807,19.806
			c4.143,0,7.5-3.358,7.5-7.5C365.307,414.858,361.949,411.5,357.807,411.5z"/>
	</g>
</g>
<g>
</g>
<g>
</g>
<g>
</g>
<g>
</g>
<g>
</g>
<g>
</g>
<g>
</g>
<g>
</g>
<g>
</g>
<g>
</g>
<g>
</g>
<g>
</g>
<g>
</g>
<g>
</g>
<g>
</g>
</svg>
