<?xml version="1.0" encoding="iso-8859-1"?>
<!-- Generator: Adobe Illustrator 19.0.0, SVG Export Plug-In . SVG Version: 6.00 Build 0)  -->
<svg version="1.1" id="Capa_1" xmlns="http://www.w3.org/2000/svg" xmlns:xlink="http://www.w3.org/1999/xlink" x="0px" y="0px"
	 viewBox="0 0 512 512" style="enable-background:new 0 0 512 512;" xml:space="preserve">
<g>
	<g>
		<path d="M494.203,29.089c-21.792-21.46-57.078-22.714-80.331-2.858C396.577,41,389.186,64.547,394.866,86.497l-18.263,17.135
			l-5.389-5.744c-5.792-6.173-15.525-6.483-21.698-0.691l-8.387,7.869c-0.99,0.928-1.824,1.973-2.524,3.094
			c-1.767-0.466-3.599-0.742-5.471-0.802c-6.502-0.214-12.668,2.126-17.401,6.567l-11.738,11.013
			c-5.449,5.115-5.998,13.516-1.47,19.288l-60.343,56.619c-2.687,2.521-4.232,5.937-4.349,9.619
			c-0.117,3.683,1.207,7.19,3.727,9.877l7.606,8.107l-10.489,9.842l-13.999-9.936c-4.377-3.106-9.703-4.322-14.992-3.424
			c-5.291,0.899-9.917,3.804-13.022,8.181c-5.51,7.765-4.786,18.434,1.722,25.37c0.917,0.977,1.938,1.867,3.034,2.644l7.356,5.221
			l-6.982,6.551l-13.999-9.936c-9.035-6.413-21.602-4.28-28.015,4.756c-5.51,7.764-4.786,18.433,1.722,25.369
			c0.915,0.976,1.936,1.866,3.034,2.645l7.356,5.221l-6.25,5.864l-13.999-9.936c-4.377-3.106-9.704-4.325-14.992-3.424
			c-5.292,0.898-9.917,3.804-13.023,8.181c-5.51,7.765-4.786,18.434,1.722,25.37c0.917,0.977,1.938,1.868,3.034,2.645l7.356,5.221
			l-6.077,5.702l-6.682-7.122c-7.639-8.142-20.481-8.551-28.621-0.912l-1.244,1.166c-8.142,7.639-8.552,20.48-0.911,28.622
			l4.063,4.331l-18.262,17.136c-21.547-7.067-45.514-1.188-61.353,15.133c-21.297,21.943-22.289,57.237-2.259,80.35
			c10.728,12.379,25.623,19.661,41.944,20.504c1.059,0.054,2.114,0.082,3.165,0.082c15.165,0,29.493-5.659,40.641-16.119
			c15.945-14.961,22.359-37.235,16.882-58.364l18.262-17.135l4.063,4.33c3.701,3.944,8.716,6.212,14.123,6.383
			c0.221,0.007,0.44,0.01,0.66,0.01c5.164,0,10.056-1.933,13.84-5.483l1.242-1.165c3.944-3.701,6.212-8.716,6.384-14.122
			c0.173-5.406-1.771-10.556-5.472-14.5l-5.215-5.558l13.692-12.847l15.783,11.202c3.436,2.439,7.456,3.712,11.587,3.712
			c1.13,0,2.27-0.095,3.406-0.288c5.291-0.899,9.917-3.804,13.022-8.18c6.412-9.033,4.28-21.6-4.755-28.015l-9.14-6.487l6.25-5.864
			l15.783,11.202c3.522,2.5,7.579,3.701,11.602,3.7c6.295,0,12.501-2.944,16.414-8.456c6.411-9.032,4.278-21.599-4.756-28.016
			l-9.139-6.487l6.982-6.551l15.783,11.202c3.436,2.439,7.455,3.712,11.587,3.712c1.13,0,2.27-0.095,3.406-0.288
			c5.291-0.899,9.917-3.804,13.022-8.18c3.106-4.376,4.323-9.701,3.425-14.992c-0.898-5.292-3.804-9.918-8.181-13.022l-9.139-6.487
			l2.874-2.697l7.607,8.107c2.521,2.686,5.936,4.231,9.618,4.348c0.151,0.005,0.3,0.007,0.45,0.007c3.517,0,6.85-1.317,9.427-3.734
			l60.342-56.617c2.505,2.24,5.681,3.524,9.08,3.632c0.156,0.005,0.313,0.007,0.467,0.007c3.656,0,7.119-1.368,9.797-3.881
			l11.737-11.013c6.895-6.469,9.145-16.039,6.667-24.55c0.816-0.514,1.595-1.111,2.324-1.795l8.387-7.869
			c2.991-2.805,4.709-6.608,4.839-10.706c0.131-4.099-1.342-8.002-4.148-10.992l-5.389-5.744l18.263-17.135
			c20.736,6.809,43.373,1.826,59.32-13.135c11.92-11.185,18.594-26.348,18.791-42.696C512.194,55.912,505.875,40.583,494.203,29.089
			z M105.874,415.184c-3.582,3.359-4.98,8.414-3.65,13.19c4.463,16.019-0.285,33.028-12.392,44.386
			c-8.903,8.353-20.521,12.603-32.717,11.976c-12.187-0.629-23.315-6.071-31.333-15.323c-14.954-17.257-14.215-43.605,1.684-59.986
			c8.516-8.775,20.175-13.509,32.043-13.509c4.895,0,9.825,0.806,14.584,2.465c4.672,1.631,9.799,0.556,13.381-2.805l19.104-17.926
			l18.397,19.608L105.874,415.184z M158.903,401.337l-1.242,1.165c-1.009,0.946-2.322,1.439-3.709,1.4
			c-1.382-0.044-2.665-0.624-3.612-1.633l-47.146-50.247c-1.954-2.083-1.85-5.367,0.232-7.321l1.244-1.166
			c0.967-0.908,2.219-1.402,3.54-1.402c0.056,0,0.113,0.001,0.169,0.002c1.382,0.044,2.665,0.624,3.613,1.633l47.146,50.247
			c0.946,1.009,1.444,2.326,1.399,3.709S159.912,400.391,158.903,401.337z M154.601,367.157l-14.627-15.589l8.304-7.792
			l17.786,12.624L154.601,367.157z M208.924,356.018c0.009,0.007,0.125,0.098,0.193,0.153L208.924,356.018
			c2.257,1.604,2.792,4.747,1.188,7.005c-0.777,1.094-1.933,1.82-3.256,2.045c-1.32,0.222-2.654-0.079-3.747-0.856l-66.004-46.846
			c-0.278-0.197-0.535-0.421-0.765-0.666v-0.001c-1.624-1.729-1.8-4.394-0.422-6.336c0.777-1.094,1.933-1.82,3.255-2.044
			c0.284-0.048,0.569-0.072,0.852-0.072c1.033,0,2.038,0.318,2.897,0.928L208.924,356.018z M178.181,315.721l6.25-5.864
			l17.786,12.624l-6.25,5.863L178.181,315.721z M245.06,322.087c0.014,0.01,0,0,0.014,0.009c2.258,1.606,2.793,4.749,1.19,7.006
			c-1.603,2.259-4.745,2.793-7.004,1.19l-66.001-46.844c-0.279-0.198-0.538-0.423-0.768-0.669c-1.622-1.73-1.8-4.395-0.423-6.336
			c0.979-1.379,2.531-2.115,4.104-2.115c1.005,0,2.019,0.3,2.9,0.925L245.06,322.087z M214.332,281.8l6.982-6.551l17.787,12.624
			l-6.982,6.551L214.332,281.8z M281.961,287.493c1.093,0.775,1.819,1.931,2.043,3.254c0.225,1.323-0.079,2.654-0.856,3.748
			c-0.777,1.094-1.933,1.82-3.256,2.045c-1.32,0.223-2.653-0.079-3.747-0.856c-0.013-0.009,0.027,0.019,0.013,0.01L210.14,248.84
			c-0.278-0.197-0.535-0.421-0.765-0.666c-1.624-1.73-1.8-4.394-0.422-6.336c0.777-1.094,1.933-1.82,3.256-2.045
			c0.284-0.048,0.569-0.072,0.852-0.072c1.033,0,2.037,0.318,2.896,0.928L281.961,287.493z M251.217,247.192l8.262-7.752
			l14.627,15.589l-5.103,4.787L251.217,247.192z M392.632,195.885l-11.202,10.51l-11.932-12.717
			c-2.847-3.035-7.616-3.186-10.65-0.339s-3.187,7.616-0.339,10.65l2.996,3.193l-59.365,55.7l-48.715-51.919l59.365-55.701
			l25.094,26.745c2.847,3.035,7.616,3.186,10.65,0.339c3.034-2.847,3.187-7.616,0.339-10.65l-34.03-36.269l11.202-10.51
			c1.799-1.688,4.16-2.571,6.611-2.495c2.465,0.078,4.751,1.112,6.439,2.91l53.953,57.503
			C396.53,186.548,396.344,192.402,392.632,195.885z M410.009,161.671l-8.387,7.869c-0.114,0.106-0.292,0.099-0.398-0.013
			l-49.796-53.072c-0.025-0.027-0.079-0.084-0.076-0.202c0.004-0.117,0.061-0.17,0.088-0.196l8.387-7.869
			c0.026-0.025,0.081-0.076,0.19-0.076c0.004,0,0.007,0,0.011,0c0.117,0.004,0.17,0.061,0.196,0.088l49.797,53.073
			c0.025,0.027,0.079,0.084,0.076,0.201C410.094,161.591,410.037,161.645,410.009,161.671z M482.895,103.96
			c-12.107,11.36-29.383,15.015-45.085,9.543c-4.68-1.631-9.814-0.558-13.394,2.803l-19.103,17.924l-18.397-19.608l19.106-17.927
			c3.581-3.361,4.979-8.409,3.649-13.176c-4.635-16.624,0.855-34.613,13.989-45.829c17.357-14.823,43.702-13.886,59.972,2.135
			c8.722,8.59,13.445,20.042,13.297,32.244C496.781,84.281,491.797,95.607,482.895,103.96z"/>
	</g>
</g>
<g>
	<g>
		<path d="M474.227,52.51c-10.804-11.513-28.959-12.091-40.471-1.288c-5.578,5.233-8.784,12.325-9.027,19.968
			c-0.243,7.644,2.505,14.925,7.738,20.503c5.233,5.578,12.325,8.784,19.968,9.027c0.313,0.01,0.624,0.015,0.934,0.015
			c7.301,0,14.219-2.734,19.568-7.753C484.451,82.18,485.03,64.025,474.227,52.51z M462.627,81.994
			c-5.454,5.118-14.054,4.842-19.172-0.611c-2.478-2.642-3.78-6.091-3.665-9.712c0.115-3.621,1.634-6.979,4.276-9.459
			c2.613-2.451,5.948-3.666,9.276-3.666c3.619,0,7.229,1.436,9.895,4.276C468.355,68.276,468.08,76.876,462.627,81.994z"/>
	</g>
</g>
<g>
	<g>
		<path d="M80.799,421.655c-5.233-5.578-12.325-8.784-19.968-9.027c-7.636-0.24-14.925,2.506-20.503,7.738
			c-5.577,5.233-8.783,12.325-9.026,19.969c-0.244,7.644,2.505,14.925,7.738,20.503c5.233,5.578,12.325,8.784,19.968,9.027
			c0.312,0.01,0.624,0.015,0.934,0.015c7.301,0,14.219-2.734,19.568-7.753c5.577-5.233,8.783-12.325,9.026-19.969
			C88.781,434.514,86.032,427.233,80.799,421.655z M69.199,451.136c-5.454,5.118-14.054,4.843-19.172-0.61
			c-2.478-2.641-3.78-6.091-3.665-9.712c0.116-3.621,1.634-6.98,4.276-9.459c2.613-2.451,5.947-3.665,9.276-3.665
			c3.619,0,7.229,1.436,9.896,4.276c2.478,2.641,3.78,6.091,3.665,9.712C73.359,445.298,71.841,448.658,69.199,451.136z"/>
	</g>
</g>
<g>
	<g>
		<path d="M324.027,171.398c-2.847-3.034-7.616-3.186-10.65-0.339l-42.493,39.87c-3.035,2.847-3.187,7.616-0.339,10.65
			c1.483,1.58,3.487,2.379,5.496,2.379c1.848,0,3.7-0.676,5.154-2.04l42.493-39.87C326.723,179.201,326.875,174.432,324.027,171.398
			z"/>
	</g>
</g>
<g>
</g>
<g>
</g>
<g>
</g>
<g>
</g>
<g>
</g>
<g>
</g>
<g>
</g>
<g>
</g>
<g>
</g>
<g>
</g>
<g>
</g>
<g>
</g>
<g>
</g>
<g>
</g>
<g>
</g>
</svg>
