<?xml version="1.0" encoding="iso-8859-1"?>
<!-- Generator: Adobe Illustrator 19.0.0, SVG Export Plug-In . SVG Version: 6.00 Build 0)  -->
<svg version="1.1" id="Capa_1" xmlns="http://www.w3.org/2000/svg" xmlns:xlink="http://www.w3.org/1999/xlink" x="0px" y="0px"
	 viewBox="0 0 512 512" style="enable-background:new 0 0 512 512;" xml:space="preserve">
<g>
	<g>
		<path d="M461.655,231.03h-11.673c-0.956-9.941-9.351-17.741-19.538-17.741h-1.577c-5.247,0-10.009,2.081-13.535,5.446
			l-27.407-1.659l-8.231-44.706c8.931-6.051,16.65-14.174,22.34-24.164l25.222-44.286c0.235-0.056,0.47-0.104,0.704-0.168
			c5.389-1.478,9.88-4.966,12.645-9.822l2.449-4.3c2.766-4.855,3.475-10.498,1.997-15.887c-1.479-5.389-4.966-9.88-9.822-12.645
			L332.761,2.737c-10.023-5.708-22.823-2.198-28.532,7.825l-2.449,4.3c-2.766,4.855-3.475,10.498-1.997,15.886
			c0.163,0.595,0.36,1.174,0.571,1.746l-24.856,43.643c-9.625,16.899-12.093,36.536-6.949,55.292
			c3.439,12.54,10.019,23.669,19.044,32.554l-19.909,45.816l-38.782-2.347c-3.866-5.326-10.123-8.81-17.193-8.81h-1.788
			c-8.846,0-16.44,5.436-19.635,13.14l-26.251,5.549c-6.194,1.31-10.69,6.855-10.69,13.187V233l-50.941,2.271
			c-6.945,0.31-12.386,5.999-12.386,12.951v10.61c0,6.952,5.44,12.641,12.386,12.951l50.94,2.271v2.482
			c0,6.331,4.496,11.878,10.69,13.187l26.251,5.549c3.195,7.704,10.789,13.14,19.635,13.14h1.788
			c9.225,0,17.073-5.918,20.006-14.149l32.842-1.988v68.747l-25.862,43.526c-5.632,9.48-2.503,21.775,6.977,27.407
			c3.132,1.861,6.629,2.814,10.181,2.814c1.655,0,3.322-0.208,4.967-0.626c5.176-1.318,9.53-4.573,12.259-9.165l28.668-48.249
			c1.836-3.09,2.806-6.622,2.806-10.215v-33.496c0-4.142-3.358-7.499-7.499-7.499s-7.499,3.358-7.499,7.499v33.496
			c0,0.898-0.243,1.782-0.702,2.554l-28.668,48.249c-0.682,1.148-1.771,1.962-3.065,2.292c-1.294,0.328-2.639,0.135-3.788-0.547
			c-1.148-0.682-1.962-1.771-2.292-3.065c-0.329-1.294-0.135-2.639,0.547-3.788l26.914-45.297c0.688-1.159,1.052-2.482,1.052-3.831
			v-71.71l9.999-0.605v12.259c0,4.142,3.358,7.499,7.499,7.499c4.142,0,7.499-3.358,7.499-7.499v-13.167l30.44-1.843v26.508v63.993
			v42.519c0,4.826,2.876,8.985,6.999,10.879v9.465c0,6.614,4.738,12.14,10.999,13.369v2.997c0,8.967,7.294,16.261,16.261,16.261
			h61.23c6.34,0,11.499,5.158,11.499,11.499c0,6.34-5.158,11.499-11.499,11.499h-278.97c-4.142,0-7.499,3.358-7.499,7.499
			s3.358,7.499,7.499,7.499h278.97c14.61,0,26.497-11.887,26.497-26.497c0-14.61-11.887-26.497-26.497-26.497h-61.23
			c-0.696,0-1.263-0.567-1.263-1.263v-2.997c6.26-1.23,10.999-6.754,10.999-13.369v-10.274c2.874-1.846,4.931-4.885,5.414-8.471
			l20.963-138.878l9.966-0.603c3.526,3.365,8.288,5.446,13.535,5.446h1.577c10.188,0,18.582-7.8,19.538-17.741h11.673
			c7.898,0,14.323-6.425,14.323-14.323v-11.179C475.979,237.456,469.553,231.03,461.655,231.03z M153.347,259.041l-48.328-2.154
			v-6.718l48.328-2.155V259.041z M188.67,279.602l-20.326-4.297v-43.554l20.326-4.297V279.602z M217.964,287.129v0.032
			c0,3.449-2.806,6.253-6.253,6.253h-1.788c-3.449,0-6.253-2.806-6.253-6.253v-67.267c0-3.449,2.806-6.253,6.253-6.253h1.788
			c3.449,0,6.253,2.806,6.253,6.253V287.129z M314.813,22.285l2.449-4.299c1.616-2.837,5.239-3.832,8.076-2.216l102.47,58.361
			c1.375,0.783,2.362,2.054,2.78,3.58c0.418,1.526,0.218,3.123-0.565,4.498l-2.449,4.299c-0.783,1.375-2.054,2.362-3.58,2.78
			c-1.527,0.419-3.123,0.218-4.497-0.565L317.027,30.361c-1.375-0.783-2.362-2.054-2.78-3.58
			C313.83,25.256,314.03,23.659,314.813,22.285z M288.531,83.562l22.435-39.393l100.471,57.223l-11.73,20.595l-15.782-7.377
			c-7.095-3.316-15.351-3.591-22.653-0.751l-1.908,0.743c-3.173,1.234-6.675,1.256-9.865,0.06l-17.063-6.398
			c-6.37-2.389-13.406-2.445-19.813-0.156c-2.78,0.992-5.864,1.064-8.687,0.202l-22.022-6.726
			C283.085,95.332,285.292,89.251,288.531,83.562z M283.016,127.462c-0.949-3.451-1.556-6.939-1.858-10.429l18.396,5.619
			c5.885,1.798,12.318,1.648,18.113-0.422c3.073-1.098,6.447-1.071,9.503,0.075l17.063,6.398c6.646,2.493,13.951,2.448,20.569-0.125
			l1.909-0.743c3.501-1.362,7.46-1.231,10.864,0.361l14.686,6.865l-3.258,5.72c-15.776,27.7-51.148,37.4-78.846,21.625
			c-3.055-1.74-5.901-3.738-8.543-5.944c-0.125-0.112-0.258-0.218-0.391-0.323C292.46,148.689,286.125,138.798,283.016,127.462z
			 M363.991,440.007h-6.999v-6.999h6.999V440.007z M369.933,418.01h-19.941v-31.997h7.723c7.871,0,14.274-6.403,14.274-14.274
			v-50.443c0-7.871-6.403-14.274-14.274-14.274h-7.723v-19.916l40.066-2.425L369.933,418.01z M349.993,371.015V322.02h6.999v48.995
			H349.993z M409.232,268.493l-176.271,10.668v-56.437h0.001l89.58,5.421c4.124,0.246,7.688-2.899,7.938-7.032
			c0.25-4.135-2.899-7.688-7.032-7.938l-39.83-2.411l16.13-37.121c0.978,0.619,1.972,1.22,2.984,1.797
			c11.343,6.46,23.705,9.528,35.911,9.528c9.321,0,18.547-1.796,27.157-5.23l6.702,36.405l-19.059-1.154
			c-4.137-0.251-7.688,2.899-7.938,7.032c-0.25,4.135,2.899,7.688,7.032,7.938l56.694,3.432V268.493z M435.08,268.963
			c0,2.557-2.08,4.635-4.635,4.635h-1.577c-2.557,0-4.636-2.08-4.636-4.635v-36.04c0-2.557,2.08-4.635,4.636-4.635h1.577
			c2.557,0,4.635,2.08,4.635,4.635V268.963z M460.981,255.857h-10.902v-9.829h10.902V255.857z"/>
	</g>
</g>
<g>
	<g>
		<path d="M274.635,232.925l-19.891-2.325c-2.915-0.34-5.854,0.595-8.072,2.568c-2.332,2.075-3.669,5.091-3.669,8.279v18.162
			c0,3.188,1.337,6.204,3.669,8.279c1.918,1.707,4.378,2.637,6.89,2.637c0.393,0,0.787-0.023,1.18-0.069l19.893-2.325
			c5.338-0.624,9.364-5.287,9.364-10.847v-13.513C284,238.211,279.973,233.549,274.635,232.925z M269.001,253.689l-10.999,1.286
			v-8.894l10.999,1.286V253.689z"/>
	</g>
</g>
<g>
	<g>
		<path d="M317.496,243.028h-9.999c-4.142,0-7.499,3.358-7.499,7.499s3.358,7.499,7.499,7.499h9.999
			c4.142,0,7.499-3.358,7.499-7.499S321.638,243.028,317.496,243.028z"/>
	</g>
</g>
<g>
	<g>
		<path d="M392.488,243.028h-49.995c-4.142,0-7.499,3.358-7.499,7.499s3.358,7.499,7.499,7.499h49.995
			c4.142,0,7.499-3.358,7.499-7.499C399.987,246.386,396.63,243.028,392.488,243.028z"/>
	</g>
</g>
<g>
	<g>
		<path d="M60.524,246.028H43.526c-4.142,0-7.499,3.358-7.499,7.499c0,4.142,3.358,7.499,7.499,7.499h16.998
			c4.142,0,7.499-3.358,7.499-7.499C68.023,249.386,64.665,246.028,60.524,246.028z"/>
	</g>
</g>
<g>
	<g>
		<path d="M76.706,210.189l-13.978-9.67c-3.407-2.357-8.078-1.506-10.434,1.901c-2.356,3.407-1.505,8.078,1.901,10.434l13.978,9.67
			c1.302,0.901,2.789,1.333,4.26,1.333c2.379,0,4.718-1.129,6.174-3.233C80.963,217.217,80.112,212.546,76.706,210.189z"/>
	</g>
</g>
<g>
	<g>
		<path d="M78.607,286.431c-2.357-3.405-7.028-4.257-10.434-1.9l-13.978,9.67c-3.406,2.356-4.257,7.027-1.901,10.434
			c1.456,2.104,3.795,3.233,6.174,3.233c1.471,0,2.958-0.432,4.26-1.333l13.979-9.67C80.112,294.509,80.963,289.837,78.607,286.431z
			"/>
	</g>
</g>
<g>
</g>
<g>
</g>
<g>
</g>
<g>
</g>
<g>
</g>
<g>
</g>
<g>
</g>
<g>
</g>
<g>
</g>
<g>
</g>
<g>
</g>
<g>
</g>
<g>
</g>
<g>
</g>
<g>
</g>
</svg>
