<?xml version="1.0" encoding="iso-8859-1"?>
<!-- Generator: Adobe Illustrator 19.0.0, SVG Export Plug-In . SVG Version: 6.00 Build 0)  -->
<svg version="1.1" id="Capa_1" xmlns="http://www.w3.org/2000/svg" xmlns:xlink="http://www.w3.org/1999/xlink" x="0px" y="0px"
	 viewBox="0 0 512.001 512.001" style="enable-background:new 0 0 512.001 512.001;" xml:space="preserve">
<g>
	<g>
		<path d="M206.803,208.901l-64.245-88.285c-2.436-3.349-7.126-4.088-10.475-1.651c-3.348,2.437-4.088,7.126-1.651,10.475
			l61.141,84.019l-58.431,85.924c-2.328,3.424-1.44,8.088,1.983,10.416c1.292,0.878,2.758,1.299,4.21,1.299
			c2.398,0,4.757-1.15,6.207-3.283l61.397-90.286C208.72,214.912,208.665,211.46,206.803,208.901z"/>
	</g>
</g>
<g>
	<g>
		<path d="M242.899,151.317c-3.426-2.33-8.089-1.441-10.417,1.983l-14.621,21.501l-51.849-71.252
			c-2.436-3.348-7.126-4.087-10.475-1.651c-3.348,2.437-4.088,7.126-1.651,10.475l58.121,79.867c1.413,1.94,3.667,3.086,6.062,3.086
			c0.04,0,0.08,0,0.119-0.001c2.44-0.039,4.709-1.263,6.081-3.281l20.613-30.312C247.211,158.309,246.322,153.645,242.899,151.317z"
			/>
	</g>
</g>
<g>
	<g>
		<path d="M237.811,251.512l-12.876-17.694c-1.437-1.972-3.702-3.114-6.183-3.085c-2.439,0.039-4.708,1.263-6.08,3.281
			l-55.544,81.68c-2.328,3.424-1.44,8.088,1.983,10.416c1.292,0.878,2.758,1.299,4.21,1.299c2.398,0,4.757-1.15,6.207-3.283
			l49.551-72.868l6.605,9.077c2.439,3.349,7.128,4.089,10.477,1.651C239.509,259.549,240.248,254.86,237.811,251.512z"/>
	</g>
</g>
<g>
	<g>
		<path d="M266.885,167.627c-3.426-2.33-8.089-1.441-10.417,1.983l-26.466,38.919c-1.778,2.617-1.724,6.07,0.138,8.628
			l21.427,29.444c1.468,2.016,3.752,3.086,6.068,3.086c1.53,0,3.074-0.467,4.406-1.436c3.348-2.437,4.088-7.126,1.651-10.475
			l-18.322-25.178l23.5-34.557C271.197,174.619,270.308,169.955,266.885,167.627z"/>
	</g>
</g>
<g>
	<g>
		<path d="M413.913,258.923h-55.565v-95.881c0-4.293-1.292-8.506-3.613-12.078l8.279-8.286
			c19.399-19.419,19.391-51.008-0.018-70.417l-39.351-39.351c-19.258-19.256-49.8-19.64-69.537-0.875l-13.681,13.008
			c-0.383-0.02-0.763-0.056-1.149-0.056h-22.806V14.766C216.471,6.624,209.847,0,201.706,0h-77.438
			c-8.142,0-14.766,6.623-14.766,14.766v30.221h-6.465c-14.03,0-25.443,11.415-25.443,25.444v286.01
			c0,14.03,11.414,25.444,25.443,25.444h185.608l10.227,19.81c-2.762,3.493-4.426,7.893-4.426,12.68
			c0,11.301,9.193,20.494,20.494,20.494h1.5v66.376c0,3.693,1.859,7.082,4.975,9.065c1.761,1.122,3.759,1.69,5.767,1.69
			c1.546,0,3.098-0.336,4.553-1.016l23.491-10.963c3.768-1.758,6.202-5.581,6.202-9.739V434.87h1.5
			c11.301,0,20.494-9.193,20.494-20.494c0-4.789-1.663-9.188-4.426-12.68l36.582-70.855c0.55-1.063,0.836-2.242,0.836-3.439v-27.66
			c10.123-1.24,17.995-9.873,17.995-20.326C434.407,268.116,425.214,258.923,413.913,258.923z M264.44,42.9
			c13.795-13.115,35.143-12.845,48.6,0.612l39.352,39.352c13.565,13.565,13.571,35.642,0.013,49.214l-7.963,7.971l-7.106-7.032
			l7.997-8.004c9.663-9.675,9.659-25.411-0.01-35.081l-39.351-39.352c-9.596-9.594-24.811-9.787-34.643-0.436l-9.048,8.603
			l-7.11-7.035L264.44,42.9z M334.723,114.416l-8.047,8.055l-53.733-53.169l8.717-8.289c3.892-3.7,9.91-3.623,13.706,0.172
			l39.352,39.352C338.544,104.362,338.546,110.588,334.723,114.416z M124.5,14.996h8.997v9.497c0,4.141,3.356,7.498,7.498,7.498
			c4.142,0,7.498-3.357,7.498-7.498v-9.497h6.998v9.497c0,4.141,3.356,7.498,7.498,7.498s7.498-3.357,7.498-7.498v-9.497h6.998
			v9.497c0,4.141,3.356,7.498,7.498,7.498s7.498-3.357,7.498-7.498v-9.497h8.997v29.991H124.5V14.996z M103.039,366.89
			c-5.761,0-10.448-4.688-10.448-10.449V70.431c0-5.761,4.687-10.449,10.448-10.449h136.238c1.889,0,3.669,0.732,5.013,2.061
			l94.26,93.272c0.18,0.227,0.371,0.449,0.581,0.659c0.224,0.224,0.462,0.426,0.707,0.615l1.401,1.386
			c1.345,1.33,2.114,3.177,2.114,5.066v95.881h-9.996v-91.555c0-2.002-0.801-3.921-2.224-5.329l-90.843-89.891
			c-1.404-1.39-3.299-2.168-5.273-2.168H110.085c-4.142,0-7.498,3.357-7.498,7.498v271.919c0,4.141,3.356,7.498,7.498,7.498h93.391
			c4.142,0,7.498-3.357,7.498-7.498s-3.356-7.498-7.498-7.498h-85.893V84.975h114.349l86.428,85.522v88.426h-54.403
			c-11.301,0-20.494,9.193-20.494,20.494c0,10.453,7.872,19.086,17.995,20.326v27.66c0,1.197,0.286,2.376,0.836,3.439l5.708,11.057
			h-34.536c-4.142,0-7.498,3.357-7.498,7.498s3.356,7.498,7.498,7.498h42.277l5.161,9.997H103.039z M346.433,487.578l-14.996,6.998
			V434.87h14.996V487.578z M362.929,419.875h-47.986c-3.032,0-5.498-2.466-5.498-5.498c0-3.032,2.466-5.498,5.498-5.498h47.986
			c3.032,0,5.498,2.466,5.498,5.498C368.427,417.408,365.961,419.875,362.929,419.875z M401.417,325.581l-35.262,68.302h-54.439
			l-35.261-68.302v-25.67h124.963V325.581z M413.913,284.915H263.958c-3.031,0-5.498-2.466-5.498-5.498
			c0-3.032,2.467-5.498,5.498-5.498h149.955c3.031,0,5.498,2.466,5.498,5.498C419.412,282.449,416.944,284.915,413.913,284.915z"/>
	</g>
</g>
<g>
</g>
<g>
</g>
<g>
</g>
<g>
</g>
<g>
</g>
<g>
</g>
<g>
</g>
<g>
</g>
<g>
</g>
<g>
</g>
<g>
</g>
<g>
</g>
<g>
</g>
<g>
</g>
<g>
</g>
</svg>
