<?xml version="1.0" encoding="iso-8859-1"?>
<!-- Generator: Adobe Illustrator 19.0.0, SVG Export Plug-In . SVG Version: 6.00 Build 0)  -->
<svg version="1.1" id="Capa_1" xmlns="http://www.w3.org/2000/svg" xmlns:xlink="http://www.w3.org/1999/xlink" x="0px" y="0px"
	 viewBox="0 0 512 512" style="enable-background:new 0 0 512 512;" xml:space="preserve">
<g>
	<g>
		<path d="M429.959,242.237h-123.91v-71.069h14.624c6.839,0,12.402-5.563,12.402-12.402v-17.237c0-6.839-5.563-12.402-12.402-12.402
			h-14.624v-21.021h27.25c13.124,0,23.8-10.677,23.8-23.8V23.801c0-13.124-10.676-23.801-23.8-23.801H177.701
			c-13.124,0-23.8,10.677-23.8,23.801v60.504c0,13.124,10.676,23.8,23.8,23.8h27.25v21.021h-14.624
			c-6.839,0-12.402,5.563-12.402,12.402v17.238c0,6.839,5.563,12.402,12.402,12.402h14.624v71.069H82.041
			c-14.743,0-26.737,11.994-26.737,26.736v216.29c0,14.742,11.994,26.736,26.737,26.736h347.918
			c14.743,0,26.737-11.994,26.737-26.736V268.973C456.696,254.23,444.702,242.237,429.959,242.237z M177.701,93.091
			c-4.845,0-8.786-3.942-8.786-8.786V23.801c0-4.845,3.942-8.787,8.786-8.787h155.597c4.845,0,8.786,3.942,8.786,8.787v60.504
			c0,4.845-3.942,8.786-8.786,8.786h-27.249V75.304c0-8.13-6.615-14.744-14.744-14.744h-9.548c-8.13,0-14.744,6.614-14.744,14.744
			v17.787h-23.022V75.304c0-8.13-6.615-14.744-14.744-14.744h-9.548c-8.13,0-14.744,6.614-14.744,14.744v17.787H177.701z
			 M291.034,75.574v53.552h-9.009V75.574H291.034z M267.011,108.106v21.021h-23.022v-21.021H267.011z M228.974,75.574v53.552h-9.009
			V75.574H228.974z M192.938,156.152v-12.012h125.122v12.012H192.938z M263.987,182.178h-14.972
			c-7.739,0-14.035,6.296-14.035,14.035v46.024h-15.015v-71.069h71.068v71.069h-13.013v-46.024
			C278.021,188.474,271.725,182.178,263.987,182.178z M263.007,197.193v45.044h-13.013v-45.044H263.007z M441.681,485.264
			c0,6.463-5.259,11.721-11.722,11.721H82.041c-6.463,0-11.722-5.258-11.722-11.721V268.973c0-6.463,5.259-11.721,11.722-11.721
			h347.918c6.463,0,11.722,5.258,11.722,11.721V485.264z"/>
	</g>
</g>
<g>
	<g>
		<path d="M315.607,267.761H142.89c-4.147,0-7.507,3.361-7.507,7.507s3.36,7.507,7.507,7.507h15.834l-51.552,189.185H95.343V282.776
			h17.517c4.147,0,7.507-3.361,7.507-7.507s-3.36-7.507-7.507-7.507H93.793c-7.424,0-13.464,6.04-13.464,13.464v192.286
			c0,7.424,6.04,13.464,13.464,13.464h221.815c7.424,0,13.464-6.04,13.464-13.464V281.226
			C329.071,273.801,323.031,267.761,315.607,267.761z M122.734,471.961l51.552-189.185h60.327l51.552,189.185H122.734z
			 M314.057,471.961h-12.329l-51.552-189.185h63.881V471.961z"/>
	</g>
</g>
<g>
	<g>
		<path d="M430.867,344.612l-15.015-22.022c-1.375-2.018-3.647-3.24-6.088-3.277c-2.423-0.044-4.75,1.116-6.186,3.091
			l-16.016,22.021c-2.439,3.353-1.697,8.049,1.656,10.487c3.352,2.438,8.047,1.698,10.487-1.656l9.746-13.401l9.011,13.215
			c1.452,2.131,3.811,3.279,6.209,3.278c1.456,0,2.929-0.422,4.222-1.305C432.319,352.708,433.203,348.037,430.867,344.612z"/>
	</g>
</g>
<g>
	<g>
		<path d="M428.894,410.704c-3.426-2.336-8.098-1.452-10.431,1.974l-9.011,13.215l-9.745-13.401
			c-2.439-3.354-7.136-4.094-10.487-1.656c-3.353,2.438-4.095,7.134-1.656,10.487l16.016,22.022
			c1.413,1.944,3.672,3.092,6.071,3.092c0.038,0,0.076,0,0.114-0.001c2.441-0.037,4.713-1.259,6.088-3.277l15.015-22.021
			C433.203,417.711,432.319,413.04,428.894,410.704z"/>
	</g>
</g>
<g>
	<g>
		<path d="M408.649,361.353c-11.315,0-20.52,9.205-20.52,20.52s9.205,20.52,20.52,20.52c11.315,0,20.52-9.205,20.52-20.52
			S419.964,361.353,408.649,361.353z M408.649,387.378c-3.036,0-5.505-2.469-5.505-5.505s2.469-5.505,5.505-5.505
			s5.505,2.469,5.505,5.505S411.685,387.378,408.649,387.378z"/>
	</g>
</g>
<g>
	<g>
		<circle cx="357.599" cy="298.792" r="7.507"/>
	</g>
</g>
<g>
	<g>
		<circle cx="357.599" cy="337.83" r="7.507"/>
	</g>
</g>
<g>
	<g>
		<circle cx="357.599" cy="376.868" r="7.507"/>
	</g>
</g>
<g>
	<g>
		<circle cx="357.599" cy="415.906" r="7.507"/>
	</g>
</g>
<g>
	<g>
		<circle cx="357.599" cy="454.944" r="7.507"/>
	</g>
</g>
<g>
	<g>
		<circle cx="185.932" cy="32.031" r="8.008"/>
	</g>
</g>
<g>
	<g>
		<circle cx="325.067" cy="32.031" r="8.008"/>
	</g>
</g>
<g>
	<g>
		<path d="M231.292,448.569l-6.648-37.702c-1.073-6.07-6.325-10.476-12.489-10.476h-15.411c-6.163,0-11.415,4.405-12.489,10.478
			l-6.649,37.701c-0.652,3.701,0.359,7.474,2.776,10.353c2.415,2.878,5.956,4.529,9.714,4.529h28.708
			c3.758,0,7.298-1.651,9.714-4.529C230.934,456.045,231.946,452.272,231.292,448.569z M192.876,448.438l5.825-33.032h11.497
			l5.825,33.032H192.876z"/>
	</g>
</g>
<g>
	<g>
		<path d="M224.285,374.802l-3.756-21.292c-1.07-6.072-6.322-10.479-12.488-10.479h-7.185c-6.165,0-11.417,4.407-12.488,10.478
			l-3.757,21.294c-0.652,3.701,0.359,7.474,2.776,10.353c2.417,2.878,5.958,4.529,9.716,4.529h14.694
			c3.758,0,7.298-1.651,9.714-4.529C223.927,382.278,224.939,378.504,224.285,374.802z M199.883,374.67l2.932-16.625h3.269
			l2.933,16.625H199.883z"/>
	</g>
</g>
<g>
	<g>
		<path d="M222.742,319.943l-3.118-17.679c-1.07-6.072-6.322-10.479-12.488-10.479h-5.372c-6.165,0-11.417,4.407-12.488,10.478
			l-3.119,17.681c-0.652,3.701,0.359,7.474,2.776,10.353c2.416,2.879,5.956,4.529,9.714,4.529h11.609
			c3.758,0,7.297-1.651,9.712-4.528C222.383,327.42,223.395,323.646,222.742,319.943z M201.426,319.812l2.295-13.013h1.456
			l2.295,13.013H201.426z"/>
	</g>
</g>
<g>
</g>
<g>
</g>
<g>
</g>
<g>
</g>
<g>
</g>
<g>
</g>
<g>
</g>
<g>
</g>
<g>
</g>
<g>
</g>
<g>
</g>
<g>
</g>
<g>
</g>
<g>
</g>
<g>
</g>
</svg>
