<?xml version="1.0" encoding="iso-8859-1"?>
<!-- Generator: Adobe Illustrator 19.0.0, SVG Export Plug-In . SVG Version: 6.00 Build 0)  -->
<svg version="1.1" id="Capa_1" xmlns="http://www.w3.org/2000/svg" xmlns:xlink="http://www.w3.org/1999/xlink" x="0px" y="0px"
	 viewBox="0 0 512 512" style="enable-background:new 0 0 512 512;" xml:space="preserve">
<g>
	<g>
		<path d="M334.118,198.815c10.914-1.384,19.382-10.72,19.382-22.004V87.188C353.5,74.953,343.547,65,331.313,65H314.5V7.5
			c0-4.142-3.358-7.5-7.5-7.5c-4.142,0-7.5,3.358-7.5,7.5v96.593c0,2.154-1.752,3.907-3.907,3.907H288.5V7.5
			c0-4.142-3.358-7.5-7.5-7.5c-4.142,0-7.5,3.358-7.5,7.5V108h-37V7.5c0-4.142-3.358-7.5-7.5-7.5c-4.142,0-7.5,3.358-7.5,7.5V108
			h-7.093c-2.154,0-3.907-1.752-3.907-3.907V7.5c0-4.142-3.358-7.5-7.5-7.5c-4.142,0-7.5,3.358-7.5,7.5V65h-16.813
			c-12.234,0-22.188,9.953-22.188,22.188v89.625c0,11.987,9.556,21.777,21.449,22.169l8.551,20.988V250h-3.284
			c-7.075,0-13.832,2.999-18.539,8.227c-4.632,5.146-6.875,12.03-6.153,18.886l10.255,97.369
			c0.873,8.286,5.808,15.206,12.721,18.967v26.976c0,8.466,6.018,15.552,14,17.208V504.5c0,4.142,3.358,7.5,7.5,7.5
			c4.142,0,7.5-3.358,7.5-7.5V438h11v66.5c0,4.142,3.358,7.5,7.5,7.5c4.142,0,7.5-3.358,7.5-7.5V438h37v66.5
			c0,4.142,3.358,7.5,7.5,7.5c4.142,0,7.5-3.358,7.5-7.5V438h11v66.5c0,4.142,3.358,7.5,7.5,7.5c4.142,0,7.5-3.358,7.5-7.5v-66.58
			c8.955-0.801,16-8.337,16-17.496v-28.19c5.851-3.941,9.935-10.292,10.721-17.753l10.255-97.369
			c0.722-6.855-1.521-13.739-6.153-18.886c-4.707-5.228-11.463-8.227-18.539-8.227H325.5v-30.031L334.118,198.815z M195.501,103
			v1.093C195.5,114.519,203.981,123,214.407,123h81.187c10.425,0,18.907-8.481,18.907-18.907V103h3v25h-125v-25H195.501z
			 M326.784,265c2.872,0,5.496,1.159,7.39,3.262c1.819,2.021,2.666,4.606,2.384,7.279l-10.255,97.369
			c-0.516,4.897-4.718,8.59-9.774,8.59H296.5c-4.142,0-7.5,3.358-7.5,7.5c0,4.142,3.358,7.5,7.5,7.5h19v23.924
			c0,1.42-1.156,2.576-2.576,2.576H199.076c-1.42,0-2.576-1.156-2.576-2.576V396.5h70c4.142,0,7.5-3.358,7.5-7.5
			c0-4.142-3.358-7.5-7.5-7.5h-73.029c-5.056,0-9.258-3.693-9.774-8.59l-10.255-97.369c-0.281-2.673,0.565-5.258,2.384-7.279
			c1.894-2.104,4.519-3.262,7.39-3.262h5.378l8.291,24.872c1.021,3.063,3.887,5.128,7.115,5.128h103
			c3.146,0,5.958-1.964,7.042-4.918L323.238,265H326.784z M213.5,184h-4v-9.646c0-0.747,0.607-1.354,1.354-1.354h90.292
			c0.747,0,1.354,0.607,1.354,1.354V184h-59c-4.142,0-7.5,3.358-7.5,7.5c0,4.142,3.358,7.5,7.5,7.5h74.346l-6.792,16.67
			c-0.366,0.898-0.554,1.859-0.554,2.83V250h-14v-15.227c0-6.492-5.281-11.773-11.773-11.773h-59.454
			c-6.492,0-11.773,5.281-11.773,11.773V250h-12v-31.5c0-0.97-0.188-1.931-0.554-2.83L194.154,199H213.5c4.142,0,7.5-3.358,7.5-7.5
			C221,187.358,217.642,184,213.5,184z M307.262,265l-5.5,15h-92.356l-5-15H307.262z M228.5,250v-12h53v12H228.5z M317.5,184.001
			v-9.646c0-9.018-7.336-16.354-16.354-16.354h-90.292c-9.018,0-16.354,7.336-16.354,16.354V184h-15.813
			c-3.963,0-7.188-3.224-7.188-7.188V87.188c0-3.963,3.224-7.188,7.188-7.188H195.5v8h-3.188c-8.167,0-14.812,6.645-14.812,14.812
			v25.376c0,8.167,6.645,14.812,14.812,14.812h125.377c8.167,0,14.812-6.645,14.812-14.812v-25.376
			c0-8.167-6.645-14.812-14.812-14.812H314.5v-8h16.813c3.963,0,7.188,3.224,7.188,7.188v89.625H338.5
			c0,3.963-3.224,7.188-7.188,7.188H317.5z"/>
	</g>
</g>
<g>
	<g>
		<path d="M408.995,174.947c-2.97-1.593-6.638-1.011-8.967,1.425l-29.774,31.137c-2.08,2.175-2.658,5.382-1.47,8.146
			c1.184,2.754,3.894,4.538,6.89,4.538c0.011,0,0.022,0,0.033,0L419.571,220c3.488-0.016,6.505-2.434,7.28-5.835
			C430.783,196.887,424.609,183.326,408.995,174.947z M393.298,205.115l13.278-13.885c4.45,3.631,6.527,8.097,6.412,13.799
			L393.298,205.115z"/>
	</g>
</g>
<g>
	<g>
		<path d="M425.299,257.933c-0.264-3.358-2.737-6.129-6.046-6.771l-42.292-8.212c-2.957-0.574-5.964,0.673-7.647,3.168
			c-1.683,2.495-1.711,5.753-0.074,8.277l23.878,36.794c1.415,2.179,3.808,3.418,6.293,3.418c0.852,0,1.715-0.146,2.552-0.449
			C418.624,288.124,426.693,275.598,425.299,257.933z M402.154,277.558l-10.719-16.517l18.86,3.662
			C409.647,270.41,407.013,274.571,402.154,277.558z"/>
	</g>
</g>
<g>
	<g>
		<path d="M141.745,207.509l-29.774-31.137c-2.329-2.435-5.997-3.019-8.967-1.425c-15.614,8.378-21.788,21.939-17.855,39.217
			c0.775,3.402,3.792,5.82,7.28,5.836l43.863,0.193c0.011,0,0.022,0,0.033,0c2.996,0,5.706-1.783,6.89-4.538
			C144.403,212.891,143.825,209.684,141.745,207.509z M99.012,205.029c-0.115-5.702,1.962-10.168,6.412-13.799l13.278,13.885
			L99.012,205.029z"/>
	</g>
</g>
<g>
	<g>
		<path d="M142.684,246.119c-1.681-2.495-4.689-3.744-7.646-3.169l-42.292,8.212c-3.308,0.642-5.782,3.413-6.047,6.772
			c-1.395,17.665,6.675,30.191,23.336,36.225c0.837,0.303,1.7,0.449,2.552,0.449c2.484,0,4.878-1.239,6.293-3.418l23.878-36.794
			C144.396,251.872,144.367,248.613,142.684,246.119z M109.846,277.558c-4.858-2.987-7.493-7.148-8.141-12.855l18.86-3.662
			L109.846,277.558z"/>
	</g>
</g>
<g>
</g>
<g>
</g>
<g>
</g>
<g>
</g>
<g>
</g>
<g>
</g>
<g>
</g>
<g>
</g>
<g>
</g>
<g>
</g>
<g>
</g>
<g>
</g>
<g>
</g>
<g>
</g>
<g>
</g>
</svg>
