<?xml version="1.0" encoding="iso-8859-1"?>
<!-- Generator: Adobe Illustrator 19.0.0, SVG Export Plug-In . SVG Version: 6.00 Build 0)  -->
<svg version="1.1" id="Capa_1" xmlns="http://www.w3.org/2000/svg" xmlns:xlink="http://www.w3.org/1999/xlink" x="0px" y="0px"
	 viewBox="0 0 511.999 511.999" style="enable-background:new 0 0 511.999 511.999;" xml:space="preserve">
<g>
	<g>
		<path d="M69.799,215.735l-5.071-23.014c-0.888-4.031-4.869-6.579-8.906-5.69c-4.031,0.888-6.579,4.876-5.69,8.906l5.071,23.014
			c0.768,3.49,3.859,5.867,7.291,5.867c0.533-0.001,1.074-0.058,1.615-0.177C68.14,223.753,70.687,219.765,69.799,215.735z"/>
	</g>
</g>
<g>
	<g>
		<path d="M101.38,359.051L75.563,241.887c-0.888-4.031-4.869-6.578-8.906-5.69c-4.031,0.888-6.579,4.876-5.69,8.906l25.817,117.162
			c0.768,3.49,3.859,5.867,7.291,5.867c0.532,0,1.073-0.058,1.615-0.176C99.721,367.069,102.269,363.081,101.38,359.051z"/>
	</g>
</g>
<g>
	<g>
		<path d="M132.579,352.174l-5.071-23.014c-0.888-4.031-4.872-6.58-8.906-5.69c-4.031,0.888-6.579,4.876-5.69,8.906l5.071,23.014
			c0.768,3.49,3.859,5.867,7.291,5.867c0.532,0,1.073-0.058,1.615-0.176C130.92,360.193,133.468,356.205,132.579,352.174z"/>
	</g>
</g>
<g>
	<g>
		<path d="M121.746,303.008L95.928,185.845c-0.888-4.03-4.872-6.578-8.906-5.69c-4.031,0.888-6.579,4.876-5.69,8.906l25.818,117.162
			c0.768,3.489,3.859,5.866,7.291,5.866c0.532,0.001,1.073-0.057,1.615-0.175C120.087,311.026,122.635,307.039,121.746,303.008z"/>
	</g>
</g>
<g>
	<g>
		<path d="M456.178,187.031c-4.034-0.89-8.018,1.66-8.906,5.69l-5.071,23.014c-0.889,4.031,1.659,8.018,5.69,8.906
			c0.542,0.12,1.083,0.176,1.615,0.176c3.431,0,6.523-2.378,7.291-5.867l5.071-23.014
			C462.756,191.906,460.208,187.919,456.178,187.031z"/>
	</g>
</g>
<g>
	<g>
		<path d="M445.343,236.197c-4.036-0.886-8.018,1.66-8.906,5.69L410.62,359.049c-0.889,4.031,1.659,8.018,5.69,8.906
			c0.542,0.12,1.083,0.176,1.615,0.176c3.431,0,6.523-2.378,7.291-5.867l25.817-117.162
			C451.922,241.072,449.374,237.085,445.343,236.197z"/>
	</g>
</g>
<g>
	<g>
		<path d="M393.397,323.47c-4.034-0.891-8.018,1.66-8.906,5.69l-5.071,23.014c-0.889,4.031,1.659,8.018,5.69,8.906
			c0.542,0.12,1.083,0.176,1.615,0.176c3.431,0,6.523-2.378,7.291-5.867l5.071-23.014
			C399.976,328.346,397.428,324.358,393.397,323.47z"/>
	</g>
</g>
<g>
	<g>
		<path d="M424.979,180.155c-4.035-0.887-8.018,1.66-8.906,5.69l-25.818,117.162c-0.889,4.031,1.659,8.018,5.69,8.906
			c0.542,0.12,1.083,0.176,1.615,0.176c3.431,0,6.523-2.378,7.291-5.866l25.818-117.162
			C431.556,185.031,429.009,181.043,424.979,180.155z"/>
	</g>
</g>
<g>
	<g>
		<g>
			<path d="M408.53,145.819c0.003,0-2.992-0.66-2.989-0.659l2.963,0.653C408.517,145.817,408.53,145.819,408.53,145.819z"/>
			<path d="M507.455,176.263c-4.145-6.489-10.569-10.975-18.088-12.631l-2.988-0.659c0,0,0,0-0.001,0h-0.001l-77.873-17.16
				c-0.262-0.057-2.96-0.652-2.963-0.653c-7.521-1.657-15.234-0.287-21.723,3.859c-6.488,4.145-10.974,10.568-12.631,18.089
				l-10.835,49.173H336.01c-6.481,0-11.754,5.273-11.754,11.753v8.176h-30.061c-2.763-4.757-7.903-7.972-13.791-7.972h-5.971
				c-4.128,0-7.473,3.346-7.473,7.473s3.345,7.473,7.473,7.473h5.971c0.554,0,1.004,0.45,1.004,1.003v24.896
				c0,0.554-0.45,1.003-1.004,1.003h-48.809c-0.554,0-1.004-0.45-1.004-1.003v-24.896c0-0.554,0.45-1.003,1.004-1.003h12.946
				c4.128,0,7.473-3.346,7.473-7.473s-3.345-7.473-7.473-7.473h-12.946c-5.887,0-11.027,3.215-13.791,7.972h-30.061v-9.114
				c0-5.964-4.852-10.815-10.815-10.815h-25.278l-10.835-49.173c-1.657-7.519-6.143-13.943-12.632-18.088
				c-6.489-4.145-14.203-5.516-21.723-3.859l-2.981,0.657c-0.002,0.001-0.005,0.001-0.008,0.001c-0.003,0-0.005,0.001-0.008,0.002
				l-80.829,17.811c-7.519,1.657-13.943,6.143-18.089,12.632c-4.145,6.489-5.515,14.203-3.858,21.722l39.679,180.067
				c1.657,7.519,6.143,13.943,12.632,18.088c4.692,2.998,10.026,4.545,15.463,4.545c2.082,0,4.178-0.227,6.26-0.686l83.827-18.471
				c7.519-1.657,13.943-6.143,18.089-12.632c4.145-6.489,5.515-14.202,3.858-21.722l-11.058-50.181h7.492
				c5.964,0,10.816-4.852,10.816-10.815v-9.114h30.061c2.763,4.757,7.903,7.972,13.791,7.972h48.81
				c5.887,0,11.027-3.215,13.791-7.972h30.061v8.176c0,6.481,5.273,11.753,11.754,11.753h6.556l-11.058,50.181
				c-3.421,15.522,6.424,30.933,21.946,34.354l83.827,18.472c2.082,0.458,4.159,0.679,6.207,0.679
				c13.23-0.001,25.183-9.185,28.146-22.627l4.541-20.606c0.889-4.031-1.659-8.018-5.69-8.906c-4.038-0.887-8.018,1.66-8.906,5.69
				l-4.541,20.606c-1.315,5.966-6.312,10.182-12.074,10.805l45.339-205.752c1.819,1.089,3.382,2.583,4.557,4.422
				c1.996,3.125,2.656,6.839,1.857,10.46l-28.697,130.232c-0.889,4.031,1.659,8.018,5.69,8.906c4.034,0.893,8.019-1.66,8.906-5.69
				l28.697-130.231C512.971,190.467,511.6,182.751,507.455,176.263z M61.043,383.543c-3.124-1.995-5.284-5.088-6.082-8.708
				L15.282,194.768c-0.798-3.62-0.138-7.334,1.857-10.459c1.176-1.839,2.738-3.333,4.558-4.422l45.34,205.754
				C64.928,385.417,62.881,384.719,61.043,383.543z M81.789,383.135L36.136,175.961l63.252-13.938l45.653,207.175L81.789,383.135z
				 M164.038,360.848c-1.176,1.839-2.738,3.333-4.558,4.422L114.14,159.512c2.109,0.224,4.155,0.927,5.995,2.103
				c3.124,1.996,5.284,5.089,6.082,8.709l39.679,180.067C166.694,354.011,166.034,357.724,164.038,360.848z M172.796,282.046h-6.655
				l-11.198-50.819h17.853V282.046z M215.644,262.116h-27.901v-10.961h27.901V262.116z M324.257,262.116h-27.901v-10.961h27.901
				V262.116z M339.204,282.046v-50.819h17.854l-11.198,50.819H339.204z M352.519,365.267c-4.965-2.988-7.729-8.911-6.414-14.878
				l39.676-180.052c0.002-0.012,0,0,0.002-0.012c0-0.002,0,0,0-0.002c0.798-3.62,2.958-6.713,6.082-8.709
				c1.839-1.175,3.884-1.873,5.993-2.098L352.519,365.267z M430.211,383.136l-63.252-13.938l45.653-207.175l63.252,13.938
				L430.211,383.136z"/>
		</g>
	</g>
</g>
<g>
	<g>
		<path d="M355.61,141.261l-9.965-24.911c-1.534-3.832-5.886-5.697-9.714-4.163c-3.832,1.533-5.697,5.882-4.164,9.714l1.81,4.523
			c-51.588-20.304-103.762-20.144-155.341,0.473l1.999-4.996c1.533-3.832-0.332-8.182-4.164-9.714
			c-3.829-1.534-8.182,0.33-9.714,4.163l-9.965,24.911c-1.507,3.767,0.266,8.047,3.996,9.645l20.926,8.968
			c0.96,0.411,1.958,0.606,2.94,0.606c2.9,0,5.659-1.698,6.873-4.531c1.626-3.794-0.132-8.187-3.925-9.813l-8.048-3.45
			c25.725-10.94,51.731-16.501,77.348-16.501c25.451,0,51.286,5.487,76.849,16.288l-8.547,3.663
			c-3.794,1.626-5.551,6.02-3.925,9.813c1.215,2.834,3.973,4.531,6.873,4.531c0.982,0,1.98-0.195,2.94-0.606l20.926-8.968
			C355.342,149.307,357.115,145.027,355.61,141.261z"/>
	</g>
</g>
<g>
</g>
<g>
</g>
<g>
</g>
<g>
</g>
<g>
</g>
<g>
</g>
<g>
</g>
<g>
</g>
<g>
</g>
<g>
</g>
<g>
</g>
<g>
</g>
<g>
</g>
<g>
</g>
<g>
</g>
</svg>
