<?xml version="1.0" encoding="iso-8859-1"?>
<!-- Generator: Adobe Illustrator 19.0.0, SVG Export Plug-In . SVG Version: 6.00 Build 0)  -->
<svg version="1.1" id="Capa_1" xmlns="http://www.w3.org/2000/svg" xmlns:xlink="http://www.w3.org/1999/xlink" x="0px" y="0px"
	 viewBox="0 0 512 512" style="enable-background:new 0 0 512 512;" xml:space="preserve">
<g>
	<g>
		<path d="M424.339,110.352c-42.761-42.761-99.614-66.31-160.088-66.31c-60.474,0-117.327,23.549-160.088,66.31
			s-66.31,99.615-66.31,160.088s23.55,117.327,66.31,160.088c42.761,42.761,99.614,66.31,160.088,66.31
			c60.474,0,117.327-23.549,160.088-66.31c42.761-42.761,66.31-99.615,66.31-160.088S467.1,153.113,424.339,110.352z
			 M264.251,481.367c-116.306,0-210.927-94.621-210.927-210.927S147.946,59.513,264.251,59.513s210.927,94.621,210.927,210.927
			S380.557,481.367,264.251,481.367z"/>
	</g>
</g>
<g>
	<g>
		<path d="M264.251,232.793c-20.758,0-37.647,16.889-37.647,37.647s16.889,37.647,37.647,37.647
			c20.759,0,37.647-16.889,37.647-37.647C301.898,249.681,285.01,232.793,264.251,232.793z M264.251,292.616
			c-12.228,0-22.176-9.948-22.176-22.176s9.948-22.176,22.176-22.176c12.228,0,22.176,9.948,22.176,22.176
			S276.479,292.616,264.251,292.616z"/>
	</g>
</g>
<g>
	<g>
		<path d="M457.757,236.271c-0.025-0.19-0.055-0.378-0.094-0.563c-5.74-32.06-19.289-61.446-38.595-86.123
			c-0.375-0.65-0.85-1.251-1.424-1.785c-9.218-11.506-19.697-21.956-31.233-31.139c-0.559-0.6-1.192-1.093-1.877-1.476
			c-24.79-19.25-54.29-32.702-86.455-38.307c-0.205-0.043-0.414-0.077-0.624-0.104c-10.797-1.845-21.888-2.82-33.204-2.82
			c-11.313,0-22.401,0.974-33.194,2.818c-0.217,0.027-0.43,0.062-0.643,0.107c-32.458,5.657-62.206,19.302-87.135,38.834
			c-0.645,0.374-1.243,0.848-1.774,1.419c-11.428,9.168-21.814,19.584-30.948,31.041c-0.598,0.557-1.09,1.187-1.473,1.868
			c-19.118,24.583-32.54,53.803-38.247,85.669c-0.038,0.186-0.068,0.373-0.094,0.562c-1.955,11.1-2.98,22.516-2.98,34.168
			c0,10.924,0.911,21.636,2.633,32.079c0.024,0.176,0.052,0.351,0.087,0.523c5.612,33.462,19.704,64.083,39.995,89.567
			c0.37,0.628,0.835,1.211,1.394,1.731c9.295,11.411,19.838,21.765,31.429,30.845c0.526,0.537,1.112,0.984,1.742,1.337
			c24.634,18.859,53.836,32.028,85.638,37.525c0.212,0.045,0.428,0.08,0.646,0.107c10.709,1.814,21.705,2.773,32.923,2.773
			c11.218,0,22.214-0.959,32.923-2.773c0.218-0.027,0.433-0.062,0.646-0.107c33.029-5.71,63.258-19.691,88.473-39.731
			c0.634-0.37,1.219-0.844,1.743-1.405c11.485-9.342,21.901-19.946,31.027-31.61c0.544-0.529,0.992-1.121,1.347-1.757
			c19.008-24.862,32.22-54.371,37.608-86.504c0.035-0.172,0.063-0.347,0.087-0.523c1.722-10.443,2.633-21.156,2.633-32.079
			C460.737,258.787,459.712,247.371,457.757,236.271z M411.986,165.952c13.134,18.516,22.871,39.6,28.314,62.334l-73.05-9.006
			L411.986,165.952z M402.271,153.461l-53.322,63.563l-28.384-3.5l-3.536-28.03l63.736-53.467
			C388.515,138.562,395.71,145.732,402.271,153.461z M368.225,122.35l-53.501,44.883l-9.217-73.06
			C328.376,99.523,349.589,109.225,368.225,122.35z M312.213,270.44c0,26.446-21.515,47.961-47.961,47.961
			c-26.447,0-47.961-21.516-47.961-47.961c0-26.446,21.515-47.961,47.961-47.961C290.698,222.479,312.213,243.994,312.213,270.44z
			 M238.965,91.2c8.266-1.16,16.705-1.775,25.286-1.775c8.581,0,17.021,0.615,25.286,1.775l15.186,120.372l-28.18-3.474
			c-0.316-0.038-0.628-0.052-0.94-0.052c-3.686-0.669-7.477-1.038-11.353-1.038c-3.875,0-7.662,0.368-11.348,1.037
			c-0.313,0-0.627,0.013-0.945,0.053l-28.18,3.474L238.965,91.2z M147.173,132.505l19.568,16.415
			c1.449,1.216,3.213,1.809,4.967,1.809c2.208,0,4.401-0.941,5.931-2.764c2.746-3.273,2.318-8.152-0.955-10.898l-17.03-14.285
			c18.786-13.347,40.217-23.198,63.34-28.609l-9.326,73.92l-13.229-11.098c-3.273-2.746-8.152-2.319-10.898,0.955
			s-2.318,8.152,0.955,10.898l20.869,17.507l-3.427,27.169l-28.945,3.569l-53.072-63.264
			C132.406,146.149,139.516,139.015,147.173,132.505z M116.237,166.358l44.454,52.992l-72.488,8.937
			C93.607,205.717,103.246,184.776,116.237,166.358z M83.236,270.44c0-8.893,0.656-17.633,1.901-26.187l120.803-14.894
			l-3.262,25.856c-1.207,4.88-1.86,9.977-1.86,15.225c0,5.912,0.83,11.631,2.351,17.066l2.816,22.322L84.845,294.544
			C83.791,286.656,83.236,278.612,83.236,270.44z M117.473,376.248c-14.022-19.397-24.3-41.667-29.762-65.748l76.79,9.688
			L117.473,376.248z M127.269,388.645l55.495-66.153l25.222,3.182l3.922,31.08l-63.141,52.969
			C141.033,403.299,133.839,396.248,127.269,388.645z M161.406,419.314l52.805-44.298l9.053,71.757
			C200.752,441.542,179.844,432.09,161.406,419.314z M289.271,449.718c-8.181,1.137-16.532,1.738-25.021,1.738
			s-16.837-0.602-25.019-1.738l-15.398-122.045l18.659,2.354c6.79,2.487,14.118,3.846,21.759,3.846s14.97-1.358,21.759-3.846
			l18.659-2.354L289.271,449.718z M382.357,407.507l-19.734-16.555c-3.273-2.747-8.152-2.319-10.898,0.954
			s-2.318,8.152,0.955,10.898l17.275,14.493c-19.123,13.803-41.032,23.974-64.715,29.477l9.557-75.748l14.115,11.841
			c1.449,1.216,3.213,1.809,4.967,1.809c2.208,0,4.401-0.941,5.931-2.764c2.746-3.273,2.318-8.152-0.955-10.898l-21.755-18.25
			l3.418-27.089l29.513-3.723l53.586,63.877C397.145,393.631,390.031,400.885,382.357,407.507z M413.2,373.177l-44.907-53.531
			l72.499-9.147C435.617,333.321,426.114,354.514,413.2,373.177z M443.657,294.544l-121.141,15.284l2.818-22.322
			c1.52-5.434,2.351-11.153,2.351-17.066c0-5.248-0.653-10.344-1.86-15.225l-3.262-25.856l120.803,14.894
			c1.245,8.553,1.901,17.294,1.901,26.187C445.266,278.612,444.711,286.656,443.657,294.544z"/>
	</g>
</g>
<g>
	<g>
		<path d="M264.251,167.813c-4.273,0-7.736,3.464-7.736,7.736v13.409c0,4.272,3.464,7.736,7.736,7.736
			c4.273,0,7.736-3.464,7.736-7.736v-13.409C271.987,171.277,268.525,167.813,264.251,167.813z"/>
	</g>
</g>
<g>
	<g>
		<path d="M264.251,94.582c-4.273,0-7.736,3.464-7.736,7.736v44.351c0,4.272,3.464,7.736,7.736,7.736
			c4.273,0,7.736-3.464,7.736-7.736v-44.351C271.987,98.045,268.525,94.582,264.251,94.582z"/>
	</g>
</g>
<g>
	<g>
		<path d="M359.143,262.704h-13.409c-4.273,0-7.736,3.464-7.736,7.736c0,4.272,3.463,7.736,7.736,7.736h13.409
			c4.273,0,7.736-3.464,7.736-7.736S363.416,262.704,359.143,262.704z"/>
	</g>
</g>
<g>
	<g>
		<path d="M432.374,262.704h-44.351c-4.273,0-7.736,3.464-7.736,7.736c0,4.272,3.463,7.736,7.736,7.736h44.351
			c4.273,0,7.736-3.464,7.736-7.736S436.647,262.704,432.374,262.704z"/>
	</g>
</g>
<g>
	<g>
		<path d="M264.251,344.187c-4.273,0-7.736,3.464-7.736,7.736v13.409c0,4.272,3.462,7.736,7.736,7.736
			c4.273,0,7.736-3.464,7.736-7.736v-13.409C271.987,347.65,268.525,344.187,264.251,344.187z"/>
	</g>
</g>
<g>
	<g>
		<path d="M264.251,386.475c-4.273,0-7.736,3.464-7.736,7.736v44.351c0,4.272,3.462,7.736,7.736,7.736
			c4.273,0,7.736-3.464,7.736-7.736v-44.351C271.987,389.939,268.525,386.475,264.251,386.475z"/>
	</g>
</g>
<g>
	<g>
		<path d="M182.769,262.704H169.36c-4.273,0-7.736,3.464-7.736,7.736c0,4.272,3.462,7.736,7.736,7.736h13.409
			c4.273,0,7.736-3.464,7.736-7.736S187.042,262.704,182.769,262.704z"/>
	</g>
</g>
<g>
	<g>
		<path d="M140.48,262.704H96.129c-4.273,0-7.736,3.464-7.736,7.736c0,4.272,3.462,7.736,7.736,7.736h44.351
			c4.273,0,7.736-3.464,7.736-7.736S144.753,262.704,140.48,262.704z"/>
	</g>
</g>
<g>
	<g>
		<path d="M504.264,35.79c-11.556,0-22.898-11.343-22.898-22.898c0-4.272-3.462-7.736-7.736-7.736c-4.273,0-7.736,3.464-7.736,7.736
			c0,11.556-11.342,22.898-22.898,22.898c-4.273,0-7.736,3.464-7.736,7.736s3.462,7.736,7.736,7.736
			c11.556,0,22.898,11.343,22.898,22.898c0,4.272,3.462,7.736,7.736,7.736c4.273,0,7.736-3.464,7.736-7.736
			c0-11.556,11.342-22.898,22.898-22.898c4.273,0,7.736-3.464,7.736-7.736S508.538,35.79,504.264,35.79z M473.631,51.961
			c-2.39-3.188-5.248-6.044-8.435-8.435c3.187-2.391,6.044-5.247,8.435-8.435c2.39,3.188,5.248,6.044,8.435,8.435
			C478.879,45.917,476.022,48.774,473.631,51.961z"/>
	</g>
</g>
<g>
	<g>
		<path d="M69.002,460.738c-11.556,0-22.898-11.343-22.898-22.898c0-4.272-3.462-7.736-7.736-7.736s-7.736,3.464-7.736,7.736
			c0,11.556-11.342,22.898-22.898,22.898c-4.273,0-7.736,3.464-7.736,7.736c0,4.272,3.463,7.736,7.736,7.736
			c11.556,0,22.898,11.343,22.898,22.898c0,4.272,3.463,7.736,7.736,7.736s7.736-3.464,7.736-7.736
			c0-11.556,11.342-22.898,22.898-22.898c4.273,0,7.736-3.464,7.736-7.736C76.738,464.202,73.276,460.738,69.002,460.738z
			 M38.369,476.909c-2.39-3.188-5.248-6.044-8.435-8.435c3.187-2.391,6.044-5.247,8.435-8.435c2.39,3.188,5.248,6.044,8.435,8.435
			C43.617,470.865,40.76,473.722,38.369,476.909z"/>
	</g>
</g>
<g>
</g>
<g>
</g>
<g>
</g>
<g>
</g>
<g>
</g>
<g>
</g>
<g>
</g>
<g>
</g>
<g>
</g>
<g>
</g>
<g>
</g>
<g>
</g>
<g>
</g>
<g>
</g>
<g>
</g>
</svg>
