<?xml version="1.0" encoding="iso-8859-1"?>
<!-- Generator: Adobe Illustrator 19.0.0, SVG Export Plug-In . SVG Version: 6.00 Build 0)  -->
<svg version="1.1" id="Capa_1" xmlns="http://www.w3.org/2000/svg" xmlns:xlink="http://www.w3.org/1999/xlink" x="0px" y="0px"
	 viewBox="0 0 512 512" style="enable-background:new 0 0 512 512;" xml:space="preserve">
<g>
	<g>
		<path d="M137,352c-14.612,0-26.5,11.888-26.5,26.5S122.388,405,137,405s26.5-11.888,26.5-26.5S151.612,352,137,352z M137,390
			c-6.341,0-11.5-5.159-11.5-11.5S130.659,367,137,367s11.5,5.159,11.5,11.5S143.341,390,137,390z"/>
	</g>
</g>
<g>
	<g>
		<path d="M375,352c-14.612,0-26.5,11.888-26.5,26.5S360.388,405,375,405s26.5-11.888,26.5-26.5S389.612,352,375,352z M375,390
			c-6.341,0-11.5-5.159-11.5-11.5S368.659,367,375,367s11.5,5.159,11.5,11.5S381.341,390,375,390z"/>
	</g>
</g>
<g>
	<g>
		<path d="M454.662,285h-17.324c-10.178,0-18.66,7.339-20.468,17H408c-2.594,0-5.004,1.341-6.372,3.545l-6.941,11.183l-9.31-70.418
			c-1.806-15.575-14.974-27.31-30.662-27.31h-197.43c-15.688,0-28.856,11.734-30.662,27.31l-9.31,70.418l-6.941-11.183
			C109.004,303.341,106.594,302,104,302h-8.87c-1.808-9.661-10.291-17-20.468-17H57.338c-11.49,0-20.838,9.348-20.838,20.838v7.324
			c0,11.49,9.348,20.838,20.838,20.838h17.324c10.178,0,18.66-7.339,20.468-17h4.698l10.599,17.077
			c-11.062,4.796-19.443,14.81-21.745,27.245c-3.459,18.694-5.513,37.181-6.162,55.109c-0.027,0.257-0.041,0.518-0.041,0.782
			c0,0.031,0.004,0.06,0.005,0.09c-0.103,3.048-0.176,6.084-0.195,9.097c-0.066,10.055,3.79,19.511,10.859,26.627
			c2.511,2.528,5.324,4.641,8.352,6.325v31.583c0,11.615,9.45,21.064,21.064,21.064h39.871c11.615,0,21.064-9.45,21.064-21.064V490
			h13.074c9.885,0,17.926-8.042,17.926-17.926V464h83v8.074c0,9.885,8.042,17.926,17.926,17.926H328.5v0.936
			c0,11.615,9.45,21.064,21.064,21.064h39.871c11.615,0,21.064-9.45,21.064-21.064V459.36c3.044-1.69,5.871-3.815,8.393-6.357
			c7.059-7.115,10.903-16.561,10.825-26.597c-0.163-20.76-2.332-42.633-6.447-65.012c-2.29-12.452-10.658-22.483-21.712-27.296
			L412.172,317h4.698c1.808,9.661,10.291,17,20.468,17h17.324c11.49,0,20.838-9.348,20.838-20.838v-7.324
			C475.5,294.348,466.152,285,454.662,285z M80.5,313.162c0,3.219-2.619,5.838-5.838,5.838H57.338c-3.219,0-5.838-2.619-5.838-5.838
			v-7.324c0-3.219,2.619-5.838,5.838-5.838h17.324c3.219,0,5.838,2.619,5.838,5.838V313.162z M157.285,234h197.43
			c7.394,0,13.685,5.078,15.397,12.093H141.888C143.6,239.078,149.891,234,157.285,234z M168.501,490.936H168.5
			c0,3.344-2.721,6.064-6.064,6.064h-39.871c-3.344,0-6.064-2.721-6.064-6.064V464h52V490.936z M199.5,472.074
			c0,1.614-1.313,2.926-2.926,2.926H183.5v-11h16V472.074z M328.5,475h-13.074c-1.614,0-2.926-1.313-2.926-2.926V464h16V475z
			 M395.5,490.936c0,3.344-2.721,6.064-6.064,6.064h-39.871c-3.344,0-6.064-2.721-6.064-6.064V464H395.5V490.936z M414.721,426.524
			c0.047,6.007-2.252,11.659-6.474,15.914c-4.201,4.231-9.795,6.562-15.755,6.562H119.513c-5.947,0-11.531-2.324-15.723-6.544
			c-4.232-4.26-6.541-9.927-6.5-15.957c0.004-0.592,0.026-1.192,0.033-1.786h71.792c0.822,1.435,1.776,2.805,2.872,4.082
			c5.022,5.85,12.324,9.205,20.034,9.205h127.962c7.71,0,15.012-3.355,20.034-9.205c1.096-1.277,2.049-2.647,2.872-4.082h71.796
			C414.693,425.314,414.716,425.924,414.721,426.524z M180.748,409.871l3.017-19.695c0.859-5.606,5.599-9.676,11.271-9.676h121.928
			c5.672,0,10.412,4.069,11.271,9.676l3.017,19.695c0.246,1.604,0.139,3.216-0.279,4.742c-0.075,0.203-0.142,0.409-0.2,0.62
			c-0.463,1.373-1.173,2.665-2.14,3.792c-2.168,2.527-5.322,3.976-8.652,3.976H192.019c-3.33,0-6.483-1.449-8.652-3.976
			c-0.967-1.126-1.678-2.419-2.14-3.792c-0.058-0.211-0.125-0.417-0.2-0.62C180.609,413.087,180.502,411.474,180.748,409.871z
			 M408.518,364.107c2.86,15.552,4.727,30.822,5.61,45.606h-67.821c-0.051-0.705-0.12-1.41-0.228-2.114l-3.017-19.695
			c-1.989-12.982-12.965-22.404-26.098-22.404H195.036c-13.133,0-24.109,9.422-26.098,22.404l-3.017,19.695
			c-0.108,0.704-0.177,1.41-0.228,2.114H97.85c0.864-14.915,2.723-30.207,5.583-45.662c1.936-10.459,11.116-18.051,21.83-18.051
			H297.5c4.142,0,7.5-3.358,7.5-7.5c0-4.142-3.358-7.5-7.5-7.5H130.557l9.243-69.907h232.4L381.443,331H327.5
			c-4.142,0-7.5,3.358-7.5,7.5c0,4.142,3.358,7.5,7.5,7.5h59.176C397.403,346,406.588,353.615,408.518,364.107z M460.5,313.162
			c0,3.219-2.619,5.838-5.838,5.838h-17.324c-3.219,0-5.838-2.619-5.838-5.838v-7.324c0-3.219,2.619-5.838,5.838-5.838h17.324
			c3.219,0,5.838,2.619,5.838,5.838V313.162z"/>
	</g>
</g>
<g>
	<g>
		<path d="M217,393h-14c-4.142,0-7.5,3.358-7.5,7.5c0,4.142,3.358,7.5,7.5,7.5h14c4.142,0,7.5-3.358,7.5-7.5
			C224.5,396.358,221.142,393,217,393z"/>
	</g>
</g>
<g>
	<g>
		<path d="M312,393h-71c-4.142,0-7.5,3.358-7.5,7.5c0,4.142,3.358,7.5,7.5,7.5h71c4.142,0,7.5-3.358,7.5-7.5
			C319.5,396.358,316.142,393,312,393z"/>
	</g>
</g>
<g>
	<g>
		<path d="M174,270c-2.486-3.314-7.186-3.985-10.5-1.5l-16,12c-3.313,2.485-3.985,7.187-1.5,10.5c1.474,1.965,3.726,3,6.006,3
			c1.566,0,3.145-0.489,4.494-1.5l16-12C175.813,278.015,176.485,273.313,174,270z"/>
	</g>
</g>
<g>
	<g>
		<path d="M206.56,276.582c-2.439-3.347-7.13-4.084-10.479-1.642l-48,35c-3.347,2.44-4.082,7.132-1.641,10.479
			c1.468,2.014,3.751,3.082,6.066,3.082c1.532,0,3.079-0.468,4.413-1.44l48-35C208.266,284.621,209.001,279.929,206.56,276.582z"/>
	</g>
</g>
<g>
	<g>
		<path d="M430,0H80c-4.142,0-7.5,3.358-7.5,7.5v24.764C72.5,44.801,82.699,55,95.236,55H97.5v13.757
			C97.5,76.61,103.89,83,111.743,83h19.514c7.854,0,14.243-6.39,14.243-14.243V55h19v13.757C164.5,76.61,170.89,83,178.743,83
			h19.514c7.854,0,14.243-6.39,14.243-14.243V55h19v13.757C231.5,76.61,237.89,83,245.743,83h19.514
			c7.854,0,14.243-6.39,14.243-14.243V55h19v13.757C298.5,76.61,304.89,83,312.743,83h19.514c7.854,0,14.243-6.39,14.243-14.243V55
			h19v13.757C365.5,76.61,371.89,83,379.743,83h19.514c7.854,0,14.243-6.39,14.243-14.243V55h1.264
			c12.537,0,22.736-10.199,22.736-22.736V7.5C437.5,3.358,434.142,0,430,0z M130.5,68h-18V55h18V68z M197.5,68h-18V55h18V68z
			 M264.5,68h-18V55h18V68z M331.5,68h-18V55h18V68z M398.5,68h-18V55h18V68z M422.5,32.264c0,4.266-3.47,7.736-7.736,7.736H406h-33
			h-34h-33h-34h-33h-34h-33h-34h-33h-9.764c-4.266,0-7.736-3.47-7.736-7.736V15h335V32.264z"/>
	</g>
</g>
<g>
	<g>
		<path d="M122,90c-4.142,0-7.5,3.358-7.5,7.5v15c0,4.142,3.358,7.5,7.5,7.5c4.142,0,7.5-3.358,7.5-7.5v-15
			C129.5,93.358,126.142,90,122,90z"/>
	</g>
</g>
<g>
	<g>
		<path d="M122,132c-4.142,0-7.5,3.358-7.5,7.5v72c0,4.142,3.358,7.5,7.5,7.5c4.142,0,7.5-3.358,7.5-7.5v-72
			C129.5,135.358,126.142,132,122,132z"/>
	</g>
</g>
<g>
	<g>
		<path d="M390,90c-4.142,0-7.5,3.358-7.5,7.5v15c0,4.142,3.358,7.5,7.5,7.5c4.142,0,7.5-3.358,7.5-7.5v-15
			C397.5,93.358,394.142,90,390,90z"/>
	</g>
</g>
<g>
	<g>
		<path d="M390,132c-4.142,0-7.5,3.358-7.5,7.5v72c0,4.142,3.358,7.5,7.5,7.5c4.142,0,7.5-3.358,7.5-7.5v-72
			C397.5,135.358,394.142,132,390,132z"/>
	</g>
</g>
<g>
	<g>
		<path d="M189,90c-4.142,0-7.5,3.358-7.5,7.5v60c0,4.142,3.358,7.5,7.5,7.5c4.142,0,7.5-3.358,7.5-7.5v-60
			C196.5,93.358,193.142,90,189,90z"/>
	</g>
</g>
<g>
	<g>
		<path d="M189,179c-4.142,0-7.5,3.358-7.5,7.5v11c0,4.142,3.358,7.5,7.5,7.5c4.142,0,7.5-3.358,7.5-7.5v-11
			C196.5,182.358,193.142,179,189,179z"/>
	</g>
</g>
<g>
	<g>
		<path d="M323,90c-4.142,0-7.5,3.358-7.5,7.5v60c0,4.142,3.358,7.5,7.5,7.5c4.142,0,7.5-3.358,7.5-7.5v-60
			C330.5,93.358,327.142,90,323,90z"/>
	</g>
</g>
<g>
	<g>
		<path d="M323,179c-4.142,0-7.5,3.358-7.5,7.5v11c0,4.142,3.358,7.5,7.5,7.5c4.142,0,7.5-3.358,7.5-7.5v-11
			C330.5,182.358,327.142,179,323,179z"/>
	</g>
</g>
<g>
	<g>
		<path d="M256,130c-4.142,0-7.5,3.358-7.5,7.5v60c0,4.142,3.358,7.5,7.5,7.5c4.142,0,7.5-3.358,7.5-7.5v-60
			C263.5,133.358,260.142,130,256,130z"/>
	</g>
</g>
<g>
	<g>
		<path d="M256,90c-4.142,0-7.5,3.358-7.5,7.5v11c0,4.142,3.358,7.5,7.5,7.5c4.142,0,7.5-3.358,7.5-7.5v-11
			C263.5,93.358,260.142,90,256,90z"/>
	</g>
</g>
<g>
</g>
<g>
</g>
<g>
</g>
<g>
</g>
<g>
</g>
<g>
</g>
<g>
</g>
<g>
</g>
<g>
</g>
<g>
</g>
<g>
</g>
<g>
</g>
<g>
</g>
<g>
</g>
<g>
</g>
</svg>
