<?xml version="1.0" encoding="iso-8859-1"?>
<!-- Generator: Adobe Illustrator 19.0.0, SVG Export Plug-In . SVG Version: 6.00 Build 0)  -->
<svg version="1.1" id="Capa_1" xmlns="http://www.w3.org/2000/svg" xmlns:xlink="http://www.w3.org/1999/xlink" x="0px" y="0px"
	 viewBox="0 0 512 512" style="enable-background:new 0 0 512 512;" xml:space="preserve">
<g>
	<g>
		<path d="M392.749,306.098h-13.532c-3.962,0-6.489-2.388-6.489-3.636V256c0-4.15-3.365-7.515-7.515-7.515
			c-4.15,0-7.515,3.365-7.515,7.515v46.462c0,10.292,9.653,18.665,21.518,18.665h13.532c4.15,0,7.515-3.365,7.515-7.515
			C400.264,309.462,396.899,306.098,392.749,306.098z"/>
	</g>
</g>
<g>
	<g>
		<path d="M426.357,306.098h-11.325c-4.15,0-7.515,3.365-7.515,7.515c0,4.15,3.365,7.515,7.515,7.515h11.325
			c4.15,0,7.515-3.365,7.515-7.515C433.871,309.462,430.507,306.098,426.357,306.098z"/>
	</g>
</g>
<g>
	<g>
		<path d="M489.456,209.91c-0.223,0-0.445,0.01-0.666,0.017c-0.112-0.005-0.222-0.017-0.336-0.017h-15.53v-0.372
			c0-24.104-20.89-43.714-46.567-43.714H204.876c-24.294,0-44.293,17.559-46.377,39.867h-46.528l-12.765-21.565
			c-4.486-7.581-12.746-12.29-21.555-12.29H17.31c-9.545,0-17.31,7.765-17.31,17.31v15.478c0,9.545,7.765,17.31,17.31,17.31h46.061
			l12.765,21.565c4.487,7.58,12.747,12.29,21.556,12.29h60.617v46.673c0,24.104,20.89,43.714,46.567,43.714h221.481
			c25.677,0,46.567-19.61,46.567-43.714v-32.434h15.53c0.113,0,0.223-0.012,0.336-0.017c0.222,0.006,0.443,0.017,0.666,0.017
			c12.431,0,22.544-10.113,22.544-22.544v-15.029C512,220.023,501.887,209.91,489.456,209.91z M158.309,240.759H97.691
			c-3.524,0-6.827-1.884-8.622-4.916l-14.947-25.252c-1.353-2.285-3.811-3.687-6.467-3.687H17.31c-1.257,0-2.28-1.023-2.28-2.28
			v-15.478c0-1.258,1.023-2.28,2.28-2.28h60.342c3.524,0,6.827,1.884,8.622,4.916l14.947,25.252
			c1.353,2.285,3.811,3.687,6.467,3.687h50.622V240.759z M457.894,302.462c0,15.817-14.148,28.685-31.538,28.685h-47.14
			c-17.39,0-31.538-12.868-31.538-28.685v-55.98c0-4.15-3.365-7.515-7.515-7.515c-4.15,0-7.515,3.365-7.515,7.515v55.98
			c0,10.97,4.336,21.002,11.473,28.685H204.876c-17.39,0-31.538-12.868-31.538-28.685v-92.922c0-15.817,14.148-28.685,31.538-28.685
			h139.246c-7.136,7.683-11.472,17.714-11.472,28.684v6.884c0,4.15,3.365,7.515,7.515,7.515c4.15,0,7.515-3.365,7.515-7.515v-6.884
			c0-15.817,14.148-28.685,31.538-28.685h47.14c17.39,0,31.538,12.868,31.538,28.685v0.372h-25.158
			c-9.332,0-16.924,6.763-16.924,15.075v29.966c0,8.312,7.592,15.075,16.924,15.075h25.158V302.462z M468.204,254.998h-35.468
			c-0.982,0-1.612-0.315-1.895-0.519v-29.022c0.283-0.203,0.913-0.519,1.895-0.519h35.468c-0.835,2.352-1.293,4.881-1.293,7.515
			v15.029C466.912,250.117,467.371,252.646,468.204,254.998z M496.971,247.483c0,4.144-3.371,7.515-7.515,7.515
			c-4.144,0-7.515-3.371-7.515-7.515v-15.029c0-4.144,3.371-7.515,7.515-7.515c4.144,0,7.515,3.371,7.515,7.515V247.483z"/>
	</g>
</g>
<g>
	<g>
		<path d="M315.857,196.384H196.143c-5.945,0-10.781,4.836-10.781,10.781v25.53c0,5.945,4.836,10.781,10.781,10.781h119.714
			c5.945,0,10.781-4.836,10.781-10.781v-25.53C326.638,201.22,321.802,196.384,315.857,196.384z M311.609,228.446H200.391v-17.033
			h111.217V228.446z"/>
	</g>
</g>
<g>
	<g>
		<path d="M207.906,259.507h-15.029c-4.15,0-7.515,3.365-7.515,7.515c0,4.15,3.365,7.515,7.515,7.515h15.029
			c4.15,0,7.515-3.365,7.515-7.515C215.421,262.871,212.056,259.507,207.906,259.507z"/>
	</g>
</g>
<g>
	<g>
		<path d="M319.123,259.507h-88.172c-4.15,0-7.515,3.365-7.515,7.515c0,4.15,3.365,7.515,7.515,7.515h88.172
			c4.15,0,7.515-3.365,7.515-7.515C326.638,262.871,323.273,259.507,319.123,259.507z"/>
	</g>
</g>
<g>
	<g>
		<path d="M314.114,288.564h-15.029c-4.15,0-7.515,3.365-7.515,7.515c0,4.15,3.365,7.515,7.515,7.515h15.029
			c4.15,0,7.515-3.365,7.515-7.515C321.628,291.928,318.264,288.564,314.114,288.564z"/>
	</g>
</g>
<g>
	<g>
		<path d="M266.02,288.564h-68.133c-4.15,0-7.515,3.365-7.515,7.515c0,4.15,3.365,7.515,7.515,7.515h68.133
			c4.15,0,7.515-3.365,7.515-7.515C273.534,291.928,270.17,288.564,266.02,288.564z"/>
	</g>
</g>
<g>
</g>
<g>
</g>
<g>
</g>
<g>
</g>
<g>
</g>
<g>
</g>
<g>
</g>
<g>
</g>
<g>
</g>
<g>
</g>
<g>
</g>
<g>
</g>
<g>
</g>
<g>
</g>
<g>
</g>
</svg>
