<?xml version="1.0" encoding="iso-8859-1"?>
<!-- Generator: Adobe Illustrator 19.0.0, SVG Export Plug-In . SVG Version: 6.00 Build 0)  -->
<svg version="1.1" id="Capa_1" xmlns="http://www.w3.org/2000/svg" xmlns:xlink="http://www.w3.org/1999/xlink" x="0px" y="0px"
	 viewBox="0 0 512 512" style="enable-background:new 0 0 512 512;" xml:space="preserve">
<g>
	<g>
		<g>
			<path d="M419.311,315.501C419.007,315.491,419.605,315.546,419.311,315.501L419.311,315.501z"/>
			<path d="M492.9,63.299h-94.294c-17.776,0-32.266,14.3-32.591,32h-25.338c-12.15,0-22.187,9.201-23.522,21H204.34
				c-1.621,0-3.198,0.525-4.495,1.497l-15.362,11.503H112c-4.143,0-7.5,3.358-7.5,7.5c0,4.142,3.357,7.5,7.5,7.5h74.979
				c1.621,0,3.198-0.525,4.495-1.497l15.362-11.503H317v43H210.683l-6.248-8.086c-1.42-1.838-3.611-2.914-5.935-2.914
				c-2.324,0-4.515,1.076-5.935,2.914l-6.248,8.086h-7.635l-6.248-8.086c-1.42-1.838-3.611-2.914-5.935-2.914
				s-4.515,1.076-5.935,2.914l-6.248,8.086h-7.635l-6.248-8.086c-1.42-1.838-3.611-2.914-5.935-2.914
				c-2.324,0-4.515,1.076-5.935,2.914l-6.248,8.086h-7.635l-6.248-8.086c-1.42-1.838-3.611-2.914-5.935-2.914
				c-2.324,0-4.515,1.076-5.935,2.914l-6.248,8.086h-7.635l-6.248-8.086c-1.42-1.838-3.611-2.914-5.935-2.914
				c-2.324,0-4.515,1.076-5.935,2.914l-6.248,8.086H33.46l-15.232-14.238l15.427-15.762H82c4.143,0,7.5-3.358,7.5-7.5
				c0-4.142-3.357-7.5-7.5-7.5H30.5c-2.017,0-3.949,0.813-5.36,2.254l-23,23.5c-1.412,1.443-2.183,3.395-2.138,5.413
				c0.045,2.019,0.901,3.934,2.376,5.313l23,21.5c1.39,1.299,3.221,2.021,5.122,2.021H62c2.323,0,4.515-1.076,5.935-2.914
				l2.565-3.32l2.565,3.32c1.42,1.838,3.611,2.914,5.935,2.914h15c2.323,0,4.515-1.076,5.935-2.914l2.565-3.32l2.565,3.32
				c1.42,1.838,3.611,2.914,5.935,2.914h15c2.323,0,4.515-1.076,5.935-2.914l2.565-3.32l2.565,3.32
				c1.42,1.838,3.611,2.914,5.935,2.914h15c2.323,0,4.515-1.076,5.935-2.914l2.565-3.32l2.565,3.32
				c1.42,1.838,3.611,2.914,5.935,2.914h15c2.323,0,4.515-1.076,5.935-2.914l2.565-3.32l2.565,3.32
				c1.42,1.838,3.611,2.914,5.935,2.914h110.466c2.178,10.823,11.757,19,23.212,19h25.338c0.325,17.7,14.815,32,32.591,32H399
				v58.248l-145.296-13.511c-9.061-0.838-18.103,2.176-24.803,8.282c-6.61,6.024-10.401,14.584-10.401,23.485v99.99
				c0,8.901,3.791,17.461,10.401,23.485c5.962,5.433,13.774,8.421,21.808,8.421c0.996,0,1.996-0.046,2.995-0.139L420.7,433.033
				c14.708-1.368,25.8-13.443,25.8-28.088v-32.546c11.378-4.266,19.5-15.25,19.5-28.099v-104h26.9c10.531,0,19.1-8.568,19.1-19.1
				V82.399C512,71.867,503.432,63.299,492.9,63.299z M431.499,359.3h-2.679c-3.176-9.851-12.427-17-23.321-17
				c-13.51,0-24.5,10.991-24.5,24.5c0,13.509,10.99,24.5,24.5,24.5c10.894,0,20.146-7.149,23.321-17h2.679v30.646
				c0.001,6.851-5.239,12.505-12.188,13.151l-166.996,15.529c-4.937,0.46-9.668-1.115-13.31-4.434
				c-3.551-3.235-5.506-7.639-5.506-12.398v-99.99c0-4.76,1.955-9.163,5.506-12.398c3.227-2.941,7.305-4.512,11.631-4.512
				c0.556,0,1.116,0.026,1.679,0.078l166.996,15.529c6.948,0.646,12.188,6.3,12.188,13.153V359.3z M409.5,374.299h1.81
				c-1.608,1.249-3.621,2-5.81,2c-5.238,0-9.5-4.262-9.5-9.5c0-5.238,4.262-9.5,9.5-9.5c2.189,0,4.201,0.751,5.81,2h-1.81
				c-4.143,0-7.5,3.358-7.5,7.5C402,370.941,405.357,374.299,409.5,374.299z M451,344.299c0,4.185-1.727,7.971-4.5,10.694v-26.34
				c0-14.646-11.092-26.721-25.8-28.088l-6.7-0.623v-59.643h37V344.299z M451,195.625c-4.168-2.3-7-6.737-7-11.826v-11.174
				c4.212,2.67,7,7.368,7,12.674V195.625z M444,156.387v-36.588c0-7.444,6.056-13.5,13.5-13.5c7.444,0,13.5,6.056,13.5,13.5v64
				c0,4.224-1.953,7.998-5,10.475v-8.975C466,171.605,456.728,159.909,444,156.387z M497,221.199c0,2.261-1.839,4.1-4.1,4.1H466
				v-14.295c11.576-3.625,20-14.449,20-27.205v-64c0-15.715-12.785-28.5-28.5-28.5c-15.715,0-28.5,12.785-28.5,28.5v64
				c0,13.478,9.408,24.793,22,27.743v13.757h-52.394c-9.708,0-17.606-7.898-17.606-17.606v-24.394c0-4.142-3.357-7.5-7.5-7.5
				s-7.5,3.358-7.5,7.5v10h-25.322c-4.785,0-8.678-3.893-8.678-8.678v-65.645c0-4.785,3.893-8.678,8.678-8.678H366v43
				c0,4.142,3.357,7.5,7.5,7.5s7.5-3.358,7.5-7.5V95.905c0-9.708,7.898-17.606,17.606-17.606H492.9c2.261,0,4.1,1.839,4.1,4.1
				V221.199z"/>
		</g>
	</g>
</g>
<g>
	<g>
		<path d="M292.5,142.299h-61c-4.143,0-7.5,3.358-7.5,7.5c0,4.142,3.357,7.5,7.5,7.5h61c4.143,0,7.5-3.358,7.5-7.5
			C300,145.657,296.643,142.299,292.5,142.299z"/>
	</g>
</g>
<g>
	<g>
		<path d="M297.928,314.258l-42.299-3.933c-3.104-0.288-6.201,0.75-8.505,2.849s-3.624,5.089-3.624,8.205v90.843
			c0,3.116,1.32,6.106,3.624,8.205c2.05,1.868,4.73,2.896,7.483,2.896c0.34,0,0.681-0.016,1.021-0.047l42.297-3.934
			c5.743-0.533,10.074-5.285,10.074-11.054v-82.977C308,319.544,303.67,314.792,297.928,314.258z M293,404.735l-34.5,3.208v-82.287
			l34.5,3.208V404.735z"/>
	</g>
</g>
<g>
	<g>
		<path d="M329.5,388.299c-4.143,0-7.5,3.358-7.5,7.5v13c0,4.142,3.357,7.5,7.5,7.5s7.5-3.358,7.5-7.5v-13
			C337,391.657,333.642,388.299,329.5,388.299z"/>
	</g>
</g>
<g>
	<g>
		<path d="M329.5,316.299c-4.143,0-7.5,3.358-7.5,7.5v48c0,4.142,3.357,7.5,7.5,7.5s7.5-3.358,7.5-7.5v-48
			C337,319.657,333.642,316.299,329.5,316.299z"/>
	</g>
</g>
<g>
	<g>
		<path d="M359.5,316.299c-4.143,0-7.5,3.358-7.5,7.5v13c0,4.142,3.357,7.5,7.5,7.5s7.5-3.358,7.5-7.5v-13
			C367,319.657,363.642,316.299,359.5,316.299z"/>
	</g>
</g>
<g>
	<g>
		<path d="M359.5,353.299c-4.143,0-7.5,3.358-7.5,7.5v48c0,4.142,3.357,7.5,7.5,7.5s7.5-3.358,7.5-7.5v-48
			C367,356.657,363.642,353.299,359.5,353.299z"/>
	</g>
</g>
<g>
</g>
<g>
</g>
<g>
</g>
<g>
</g>
<g>
</g>
<g>
</g>
<g>
</g>
<g>
</g>
<g>
</g>
<g>
</g>
<g>
</g>
<g>
</g>
<g>
</g>
<g>
</g>
<g>
</g>
</svg>
