<?xml version="1.0" encoding="iso-8859-1"?>
<!-- Generator: Adobe Illustrator 19.0.0, SVG Export Plug-In . SVG Version: 6.00 Build 0)  -->
<svg version="1.1" id="Capa_1" xmlns="http://www.w3.org/2000/svg" xmlns:xlink="http://www.w3.org/1999/xlink" x="0px" y="0px"
	 viewBox="0 0 512 512" style="enable-background:new 0 0 512 512;" xml:space="preserve">
<g>
	<g>
		<path d="M303.95,24.987h-96.568c-6.227,0-11.293,5.066-11.293,11.293v58.034c0,6.228,5.066,11.294,11.293,11.294h96.568
			c6.227,0,11.293-5.066,11.293-11.293V36.279C315.243,30.053,310.178,24.987,303.95,24.987z M300.251,90.615h-89.17V39.978h89.17
			V90.615z"/>
	</g>
</g>
<g>
	<g>
		<path d="M388.12,137.203h-47.556v0V92.935h8.273c7.993,0,14.496-6.503,14.496-14.495V52.154c0-7.993-6.503-14.495-14.496-14.495
			h-8.273V36.28c0-20.005-16.275-36.28-36.279-36.28h-96.568c-20.005,0-36.279,16.275-36.279,36.279v58.034
			c0,0.092,0.006,0.183,0.007,0.275c-0.001,0.046-0.007,0.092-0.007,0.138v42.477H123.88c-14.163,0-25.686,11.523-25.686,25.686
			v323.425c0,14.163,11.523,25.686,25.686,25.686H388.12c14.163,0,25.686-11.523,25.686-25.686V162.889
			C413.806,148.726,402.283,137.203,388.12,137.203z M340.563,52.65h7.778v25.293h-7.778V52.65z M207.716,14.992h96.568
			c11.738,0,21.287,9.55,21.287,21.287v58.034c0,11.739-9.55,21.287-21.287,21.287h-6.416c-4.141,0-7.496,3.356-7.496,7.496
			c0,4.14,3.355,7.496,7.496,7.496h6.416c7.949,0,15.304-2.577,21.287-6.928v37.39c0,9.774-7.952,17.725-17.724,17.725h-45.726
			c-4.141,0-7.496,3.356-7.496,7.496s3.355,7.496,7.496,7.496h26.67v12.803c0,4.473-3.639,8.112-8.112,8.112h-49.355
			c-4.474,0-8.112-3.639-8.112-8.112v-12.803h10.895c4.141,0,7.496-3.356,7.496-7.496s-3.355-7.496-7.496-7.496h-29.953
			c-9.773,0-17.724-7.952-17.724-17.725v-37.39c5.984,4.352,13.339,6.928,21.287,6.928h60.168c4.141,0,7.496-3.356,7.496-7.496
			c0-4.14-3.355-7.496-7.496-7.496h-60.168c-11.738,0-21.287-9.55-21.287-21.287V36.279h-0.001
			C186.429,24.541,195.979,14.992,207.716,14.992z M261.641,229.678v94.631c0,2.331-1.896,4.227-4.227,4.227h-2.827
			c-2.331,0-4.227-1.896-4.227-4.227v-94.631H261.641z M204.153,193.771h4.065v12.803c0,12.739,10.364,23.103,23.104,23.103h4.046
			v13.271c-12.536,1.692-22.236,12.455-22.236,25.448v94.684c0,4.14,3.355,7.496,7.496,7.496c4.141,0,7.496-3.356,7.496-7.496
			v-94.684c0-4.688,3.037-8.672,7.244-10.113v66.024c0,10.597,8.621,19.219,19.219,19.219h2.827
			c10.598,0,19.219-8.621,19.219-19.219v-66.024c4.207,1.44,7.243,5.424,7.243,10.113v139.959c0,5.897-4.797,10.694-10.694,10.694
			h-34.363c-5.897,0-10.694-4.797-10.694-10.694v-15.292c0-4.14-3.355-7.496-7.496-7.496c-4.141,0-7.496,3.356-7.496,7.496v15.292
			c0,14.163,11.523,25.686,25.686,25.686h34.363c14.163,0,25.686-11.523,25.686-25.686V268.397c0-12.992-9.699-23.756-22.235-25.448
			v-13.271h4.045c12.739,0,23.104-10.364,23.104-23.104v-12.803h4.065c12.178,0,22.817-6.693,28.449-16.59h37.533v294.84H138.173
			v-294.84h37.532C181.337,187.078,191.975,193.771,204.153,193.771z M398.814,486.314c0,5.897-4.797,10.694-10.694,10.694H123.88
			c-5.897,0-10.694-4.797-10.694-10.694V162.889c0-5.897,4.797-10.694,10.694-10.694h47.556v8.859c0,0.381,0.016,0.758,0.029,1.135
			h-40.789c-4.141,0-7.496,3.356-7.496,7.496v309.832c0,4.14,3.355,7.496,7.496,7.496h250.646c4.141,0,7.496-3.356,7.496-7.496
			V169.685c0-4.14-3.355-7.496-7.496-7.496h-40.789c0.013-0.378,0.029-0.755,0.029-1.135v-8.859h47.556
			c5.897,0,10.694,4.797,10.694,10.694V486.314z"/>
	</g>
</g>
<g>
	<g>
		<path d="M181.718,212.163h-18.232c-8.2,0-14.871,6.671-14.871,14.871v214.125c0,8.201,6.671,14.871,14.871,14.871h18.232
			c8.2,0,14.871-6.671,14.871-14.871V227.034C196.589,218.834,189.918,212.163,181.718,212.163z M181.597,441.038h-17.99V227.154
			h17.99V441.038z"/>
	</g>
</g>
<g>
	<g>
		<circle cx="344.013" cy="240.65" r="8.995"/>
	</g>
</g>
<g>
	<g>
		<circle cx="344.513" cy="284.126" r="8.995"/>
	</g>
</g>
<g>
	<g>
		<circle cx="345.013" cy="327.603" r="8.995"/>
	</g>
</g>
<g>
	<g>
		<circle cx="345.513" cy="371.079" r="8.995"/>
	</g>
</g>
<g>
	<g>
		<circle cx="346.012" cy="414.556" r="8.995"/>
	</g>
</g>
<g>
</g>
<g>
</g>
<g>
</g>
<g>
</g>
<g>
</g>
<g>
</g>
<g>
</g>
<g>
</g>
<g>
</g>
<g>
</g>
<g>
</g>
<g>
</g>
<g>
</g>
<g>
</g>
<g>
</g>
</svg>
