<?xml version="1.0" encoding="iso-8859-1"?>
<!-- Generator: Adobe Illustrator 19.0.0, SVG Export Plug-In . SVG Version: 6.00 Build 0)  -->
<svg version="1.1" id="Capa_1" xmlns="http://www.w3.org/2000/svg" xmlns:xlink="http://www.w3.org/1999/xlink" x="0px" y="0px"
	 viewBox="0 0 512 512" style="enable-background:new 0 0 512 512;" xml:space="preserve">
<g>
	<g>
		<path d="M411.917,135.583C370.27,93.936,314.898,71,256,71c-14.496,0-28.964,1.444-43.135,4.257C207.785,32.927,171.677,0,128,0
			C80.855,0,42.5,38.355,42.5,85.5c0,29.902,15.441,56.251,38.757,71.537C51.693,195.442,35.5,242.843,35.5,291.5
			c0,58.898,22.936,114.27,64.583,155.917C141.73,489.064,197.102,512,256,512s114.27-22.936,155.917-64.583
			C453.564,405.77,476.5,350.398,476.5,291.5S453.564,177.23,411.917,135.583z M406.439,431.333l-9.371-9.371
			c-2.929-2.929-7.678-2.929-10.606,0c-2.929,2.929-2.929,7.678,0,10.606l9.371,9.371c-34.997,32.552-81.322,53.069-132.333,54.909
			V483.5c0-4.142-3.358-7.5-7.5-7.5c-4.142,0-7.5,3.358-7.5,7.5v13.349c-51.011-1.84-97.336-22.357-132.333-54.909l9.371-9.371
			c2.929-2.929,2.929-7.678,0-10.606c-2.929-2.929-7.678-2.929-10.606,0l-9.371,9.371C73.008,396.336,52.491,350.011,50.651,299H64
			c4.142,0,7.5-3.358,7.5-7.5c0-4.142-3.358-7.5-7.5-7.5H50.649c1.597-43.528,17.049-85.598,44.021-119.767
			C104.917,168.588,116.182,171,128,171c16.45,0,32.444-4.706,46.254-13.607c3.481-2.244,4.484-6.886,2.24-10.367
			c-2.245-3.481-6.886-4.484-10.367-2.24C154.746,152.122,141.561,156,128,156c-38.874,0-70.5-31.626-70.5-70.5S89.126,15,128,15
			c38.568,0,69.984,31.134,70.477,69.586c0.001,0.049,0.002,0.098,0.004,0.148c0.003,0.256,0.019,0.509,0.019,0.766
			c0,14.533-4.403,28.498-12.732,40.387c-2.376,3.392-1.553,8.069,1.839,10.446c3.391,2.376,8.069,1.554,10.446-1.839
			c9.155-13.067,14.384-28.203,15.29-44.042c11.548-2.438,23.325-3.87,35.157-4.3V99.5c0,4.142,3.358,7.5,7.5,7.5
			c4.142,0,7.5-3.358,7.5-7.5V86.151c51.011,1.84,97.336,22.357,132.333,54.909l-9.371,9.371c-2.929,2.929-2.929,7.678,0,10.606
			c1.464,1.464,3.384,2.197,5.303,2.197s3.839-0.732,5.303-2.197l9.371-9.371c32.552,34.997,53.069,81.322,54.909,132.333H448
			c-4.142,0-7.5,3.358-7.5,7.5c0,4.142,3.358,7.5,7.5,7.5h13.349C459.509,350.011,438.992,396.336,406.439,431.333z"/>
	</g>
</g>
<g>
	<g>
		<path d="M256,142.5c-75.114,0-138.683,56.138-147.866,130.582c-0.507,4.111,2.414,7.854,6.525,8.361
			c4.108,0.508,7.855-2.415,8.361-6.525C131.278,207.979,188.447,157.5,256,157.5c73.888,0,134,60.112,134,134s-60.112,134-134,134
			c-33.727,0-65.954-12.575-90.743-35.407c-24.644-22.699-39.819-53.506-42.73-86.747c-0.361-4.126-3.996-7.176-8.125-6.817
			c-4.126,0.361-7.178,3.999-6.817,8.125c3.237,36.973,20.11,71.234,47.51,96.472C182.662,426.517,218.497,440.5,256,440.5
			c82.159,0,149-66.841,149-149S338.159,142.5,256,142.5z"/>
	</g>
</g>
<g>
	<g>
		<path d="M256,166c-69.201,0-125.5,56.299-125.5,125.5S186.799,417,256,417s125.5-56.299,125.5-125.5S325.201,166,256,166z
			 M256,402c-60.93,0-110.5-49.57-110.5-110.5S195.07,181,256,181s110.5,49.57,110.5,110.5S316.93,402,256,402z"/>
	</g>
</g>
<g>
	<g>
		<path d="M128,26c-32.809,0-59.5,26.691-59.5,59.5S95.191,145,128,145s59.5-26.691,59.5-59.5S160.809,26,128,26z M128,130
			c-24.538,0-44.5-19.962-44.5-44.5S103.462,41,128,41s44.5,19.962,44.5,44.5S152.538,130,128,130z"/>
	</g>
</g>
<g>
	<g>
		<path d="M271,195h-30c-11.304,0-20.5,9.196-20.5,20.5S229.696,236,241,236h30c11.304,0,20.5-9.196,20.5-20.5S282.304,195,271,195z
			 M271,221h-30c-3.033,0-5.5-2.467-5.5-5.5s2.467-5.5,5.5-5.5h30c3.033,0,5.5,2.467,5.5,5.5S274.033,221,271,221z"/>
	</g>
</g>
<g>
	<g>
		<path d="M332,256c-11.304,0-20.5,9.196-20.5,20.5v30c0,11.304,9.196,20.5,20.5,20.5c11.304,0,20.5-9.196,20.5-20.5v-30
			C352.5,265.196,343.304,256,332,256z M337.5,306.5c0,3.033-2.467,5.5-5.5,5.5c-3.033,0-5.5-2.467-5.5-5.5v-30
			c0-3.033,2.467-5.5,5.5-5.5c3.033,0,5.5,2.467,5.5,5.5V306.5z"/>
	</g>
</g>
<g>
	<g>
		<path d="M271,347h-30c-11.304,0-20.5,9.196-20.5,20.5c0,11.304,9.196,20.5,20.5,20.5h30c11.304,0,20.5-9.196,20.5-20.5
			C291.5,356.196,282.304,347,271,347z M271,373h-30c-3.033,0-5.5-2.467-5.5-5.5c0-3.033,2.467-5.5,5.5-5.5h30
			c3.033,0,5.5,2.467,5.5,5.5C276.5,370.533,274.033,373,271,373z"/>
	</g>
</g>
<g>
	<g>
		<path d="M180,256c-11.304,0-20.5,9.196-20.5,20.5v30c0,11.304,9.196,20.5,20.5,20.5s20.5-9.196,20.5-20.5v-30
			C200.5,265.196,191.304,256,180,256z M185.5,306.5c0,3.033-2.467,5.5-5.5,5.5s-5.5-2.467-5.5-5.5v-30c0-3.033,2.467-5.5,5.5-5.5
			s5.5,2.467,5.5,5.5V306.5z"/>
	</g>
</g>
<g>
	<g>
		<path d="M256,243c-26.743,0-48.5,21.757-48.5,48.5c0,26.743,21.757,48.5,48.5,48.5c26.743,0,48.5-21.757,48.5-48.5
			C304.5,264.757,282.743,243,256,243z M256,325c-18.472,0-33.5-15.028-33.5-33.5S237.528,258,256,258s33.5,15.028,33.5,33.5
			S274.472,325,256,325z"/>
	</g>
</g>
<g>
	<g>
		<path d="M135.5,70.821V58.5c0-4.142-3.358-7.5-7.5-7.5c-4.142,0-7.5,3.358-7.5,7.5v12.321c-5.334,2.737-9,8.282-9,14.679
			c0,9.098,7.402,16.5,16.5,16.5s16.5-7.402,16.5-16.5C144.5,79.104,140.834,73.558,135.5,70.821z"/>
	</g>
</g>
<g>
</g>
<g>
</g>
<g>
</g>
<g>
</g>
<g>
</g>
<g>
</g>
<g>
</g>
<g>
</g>
<g>
</g>
<g>
</g>
<g>
</g>
<g>
</g>
<g>
</g>
<g>
</g>
<g>
</g>
</svg>
