<?xml version="1.0" encoding="iso-8859-1"?>
<!-- Generator: Adobe Illustrator 19.0.0, SVG Export Plug-In . SVG Version: 6.00 Build 0)  -->
<svg version="1.1" id="Capa_1" xmlns="http://www.w3.org/2000/svg" xmlns:xlink="http://www.w3.org/1999/xlink" x="0px" y="0px"
	 viewBox="0 0 512 512" style="enable-background:new 0 0 512 512;" xml:space="preserve">
<g>
	<g>
		<path d="M61.62,260.785c-4.151,0-7.515,3.365-7.515,7.515v28.055c0,4.15,3.364,7.515,7.515,7.515s7.515-3.365,7.515-7.515V268.3
			C69.135,264.15,65.771,260.785,61.62,260.785z"/>
	</g>
</g>
<g>
	<g>
		<path d="M115.726,260.785c-4.151,0-7.515,3.365-7.515,7.515v28.055c0,4.15,3.364,7.515,7.515,7.515
			c4.151,0,7.515-3.365,7.515-7.515V268.3C123.241,264.15,119.877,260.785,115.726,260.785z"/>
	</g>
</g>
<g>
	<g>
		<path d="M88.673,173.114c-4.151,0-7.515,3.365-7.515,7.515v28.055c0,4.15,3.364,7.515,7.515,7.515
			c4.151,0,7.515-3.365,7.515-7.515v-28.055C96.188,176.479,92.824,173.114,88.673,173.114z"/>
	</g>
</g>
<g>
	<g>
		<path d="M305.16,215.697h-57.677v-8.581c0-6.318-5.14-11.458-11.458-11.458h-23.61v-0.543c0-12.408-10.095-22.502-22.503-22.502
			h-12.566v-21.041c0-4.15-3.364-7.515-7.515-7.515c-4.151,0-7.515,3.365-7.515,7.515v146.787V405.82
			c0,7.657-5.668,13.998-13.025,15.093V55.569c7.357,1.095,13.025,7.437,13.025,15.094v50.85c0,4.15,3.364,7.515,7.515,7.515
			c4.151,0,7.515-3.365,7.515-7.515v-50.85c0-16.712-13.596-30.308-30.308-30.308H30.308C13.596,40.355,0,53.951,0,70.663V405.82
			c0,16.712,13.596,30.308,30.308,30.308h116.73c16.713,0,30.308-13.597,30.308-30.308v-99.946h12.566
			c12.408,0,22.503-10.095,22.503-22.502v-0.543h23.61c6.318,0,11.458-5.14,11.458-11.458v-8.581h57.677
			c6.318,0,11.458-5.14,11.458-11.458v-24.176C316.618,220.837,311.478,215.697,305.16,215.697z M28.055,420.913
			c-7.357-1.095-13.025-7.435-13.025-15.093V70.663c0-7.657,5.668-13.998,13.025-15.094V420.913z M134.262,421.098h-11.021v-89.675
			c0-4.15-3.364-7.515-7.515-7.515c-4.151,0-7.515,3.365-7.515,7.515v89.675H96.188V237.74c0-4.15-3.364-7.515-7.515-7.515
			c-4.151,0-7.515,3.365-7.515,7.515v183.358H69.135v-89.675c0-4.15-3.364-7.515-7.515-7.515s-7.515,3.365-7.515,7.515v89.675
			H43.084V55.384h11.021v183.859c0,4.15,3.364,7.515,7.515,7.515s7.515-3.365,7.515-7.515V55.384h12.023v90.176
			c0,4.15,3.364,7.515,7.515,7.515c4.151,0,7.515-3.365,7.515-7.515V55.384h12.023v183.859c0,4.15,3.364,7.515,7.515,7.515
			c4.151,0,7.515-3.365,7.515-7.515V55.384h11.021V421.098z M197.385,283.371c0,4.121-3.353,7.473-7.474,7.473h-12.566V187.643
			h12.566c4.121,0,7.474,3.353,7.474,7.473V283.371z M232.454,267.799h-20.039v-57.112h20.039V267.799z M301.589,247.76h-54.106
			v-17.033h54.106V247.76z"/>
	</g>
</g>
<g>
	<g>
		<path d="M496.633,259.335H372.698l-25.116-154.558c-0.591-3.637-3.733-6.309-7.418-6.309H208.908
			c-4.151,0-7.515,3.365-7.515,7.515c0,4.15,3.364,7.515,7.515,7.515h124.864l23.698,145.838h-19.473
			c-8.474,0-15.367,6.893-15.367,15.367v181.576c0,8.474,6.893,15.367,15.367,15.367h158.636c8.474,0,15.367-6.893,15.367-15.367
			V274.702C512,266.229,505.107,259.335,496.633,259.335z M496.971,456.278L496.971,456.278c0,0.186-0.151,0.338-0.338,0.338
			H337.997c-0.186,0-0.338-0.151-0.338-0.338V274.702c0-0.186,0.151-0.338,0.338-0.338h158.636c0.186,0,0.338,0.151,0.338,0.338
			V456.278z"/>
	</g>
</g>
<g>
	<g>
		<path d="M480.438,357.975h-26.316l-7.98-16.758c-1.309-2.747-4.16-4.442-7.182-4.273c-3.039,0.161-5.68,2.138-6.691,5.009
			l-16.47,46.776l-13.207-56.998c-0.715-3.087-3.289-5.394-6.437-5.766c-3.144-0.373-6.189,1.268-7.606,4.102l-13.954,27.909
			h-19.402c-4.151,0-7.515,3.365-7.515,7.515s3.364,7.515,7.515,7.515h24.047c2.847,0,5.449-1.608,6.721-4.154l6.7-13.399
			l14.327,61.832c0.754,3.255,3.569,5.622,6.904,5.806c0.141,0.008,0.281,0.012,0.42,0.012c3.171,0,6.022-2,7.085-5.019
			l19.003-53.967l2.192,4.605c1.246,2.617,3.887,4.283,6.784,4.283h31.061c4.151,0,7.515-3.365,7.515-7.515
			S484.589,357.975,480.438,357.975z"/>
	</g>
</g>
<g>
</g>
<g>
</g>
<g>
</g>
<g>
</g>
<g>
</g>
<g>
</g>
<g>
</g>
<g>
</g>
<g>
</g>
<g>
</g>
<g>
</g>
<g>
</g>
<g>
</g>
<g>
</g>
<g>
</g>
</svg>
