<?xml version="1.0" encoding="iso-8859-1"?>
<!-- Generator: Adobe Illustrator 19.0.0, SVG Export Plug-In . SVG Version: 6.00 Build 0)  -->
<svg version="1.1" id="Capa_1" xmlns="http://www.w3.org/2000/svg" xmlns:xlink="http://www.w3.org/1999/xlink" x="0px" y="0px"
	 viewBox="0 0 512 512" style="enable-background:new 0 0 512 512;" xml:space="preserve">
<g>
	<g>
		<path d="M392.136,206.763c-0.081-55.309-21.696-107.277-60.862-146.33C292.178,21.454,240.274,0,185.078,0
			c-0.102,0-0.211,0-0.313,0l-28.09,0.042c-4.002,0.006-7.764,1.57-10.59,4.404c-2.826,2.834-4.38,6.6-4.374,10.603l0.034,22.883
			c-35.971,9.207-68.492,29.979-92.109,58.975c-25.301,31.065-39.203,70.278-39.146,110.415
			c0.068,46.632,18.292,90.445,51.313,123.37c32.961,32.864,76.721,50.953,123.257,50.951c0.085,0,0.178,0,0.263,0
			c81.902-0.119,152.449-57.107,170.113-136.392l23.317-0.034c7.41-0.011,13.43-6.048,13.419-13.458L392.136,206.763z
			 M350.413,230.272c-0.005,0-0.009,0-0.014,0c-0.126,0-0.25-0.013-0.375-0.018c-0.153-0.014-0.304-0.018-0.456-0.022
			c-1.958-0.188-3.775-1.04-5.186-2.447c-1.612-1.607-2.502-3.747-2.505-6.023l-0.022-14.925c-0.006-4.135-3.359-7.482-7.493-7.482
			c-0.003,0-0.008,0-0.011,0l-10.496,0.015c-0.815-14.996-4.016-29.611-9.544-43.544c-1.527-3.846-5.882-5.73-9.728-4.201
			c-3.847,1.526-5.728,5.882-4.202,9.728c5.748,14.485,8.674,29.805,8.697,45.533c0.006,4.134,3.359,7.482,7.493,7.482
			c0.003,0,0.008,0,0.011,0l10.299-0.015l0.011,7.432c0.009,6.279,2.463,12.18,6.91,16.614c1.993,1.987,4.281,3.57,6.763,4.714
			c-16.558,71.886-80.777,123.438-155.262,123.547c-0.081,0-0.16,0-0.241,0c-42.538,0-82.546-16.537-112.676-46.578
			c-30.187-30.099-46.846-70.152-46.908-112.78c-0.054-36.693,12.653-72.536,35.779-100.93c21.39-26.263,50.76-45.152,83.264-53.685
			c4.186,8.165,12.686,13.768,22.472,13.767c0.012,0,0.025,0,0.037,0l10.341-0.015l0.013,9.137c0.003,1.987,0.795,3.892,2.203,5.295
			c1.405,1.401,3.307,2.187,5.29,2.187c0.058-0.001,0.128,0,0.194,0c40.47,0,78.484,19.828,101.712,53.063
			c2.371,3.393,7.04,4.22,10.434,1.849c3.392-2.371,4.22-7.042,1.849-10.434C274.433,92.29,234.968,70.5,192.36,68.262l-0.014-9.341
			c-0.003-1.987-0.795-3.892-2.203-5.295c-1.405-1.401-3.307-2.187-5.29-2.187c-0.003,0-0.007,0-0.011,0l-17.834,0.026
			c-0.005,0-0.01,0-0.015,0c-5.648,0-10.247-4.591-10.255-10.24l-0.039-26.199l28.09-0.04c0.097,0,0.192,0,0.29,0
			c51.198,0,99.35,19.902,135.615,56.06c36.331,36.226,56.383,84.432,56.457,135.74l0.035,23.448L350.413,230.272z"/>
	</g>
</g>
<g>
	<g>
		<path d="M127.787,86.712c-1.988-3.63-6.543-4.957-10.173-2.97c-27.199,14.907-49.003,38.746-61.398,67.126
			c-1.656,3.792,0.075,8.209,3.867,9.866c0.976,0.427,1.993,0.628,2.995,0.628c2.888,0,5.641-1.68,6.871-4.496
			c11.075-25.357,30.56-46.66,54.867-59.982C128.445,94.896,129.775,90.342,127.787,86.712z"/>
	</g>
</g>
<g>
	<g>
		<path d="M146.138,326.473c-51.733-16.856-86.544-64.768-86.624-119.222c-0.006-4.135-3.359-7.482-7.493-7.482
			c-0.003,0-0.007,0-0.011,0c-4.139,0.006-7.488,3.366-7.482,7.504c0.089,60.95,39.058,114.579,96.968,133.448
			c0.771,0.251,1.554,0.371,2.323,0.371c3.156,0,6.092-2.01,7.122-5.173C152.222,331.984,150.072,327.755,146.138,326.473z"/>
	</g>
</g>
<g>
	<g>
		<path d="M304.158,266.932c-3.586-2.066-8.168-0.836-10.234,2.748c-19.111,33.15-51.653,55.539-89.282,61.427
			c-4.088,0.639-6.885,4.473-6.244,8.561c0.578,3.697,3.767,6.336,7.393,6.336c0.385,0,0.775-0.03,1.167-0.091
			c42.132-6.592,78.561-31.648,99.949-68.747C308.974,273.58,307.742,268.999,304.158,266.932z"/>
	</g>
</g>
<g>
	<g>
		<path d="M260.816,131.098c-20.255-20.195-47.145-31.31-75.743-31.31c-0.053,0-0.11,0-0.162,0
			C125.758,99.874,77.703,148.07,77.789,207.225c0.024,16.88,3.865,33.04,11.415,48.032c1.861,3.696,6.365,5.183,10.063,3.322
			c3.695-1.861,5.183-6.367,3.322-10.063c-6.491-12.889-9.793-26.788-9.814-41.314c-0.074-50.892,41.268-92.355,92.159-92.429
			c0.046,0,0.093,0,0.14,0c24.6,0,47.737,9.563,65.161,26.936c17.458,17.407,27.092,40.569,27.128,65.222
			c0.074,50.891-41.269,92.354-92.159,92.429c-0.046,0-0.093,0-0.139,0c-25.245,0-48.809-10-66.365-28.166
			c-2.875-2.976-7.62-3.058-10.595-0.181c-2.976,2.876-3.057,7.62-0.181,10.595c20.408,21.116,47.795,32.738,77.141,32.738
			c0.052,0,0.109,0,0.162,0c59.154-0.087,107.209-48.283,107.123-107.437C292.308,178.255,281.109,151.331,260.816,131.098z"/>
	</g>
</g>
<g>
	<g>
		<polygon points="226.814,207.005 226.814,207.005 226.814,207.006 		"/>
	</g>
</g>
<g>
	<g>
		<path d="M214.543,177.507c-7.882-7.859-18.345-12.184-29.473-12.184c-0.021,0-0.043,0-0.063,0
			c-11.151,0.017-21.627,4.374-29.5,12.27c-7.873,7.896-12.2,18.385-12.184,29.536c0.017,11.151,4.374,21.627,12.27,29.5
			c7.882,7.859,18.345,12.184,29.473,12.184c0.021,0,0.043,0,0.063,0c11.151-0.017,21.627-4.374,29.5-12.27
			s12.2-18.386,12.184-29.535C226.797,195.856,222.44,185.379,214.543,177.507z M204.018,225.959
			c-5.046,5.061-11.762,7.855-18.909,7.866c-0.013,0-0.027,0-0.04,0c-7.132,0-13.841-2.772-18.892-7.81
			c-5.061-5.046-7.855-11.762-7.866-18.909c-0.01-7.147,2.763-13.871,7.81-18.932c5.046-5.061,11.762-7.855,18.91-7.866
			c0.013,0,0.027,0,0.04,0c7.132,0,13.84,2.772,18.892,7.81c5.061,5.046,7.855,11.762,7.865,18.909
			C211.839,214.174,209.064,220.898,204.018,225.959z"/>
	</g>
</g>
<g>
	<g>
		<path d="M198.456,127.02c-3.606-3.595-8.392-5.574-13.482-5.574c-0.009,0-0.019,0-0.028,0c-5.1,0.007-9.894,2-13.495,5.613
			c-3.601,3.612-5.581,8.41-5.574,13.511c0.008,5.1,2.001,9.893,5.613,13.494c3.606,3.596,8.391,5.574,13.481,5.574
			c0.009,0,0.019,0,0.029,0c5.101-0.007,9.894-2,13.495-5.613s5.581-8.41,5.574-13.511
			C204.062,135.413,202.069,130.62,198.456,127.02z M184.978,144.652c-0.002,0-0.004,0-0.007,0c-1.095,0-2.125-0.426-2.9-1.199
			c-0.778-0.775-1.207-1.807-1.209-2.904c-0.003-2.267,1.837-4.113,4.104-4.116c0.002,0,0.004,0,0.006,0
			c2.264,0,4.106,1.839,4.11,4.103C189.085,142.803,187.245,144.649,184.978,144.652z"/>
	</g>
</g>
<g>
	<g>
		<path d="M251.594,187.873c-0.009,0-0.019,0-0.028,0c-5.101,0.007-9.894,2-13.495,5.613c-3.602,3.612-5.581,8.41-5.574,13.51
			c0.007,5.101,2,9.894,5.613,13.495c3.606,3.595,8.392,5.574,13.482,5.574c0.011,0,0.021,0,0.03,0
			c10.529-0.015,19.083-8.594,19.068-19.124C270.674,196.421,262.111,187.873,251.594,187.873z M251.6,211.079
			c-0.002,0-0.004,0-0.006,0c-1.096,0-2.126-0.426-2.902-1.2c-0.777-0.774-1.206-1.806-1.208-2.904
			c-0.001-1.098,0.425-2.131,1.2-2.908s1.807-1.207,2.904-1.208c0.002,0,0.004,0,0.006,0c2.263,0,4.106,1.84,4.11,4.103
			C255.707,209.229,253.866,211.075,251.6,211.079z"/>
	</g>
</g>
<g>
	<g>
		<path d="M198.65,260.068c-3.606-3.595-8.392-5.574-13.482-5.574c-0.01,0.001-0.019,0.001-0.029,0.001
			c-5.1,0.007-9.894,2-13.494,5.613c-3.602,3.612-5.581,8.41-5.574,13.51c0.007,5.1,2,9.894,5.613,13.495
			c3.606,3.595,8.391,5.573,13.481,5.573c0.01,0,0.02,0,0.03,0c5.1-0.007,9.894-2,13.494-5.613
			c3.602-3.613,5.581-8.411,5.574-13.511C204.256,268.462,202.263,263.668,198.65,260.068z M188.078,276.493
			c-0.775,0.777-1.807,1.207-2.905,1.208c-0.002,0-0.004,0-0.007,0c-1.095,0-2.125-0.426-2.901-1.2
			c-0.777-0.775-1.207-1.806-1.208-2.904c-0.003-2.267,1.837-4.113,4.103-4.116c0.002,0,0.004,0,0.006,0
			c2.265,0,4.108,1.84,4.111,4.104C189.278,274.683,188.852,275.715,188.078,276.493z"/>
	</g>
</g>
<g>
	<g>
		<path d="M132.027,193.642c-3.605-3.595-8.392-5.574-13.481-5.574c-0.01,0-0.02,0-0.029,0
			c-10.529,0.016-19.083,8.595-19.068,19.124c0.007,5.1,2,9.894,5.613,13.494c3.606,3.595,8.392,5.574,13.482,5.574
			c0.009,0,0.019,0,0.028,0c10.53-0.015,19.084-8.594,19.068-19.124C137.632,202.036,135.639,197.243,132.027,193.642z
			 M118.55,211.274c-0.002,0-0.004,0-0.006,0c-2.264,0-4.106-1.839-4.11-4.103c0-1.098,0.426-2.131,1.201-2.908
			c0.775-0.777,1.806-1.207,2.904-1.208c0.002,0,0.004,0,0.007,0c1.095,0,2.125,0.426,2.9,1.199
			c0.777,0.775,1.207,1.807,1.208,2.904C122.657,209.425,120.817,211.271,118.55,211.274z"/>
	</g>
</g>
<g>
	<g>
		<path d="M353.41,160.659c-11.625-42.262-38.589-78.391-75.925-101.73c-3.508-2.192-8.131-1.127-10.325,2.382
			c-2.194,3.509-1.128,8.132,2.382,10.325c34.141,21.341,58.795,54.368,69.419,92.997c0.915,3.326,3.931,5.509,7.221,5.509
			c0.657,0,1.326-0.087,1.991-0.271C352.163,168.774,354.508,164.65,353.41,160.659z"/>
	</g>
</g>
<g>
	<g>
		<path d="M260.013,49.35c-6.882-3.276-14.048-6.123-21.297-8.462c-3.942-1.274-8.161,0.892-9.431,4.831
			c-1.271,3.938,0.892,8.161,4.831,9.431c6.623,2.137,13.17,4.738,19.457,7.731c1.04,0.495,2.136,0.729,3.215,0.729
			c2.8,0,5.488-1.578,6.771-4.274C265.336,55.6,263.749,51.129,260.013,49.35z"/>
	</g>
</g>
<g>
	<g>
		<path d="M201.065,18.542c-0.008,0-0.019,0-0.027,0c-10.103,0.015-18.31,8.246-18.296,18.35
			c0.015,10.095,8.23,18.296,18.322,18.296c0.009,0,0.019,0,0.028,0c10.103-0.015,18.31-8.246,18.296-18.349c0,0,0,0,0-0.001
			C219.373,26.743,211.156,18.542,201.065,18.542z M201.069,40.201c-0.001,0-0.003,0-0.005,0c-1.837,0-3.333-1.494-3.336-3.332
			c-0.003-1.839,1.492-3.338,3.332-3.341c0.001,0,0.003,0,0.005,0c1.2,0,1.991,0.609,2.356,0.974
			c0.366,0.365,0.978,1.156,0.98,2.358C204.404,38.699,202.909,40.198,201.069,40.201z"/>
	</g>
</g>
<g>
	<g>
		<path d="M369.715,177.242c-3.46-3.45-8.052-5.348-12.936-5.348c-0.009,0-0.019,0-0.027,0c-10.103,0.015-18.31,8.247-18.296,18.35
			c0.015,10.095,8.23,18.296,18.322,18.296c0.009,0,0.019,0,0.027,0c10.103-0.015,18.31-8.246,18.296-18.35
			C375.094,185.296,373.18,180.698,369.715,177.242z M356.783,193.554c-0.002,0-0.004,0-0.005,0c-1.838,0-3.334-1.494-3.337-3.332
			c-0.002-1.839,1.494-3.338,3.332-3.341c0.002,0,0.004,0,0.006,0c1.199,0,1.99,0.609,2.355,0.974
			c0.365,0.365,0.978,1.155,0.98,2.358C360.117,192.052,358.622,193.551,356.783,193.554z"/>
	</g>
</g>
<g>
	<g>
		<path d="M485.562,361.141h-80.461v-26.975c0-1.987-0.789-3.893-2.194-5.298l-42.46-42.46c-2.927-2.926-7.671-2.926-10.597,0
			s-2.926,7.671,0,10.596l40.266,40.266v23.872h-79.464c-8.795,0-15.949,7.154-15.949,15.949v118.961
			c0,8.795,7.154,15.949,15.949,15.949h174.909c8.795,0,15.949-7.154,15.949-15.949V377.089
			C501.51,368.295,494.356,361.141,485.562,361.141z M486.524,496.051c0,0.531-0.433,0.963-0.963,0.963H310.652
			c-0.53,0-0.963-0.433-0.963-0.963V377.089c0-0.53,0.433-0.963,0.963-0.963h174.909c0.531,0,0.963,0.433,0.963,0.963V496.051z"/>
	</g>
</g>
<g>
	<g>
		<path d="M457.051,441.066c-2.439,0-4.77,0.451-6.941,1.237l-40.977-34.405c0.298-1.387,0.462-2.822,0.462-4.297
			c0-11.293-9.188-20.481-20.481-20.481s-20.481,9.188-20.481,20.481c0,1.408,0.143,2.783,0.416,4.112l-25.259,19.854
			c-2.36-0.951-4.929-1.488-7.625-1.488c-11.293,0-20.481,9.187-20.481,20.481c0,11.293,9.187,20.481,20.481,20.481
			s20.481-9.187,20.481-20.481c0-3.053-0.69-5.943-1.894-8.548l22.541-17.718c3.344,2.376,7.418,3.786,11.823,3.786
			c4.324,0,8.332-1.355,11.641-3.651l38.02,31.922c-1.399,2.768-2.205,5.885-2.205,9.193c0,11.293,9.187,20.481,20.481,20.481
			s20.481-9.187,20.481-20.481S468.345,441.066,457.051,441.066z M336.164,452.056c-3.03,0-5.495-2.465-5.495-5.495
			s2.465-5.495,5.495-5.495s5.495,2.465,5.495,5.495S339.195,452.056,336.164,452.056z M389.115,409.095
			c-2.02,0.001-3.784-1.099-4.74-2.727c-0.034-0.057-0.065-0.114-0.101-0.17c-0.417-0.774-0.654-1.658-0.654-2.598
			c0-3.03,2.465-5.495,5.495-5.495c3.03,0,5.495,2.465,5.495,5.495C394.609,406.63,392.145,409.095,389.115,409.095z
			 M457.051,467.042c-3.03,0-5.495-2.465-5.495-5.495c0-1.699,0.775-3.22,1.991-4.229c0.068-0.049,0.134-0.1,0.2-0.152
			c0.921-0.696,2.063-1.115,3.304-1.115c3.03,0,5.495,2.465,5.495,5.495S460.083,467.042,457.051,467.042z"/>
	</g>
</g>
<g>
</g>
<g>
</g>
<g>
</g>
<g>
</g>
<g>
</g>
<g>
</g>
<g>
</g>
<g>
</g>
<g>
</g>
<g>
</g>
<g>
</g>
<g>
</g>
<g>
</g>
<g>
</g>
<g>
</g>
</svg>
