<?xml version="1.0" encoding="iso-8859-1"?>
<!-- Generator: Adobe Illustrator 19.0.0, SVG Export Plug-In . SVG Version: 6.00 Build 0)  -->
<svg version="1.1" id="Capa_1" xmlns="http://www.w3.org/2000/svg" xmlns:xlink="http://www.w3.org/1999/xlink" x="0px" y="0px"
	 viewBox="0 0 512.001 512.001" style="enable-background:new 0 0 512.001 512.001;" xml:space="preserve">
<g>
	<g>
		<path d="M349.333,0H162.669C148.24,0,136.5,11.739,136.5,26.168V125c0,4.142,3.358,7.5,7.5,7.5c4.142,0,7.5-3.358,7.5-7.5V88h209
			v90.52c0,1.919-1.561,3.48-3.48,3.48h-31.51l-3.738-21.69c-1.379-8.002-8.274-13.81-16.394-13.81h-98.756
			c-8.12,0-15.014,5.808-16.394,13.81L186.49,182h-31.51c-1.919,0-3.48-1.561-3.48-3.48V155c0-4.142-3.358-7.5-7.5-7.5
			c-4.142,0-7.5,3.358-7.5,7.5v23.52c0,10.19,8.29,18.48,18.48,18.48h32.629c6.673,0,12.339-4.773,13.473-11.349l3.929-22.793
			c0.135-0.787,0.813-1.357,1.611-1.357H218.5v22.066c0,6.779,4.127,12.611,10,15.12V381h-20.477
			c-13.291,0-24.411,9.468-26.97,22.014c-13.062,0.441-23.554,11.205-23.554,24.373v14.227c0,13.168,10.492,23.932,23.554,24.373
			c2.559,12.546,13.679,22.014,26.97,22.014H223.5v4.11c0,10.967,8.922,19.89,19.89,19.89h25.221c10.967,0,19.89-8.922,19.89-19.89
			V488h15.477c13.291,0,24.411-9.468,26.97-22.014c13.062-0.441,23.554-11.205,23.554-24.373v-14.227
			c0-13.168-10.492-23.932-23.554-24.373C328.388,390.468,317.268,381,303.977,381H283.5v-96c0-4.142-3.358-7.5-7.5-7.5
			c-4.142,0-7.5,3.358-7.5,7.5v103.5c0,4.142,3.358,7.5,7.5,7.5h27.977c6.905,0,12.523,5.618,12.523,12.523v1.977
			c0,4.142,3.358,7.5,7.5,7.5h6.113c5.176,0,9.387,4.211,9.387,9.387v14.227c0,5.176-4.211,9.387-9.387,9.387H324
			c-4.142,0-7.5,3.358-7.5,7.5v1.977c0,6.905-5.618,12.523-12.523,12.523H281c-4.142,0-7.5,3.358-7.5,7.5v11.61
			c0,2.696-2.193,4.89-4.89,4.89h-25.22c-2.696,0-4.89-2.193-4.89-4.89V480.5c0-4.142-3.358-7.5-7.5-7.5h-22.977
			c-6.905,0-12.523-5.618-12.523-12.523V458.5c0-4.142-3.358-7.5-7.5-7.5h-6.113c-5.176,0-9.387-4.211-9.387-9.387v-14.227
			c0-5.176,4.211-9.387,9.387-9.387H188c4.142,0,7.5-3.358,7.5-7.5v-1.977c0-6.905,5.618-12.523,12.523-12.523H236
			c4.142,0,7.5-3.358,7.5-7.5V200h25v55c0,4.142,3.358,7.5,7.5,7.5c4.142,0,7.5-3.358,7.5-7.5v-56.314c5.873-2.509,10-8.34,10-15.12
			V161.5h11.878c0.798,0,1.476,0.571,1.611,1.357l3.929,22.793c1.133,6.576,6.8,11.349,13.473,11.349h32.629
			c10.19,0,18.48-8.29,18.48-18.48V26.168C375.5,11.739,363.761,0,349.333,0z M278.5,183.566c0,0.791-0.644,1.434-1.434,1.434H276
			h-40h-1.066c-0.791,0-1.434-0.644-1.434-1.434V161.5h45V183.566z M360.5,73h-209V61h209V73z M360.5,46h-209V26.168
			C151.5,20.01,156.51,15,162.669,15h186.664c6.158,0,11.168,5.01,11.168,11.168V46z"/>
	</g>
</g>
<g>
	<g>
		<path d="M256,401c-18.472,0-33.5,15.028-33.5,33.5S237.529,468,256,468s33.5-15.028,33.5-33.5S274.472,401,256,401z M256,453
			c-10.201,0-18.5-8.299-18.5-18.5S245.799,416,256,416s18.5,8.299,18.5,18.5S266.201,453,256,453z"/>
	</g>
</g>
<g>
	<g>
		<path d="M308.591,410.723c-2.941-2.917-7.69-2.897-10.606,0.044c-2.917,2.941-2.897,7.69,0.044,10.606
			c3.529,3.5,5.472,8.161,5.472,13.126c0,4.965-1.943,9.627-5.472,13.126c-2.941,2.918-2.961,7.667-0.044,10.608
			c1.466,1.479,3.396,2.219,5.325,2.219c1.909,0,3.818-0.724,5.281-2.175c6.39-6.337,9.91-14.781,9.91-23.777
			C318.501,425.504,314.981,417.06,308.591,410.723z"/>
	</g>
</g>
<g>
	<g>
		<path d="M213.972,447.627c-3.529-3.5-5.472-8.161-5.472-13.126c0-4.965,1.943-9.627,5.472-13.126
			c2.941-2.918,2.961-7.667,0.044-10.608c-2.917-2.941-7.665-2.961-10.606-0.044c-6.39,6.337-9.91,14.781-9.91,23.777
			c0,8.996,3.52,17.44,9.91,23.777c1.463,1.451,3.372,2.175,5.281,2.175c1.93,0,3.859-0.74,5.325-2.219
			C216.934,455.292,216.914,450.543,213.972,447.627z"/>
	</g>
</g>
<g>
</g>
<g>
</g>
<g>
</g>
<g>
</g>
<g>
</g>
<g>
</g>
<g>
</g>
<g>
</g>
<g>
</g>
<g>
</g>
<g>
</g>
<g>
</g>
<g>
</g>
<g>
</g>
<g>
</g>
</svg>
