<?xml version="1.0" encoding="iso-8859-1"?>
<!-- Generator: Adobe Illustrator 19.0.0, SVG Export Plug-In . SVG Version: 6.00 Build 0)  -->
<svg version="1.1" id="Capa_1" xmlns="http://www.w3.org/2000/svg" xmlns:xlink="http://www.w3.org/1999/xlink" x="0px" y="0px"
	 viewBox="0 0 370.583 370.583" style="enable-background:new 0 0 370.583 370.583;" xml:space="preserve">
<g>
	<g>
		<path d="M302.856,211.517c-8.156-1.267-16.46-1.265-24.615,0.007l-41.8-41.76l84-84c1.811,0.82,3.772,1.255,5.76,1.28
			c3.402,0.085,6.693-1.214,9.12-3.6l0.84-0.96l27.24-33.6c2.261-2.739,3.517-6.169,3.56-9.72c0.008-3.572-1.435-6.994-4-9.48
			l-22.48-22.48c-2.486-2.565-5.908-4.008-9.48-4c-3.551,0.046-6.98,1.302-9.72,3.56l-33.6,27.24l-0.96,0.84
			c-2.386,2.427-3.685,5.718-3.6,9.12c0.025,1.988,0.46,3.949,1.28,5.76l-84,84l-41.68-41.68
			c6.651-43.679-23.367-84.48-67.047-91.13C78.094-1.153,64.21,0.311,51.36,5.165c-2.652,0.768-4.18,3.541-3.412,6.194
			c0.222,0.766,0.623,1.467,1.172,2.046l38.12,38.12c9.941,9.929,9.951,26.036,0.022,35.978c-0.008,0.007-0.015,0.015-0.022,0.022
			c-9.929,9.941-26.036,9.951-35.978,0.022c-0.008-0.007-0.015-0.015-0.022-0.022l-37.88-38.36c-2.027-1.875-5.19-1.753-7.066,0.274
			c-0.393,0.424-0.709,0.914-0.934,1.446c-11.379,29.506-4.308,62.945,18.04,85.32l-0.16,0.12
			c18.037,18.006,43.574,26.34,68.76,22.44l19.04,19.04l-96,96c-15.693,15.775-15.693,41.265,0,57.04l24.4,24.4
			c7.564,7.557,17.828,11.789,28.52,11.76c10.691,0.024,20.953-4.207,28.52-11.76l96-96l19.04,19.04
			c-6.784,43.659,23.109,84.551,66.767,91.335c43.659,6.784,84.551-23.109,91.335-66.767
			C376.407,259.194,346.514,218.302,302.856,211.517z M294.56,54.325c1.955-1.95,1.959-5.116,0.009-7.071
			c-0.003-0.003-0.006-0.006-0.009-0.009l-0.28-0.32c-0.611-0.761-0.949-1.704-0.96-2.68c-0.035-0.724,0.225-1.431,0.72-1.96
			l33.6-27.24c0.951-0.813,2.15-1.278,3.4-1.32c0.897-0.017,1.763,0.329,2.4,0.96l22.48,22.48c0.631,0.637,0.977,1.503,0.96,2.4
			c-0.042,1.25-0.507,2.449-1.32,3.4l-27.24,33.6c-0.529,0.495-1.236,0.755-1.96,0.72c-0.976-0.011-1.919-0.349-2.68-0.96
			l-0.28-0.28c-1.95-1.955-5.116-1.959-7.071-0.009c-0.003,0.003-0.006,0.006-0.009,0.009l-108,108l-11.2-10.88l-10.88-10.88
			L294.56,54.325z M97.12,149.885c-1.252-1.262-3.079-1.764-4.8-1.32c-11.129,2.043-22.586,1.371-33.4-1.96
			c-24.113-7.564-42.285-27.525-47.56-52.24c-2.259-10.658-2.013-21.694,0.72-32.24l0.12,0.2l32.32,32.36
			c13.831,13.787,36.209,13.787,50.04,0c13.734-13.822,13.734-36.138,0-49.96l-32.32-32.36c10.546-2.733,21.583-2.979,32.24-0.72
			c24.634,5.312,44.519,23.441,52.08,47.48c3.357,10.92,4.002,22.494,1.88,33.72c-0.252,1.581,0.269,3.187,1.4,4.32l43.6,43.76
			l-14.72,14.72c-14.648-9.589-33.799-8.686-47.48,2.24l-0.68,0.56h-0.24l-0.24,0.2l-0.28,0.24l-0.68,0.64l-0.32,0.32l-0.36,0.36
			l-9.92,9.92L97.12,149.885z M22.24,323.685c-11.776-11.868-11.776-31.012,0-42.88l99.4-99.64l13.44-13.44l0.28-0.24l0.24-0.24
			l0.24-0.2l0.24-0.2h0.2l0.28-0.24l0.24-0.2c11.263-9.295,27.537-9.295,38.8,0h0.2c0.613,0.507,1.2,1.053,1.76,1.64l8.64,8.64
			L30.88,332.325L22.24,323.685z M189.12,248.645l-99.6,99.4c-5.688,5.679-13.403,8.86-21.44,8.84
			c-8.037,0.02-15.752-3.161-21.44-8.84l-8.64-8.64l155.72-155.76l8.64,8.64c11.109,11.226,11.786,29.084,1.56,41.12l-0.48,0.52
			l-0.2,0.2l-0.2,0.24l-0.24,0.24l-0.24,0.28L189.12,248.645z M357.216,311.51c-11.512,36.86-50.726,57.408-87.585,45.896
			c-22.011-6.874-39.216-24.159-45.99-46.201c-3.357-10.92-4.002-22.494-1.88-33.72c0.262-1.575-0.243-3.18-1.36-4.32l-20.84-20.84
			l9.92-9.92l0.36-0.36l0.32-0.32l0.28-0.32l0.28-0.28l0.24-0.28l0.28-0.32l0.24-0.28l0.2-0.28l0.24-0.32
			c10.926-13.681,11.83-32.832,2.24-47.48l14.72-14.72l44.24,43.2c1.252,1.262,3.079,1.764,4.8,1.32
			c11.129-2.043,22.586-1.371,33.4,1.96C348.18,235.437,368.728,274.65,357.216,311.51z"/>
	</g>
</g>
<g>
	<g>
		<path d="M333.2,279.485l-13.48-13.48l-13.48-13.48c-1.268-1.262-3.114-1.75-4.84-1.28l-18.4,4.92l-18.36,5
			c-1.741,0.459-3.101,1.819-3.56,3.56l-4.92,18.4l-4.88,18.04c-0.576,1.792-0.096,3.755,1.24,5.08l13.44,13.48l13.48,13.44
			c1.268,1.262,3.114,1.75,4.84,1.28l18.4-4.92l18.44-4.88c1.741-0.459,3.101-1.819,3.56-3.56l4.92-18.4l4.84-18.12
			C335.016,282.773,334.537,280.81,333.2,279.485z M320.04,300.205l-4,15.6l-15.6,4l-15.6,4l-11.72-11.16l-11.48-11.48l4.32-15.56
			l4-15.6l15.6-4l15.6-4l11.44,11.16l11.44,11.44L320.04,300.205z"/>
	</g>
</g>
<g>
</g>
<g>
</g>
<g>
</g>
<g>
</g>
<g>
</g>
<g>
</g>
<g>
</g>
<g>
</g>
<g>
</g>
<g>
</g>
<g>
</g>
<g>
</g>
<g>
</g>
<g>
</g>
<g>
</g>
</svg>
