<?xml version="1.0" encoding="iso-8859-1"?>
<!-- Generator: Adobe Illustrator 19.0.0, SVG Export Plug-In . SVG Version: 6.00 Build 0)  -->
<svg version="1.1" id="Capa_1" xmlns="http://www.w3.org/2000/svg" xmlns:xlink="http://www.w3.org/1999/xlink" x="0px" y="0px"
	 viewBox="0 0 370.487 370.487" style="enable-background:new 0 0 370.487 370.487;" xml:space="preserve">
<g>
	<g>
		<path d="M247.36,244.343l-0.32-0.32c-2.373-2.382-5.597-3.721-8.96-3.72h-76c-3.349,0.009-6.557,1.347-8.92,3.72
			c-2.427,2.353-3.81,5.58-3.84,8.96v22.24c-0.001,3.363,1.338,6.587,3.72,8.96l0.08-0.04c2.373,2.382,5.597,3.721,8.96,3.72h76
			c3.363,0.001,6.587-1.338,8.96-3.72c2.382-2.373,3.721-5.597,3.72-8.96v-22.2C250.764,249.776,249.548,246.688,247.36,244.343z
			 M240.56,275.143c0.003,0.702-0.27,1.377-0.76,1.88c-0.496,0.504-1.172,0.792-1.88,0.8h-76c-0.703,0.007-1.38-0.266-1.88-0.76
			c-0.494-0.5-0.767-1.177-0.76-1.88l0.12-22.2c-0.007-0.703,0.266-1.379,0.76-1.88c0.5-0.493,1.177-0.767,1.88-0.76h76
			c0.708,0.008,1.384,0.296,1.88,0.8c0.418,0.491,0.645,1.115,0.64,1.76V275.143z"/>
	</g>
</g>
<g>
	<g>
		<path d="M214.4,166.864v-72.24c-0.004-8.24-6.687-14.917-14.927-14.913c-8.234,0.004-14.909,6.678-14.913,14.913v73.28
			c-2.106,1.884-3.854,4.134-5.16,6.64c-5.921,11.413-1.468,25.464,9.945,31.385c3.317,1.721,6.999,2.617,10.735,2.615l0.04,0
			c12.857,0.01,23.288-10.405,23.298-23.262C223.424,178.078,220.094,171.277,214.4,166.864z M206.293,196.799
			c-6.385,3.609-14.487,1.358-18.096-5.027c-2.204-3.9-2.294-8.649-0.238-12.629l0.16-0.04c0.94-1.879,2.311-3.51,4-4.76
			c1.304-0.919,2.092-2.405,2.12-4v-75.72c0-2.706,2.194-4.9,4.9-4.9s4.9,2.194,4.9,4.9v74.88c0.004,1.873,1.053,3.586,2.72,4.44
			c1.893,1.182,3.46,2.818,4.56,4.76C214.929,185.089,212.678,193.19,206.293,196.799z"/>
	</g>
</g>
<g>
	<g>
		<path d="M368.527,159.624C354.377,66.562,267.465,2.591,174.403,16.74C100.634,27.956,42.736,85.854,31.52,159.624H14.76
			c-8.143,0.022-14.738,6.617-14.76,14.76v21.72c0.022,8.143,6.617,14.738,14.76,14.76h16.76
			c14.15,93.062,101.062,157.033,194.123,142.883S382.676,252.685,368.527,159.624z M30.32,200.864H14.76
			c-2.598-0.022-4.698-2.122-4.72-4.72v-21.76c0.022-2.598,2.122-4.698,4.72-4.72h15.56c-0.36,4-0.72,11.6-0.72,15.6
			S29.96,196.904,30.32,200.864z M313.48,298.969c-62.736,62.607-164.346,62.503-226.953-0.233
			C56.475,268.622,39.61,227.807,39.64,185.264c-0.055-42.573,16.86-83.413,47-113.48l0.12,0
			c62.736-62.607,164.346-62.503,226.953,0.233C376.32,134.752,376.216,236.362,313.48,298.969z"/>
	</g>
</g>
<g>
	<g>
		<path d="M302.237,82.545C265.638,46.018,212.361,31.738,162.4,45.064h-0.28h-0.24c-11.859,3.214-23.259,7.932-33.92,14.04
			l-1.56,0.92c-10.281,6.055-19.778,13.349-28.28,21.72c-0.56,0.52-1.32,1.28-1.8,1.8c-8.254,8.431-15.454,17.833-21.44,28
			c-0.32,0.44-0.88,1.56-1.32,2.32c-5.787,10.238-10.301,21.146-13.44,32.48c0,0.48-0.6,2.08-0.72,2.64
			c-2.898,11.336-4.416,22.98-4.52,34.68v3c0.304,37.999,15.549,74.351,42.44,101.2c56.697,56.586,148.531,56.496,205.117-0.201
			C359.024,230.966,358.934,139.131,302.237,82.545z M195.592,320.375c-70.955-2.443-127.909-59.397-130.352-130.352h12.92
			c2.75-0.247,4.78-2.676,4.533-5.427c-0.216-2.409-2.125-4.317-4.533-4.533l-0.16,0.08H65.12c0.308-8.444,1.406-16.841,3.28-25.08
			l12.56,3.28c2.673,0.696,5.404-0.907,6.1-3.58c0.696-2.673-0.907-5.404-3.58-6.1L71,145.424c2.484-8.074,5.725-15.895,9.68-23.36
			l11.28,6.4c2.488,1.197,5.476,0.151,6.673-2.338c1.085-2.255,0.336-4.965-1.753-6.342l-11.2-6.36
			c4.501-7.131,9.656-13.826,15.4-20l9.24,9.12c2.137,1.749,5.287,1.436,7.036-0.701c1.522-1.859,1.507-4.538-0.036-6.379l-9.2-9.08
			c6.171-5.758,12.867-10.927,20-15.44l6.6,11.28c1.577,2.267,4.693,2.826,6.96,1.249c1.994-1.387,2.703-4.006,1.68-6.209
			l-6.56-11.24c7.476-3.971,15.311-7.225,23.4-9.72l3.48,12.64c0.751,2.662,3.518,4.211,6.18,3.46
			c2.662-0.751,4.211-3.518,3.46-6.18l-3.48-12.6c8.251-1.89,16.661-3.002,25.12-3.32c0,0,0,10,0,13.12
			c0.092,2.631,2.136,4.779,4.76,5c2.813,0.045,5.134-2.188,5.2-5c0-3.16,0-13.12,0-13.12c8.458,0.304,16.868,1.403,25.12,3.28
			l-3.48,12.68c-0.813,2.639,0.666,5.438,3.305,6.251c2.639,0.813,5.438-0.666,6.251-3.305c0.031-0.101,0.059-0.203,0.084-0.306
			l3.48-12.72c8.103,2.492,15.951,5.747,23.44,9.72l-6.48,11.36c-1.197,2.488-0.151,5.476,2.338,6.673
			c2.255,1.085,4.965,0.336,6.342-1.753l6.68-11.36c7.133,4.512,13.829,9.682,20,15.44l-9.32,9.2
			c-1.859,2.042-1.711,5.204,0.331,7.063c1.884,1.715,4.756,1.74,6.669,0.057l9.4-9.32c5.758,6.172,10.927,12.867,15.44,20
			l-11.4,6.48c-2.305,1.52-2.942,4.621-1.422,6.927c1.377,2.089,4.087,2.839,6.342,1.753l11.48-6.52
			c3.996,7.46,7.278,15.282,9.8,23.36l-12.68,3.32c-2.673,0.696-4.276,3.427-3.58,6.1c0.696,2.673,3.427,4.276,6.1,3.58l12.76-3.32
			c1.877,8.252,2.976,16.662,3.28,25.12h-13.12c-2.75,0.247-4.78,2.676-4.533,5.427c0.216,2.408,2.125,4.317,4.533,4.533h13.16
			C332.673,264.582,270.15,322.942,195.592,320.375z"/>
	</g>
</g>
<g>
</g>
<g>
</g>
<g>
</g>
<g>
</g>
<g>
</g>
<g>
</g>
<g>
</g>
<g>
</g>
<g>
</g>
<g>
</g>
<g>
</g>
<g>
</g>
<g>
</g>
<g>
</g>
<g>
</g>
</svg>
