<?xml version="1.0" encoding="iso-8859-1"?>
<!-- Generator: Adobe Illustrator 19.0.0, SVG Export Plug-In . SVG Version: 6.00 Build 0)  -->
<svg version="1.1" id="Capa_1" xmlns="http://www.w3.org/2000/svg" xmlns:xlink="http://www.w3.org/1999/xlink" x="0px" y="0px"
	 viewBox="0 0 386.365 386.365" style="enable-background:new 0 0 386.365 386.365;" xml:space="preserve">
<g>
	<g>
		<path d="M381.632,343.701l0.16,0.2l-26.2-26.2l5.64-5.48c2.039-2.034,3.177-4.8,3.16-7.68c-0.005-2.85-1.059-5.598-2.96-7.72
			l-93.76-104.96l6.48-6.64c9.072-9.114,9.072-23.846,0-32.96c-4.371-4.367-10.301-6.814-16.48-6.8
			c-6.182,0.028-12.099,2.518-16.44,6.92l-4.6,4.6l-17.16-19.24l-0.4-0.44c-0.372-0.377-0.774-0.725-1.2-1.04
			c6.812-11.457,5.002-26.072-4.4-35.52l-25.64-25.64c-9.464-9.409-24.103-11.203-35.56-4.36c-0.358-0.513-0.76-0.995-1.2-1.44
			l-17.2-17.16l-16.64-16.76l-17.24-17.24c-4.166-4.154-10.863-4.295-15.2-0.32l-0.36,0.32l-51.2,51.08l-0.68,0.76l-19.32-19.08
			c-2.72-2.72-3.52-4.88-3.24-6.72c0.787-2.715,2.359-5.137,4.52-6.96l12-12c1.846-2.053,1.678-5.215-0.375-7.061
			c-1.893-1.702-4.763-1.71-6.665-0.019l-12,12c-3.658,3.215-6.218,7.496-7.32,12.24c-0.781,5.835,1.484,11.663,6,15.44l27.08,27.08
			l17.24,17.24l16.68,16.68l17.16,17.16c0.445,0.44,0.927,0.841,1.44,1.2c-6.843,11.457-5.049,26.096,4.36,35.56l25.64,25.64
			c9.458,9.388,24.072,11.182,35.52,4.36c0.304,0.411,0.639,0.798,1,1.16l0.4,0.4l19.24,17.16l-4.6,4.6
			c-9.072,9.114-9.072,23.846,0,32.96c9.109,9.046,23.811,9.046,32.92,0l6.48-6.48l105,93.56c2.112,1.892,4.844,2.945,7.68,2.96
			c2.88,0.017,5.646-1.121,7.68-3.16l5.48-5.48l26.2,26.2c6.178,6.318,16.308,6.432,22.626,0.254
			c0.086-0.084,0.17-0.168,0.254-0.254C387.943,360.284,387.943,350.038,381.632,343.701z M248.272,159.461
			c2.475-2.533,5.859-3.973,9.4-4c3.542,0.022,6.928,1.463,9.4,4c5.155,5.206,5.155,13.594,0,18.8l-6.08,6.08l-17.72-20
			L248.272,159.461z M40.272,77.821c-0.367-0.41-0.367-1.03,0-1.44l51.08-51.16c0.208-0.065,0.432-0.065,0.64,0
			c0.267-0.003,0.525,0.098,0.72,0.28l12.52,12l-52.76,52.64L40.272,77.821z M59.552,97.221l52.64-52.64l12.4,12.4l-52.64,52.64
			L59.552,97.221z M79.032,116.701l52.64-52.64l12.32,12.32c0.186,0.193,0.287,0.452,0.28,0.72c0.059,0.196,0.059,0.404,0,0.6
			l-51.2,51.2c-0.402,0.386-1.038,0.386-1.44,0L79.032,116.701z M152.472,188.701l-2.72,2.72c-7.467,7.392-19.493,7.392-26.96,0
			l-25.56-25.64c-7.392-7.467-7.392-19.493,0-26.96l2.72-2.72l51.2-51.2l2.72-2.72c7.467-7.392,19.493-7.392,26.96,0l25.64,25.64
			c7.392,7.467,7.392,19.493,0,26.96l-2.68,2.68L152.472,188.701z M159.352,197.021c-0.046-0.129-0.046-0.271,0-0.4
			c0.008-0.265,0.107-0.519,0.28-0.72l51.2-51.4c0.201-0.173,0.455-0.272,0.72-0.28c0.129-0.046,0.271-0.046,0.4,0l17.48,19.64
			l-50.4,50.68L159.352,197.021z M193.232,252.101c-5.206,5.155-13.594,5.155-18.8,0c-5.155-5.206-5.155-13.594,0-18.8l5-5l20,17.72
			L193.232,252.101z M206.392,238.941l-20-17.72l49.8-49.68l17.72,20L206.392,238.941z M329.232,330.021l-9,9
			c-0.16,0.157-0.376,0.243-0.6,0.24c-0.389-0.015-0.758-0.172-1.04-0.44l-104.68-93.2l46.68-46.68l93.2,104.56
			c0.268,0.282,0.425,0.651,0.44,1.04c0.003,0.224-0.083,0.44-0.24,0.6l-9,9L329.232,330.021z M374.792,359.781
			c-2.429,2.394-6.331,2.394-8.76,0l-26.2-26.2l8.76-8.76l26.2,26.2C377.208,353.441,377.208,357.361,374.792,359.781z"/>
	</g>
</g>
<g>
</g>
<g>
</g>
<g>
</g>
<g>
</g>
<g>
</g>
<g>
</g>
<g>
</g>
<g>
</g>
<g>
</g>
<g>
</g>
<g>
</g>
<g>
</g>
<g>
</g>
<g>
</g>
<g>
</g>
</svg>
