<?xml version="1.0" encoding="iso-8859-1"?>
<!-- Generator: Adobe Illustrator 19.0.0, SVG Export Plug-In . SVG Version: 6.00 Build 0)  -->
<svg version="1.1" id="Capa_1" xmlns="http://www.w3.org/2000/svg" xmlns:xlink="http://www.w3.org/1999/xlink" x="0px" y="0px"
	 viewBox="0 0 370.627 370.627" style="enable-background:new 0 0 370.627 370.627;" xml:space="preserve">
<g>
	<g>
		<path d="M61.003,29.963c-4.249-4.266-10.04-6.637-16.06-6.578l0.36,0.04c-5.993-0.067-11.761,2.283-16,6.52
			c-8.737,8.727-8.745,22.885-0.018,31.622c0.006,0.006,0.012,0.012,0.018,0.018c8.727,8.737,22.885,8.745,31.622,0.018
			c0.006-0.006,0.012-0.012,0.018-0.018C69.691,52.87,69.718,38.712,61.003,29.963z M54.023,54.425v0.12
			c-4.827,4.827-12.653,4.827-17.48,0c0,0,0,0,0,0c-4.827-4.827-4.827-12.653,0-17.48c0,0,0,0,0,0c2.304-2.363,5.46-3.703,8.76-3.72
			c6.826,0.022,12.342,5.573,12.32,12.399C57.612,48.999,56.319,52.119,54.023,54.425z"/>
	</g>
</g>
<g>
	<g>
		<g>
			<path d="M361.862,319.025l-0.04,0.12c-2.943-2.952-6.472-5.255-10.36-6.76c-0.496-0.814-1.086-1.566-1.76-2.24l-38.48-38.48
				l16-16c2.612-2.684,4.051-6.295,4-10.04c-0.043-3.62-1.475-7.085-4-9.68l-0.32-0.32l-28.8-29.08c-5.536-5.491-14.464-5.491-20,0
				l-0.32,0.32l-33.36,16l14.56-30.52c1.193-2.49,0.142-5.476-2.349-6.67c-1.544-0.74-3.36-0.638-4.811,0.27l-21.04,13l15.28-24.48
				c1.597-2.253,1.065-5.374-1.188-6.971c-1.533-1.087-3.547-1.222-5.212-0.349l-32.6,16.64l14-27.48
				c1.252-2.461,0.271-5.472-2.19-6.723c-1.48-0.753-3.237-0.721-4.69,0.083l-24.88,13.76l16-28.88
				c1.315-2.428,0.413-5.463-2.016-6.778c-1.595-0.864-3.533-0.796-5.064,0.178l-22.28,14.28l4.28-6.68l3.6-3.6
				c8.355-8.396,8.355-21.964,0-30.36l-60.92-60.8c-8.396-8.355-21.964-8.355-30.36,0l-2,2c-0.735-10.968-5.442-21.292-13.24-29.04
				c-17.688-17.637-46.312-17.637-64,0c-17.705,17.661-17.741,46.33-0.081,64.036c7.768,7.787,18.105,12.481,29.081,13.204l-1.96,2
				c-8.355,8.396-8.355,21.964,0,30.36l60.96,60.8c4.018,4.025,9.473,6.284,15.16,6.28c5.546,0.02,10.882-2.117,14.88-5.96
				l0.32-0.28l4.44-4.44l6.68-4.28l-14.28,22.28c-1.482,2.33-0.794,5.42,1.536,6.902c1.531,0.974,3.469,1.042,5.064,0.178l28.88-16
				l-13.76,24.96c-1.338,2.415-0.465,5.458,1.95,6.797c1.452,0.805,3.21,0.836,4.69,0.083l27.48-14l-16.64,32.6
				c-1.282,2.446-0.338,5.468,2.108,6.749c1.665,0.872,3.678,0.737,5.212-0.349l24.48-15.32l-13.28,21
				c-1.464,2.341-0.753,5.426,1.589,6.89c1.452,0.908,3.267,1.01,4.811,0.27l30.52-14.56l-16,33.36l-0.32,0.32
				c-2.608,2.686-4.047,6.296-4,10.04c-0.047,3.744,1.392,7.354,4,10.04l29.08,29.08c5.536,5.491,14.464,5.491,20,0l16-16
				l38.6,38.56c0.674,0.674,1.426,1.264,2.24,1.76c1.531,3.848,3.847,7.336,6.8,10.24c11.686,11.686,30.634,11.686,42.32,0
				S373.549,330.711,361.862,319.025z M256.503,228.065l-28,28l9.08-19L256.503,228.065z M124.502,177.065l-0.2,0.2
				c-2.163,2.036-5.03,3.154-8,3.12c-2.999-0.015-5.872-1.208-8-3.32l-60.8-60.8c-4.438-4.488-4.438-11.712,0-16.2l11.76-11.76
				c1.966-1.939,1.988-5.105,0.048-7.071c-1.357-1.375-3.385-1.846-5.208-1.209c-5.876,1.528-12.044,1.528-17.92,0
				c-18.818-5.138-29.908-24.558-24.77-43.376c1.617-5.923,4.75-11.322,9.09-15.664c13.79-13.773,36.13-13.773,49.92,0
				c4.361,4.338,7.505,9.745,9.12,15.68c1.591,5.99,1.591,12.291,0,18.28c-0.689,2.674,0.921,5.4,3.595,6.089
				c1.704,0.439,3.514-0.051,4.765-1.289l11.76-11.76c4.488-4.438,11.712-4.438,16.2,0l60.8,60.8c4.464,4.493,4.464,11.747,0,16.24
				L124.502,177.065z M147.502,186.465l15.44-24l24-15.44l-14.04,25.44L147.502,186.465z M166.782,204.345l13.52-24.56l24.56-13.52
				l-12.88,25.24L166.782,204.345z M184.782,227.745l14.68-28.8l28.8-14.68l-16.72,26.76L184.782,227.745z M203.942,242.065
				l14.88-24l23.8-14.88l-12.48,26.2L203.942,242.065z M268.462,300.225l-19.48,19.48c-1.498,1.624-4.029,1.726-5.652,0.228
				c-0.079-0.073-0.155-0.149-0.228-0.228l-29.08-29.08c-0.808-0.77-1.258-1.844-1.24-2.96c-0.028-1.111,0.406-2.183,1.2-2.96
				l71.32-71.08c1.498-1.624,4.029-1.726,5.652-0.228c0.079,0.073,0.155,0.149,0.228,0.228l29.08,29.08
				c0.686,0.754,1.058,1.741,1.04,2.76c0.018,1.117-0.432,2.19-1.24,2.96l-19.44,19.44L268.462,300.225z M311.102,335.785l-32-32
				l25.04-25.04l32,32c-6.298,0.958-12.122,3.91-16.619,8.421C315.013,323.664,312.061,329.487,311.102,335.785z M354.782,354.385
				c-7.777,7.623-20.223,7.623-28,0c-7.623-7.777-7.623-20.223,0-28c7.777-7.623,20.223-7.623,28,0
				C362.405,334.162,362.405,346.608,354.782,354.385z"/>
			<path d="M319.503,319.185c0.007-0.007,0.014-0.013,0.021-0.019c0.007-0.007,0.013-0.014,0.019-0.021L319.503,319.185z"/>
		</g>
	</g>
</g>
<g>
	<g>
		<path d="M349.332,331.855c-0.01-0.01-0.02-0.02-0.029-0.029v-0.04c-4.667-4.706-12.265-4.737-16.97-0.07
			c-0.023,0.023-0.047,0.046-0.07,0.07c-4.706,4.705-4.706,12.335,0,17.04c4.705,4.706,12.335,4.706,17.04,0
			C353.997,344.147,354.01,336.549,349.332,331.855z M342.223,341.745c-0.842,0.748-2.132,0.673-2.88-0.17
			c-0.687-0.773-0.687-1.938,0-2.71c0.796-0.793,2.084-0.793,2.88,0c0.383,0.382,0.599,0.899,0.6,1.44
			c-0.022,0.552-0.268,1.072-0.68,1.44H342.223z"/>
	</g>
</g>
<g>
</g>
<g>
</g>
<g>
</g>
<g>
</g>
<g>
</g>
<g>
</g>
<g>
</g>
<g>
</g>
<g>
</g>
<g>
</g>
<g>
</g>
<g>
</g>
<g>
</g>
<g>
</g>
<g>
</g>
</svg>
