<?xml version="1.0" encoding="iso-8859-1"?>
<!-- Generator: Adobe Illustrator 19.0.0, SVG Export Plug-In . SVG Version: 6.00 Build 0)  -->
<svg version="1.1" id="Capa_1" xmlns="http://www.w3.org/2000/svg" xmlns:xlink="http://www.w3.org/1999/xlink" x="0px" y="0px"
	 viewBox="0 0 370.805 370.805" style="enable-background:new 0 0 370.805 370.805;" xml:space="preserve">
<g>
	<g>
		<path d="M324.906,250.683c-9.866-2.513-20.205-2.513-30.071,0l-66.92-66.6l10.76-10.64c6.442-6.396,16.838-6.396,23.28,0
			c1.95,1.955,5.116,1.959,7.071,0.009c0.003-0.003,0.006-0.006,0.009-0.009l30.12-30.12c8.207-8.254,8.207-21.586,0-29.84
			l-96.4-96.4l-10.76-10.76c-8.245-8.229-21.595-8.229-29.84,0l-156,156c-8.097,8.13-8.221,21.238-0.28,29.52l0.4,0.16l10.76,10.76
			l96.4,96.36c8.254,8.207,21.586,8.207,29.84,0l30.16-30.12c1.955-1.95,1.959-5.116,0.009-7.071
			c-0.003-0.003-0.006-0.006-0.009-0.009c-6.396-6.442-6.396-16.838,0-23.28l10.72-10.72l66.68,66.76
			c-8.304,32.604,11.396,65.767,44,74.071s65.767-11.396,74.071-44S357.51,258.987,324.906,250.683z M13.435,184.923l-0.2-0.2
			c-4.105-4.375-4.017-11.213,0.2-15.48l156-156c4.346-4.29,11.334-4.29,15.68,0l7.24,7.24l-171.76,171.68L13.435,184.923z
			 M180.555,217.443l-14.2,14.2c-8.939,8.989-10.279,23.043-3.2,33.56l-26.92,26.92c-4.337,4.312-11.343,4.312-15.68,0l-50-50
			l32.4-32c2.064-1.835,2.25-4.995,0.415-7.059c-1.835-2.064-4.995-2.25-7.059-0.415c-0.139,0.124-0.272,0.255-0.396,0.394
			l-32.44,32l-35.72-35.72l171.48-171.64l35.84,35.88l-32.4,32c-2.064,1.835-2.25,4.995-0.415,7.059
			c1.835,2.064,4.995,2.25,7.059,0.415c0.139-0.124,0.271-0.255,0.396-0.394l32.44-32l49.88,49.84c4.312,4.337,4.312,11.343,0,15.68
			l-26.92,26.92c-10.517-7.079-24.571-5.739-33.56,3.2l-14.12,14.24L180.555,217.443z M359.157,322.084
			c-6.77,27.272-34.368,43.893-61.64,37.122c-18.295-4.542-32.58-18.827-37.122-37.122c-2.229-9.036-1.952-18.509,0.8-27.4
			c0.543-1.768,0.066-3.691-1.24-5l-68.8-68.8l29.68-29.68l68.8,68.8c1.405,1.405,3.51,1.845,5.36,1.12
			c8.789-2.646,18.129-2.881,27.04-0.68C349.308,267.214,365.928,294.811,359.157,322.084z"/>
	</g>
</g>
<g>
	<g>
		<path d="M183.515,128.524c-15.181-15.167-39.779-15.167-54.96,0c-15.167,15.181-15.167,39.779,0,54.96l-0.04,0.04
			c15.188,15.188,39.812,15.188,55,0C198.703,168.336,198.703,143.711,183.515,128.524z M176.395,176.324
			c-11.267,11.267-29.533,11.267-40.8,0c-11.267-11.259-11.273-29.519-0.014-40.786c0.005-0.005,0.009-0.009,0.014-0.014
			c11.259-11.267,29.519-11.273,40.786-0.014c0.005,0.005,0.009,0.009,0.014,0.014C187.662,146.79,187.662,165.057,176.395,176.324z
			"/>
	</g>
</g>
<g>
	<g>
		<path d="M331.206,288.494c-0.004-0.004-0.007-0.007-0.011-0.011c-11.686-11.693-30.601-11.818-42.44-0.28l-0.28,0.28
			c-11.797,11.791-11.802,30.912-0.011,42.709c0.004,0.004,0.007,0.007,0.011,0.011c11.791,11.797,30.912,11.802,42.709,0.011
			c0.004-0.004,0.007-0.007,0.011-0.011C342.992,319.413,342.997,300.291,331.206,288.494z M324.392,323.846
			c-0.091,0.093-0.184,0.186-0.277,0.277c-7.734,7.887-20.396,8.011-28.283,0.277c-0.093-0.091-0.186-0.184-0.277-0.277
			c-7.887-7.734-8.011-20.396-0.277-28.283c0.091-0.093,0.184-0.186,0.277-0.277l0.2-0.24c7.938-7.664,20.552-7.557,28.36,0.24
			C332.002,303.297,332.126,315.96,324.392,323.846z"/>
	</g>
</g>
<g>
</g>
<g>
</g>
<g>
</g>
<g>
</g>
<g>
</g>
<g>
</g>
<g>
</g>
<g>
</g>
<g>
</g>
<g>
</g>
<g>
</g>
<g>
</g>
<g>
</g>
<g>
</g>
<g>
</g>
</svg>
