<?xml version="1.0" encoding="iso-8859-1"?>
<!-- Generator: Adobe Illustrator 19.0.0, SVG Export Plug-In . SVG Version: 6.00 Build 0)  -->
<svg version="1.1" id="Capa_1" xmlns="http://www.w3.org/2000/svg" xmlns:xlink="http://www.w3.org/1999/xlink" x="0px" y="0px"
	 viewBox="0 0 369.144 369.144" style="enable-background:new 0 0 369.144 369.144;" xml:space="preserve">
<g>
	<g>
		<path d="M65.395,169.436c-0.367-0.395-0.749-0.776-1.143-1.144v-0.04c-8.999-9.028-23.612-9.051-32.64-0.052
			c-9.028,8.999-9.051,23.612-0.052,32.64c0.017,0.018,0.035,0.035,0.052,0.052c8.686,9.329,23.29,9.85,32.619,1.164
			C73.56,193.369,74.081,178.765,65.395,169.436z M57.172,193.812c-5.103,5.082-13.36,5.064-18.441-0.039
			c-5.082-5.103-5.064-13.36,0.039-18.441c5.088-5.067,13.315-5.067,18.403,0C62.268,180.438,62.268,188.706,57.172,193.812z"/>
	</g>
</g>
<g>
	<g>
		<path d="M224.212,144.972c-10.513-10.512-24.774-16.412-39.64-16.4c-30.928,0.024-55.98,25.116-55.956,56.044
			s25.116,55.98,56.044,55.956c30.928-0.024,55.98-25.116,55.956-56.044C240.604,169.69,234.705,155.464,224.212,144.972z
			 M217.132,217.132v0.04c-17.977,17.982-47.128,17.987-65.11,0.01c-17.982-17.977-17.987-47.128-0.01-65.11
			s47.128-17.987,65.11-0.01c8.625,8.622,13.476,20.315,13.49,32.51C230.632,196.787,225.781,208.506,217.132,217.132z"/>
	</g>
</g>
<g>
	<g>
		<path d="M346.132,142.972l0.36-0.24l-67.8-42.72l-66.8-42.08c-16.202-10.699-37.163-10.933-53.6-0.6l-67.84,42.68l-66.92,42.16
			c-6.499,4.024-11.976,9.501-16,16c-14.429,23.065-7.511,53.453,15.48,68l67.44,42.96l66.8,42.08
			c16.202,10.699,37.163,10.933,53.6,0.6l67.84-42.68l66.92-42.16c6.499-4.024,11.976-9.501,16-16
			C376.041,187.907,369.123,157.519,346.132,142.972z M353.692,205.292v-0.04l-0.4,0.6c-3.233,5.054-7.585,9.297-12.72,12.4
			l-0.36,0.24l-66.84,42.08l-67.8,42.8c-13.111,8.251-29.838,8.064-42.76-0.48h-0.24l-66.8-42.32l-67.48-42.4l-0.6-0.4
			c-18.105-11.626-23.551-35.617-12.24-53.92l0.4-0.6c3.231-5.056,7.583-9.299,12.72-12.4l0.36-0.24l66.84-42.04l67.8-42.8
			c13.108-8.262,29.841-8.074,42.76,0.48h0.24l66.8,42.32l67.48,42.4l0.6,0.4C359.557,162.998,365.003,186.989,353.692,205.292z"/>
	</g>
</g>
<g>
	<g>
		<path d="M239.532,129.612c-14.562-14.597-34.341-22.788-54.96-22.76c-42.946-0.005-77.764,34.805-77.769,77.751
			c-0.005,42.946,34.805,77.764,77.751,77.769s77.764-34.805,77.769-77.751C262.325,163.987,254.127,144.198,239.532,129.612z
			 M232.572,232.572c-26.537,26.355-69.415,26.207-95.77-0.33c-26.355-26.537-26.207-69.415,0.33-95.77
			c26.537-26.355,69.415-26.207,95.77,0.33c12.611,12.699,19.683,29.873,19.67,47.77
			C252.581,202.601,245.38,219.884,232.572,232.572z"/>
	</g>
</g>
<g>
	<g>
		<path d="M338.675,169.436c-0.367-0.395-0.749-0.776-1.143-1.144v-0.04c-8.998-9.029-23.611-9.055-32.64-0.057
			s-9.055,23.611-0.057,32.64c0.019,0.019,0.038,0.038,0.057,0.057c8.686,9.329,23.29,9.85,32.619,1.163
			C346.84,193.369,347.361,178.765,338.675,169.436z M330.452,193.812c-5.103,5.082-13.36,5.064-18.441-0.039
			c-5.082-5.103-5.064-13.36,0.039-18.441c5.088-5.067,13.315-5.067,18.403,0C335.548,180.438,335.548,188.706,330.452,193.812z"/>
	</g>
</g>
<g>
</g>
<g>
</g>
<g>
</g>
<g>
</g>
<g>
</g>
<g>
</g>
<g>
</g>
<g>
</g>
<g>
</g>
<g>
</g>
<g>
</g>
<g>
</g>
<g>
</g>
<g>
</g>
<g>
</g>
</svg>
