<?xml version="1.0" encoding="iso-8859-1"?>
<!-- Generator: Adobe Illustrator 19.0.0, SVG Export Plug-In . SVG Version: 6.00 Build 0)  -->
<svg version="1.1" id="Capa_1" xmlns="http://www.w3.org/2000/svg" xmlns:xlink="http://www.w3.org/1999/xlink" x="0px" y="0px"
	 viewBox="0 0 370.715 370.715" style="enable-background:new 0 0 370.715 370.715;" xml:space="preserve">
<g>
	<g>
		<g>
			<path d="M62.627,132.982c-0.007,0-0.013-0.001-0.02-0.001c-0.007,0-0.013,0.001-0.02,0.001H62.627z"/>
			<path d="M126.945,48.262c-7.906-7.839-20.653-7.839-28.559,0l-50.12,50.12l-0.28,0.32c-7.754,8.052-7.513,20.865,0.538,28.619
				c3.782,3.642,8.832,5.671,14.082,5.66c5.368,0.026,10.521-2.107,14.3-5.919l50.16-50.12
				C134.953,68.989,134.899,56.149,126.945,48.262z M119.986,69.862l-50.12,50.12c-4.15,3.875-10.655,3.652-14.53-0.497
				c-3.615-3.871-3.697-9.854-0.19-13.823h-0.04l0.2-0.2l50.16-50.12c4.21-3.809,10.711-3.484,14.52,0.725
				C123.53,59.983,123.53,65.947,119.986,69.862z"/>
		</g>
	</g>
</g>
<g>
	<g>
		<path d="M370.666,364.982l-8-56c-0.102-1.164-0.612-2.255-1.44-3.08l-18.76-18.76c-1.268-1.262-3.114-1.75-4.84-1.28l-18.2,4.8
			l4.8-17.92c0.576-1.792,0.096-3.755-1.24-5.08l-15.12-15.2c-1.95-1.955-5.116-1.959-7.071-0.009
			c-0.003,0.003-0.006,0.006-0.009,0.009l-3.68,3.68c-5.335,5.298-13.945,5.298-19.28,0c-5.298-5.335-5.298-13.945,0-19.28
			l3.68-3.68c1.955-1.95,1.959-5.116,0.009-7.071c-0.003-0.003-0.006-0.006-0.009-0.009l-72.6-72.64l14.24-14.24
			c12.622-12.673,12.622-33.167,0-45.84l-84-84c-12.677-12.494-33.047-12.458-45.68,0.08l-84,84
			c-12.622,12.673-12.622,33.167,0,45.84l84,84c12.673,12.622,33.167,12.622,45.84,0l14.16-14.4l152.32,152.32
			c0.768,0.764,1.766,1.256,2.84,1.4l56.28,8c0.504,0.077,1.016,0.077,1.52,0C369.152,370.23,371.047,367.709,370.666,364.982z
			 M149.986,198.302l-17.76,17.76c-8.766,8.705-22.914,8.705-31.68,0l-84-84c-8.705-8.766-8.705-22.914,0-31.68l0.16,0.16l84-84
			c8.766-8.705,22.914-8.705,31.68,0l84,84c8.705,8.766,8.705,22.914,0,31.68l-17.76,17.76L149.986,198.302z M311.586,352.982
			l-150.96-151.16l8-8l161.88,161.76L311.586,352.982z M346.986,357.902l-171.36-171.04l26.24-26.24l69,68.84
			c-9.215,9.242-9.215,24.198,0,33.44c9.242,9.215,24.198,9.215,33.44,0l9.6,9.6l-6.36,23.76c-0.718,2.666,0.861,5.41,3.527,6.129
			c0.863,0.232,1.772,0.229,2.633-0.009l23.76-6.2l15.56,15.56l6.88,48L346.986,357.902z"/>
	</g>
</g>
<g>
</g>
<g>
</g>
<g>
</g>
<g>
</g>
<g>
</g>
<g>
</g>
<g>
</g>
<g>
</g>
<g>
</g>
<g>
</g>
<g>
</g>
<g>
</g>
<g>
</g>
<g>
</g>
<g>
</g>
</svg>
