<?xml version="1.0" encoding="iso-8859-1"?>
<!-- Generator: Adobe Illustrator 19.0.0, SVG Export Plug-In . SVG Version: 6.00 Build 0)  -->
<svg version="1.1" id="Capa_1" xmlns="http://www.w3.org/2000/svg" xmlns:xlink="http://www.w3.org/1999/xlink" x="0px" y="0px"
	 viewBox="0 0 370.52 370.52" style="enable-background:new 0 0 370.52 370.52;" xml:space="preserve">
<g>
	<g>
		<path d="M327.2,184.32l-109.12-73.84l-0.04,0c-11.227-7.553-26.449-4.602-34.04,6.6c-7.553,11.227-4.602,26.449,6.6,34.04
			l109.2,73.8c11.209,7.534,26.398,4.603,34-6.56C341.353,207.133,338.402,191.911,327.2,184.32z M325.68,212.52l-0.24,0.32
			c-4.463,6.56-13.357,8.339-20,4l-0.24-0.4l-109-73.64c-6.56-4.463-8.339-13.357-4-20l0.2-0.32c4.463-6.56,13.357-8.339,20-4
			l0.36,0.24l108.92,73.84c3.173,2.151,5.36,5.475,6.08,9.24h0C328.492,205.508,327.746,209.355,325.68,212.52z"/>
	</g>
</g>
<g>
	<g>
		<path d="M359.12,165.52l-121.52-84c-0.893-0.726-2.009-1.121-3.16-1.12h-75.16V23.64C159.258,10.593,148.687,0.022,135.64,0H60.68
			C47.696,0.11,37.221,10.655,37.2,23.64v57.24c-16.031,2.474-27.895,16.219-28,32.44v224.24
			c0.044,18.185,14.775,32.916,32.96,32.96h286.2c18.185-0.044,32.916-14.775,32.96-32.96v-168
			C361.286,167.936,360.466,166.429,359.12,165.52z M47.12,23.64c0.044-7.493,6.107-13.556,13.6-13.6h74.92
			c7.493,0.044,13.556,6.107,13.6,13.6v30.92H47.08L47.12,23.64z M47.12,64.56H149.2v16H47.08L47.12,64.56z M328.4,360.6H42.04
			c-12.64-0.044-22.876-10.28-22.92-22.92V113.32c0.044-12.64,10.28-22.876,22.92-22.92h190.88l118.36,81.76l0.04,165.52
			C351.276,350.32,341.04,360.556,328.4,360.6z"/>
	</g>
</g>
<g>
</g>
<g>
</g>
<g>
</g>
<g>
</g>
<g>
</g>
<g>
</g>
<g>
</g>
<g>
</g>
<g>
</g>
<g>
</g>
<g>
</g>
<g>
</g>
<g>
</g>
<g>
</g>
<g>
</g>
</svg>
