<?xml version="1.0" encoding="iso-8859-1"?>
<!-- Generator: Adobe Illustrator 19.0.0, SVG Export Plug-In . SVG Version: 6.00 Build 0)  -->
<svg version="1.1" id="Capa_1" xmlns="http://www.w3.org/2000/svg" xmlns:xlink="http://www.w3.org/1999/xlink" x="0px" y="0px"
	 viewBox="0 0 370.377 370.377" style="enable-background:new 0 0 370.377 370.377;" xml:space="preserve">
<g>
	<g>
		<path d="M153.205,163.652c-1.771-4.131-5.13-7.375-9.32-9c-8.626-3.357-18.34,0.915-21.697,9.542
			c-3.357,8.626,0.916,18.34,9.542,21.697s18.34-0.915,21.697-9.542C155.021,172.251,154.941,167.691,153.205,163.652z
			 M143.965,172.812h-0.08c-0.668,1.676-1.979,3.016-3.64,3.72c-1.677,0.696-3.563,0.696-5.24,0c-1.676-0.668-3.016-1.979-3.72-3.64
			c-0.696-1.677-0.696-3.563,0-5.24c0.668-1.676,1.979-3.016,3.64-3.72c1.677-0.696,3.563-0.696,5.24,0
			C143.662,165.339,145.361,169.31,143.965,172.812z"/>
	</g>
</g>
<g>
	<g>
		<path d="M368.885,251.212c0.066-0.464,0.066-0.936,0-1.4c-1.791-14.812-4.463-29.505-8-44c-7.425-30.705-17.668-60.659-30.6-89.48
			c-0.113-0.335-0.26-0.656-0.44-0.96c-7.311-16.605-16.277-32.432-26.76-47.24c-2.836-3.828-5.909-7.475-9.2-10.92
			c-17.13-17.655-38.422-30.721-61.92-38c-24.34-7.759-50.139-9.812-75.4-6c-22.48,3.48-62.48,17.36-95.04,34.96
			c-25.4,13.8-46.6,30.04-52.32,45.92c-7.16,19.12-9.84,43.56-9.08,70.12c1.193,30.563,5.658,60.909,13.32,90.52h0
			c2.16,8.52,86.24,45.68,171.08,72.84c56.96,18.24,114.6,32.48,148,31.4c10.92-0.36,14.56-12,17.56-21.48
			c0.64-2.538,1.538-5.005,2.68-7.36c1.009-0.739,1.971-1.54,2.88-2.4C369.565,314.452,372.685,285.612,368.885,251.212z
			 M351.005,208.012l0-0.04c3.13,12.814,5.613,25.777,7.44,38.84c-16,1.68-57.72-0.28-103.12-7.2c-34.84-5.32-71.56-13.56-100-25.32
			c-26.12-10.84-42.44-24.76-48.4-37.68c-2.301-4.562-2.91-9.791-1.72-14.76c1.505-4.882,4.769-9.03,9.16-11.64
			c12-8,34.4-11.36,67.6-6.44c30.08,4.48,120.64-15.6,140.72-20.2C334.593,150.829,344.07,179.086,351.005,208.012z
			 M340.605,334.532v-0.04c-2.04,6.48-4.56,14.4-8.32,14.52c-32.24,1.04-88.68-13-144.76-30.96
			c-82.12-26.28-162.84-59.56-164.4-65.76c-1.56-6.2-3.04-12.56-4.36-18.84c168,74.04,292.36,93,323.2,96.8
			C341.525,331.612,341.205,333.212,340.605,334.532z M348.845,320.692l-0.52,0.48c-17.52-1.84-149.36-17.96-332-99.48
			c-3.568-18.999-5.694-38.24-6.36-57.56c-0.76-25.56,1.92-48.56,8.52-66.64l0,0c4.84-13.28,24.24-27.76,47.76-40.44
			c31.6-17.08,70.2-30.52,91.8-33.84c23.741-3.666,48.008-1.819,70.92,5.4c21.885,6.77,41.718,18.929,57.68,35.36
			c2.963,3.146,5.728,6.473,8.28,9.96c9.037,12.69,16.858,26.203,23.36,40.36c-23.24,5.28-107.48,23.68-135,19.6
			c-35.8-5.32-60.56-1.16-74.52,8c-6.466,3.932-11.231,10.138-13.36,17.4c-1.759,7.24-0.88,14.87,2.48,21.52
			c6.96,15.04,24.96,30.88,53.64,42.72c29.36,12,66.88,20.6,102.36,26c45.64,6.96,88.28,8.88,105.76,7.16
			C362.565,286.052,359.925,309.932,348.845,320.692z"/>
	</g>
</g>
<g>
</g>
<g>
</g>
<g>
</g>
<g>
</g>
<g>
</g>
<g>
</g>
<g>
</g>
<g>
</g>
<g>
</g>
<g>
</g>
<g>
</g>
<g>
</g>
<g>
</g>
<g>
</g>
<g>
</g>
</svg>
