<?xml version="1.0" encoding="iso-8859-1"?>
<!-- Generator: Adobe Illustrator 19.0.0, SVG Export Plug-In . SVG Version: 6.00 Build 0)  -->
<svg version="1.1" id="Capa_1" xmlns="http://www.w3.org/2000/svg" xmlns:xlink="http://www.w3.org/1999/xlink" x="0px" y="0px"
	 viewBox="0 0 406.316 406.316" style="enable-background:new 0 0 406.316 406.316;" xml:space="preserve">
<g>
	<g>
		<path d="M396.116,127.561h-0.84l-29.28-0.52v-0.4v-0.4l21.08-20.64c4.272-4.292,4.272-11.228,0-15.52l-24.72-25.28
			c-4.292-4.272-11.228-4.272-15.52,0l-21.28,20.64h-0.4h-0.4l0.32-29.48c0.044-6.06-4.82-11.014-10.88-11.08l-35.36-0.36
			c-5.932-0.07-10.842,4.593-11.08,10.52l-0.48,29.44h-0.4h-0.4l-20.36-20.8l-0.32-0.32c-4.124-3.955-10.59-4.094-14.88-0.32
			l-0.44,0.4l-25.24,24.72c-4.272,4.292-4.272,11.228,0,15.52l20.6,21.04v0.4v0.4l-29.48-0.32c-6.06-0.044-11.014,4.82-11.08,10.88
			l-0.36,35.36c-0.139,5.926,4.442,10.897,10.36,11.24l29.44,0.32v0.4v0.4l-21.08,20.64c-4.272,4.292-4.272,11.228,0,15.52
			l24.72,25.28c4.292,4.272,11.228,4.272,15.52,0l21.04-20.6h0.4h0.4l-0.32,29.48c-0.044,6.06,4.82,11.014,10.88,11.08l35.36,0.36
			c6.016,0.181,11.06-4.507,11.32-10.52l0.32-29.32h0.4h0.4l20.36,20.8l0.32,0.32c4.097,4.137,10.708,4.365,15.08,0.52l0.48-0.4
			l25.24-24.72c4.272-4.292,4.272-11.228,0-15.52l-20.6-21.04v-0.4v-0.4l29.48,0.32c6.053,0.066,11.013-4.786,11.08-10.839
			c0-0.014,0-0.027,0-0.041l0.36-34.88c0,0,0-0.36,0-0.56l0.44-0.32C406.351,132.777,401.885,127.961,396.116,127.561z
			 M395.596,138.96l-0.32,34.92l-33.16-0.36c-2.324-0.013-4.392,1.473-5.12,3.68c-0.373,1.013-0.813,2.107-1.32,3.28
			c-0.48,1.12-1,2.24-1.52,3.32c-1.029,2.102-0.575,4.627,1.12,6.24l23.08,23.6l-25.64,25.4l-0.24-0.24l-22.96-23.44
			c-1.655-1.692-4.224-2.099-6.32-1l-3.12,1.36l-3.44,1.28c-2.249,0.76-3.73,2.908-3.64,5.28l-0.76,32.76h-35.64l0.36-33.16
			c0.013-2.324-1.473-4.392-3.68-5.12l-3.52-1.72l-3.32-1.52c-2.102-1.029-4.627-0.575-6.24,1.12l-23.6,23.08l-24.72-25.28
			l23.4-23.56c1.692-1.655,2.099-4.224,1-6.32c-0.453-0.96-0.907-2-1.36-3.12c-0.453-1.12-0.88-2.267-1.28-3.44
			c-0.76-2.249-2.908-3.729-5.28-3.64l-33.08-0.36l0.36-35.36l33.16,0.36c2.267,0.019,4.302-1.39,5.08-3.52
			c0.4-1.12,0.84-2.28,1.36-3.44c0.52-1.16,1-2.24,1.52-3.32c1.029-2.102,0.575-4.627-1.12-6.24l-23.08-23.6l25.44-25.84l0.24,0.24
			l23.36,23.76c1.655,1.692,4.224,2.099,6.32,1l3.12-1.36l3.44-1.28c2.249-0.76,3.73-2.908,3.64-5.28l0.36-33.08l35.36,0.36
			l-0.36,33.2c-0.013,2.324,1.473,4.392,3.68,5.12l3.28,1.32l3.32,1.52c2.102,1.029,4.627,0.575,6.24-1.12l23.6-23.08l25.68,25.4
			l-23.72,23.2c-1.679,1.664-2.069,4.232-0.96,6.32c0.44,0.96,0.88,2,1.32,3.12s0.88,2.32,1.28,3.44
			c0.76,2.249,2.908,3.729,5.28,3.64l32.96,0.36l0.16,0.72C395.596,138.561,395.596,138.84,395.596,138.96z"/>
	</g>
</g>
<g>
	<g>
		<path d="M327.956,123.76l-0.32-0.36c-17.488-17.814-46.106-18.077-63.92-0.589s-18.077,46.106-0.589,63.92
			c17.347,17.67,45.682,18.093,63.549,0.949l0.36-0.32C344.709,169.99,345.119,141.634,327.956,123.76z M319.476,179.76h0.16
			l-0.2,0.2c-13.674,13.285-35.528,12.97-48.814-0.704c-13.285-13.674-12.97-35.528,0.704-48.814
			c13.632-13.245,35.406-12.978,48.71,0.597l0.2,0.2C333.332,144.885,332.993,166.533,319.476,179.76z"/>
	</g>
</g>
<g>
	<g>
		<path d="M173.636,283.6l-20-9.32l20.52-7.52h0.28c5.11-1.894,7.736-7.556,5.88-12.68l-0.24-0.04l-9.76-26.72
			c-1.86-5.121-7.515-7.769-12.64-5.92l-20.76,7.6l9.32-20c2.268-4.96,0.106-10.821-4.84-13.12l-25.84-12
			c-4.96-2.268-10.821-0.106-13.12,4.84l-9.32,20l-7.52-20.52v-0.28c-1.894-5.11-7.556-7.736-12.68-5.88l-26.8,9.8
			c-5.121,1.86-7.769,7.515-5.92,12.64l7.6,20.76l-20-9.32c-2.378-1.106-5.097-1.221-7.56-0.32c-2.459,0.902-4.458,2.744-5.56,5.12
			l-12,25.84c-2.376,4.912-0.32,10.82,4.592,13.196c0.003,0.001,0.005,0.003,0.008,0.004l20,9.32l-20.52,7.52h-0.28
			c-5.11,1.894-7.736,7.556-5.88,12.68l9.8,26.72c1.8,5.151,7.435,7.868,12.586,6.068c0.099-0.034,0.197-0.07,0.294-0.108l20.76-7.6
			l-9.32,20c-1.11,2.377-1.225,5.098-0.32,7.56c0.906,2.456,2.746,4.455,5.12,5.56l25.48,12l0.8,0.36
			c4.681,1.86,10.014-0.083,12.4-4.52c0.156-0.255,0.29-0.523,0.4-0.8l9.16-19.72l7.52,20.24v0.28
			c1.894,5.11,7.556,7.736,12.68,5.88l26.48-9.68h0.28c5.053-1.845,7.715-7.381,6-12.48l-7.6-20.76l19.72,9.16l0.8,0.36
			c4.754,1.847,10.133-0.211,12.44-4.76c0.156-0.255,0.29-0.522,0.4-0.8l12-25.52C180.743,291.76,178.581,285.9,173.636,283.6z
			 M156.956,317.04l-23.48-10.88c-2.135-0.99-4.667-0.47-6.24,1.28l-1.92,1.84l-2.16,1.92c-1.753,1.44-2.409,3.826-1.64,5.96
			l8.88,24.32l-25.2,9.56l-8.88-24.28c-0.743-2.325-2.963-3.854-5.4-3.72h-2.64h-2.88c-2.272-0.229-4.44,1.008-5.4,3.08
			l-10.88,23.44l-24.28-11.28l10.88-23.48c0.99-2.135,0.47-4.667-1.28-6.24l-1.88-1.92c-0.72-0.773-1.36-1.493-1.92-2.16
			c-1.44-1.753-3.826-2.409-5.96-1.64l-24.32,8.88l-9.08-25.28l24-8.88c2.231-0.81,3.663-2.991,3.52-5.36c0-0.84,0-1.72,0-2.64
			c0-0.92,0-1.92,0.2-2.88c0.229-2.272-1.008-4.44-3.08-5.4l-23.44-10.88l11.28-24.28l23.52,10.84c2.135,0.99,4.667,0.47,6.24-1.28
			l1.92-1.88l2.16-1.92c1.75-1.423,2.421-3.79,1.68-5.92l-8.88-24.32l25.16-9.2l8.88,24.28c0.81,2.231,2.991,3.663,5.36,3.52h2.64
			l2.88,0.2c2.272,0.229,4.44-1.008,5.4-3.08l10.88-23.44l24.28,11.28l-10.88,23.48c-1.004,2.211-0.397,4.82,1.48,6.36l1.88,1.92
			c0.72,0.8,1.36,1.52,1.92,2.16c1.44,1.753,3.826,2.409,5.96,1.64l24.32-8.88l9.2,25.16l-24.32,8.8
			c-2.172,0.793-3.591,2.889-3.52,5.2c0,0.827,0,1.707,0,2.64c0,0.92,0,1.84-0.2,2.8c-0.229,2.272,1.008,4.44,3.08,5.4l23.44,10.88
			L156.956,317.04z"/>
	</g>
</g>
<g>
	<g>
		<path d="M125.734,259.091c-0.006-0.017-0.012-0.034-0.018-0.051l-0.08-0.2c-7.095-19.415-28.582-29.406-48-22.32
			c-19.415,7.095-29.406,28.582-22.32,48c7.015,19.345,28.328,29.403,47.72,22.52h0.24
			C122.718,300.001,132.773,278.534,125.734,259.091z M114.676,283.04v-0.2c-2.943,6.337-8.258,11.265-14.8,13.72l-0.6,0.24
			c-13.654,4.786-28.637-2.164-33.8-15.68c-0.063-0.245-0.143-0.486-0.24-0.72c-4.786-13.654,2.164-28.637,15.68-33.8l0.72-0.24
			c13.662-4.663,28.557,2.369,33.64,15.88l0.24,0.6C117.896,269.423,117.595,276.678,114.676,283.04z"/>
	</g>
</g>
<g>
</g>
<g>
</g>
<g>
</g>
<g>
</g>
<g>
</g>
<g>
</g>
<g>
</g>
<g>
</g>
<g>
</g>
<g>
</g>
<g>
</g>
<g>
</g>
<g>
</g>
<g>
</g>
<g>
</g>
</svg>
