<?xml version="1.0" encoding="iso-8859-1"?>
<!-- Generator: Adobe Illustrator 19.0.0, SVG Export Plug-In . SVG Version: 6.00 Build 0)  -->
<svg version="1.1" id="Capa_1" xmlns="http://www.w3.org/2000/svg" xmlns:xlink="http://www.w3.org/1999/xlink" x="0px" y="0px"
	 viewBox="0 0 370.451 370.451" style="enable-background:new 0 0 370.451 370.451;" xml:space="preserve">
<g>
	<g>
		<path d="M282.563,168.962c-0.173-1.366-0.901-2.601-2.014-3.413l-168-121.84c-2.232-1.625-5.36-1.133-6.985,1.099
			c-0.005,0.007-0.01,0.014-0.015,0.021l-19.76,27.2c-1.625,2.232-1.133,5.36,1.099,6.985c0.007,0.005,0.014,0.01,0.021,0.015
			l142.04,103.04c1.144,0.856,2.602,1.177,4,0.88l45.28-8.4C280.969,174.203,282.909,171.702,282.563,168.962z M233.069,172.709
			l-136.2-98.88l13.88-19.12l154.32,112L233.069,172.709z"/>
	</g>
</g>
<g>
	<g>
		<path d="M331.429,217.99l0.04-0.24c-6.002-9.795-13.648-18.482-22.6-25.68l12.76-17.56c5.695-7.951,3.909-19.007-4-24.76
			L115.989,3.35c-7.958-5.722-19.045-3.934-24.8,4l-14.52,20l-19.32-14.08c-6.258-4.54-15.013-3.148-19.553,3.111
			c-0.002,0.003-0.005,0.006-0.007,0.01l-10.68,14.72c-4.524,6.245-3.147,14.972,3.08,19.52c6.245,4.524,14.972,3.147,19.52-3.08
			l2.48-3.4l8,5.84l-14.52,20c-5.722,7.958-3.934,19.045,4,24.8l201.64,146.48c7.958,5.722,19.045,3.934,24.8-4l12.56-17.32
			c27.831,23.539,31.31,65.183,7.771,93.014c-21.278,25.157-57.85,30.768-85.691,13.146c2.526-7.075,0.18-14.972-5.8-19.52
			l-0.52-0.36c-7.679-5.337-18.215-3.56-23.72,4l-14.72,20.32c-5.458,7.574-3.878,18.119,3.56,23.76l0.48,0.36
			c6.253,4.335,14.608,4.059,20.56-0.68c46.342,30.407,108.56,17.489,138.967-28.853
			C350.792,292.771,351.521,251.077,331.429,217.99z M54.029,33.269c-2.232-1.625-5.36-1.133-6.985,1.099
			c-0.005,0.007-0.01,0.014-0.015,0.021l-5.24,6.88l-0.24,0.36c-1.291,1.611-3.596,1.975-5.32,0.84l-0.28-0.2
			c-1.679-1.329-2.014-3.744-0.76-5.48l10.68-14.72c1.325-1.767,3.833-2.125,5.6-0.8l19.36,14.04l-4.68,6.44L54.029,33.269z
			 M267.989,231.35c-2.516,3.444-7.339,4.212-10.8,1.72L55.509,86.67c-3.444-2.516-4.212-7.339-1.72-10.8l28-38.44l17.48-24
			c2.516-3.444,7.339-4.212,10.8-1.72l201.52,146l0.36,0.28c3.245,2.52,3.965,7.132,1.64,10.52l-0.24,0.36L267.989,231.35z
			 M185.909,344.43l-0.2,0.28c-2.319,3.203-6.795,3.92-9.998,1.601c-0.001,0-0.001-0.001-0.002-0.001
			c-3.203-2.319-3.92-6.795-1.601-9.998c0,0,0.001-0.001,0.001-0.002l14.72-20.28c2.317-3.179,6.764-3.893,9.96-1.6
			c3.179,2.317,3.893,6.764,1.6,9.96l-0.24,0.32L185.909,344.43z M225.087,358.123c-9.936-2.379-19.397-6.428-27.978-11.974
			l8.4-11.6c35.567,22.288,82.468,11.523,104.756-24.045c20.181-32.206,13.469-74.369-15.716-98.715l8.4-11.6
			c26.936,21.941,38.922,57.372,30.84,91.16l0.12,0C322.298,339.839,273.577,369.735,225.087,358.123z"/>
	</g>
</g>
<g>
</g>
<g>
</g>
<g>
</g>
<g>
</g>
<g>
</g>
<g>
</g>
<g>
</g>
<g>
</g>
<g>
</g>
<g>
</g>
<g>
</g>
<g>
</g>
<g>
</g>
<g>
</g>
<g>
</g>
</svg>
