<?xml version="1.0" encoding="iso-8859-1"?>
<!-- Generator: Adobe Illustrator 19.0.0, SVG Export Plug-In . SVG Version: 6.00 Build 0)  -->
<svg version="1.1" id="Capa_1" xmlns="http://www.w3.org/2000/svg" xmlns:xlink="http://www.w3.org/1999/xlink" x="0px" y="0px"
	 viewBox="0 0 370.57 370.57" style="enable-background:new 0 0 370.57 370.57;" xml:space="preserve">
<g>
	<g>
		<path d="M213.32,300.361c-4.416-4.48-10.429-7.027-16.72-7.08c-13.254-0.167-24.134,10.441-24.301,23.695
			c-0.167,13.254,10.441,24.134,23.695,24.301c13.254,0.167,24.134-10.441,24.301-23.695
			C220.377,311.137,217.863,304.932,213.32,300.361z M206.36,326.961v-0.12c-5.366,5.412-14.104,5.45-19.516,0.084
			s-5.45-14.104-0.084-19.516c5.366-5.412,14.104-5.45,19.516-0.084c2.603,2.581,4.072,6.091,4.084,9.756
			C210.408,320.777,208.967,324.338,206.36,326.961z"/>
	</g>
</g>
<g>
	<g>
		<path d="M72.043,152.883c-2.904-2.732-6.735-4.263-10.723-4.282c-8.704,0.004-15.756,7.064-15.752,15.768
			c0.002,4.165,1.653,8.16,4.592,11.112c6.154,6.149,16.126,6.149,22.28,0l0.28-0.32C78.685,168.822,78.382,158.848,72.043,152.883z
			 M65.64,168.241h-0.32c-2.232,2.154-5.768,2.154-8,0c-2.168-2.298-2.063-5.918,0.234-8.086c2.297-2.168,5.918-2.063,8.086,0.234
			C67.72,162.593,67.72,166.037,65.64,168.241z"/>
	</g>
</g>
<g>
	<g>
		<path d="M244.8,148.401c-26.602-26.51-69.657-26.435-96.166,0.167c-26.51,26.602-26.435,69.657,0.167,96.166
			c26.602,26.51,69.657,26.435,96.166-0.167c12.742-12.787,19.877-30.115,19.833-48.166
			C264.756,178.383,257.563,161.119,244.8,148.401z M237.72,237.681c-22.707,22.688-59.506,22.673-82.194-0.034
			c-22.688-22.707-22.673-59.506,0.034-82.194s59.506-22.673,82.194,0.034c10.888,10.897,17.004,25.67,17.006,41.074
			C254.779,211.989,248.646,226.788,237.72,237.681z"/>
	</g>
</g>
<g>
	<g>
		<path d="M172.09,44.966c-6.217-5.937-16.045-5.797-22.09,0.314c-6.149,6.154-6.149,16.126,0,22.28l0.32,0.2
			c6.294,6.012,16.271,5.782,22.282-0.512C178.614,60.954,178.384,50.978,172.09,44.966z M164.932,60.561
			c-2.204,2.08-5.648,2.08-7.852,0c-2.154-2.232-2.154-5.768,0-8v-0.32c2.297-2.168,5.918-2.063,8.086,0.234
			C167.334,54.772,167.229,58.392,164.932,60.561z"/>
	</g>
</g>
<g>
	<g>
		<path d="M302.922,269.203c-1.221-1.569-2.633-2.981-4.202-4.202c-9.342-9.2-24.338-9.2-33.68,0c-9.2,9.342-9.2,24.338,0,33.68
			c8.14,10.461,23.219,12.342,33.68,4.202S311.062,279.664,302.922,269.203z M291.644,291.597c-0.001,0.001-0.003,0.003-0.004,0.004
			c-5.388,5.39-14.126,5.392-19.516,0.004c-0.001-0.001-0.003-0.003-0.004-0.004c-5.39-5.388-5.392-14.126-0.004-19.516
			c0.001-0.001,0.003-0.003,0.004-0.004c5.388-5.39,14.126-5.392,19.516-0.004c0.001,0.001,0.003,0.003,0.004,0.004
			C297.03,277.469,297.032,286.206,291.644,291.597z"/>
	</g>
</g>
<g>
	<g>
		<path d="M370.497,191.575C367.851,99.408,293.767,25.307,201.6,22.641V5.001c0-2.761-2.239-5-5-5
			C88.036,0.001,0.022,87.997,0,196.561c0,2.761,2.239,5,5,5h17.64c2.757,96.058,82.863,171.693,178.921,168.936
			S373.254,287.633,370.497,191.575z M10.08,191.561c2.665-99.119,82.4-178.837,181.52-181.48v93.2
			c-47.66,2.548-85.732,40.62-88.28,88.28H10.08z M360.629,201.465c-1.25,41.834-18.447,81.608-48.069,111.175v-0.12
			c-63.986,64.105-167.826,64.202-231.931,0.215C51.007,283.169,33.81,243.395,32.56,201.561h75.64
			c2.761,0.066,5.052-2.118,5.119-4.879c0.001-0.04,0.001-0.081,0.001-0.121c0.066-45.967,37.313-83.214,83.28-83.28
			c2.761,0,5-2.239,5-5v-75.64C292.134,35.346,363.334,110.931,360.629,201.465z"/>
	</g>
</g>
<g>
	<g>
		<path d="M282.002,87.081c-13.255-0.034-24.027,10.684-24.061,23.939c-0.016,6.42,2.541,12.58,7.099,17.101
			c4.465,4.466,10.525,6.97,16.84,6.96c13.255,0.034,24.027-10.684,24.061-23.939C305.975,97.887,295.257,87.114,282.002,87.081z
			 M291.72,120.953c-5.366,5.412-14.104,5.45-19.516,0.084c-2.603-2.581-4.072-6.091-4.084-9.756c-0.016-3.656,1.423-7.167,4-9.76
			c5.366-5.412,14.104-5.45,19.516-0.084C297.048,106.803,297.086,115.54,291.72,120.953z"/>
	</g>
</g>
<g>
	<g>
		<path d="M317.381,172.622c-6.42-0.016-12.58,2.541-17.101,7.099c-4.466,4.465-6.97,10.525-6.96,16.84
			c-0.034,13.255,10.684,24.027,23.939,24.061c13.255,0.034,24.027-10.684,24.061-23.939
			C341.354,183.428,330.636,172.655,317.381,172.622z M326.96,206.233c-5.366,5.412-14.104,5.45-19.516,0.084
			c-2.603-2.581-4.072-6.091-4.084-9.756c0.016-3.673,1.499-7.187,4.12-9.76h-0.12c5.366-5.412,14.104-5.45,19.516-0.084
			S332.326,200.82,326.96,206.233z"/>
	</g>
</g>
<g>
	<g>
		<path d="M128.16,265.001c-4.465-4.466-10.525-6.97-16.84-6.96c-13.255-0.034-24.027,10.684-24.061,23.939
			c-0.034,13.255,10.684,24.027,23.939,24.061c13.255,0.034,24.027-10.684,24.061-23.939
			C135.275,275.681,132.718,269.522,128.16,265.001z M121.08,291.601c-5.366,5.412-14.104,5.45-19.516,0.084
			s-5.45-14.104-0.084-19.516s14.104-5.45,19.516-0.084c2.603,2.581,4.072,6.091,4.084,9.756
			C125.096,285.496,123.657,289.008,121.08,291.601z"/>
	</g>
</g>
<g>
</g>
<g>
</g>
<g>
</g>
<g>
</g>
<g>
</g>
<g>
</g>
<g>
</g>
<g>
</g>
<g>
</g>
<g>
</g>
<g>
</g>
<g>
</g>
<g>
</g>
<g>
</g>
<g>
</g>
</svg>
