<?xml version="1.0" encoding="iso-8859-1"?>
<!-- Generator: Adobe Illustrator 19.0.0, SVG Export Plug-In . SVG Version: 6.00 Build 0)  -->
<svg version="1.1" id="Capa_1" xmlns="http://www.w3.org/2000/svg" xmlns:xlink="http://www.w3.org/1999/xlink" x="0px" y="0px"
	 viewBox="0 0 370.64 370.64" style="enable-background:new 0 0 370.64 370.64;" xml:space="preserve">
<g>
	<g>
		<path d="M284.329,241.295c-23.792-0.002-43.082,19.283-43.084,43.076c-0.001,11.416,4.529,22.366,12.596,30.444
			c8.072,8.103,19.042,12.652,30.48,12.64c23.792,0.002,43.082-19.283,43.084-43.076
			C327.407,260.587,308.121,241.298,284.329,241.295z M307.76,307.74c-12.914,12.923-33.859,12.931-46.782,0.018
			c-6.205-6.2-9.693-14.611-9.698-23.382c-0.018-8.778,3.466-17.2,9.68-23.4c12.914-12.923,33.859-12.931,46.782-0.018
			C320.666,273.871,320.674,294.816,307.76,307.74z"/>
	</g>
</g>
<g>
	<g>
		<path d="M336.76,185.295c0-21.6,8-34.52,16.28-47.36c8.8-13.96,17.6-28,17.6-51.64c-0.005-47.651-38.638-86.276-86.29-86.27
			c-47.644,0.005-86.265,38.627-86.27,86.27c0,23.76,8.76,37.68,17.6,51.64c8,12.84,16.28,25.76,16.28,47.36
			c0.099,12.904-3.302,25.594-9.84,36.72c-4.889,2.811-10.066,5.09-15.44,6.8c-6.912,2.087-14.1,3.112-21.32,3.04
			c-21.56,0-34.48-8-47.36-16.28c-13.96-8.8-28-17.6-51.64-17.6C38.731,197.909,0.066,236.466,0,284.095c0,0.08,0,0.16,0,0.24
			c-0.022,47.629,38.571,86.258,86.2,86.28c0.027,0,0.053,0,0.08,0h0.04c23.76,0,37.68-8.76,51.64-17.6
			c12.88-8,25.8-16.28,47.36-16.28c8.665-0.049,17.264,1.51,25.36,4.6c6.707,2.697,13.125,6.061,19.16,10.04
			c13.104,10.706,29.08,17.302,45.92,18.96h0.92h1h1.08h5.64c22.818,0.075,44.732-8.918,60.92-25
			c15.457-16.731,24.423-38.438,25.28-61.2c0-22.72-15.2-47.68-19.32-54.24C343.76,217.895,336.76,205.335,336.76,185.295z
			 M185.28,326.855c-24.48,0-38.64,8.92-52.68,17.8c-12.72,8-25.4,16-46.32,16c-42.119-0.044-76.24-34.201-76.24-76.32
			c0.022-42.119,34.161-76.258,76.28-76.28c20.92,0,33.6,8,46.32,16c14.08,8.88,28.24,17.8,52.68,17.8
			c8.225,0.064,16.412-1.122,24.28-3.52l3.12-1.04c-9.299,13.92-14.396,30.222-14.68,46.96c0.189,16.49,4.908,32.61,13.64,46.6
			C203.165,328.059,194.242,326.707,185.28,326.855z M338.32,338.295c-14.287,14.319-33.693,22.352-53.92,22.32h-1
			c-41.753-0.526-75.323-34.524-75.32-76.28c0-20.92,7.96-33.56,16-46.28v0c8.88-14.08,17.84-28.24,17.84-52.68
			s-8.96-38.6-17.84-52.68c-8-12.72-16-25.4-16-46.32c0-42.128,34.152-76.28,76.28-76.28s76.28,34.152,76.28,76.28
			c0,20.92-8,33.6-16,46.32c-8.88,14.08-17.84,28.28-17.84,52.68c0.111,18.026,5.798,35.575,16.28,50.24
			c7.16,10.64,17.56,30.92,17.56,48.76C359.883,304.438,351.965,323.567,338.32,338.295z"/>
	</g>
</g>
<g>
	<g>
		<path d="M129.32,284.375c0-23.755-19.245-43.018-43-43.04c-23.777-0.022-43.076,19.223-43.12,43
			c-0.012,11.438,4.537,22.408,12.64,30.48v0c8.072,8.103,19.042,12.652,30.48,12.64c23.748,0,43-19.252,43-43
			C129.32,284.429,129.32,284.402,129.32,284.375z M86.32,317.335c-18.198-0.066-32.934-14.802-33-33
			c0-18.27,14.81-33.08,33.08-33.08c18.26,0.022,33.058,14.82,33.08,33.08C119.414,302.596,104.581,317.357,86.32,317.335z"/>
	</g>
</g>
<g>
	<g>
		<path d="M284.329,43.175c-23.792-0.002-43.082,19.283-43.084,43.076c-0.001,11.416,4.529,22.366,12.596,30.444
			c8.072,8.103,19.042,12.652,30.48,12.64c23.792,0.002,43.082-19.283,43.084-43.076C327.407,62.467,308.121,43.178,284.329,43.175z
			 M307.76,109.7c-12.914,12.923-33.859,12.931-46.782,0.018c-6.205-6.2-9.693-14.611-9.698-23.382
			c-0.018-8.778,3.466-17.2,9.68-23.4c12.914-12.923,33.859-12.931,46.782-0.018C320.666,75.831,320.674,96.776,307.76,109.7z"/>
	</g>
</g>
<g>
</g>
<g>
</g>
<g>
</g>
<g>
</g>
<g>
</g>
<g>
</g>
<g>
</g>
<g>
</g>
<g>
</g>
<g>
</g>
<g>
</g>
<g>
</g>
<g>
</g>
<g>
</g>
<g>
</g>
</svg>
