<?xml version="1.0" encoding="iso-8859-1"?>
<!-- Generator: Adobe Illustrator 19.0.0, SVG Export Plug-In . SVG Version: 6.00 Build 0)  -->
<svg version="1.1" id="Capa_1" xmlns="http://www.w3.org/2000/svg" xmlns:xlink="http://www.w3.org/1999/xlink" x="0px" y="0px"
	 viewBox="0 0 370.68 370.68" style="enable-background:new 0 0 370.68 370.68;" xml:space="preserve">
<g>
	<g>
		<path d="M356.84,50.82h-0.04h-15.04V40.7c-0.022-6.066-4.934-10.978-11-11h-44c-6.066,0.022-10.978,4.934-11,11v10.12H94.92V40.7
			c-0.022-6.066-4.934-10.978-11-11h-44c-6.066,0.022-10.978,4.934-11,11v10.12H13.84C6.205,50.842,0.022,57.025,0,64.66v20.4
			c0.022,7.635,6.206,13.818,13.84,13.84h8.44v215c0.044,14.922,12.118,27.014,27.04,27.08h272
			c14.938-0.044,27.036-12.142,27.08-27.08v-215h8.44c7.634-0.022,13.818-6.206,13.84-13.84v-20.4
			C370.658,57.025,364.474,50.842,356.84,50.82z M285.72,40.7c0-0.552,0.448-1,1-1h44c0.552,0,1,0.448,1,1v10.12h-46V40.7z
			 M38.88,40.7c0-0.552,0.448-1,1-1h44c0.552,0,1,0.448,1,1v10.12h-46V40.7z M321.32,330.98h-272
			c-9.415-0.044-17.036-7.665-17.08-17.08v-215h306l0.04,215C338.237,323.268,330.688,330.871,321.32,330.98z M360.56,85.06
			c0,2.209-1.791,4-4,4H13.84c-2.209,0-4-1.791-4-4v-20.4c0-2.209,1.791-4,4-4h342.92c2.209,0,4,1.791,4,4L360.56,85.06z"/>
	</g>
</g>
<g>
	<g>
		<path d="M233.32,144.46c-0.007-1.806-0.505-3.575-1.44-5.12c-0.881-1.482-2.118-2.719-3.6-3.6c-1.565-0.917-3.346-1.4-5.16-1.4
			h-51.56c-4.398,0.002-8.3,2.824-9.68,7l-24,73.44c-0.422,1.126-0.638,2.318-0.64,3.52c0.016,4.165,2.543,7.908,6.4,9.48v0.08
			c1.209,0.481,2.499,0.726,3.8,0.72h9.88l-13.64,53.52c-1.502,4.624,0.497,9.663,4.76,12c1.52,0.835,3.226,1.275,4.96,1.28
			c2.942,0.012,5.738-1.276,7.64-3.52L228,214.22v-0.24c1.49-1.783,2.298-4.037,2.28-6.36c-0.016-1.375-0.301-2.734-0.84-4
			c-0.557-1.332-1.389-2.531-2.44-3.52c-1.813-1.733-4.212-2.719-6.72-2.76h-13.24l24.84-47.48
			C232.833,148.221,233.33,146.356,233.32,144.46z M223.24,144.9l-28.64,54.76c-1.502,2.317-0.842,5.413,1.475,6.915
			c0.811,0.526,1.758,0.805,2.725,0.805h21.56l-67.04,77.96c-0.027-0.132-0.027-0.268,0-0.4v-0.24l15.28-59.36
			c0.95-2.593-0.382-5.465-2.975-6.415c-0.559-0.205-1.15-0.308-1.745-0.305h-16.52l-0.12-0.28v-0.32l24-73.52h52
			C223.272,144.631,223.272,144.769,223.24,144.9z"/>
	</g>
</g>
<g>
</g>
<g>
</g>
<g>
</g>
<g>
</g>
<g>
</g>
<g>
</g>
<g>
</g>
<g>
</g>
<g>
</g>
<g>
</g>
<g>
</g>
<g>
</g>
<g>
</g>
<g>
</g>
<g>
</g>
</svg>
